<?xml version="1.0" encoding="utf-8"?>
<!-- Generator: Adobe Illustrator 24.2.3, SVG Export Plug-In . SVG Version: 6.00 Build 0)  -->
<svg version="1.1" xmlns="http://www.w3.org/2000/svg" xmlns:xlink="http://www.w3.org/1999/xlink" x="0px" y="0px"
	 viewBox="0 0 750 500" style="enable-background:new 0 0 750 500;" xml:space="preserve" width="100%">
<style type="text/css">
	.st0{display:none;}
	.st1{display:inline;fill:#DBB9D9;}
	.st2{fill:#FFFEFD;stroke:#1C191B;stroke-miterlimit:10;}
	.st3{fill:#5260AA;stroke:#000000;stroke-miterlimit:10;}
	.st4{fill:#FFFFFF;}
	.st5{fill:#FACFD8;stroke:#000000;stroke-miterlimit:10;}
	.st6{fill:#1C191B;}
	.st7{fill:#020202;}
	.st8{fill:#FFFEFD;}
	.st9{fill:none;stroke:#1C191B;stroke-miterlimit:10;}
	.st10{fill:#FF6766;}
	.st11{fill:#0C0C0C;}
	.st12{fill:#FF999A;}
	.st13{fill:#F47AB3;stroke:#1C191B;stroke-miterlimit:10;}
	.st14{fill:#FF3327;}
	.st15{fill:#FACFD8;}
	.st16{fill:none;stroke:#000000;stroke-miterlimit:10;}
	.st17{fill:#C4E2E7;stroke:#000000;stroke-miterlimit:10;}
	.st18{fill:#FFFFFF;stroke:#000000;stroke-miterlimit:10;}
	.st19{fill:#FF3327;stroke:#000000;stroke-miterlimit:10;}
	.st20{stroke:#000000;stroke-miterlimit:10;}
	.st21{fill:#F47AB3;}
	.st22{fill:none;stroke:#FFFFFF;stroke-miterlimit:10;}
	.st23{fill:#FF84B5;stroke:#F47AB3;stroke-miterlimit:10;}
	.st24{fill:#FFFFFF;stroke:#251F20;stroke-miterlimit:10;}
	.st25{fill:none;stroke:#251F20;stroke-miterlimit:10;}
	.st26{fill:#FF3327;stroke:#251F20;stroke-miterlimit:10;}
	.st27{fill:#C4E2E7;stroke:#251F20;stroke-miterlimit:10;}
	.st28{fill:none;stroke:#FFF597;stroke-miterlimit:10;}
	.st29{fill:#FFBDB5;}
	.st30{fill:#FF3327;stroke:#1C191B;stroke-miterlimit:10;}
	.st31{fill:#FFFEFD;stroke:#0C0C0C;stroke-miterlimit:10;}
	.st32{fill:#F47AB3;stroke:#000000;stroke-miterlimit:10;}
	.st33{fill:none;stroke:#F47AB3;stroke-miterlimit:10;}
	.st34{fill:#FADD5C;stroke:#000000;stroke-miterlimit:10;}
	.st35{fill:#FFFFFF;stroke:#1C191B;stroke-miterlimit:10;}
	.st36{fill:#FACFD8;stroke:#1C191B;stroke-miterlimit:10;}
	.st37{fill:none;stroke:#5260AA;stroke-width:2;stroke-miterlimit:10;}
	.st38{fill:#FADD5C;stroke:#1C191B;stroke-miterlimit:10;}
	.st39{fill:#FADD5C;}
	.st40{fill:#FFFDFD;}
	.st41{fill:#5260AA;stroke:#1C191B;stroke-miterlimit:10;}
</style>
<g id="BACKGROUND" class="st0">
	<rect class="st1" width="750" height="500"/>
</g>
<g id="OBJECTS">
	<g>
		<g>
			<g>
				<g>
					<path class="st2" d="M352.85,137.81c0,0-15.35-12.59-20.06-18.14c-4.7-5.55-9.39-15.47-10.4-15.03c-1,0.44,2.44,7.42,2.44,7.42
						s-9.99-10.65-11.37-10.17c-1.38,0.48,5.63,8.43,5.63,8.43s-7.16-8.45-8-7.49c-0.84,0.96,5.83,8.51,5.83,8.51
						s-6.61-7.96-7.92-6.74c-1.3,1.22,5.83,7.69,5.83,7.69s-6.81-6.74-7.67-5.32c-0.86,1.42,22.12,30.48,35.52,38.18
						c0,0,3.39,2.86,5.64,2.11C350.58,146.49,355.23,140.06,352.85,137.81z"/>
					<path class="st2" d="M341.46,146.45c0.32,0.3,1.05,0.9,1.05,0.9s-9.33-1.54-9.54-4.8c-0.21-3.25,6.82-0.52,6.82-0.52
						s-4.72-4.41-2.73-5.88c1.99-1.47,5.14,2.53,5.14,2.53s-4.4-5.55-1.88-6.4c2.51-0.85,5.24,3.66,5.24,3.66s-4.62-5.89-2.52-6.93
						c2.1-1.04,4.69,4.42,4.69,4.42s-3.85-8.48-1.86-8.81c1.99-0.33,5.71,10.73,6.16,13.8
						C352.49,141.51,341.46,146.45,341.46,146.45z"/>
				</g>
				<g>
					<path class="st2" d="M456.98,112.33c0,0,3.57-19.53,3.57-26.81c0-7.28-2.83-17.87-1.78-18.19c1.05-0.31,2.94,7.24,2.94,7.24
						s0.73-14.58,2.1-15.11c1.36-0.52,1.15,10.07,1.15,10.07s0-11.08,1.26-10.89c1.26,0.19,1.05,10.26,1.05,10.26
						s-0.1-10.35,1.68-10.26c1.78,0.09,0.52,9.63,0.52,9.63s0.84-9.55,2.41-9.02c1.57,0.52,2.83,37.56-2.41,52.09
						c0,0-0.73,4.37-2.94,5.26C464.33,117.48,456.62,115.58,456.98,112.33z"/>
					<path class="st2" d="M455.3,114.54c0,0-3.99-10.39-1.26-11.54c2.73-1.15,3.04,7.32,3.04,7.32s0.63-4.31,2.2-3.98
						c1.57,0.33,0,5.27,0,5.27s1.89-6.92,3.57-6.29c1.68,0.63,0.73,6.19,0.73,6.19s2.31-6.02,3.99-5.16
						c1.68,0.86-0.63,5.99-0.63,5.99s2.73-6.39,4.2-5.55c1.47,0.84-1.05,6.72-1.05,6.72s2.68-5.55,5.17-4.14
						c2.49,1.41-3.38,8.35-4.43,9.81C469.78,120.63,456.91,119.7,455.3,114.54z"/>
				</g>
			</g>
			<g>
				<g>
					<path class="st3" d="M396.5,262.12c0,0-8.15-42.86-3.78-89.21c0,0-31.85-4.98-52.39-26.08l10.89-14.05
						c0,0,30.16,22.04,63.17,15.86c33.01-6.18,38.47-28.31,40.92-35.29l17,3.82c0,0-0.89,27.23-23.5,48.64
						c0,0,13.43,40.93,35.95,61.94c0,0-11.19,18.71-28.61,25.6C438.73,260.23,399.87,266.52,396.5,262.12z"/>
					<g>
						<path class="st4" d="M421.37,240.09c0,1.93-1.56,3.49-3.49,3.49c-1.93,0-3.49-1.56-3.49-3.49c0-1.93,1.56-3.49,3.49-3.49
							C419.81,236.6,421.37,238.16,421.37,240.09z"/>
						
							<ellipse transform="matrix(0.905 -0.4255 0.4255 0.905 -54.5336 204.931)" class="st4" cx="431.5" cy="224.55" rx="7.25" ry="7.25"/>
						<circle class="st4" cx="406.74" cy="220.78" r="4.73"/>
						<path class="st4" d="M400.75,236.85c0,0.93-0.75,1.68-1.68,1.68c-0.93,0-1.68-0.75-1.68-1.68c0-0.93,0.75-1.68,1.68-1.68
							C400,235.17,400.75,235.93,400.75,236.85z"/>
						<path class="st4" d="M465.05,219.67c0,2.69-2.18,4.87-4.87,4.87c-2.69,0-4.87-2.18-4.87-4.87c0-2.69,2.18-4.87,4.87-4.87
							C462.87,214.8,465.05,216.98,465.05,219.67z"/>
						<path class="st4" d="M446.76,200.44c0,1.64-1.33,2.97-2.97,2.97s-2.97-1.33-2.97-2.97c0-1.64,1.33-2.97,2.97-2.97
							S446.76,198.8,446.76,200.44z"/>
						<path class="st4" d="M414.39,196.59c0,2.67-2.16,4.83-4.83,4.83c-2.67,0-4.83-2.16-4.83-4.83c0-2.67,2.16-4.83,4.83-4.83
							C412.23,191.76,414.39,193.92,414.39,196.59z"/>
						
							<ellipse transform="matrix(0.9246 -0.3809 0.3809 0.9246 -36.8307 178.2334)" class="st4" cx="431.86" cy="182.16" rx="7.61" ry="7.61"/>
						<path class="st4" d="M440.86,155.79c0,1.81-1.46,3.27-3.27,3.27s-3.27-1.46-3.27-3.27c0-1.81,1.46-3.27,3.27-3.27
							S440.86,153.99,440.86,155.79z"/>
						<path class="st4" d="M410.79,167.34c0,1.67-1.36,3.03-3.03,3.03c-1.67,0-3.03-1.36-3.03-3.03c0-1.67,1.36-3.03,3.03-3.03
							C409.44,164.31,410.79,165.67,410.79,167.34z"/>
						<path class="st4" d="M373.02,161.29c0,1.67-1.36,3.03-3.03,3.03c-1.67,0-3.03-1.36-3.03-3.03c0-1.67,1.36-3.03,3.03-3.03
							C371.67,158.26,373.02,159.61,373.02,161.29z"/>
						<path class="st4" d="M392.52,156.53c0,3.23-2.62,5.86-5.86,5.86c-3.23,0-5.86-2.62-5.86-5.86c0-3.23,2.62-5.85,5.86-5.85
							C389.9,150.68,392.52,153.3,392.52,156.53z"/>
						<path class="st4" d="M462.44,141.58c0,1.74-1.41,3.15-3.15,3.15c-1.74,0-3.15-1.41-3.15-3.15c0-1.74,1.41-3.15,3.15-3.15
							C461.03,138.43,462.44,139.84,462.44,141.58z"/>
						<path class="st4" d="M465.8,124.42c0,2.9-2.35,5.25-5.25,5.25c-2.9,0-5.25-2.35-5.25-5.25c0-2.9,2.35-5.25,5.25-5.25
							C463.45,119.17,465.8,121.52,465.8,124.42z"/>
					</g>
					<path class="st2" d="M424.72,147.38c0.42,2.5-2.92,5.14-7.45,5.9c-4.53,0.76-8.55-0.65-8.97-3.15c-0.42-2.5,2.92-5.14,7.45-5.9
						C420.29,143.47,424.3,144.88,424.72,147.38z"/>
				</g>
				<path class="st5" d="M422.64,269.61c0,0-12.59,9.66-21.96,3.92c-9.37-5.74-3.92-21.99,16.51-25.27
					c20.42-3.28,27.98,3.72,38.61-2.72c10.63-6.43,22.38-21.47,28.96-17.8c6.57,3.67,1.82,15.67-6.85,23.52
					c-8.67,7.85-18.88,10.78-26.72,10.85C443.34,262.19,429.35,264.43,422.64,269.61z"/>
			</g>
			<g>
				<g>
					<path class="st6" d="M394.54,123.65c0,0-4.6,6.68-5.14,15.32c-0.21,3.28,2.89,9.12,15.63,7.06
						c12.74-2.06,25.98-5.01,29.59-7.72c3.61-2.71,4.05-7.58,1-11.65c-1.68-2.24-10.47-12.72-11.5-13.14
						C423.09,113.1,395.77,119.84,394.54,123.65z"/>
					<g>
						<g>
							
								<ellipse transform="matrix(0.9893 -0.1456 0.1456 0.9893 -13.298 63.6726)" class="st2" cx="428.34" cy="122.68" rx="4.17" ry="4.14"/>
							<g>
								<g>
									<path class="st7" d="M426.65,123.43c-0.01-0.03-0.01-0.07-0.02-0.1c0.02,0.13-0.01-0.12-0.01-0.16
										c-0.01-0.26,0-0.51,0.06-0.76c0.22-0.87,0.98-1.19,1.82-1.24c0.61-0.03,0.62-0.99,0-0.96c-1.17,0.07-2.25,0.54-2.66,1.7
										c-0.2,0.55-0.23,1.19-0.11,1.76C425.85,124.28,426.78,124.03,426.65,123.43L426.65,123.43z"/>
								</g>
							</g>
						</g>
						<g>
							<path class="st2" d="M391.57,128.75c0.33,2.26,2.45,3.82,4.73,3.49c2.28-0.33,3.86-2.44,3.53-4.7
								c-0.33-2.26-2.45-3.82-4.73-3.49C392.82,124.39,391.24,126.49,391.57,128.75z"/>
							<g>
								<g>
									<path class="st7" d="M398.49,128.36c-0.05-0.59-0.26-1.18-0.61-1.66c-0.72-1-1.9-1.15-3.03-0.88
										c-0.6,0.14-0.34,1.06,0.25,0.92c0.82-0.19,1.64-0.11,2.1,0.66c0.13,0.22,0.21,0.45,0.28,0.69
										c0.02,0.08,0.04,0.17,0.05,0.25c0.02,0.09-0.01-0.09,0,0.02C397.59,128.97,398.55,128.98,398.49,128.36L398.49,128.36z"/>
								</g>
							</g>
						</g>
					</g>
					<g>
						<path class="st2" d="M420.95,144.97c0.43,2.32-1.11,4.58-3.43,5.01l-1.8,0.34c-2.32,0.43-4.58-1.11-5.01-3.43l-1.63-8.69
							c-0.43-2.32,1.11-4.58,3.43-5.01l1.8-0.34c2.32-0.43,4.58,1.11,5.01,3.43L420.95,144.97z"/>
						<g>
							<path class="st8" d="M424.86,123.72c1.09,6.51-3.34,12.73-9.85,13.82l-2.33,0.39c-6.51,1.09-12.73-3.34-13.82-9.85
								l-1.8-10.77c-1.09-6.51,3.34-12.73,9.85-13.82l2.33-0.39c6.51-1.09,12.73,3.34,13.82,9.85L424.86,123.72z"/>
							<path class="st9" d="M424.86,123.72c1.09,6.51-3.34,12.73-9.85,13.82l-2.33,0.39c-6.51,1.09-12.73-3.34-13.82-9.85
								l-1.8-10.77c-1.09-6.51,3.34-12.73,9.85-13.82l2.33-0.39c6.51-1.09,12.73,3.34,13.82,9.85L424.86,123.72z"/>
						</g>
						<g>
							<polygon class="st10" points="410.39,117.88 409.96,124.08 413.07,123.49 							"/>
							<g>
								<path class="st11" d="M404.11,122.07c0.11,0.84-0.47,1.6-1.31,1.72c-0.84,0.11-1.6-0.47-1.72-1.31
									c-0.11-0.84,0.47-1.6,1.31-1.72C403.23,120.65,404,121.23,404.11,122.07z"/>
								<path class="st11" d="M419.79,117.92c0.11,0.84-0.47,1.6-1.31,1.72c-0.84,0.11-1.6-0.47-1.72-1.31
									c-0.11-0.84,0.47-1.6,1.31-1.72C418.91,116.5,419.68,117.09,419.79,117.92z"/>
							</g>
							<g>
								<path class="st12" d="M406.32,127.58c0.16,1.78-1.15,3.35-2.93,3.51c-1.78,0.16-3.35-1.15-3.51-2.93
									c-0.16-1.78,1.15-3.35,2.93-3.51C404.59,124.48,406.16,125.8,406.32,127.58z"/>
								<path class="st12" d="M423.6,123.56c0.16,1.78-1.15,3.35-2.93,3.51c-1.78,0.16-3.35-1.15-3.51-2.93
									c-0.16-1.78,1.15-3.35,2.93-3.51C421.87,120.46,423.44,121.78,423.6,123.56z"/>
							</g>
							<g>
								<g>
									<path class="st11" d="M410.52,129.48c1.47,2.03,5.68,1.17,5.81-1.49c0.03-0.67-1.01-0.67-1.04,0
										c-0.04,0.88-1,1.42-1.77,1.51c-0.54,0.06-1.15,0.02-1.64-0.23c-0.14-0.07-0.52-0.42-0.45-0.32
										C411.03,128.41,410.13,128.93,410.52,129.48L410.52,129.48z"/>
								</g>
							</g>
						</g>
					</g>
					<path class="st6" d="M393.42,124.86c0,0-5.37-3.64-5.84-11.09c-0.47-7.45,4.71-14.93,10.44-16.37
						c8.34-2.09,11.48,1.07,11.48,1.07s4.98-5.77,13.82-0.39c8.14,4.95,2.72,17.78,2.72,17.78l-2.37,0.65c0,0-1.54-9.11-7.91-8.77
						c-6.37,0.34-5.73,8.96-15.82,3.47c0,0,1.7,7.75-2.55,12.11L393.42,124.86z"/>
					<g>
						<path class="st13" d="M420.71,107.37c-1.33,1.25-2.84,1.81-3.38,1.24c-0.54-0.57,0.1-2.05,1.42-3.3
							c1.33-1.25,2.84-1.81,3.38-1.24C422.68,104.64,422.04,106.12,420.71,107.37z"/>
						<path class="st13" d="M423.47,110.45c-1.41,1.16-2.95,1.61-3.45,1.01c-0.5-0.61,0.24-2.04,1.65-3.2
							c1.41-1.16,2.95-1.61,3.45-1.01C425.62,107.86,424.88,109.29,423.47,110.45z"/>
					</g>
				</g>
				<g>
					<g>
						<path class="st14" d="M380.2,71.68l9.98,37.74c0,0,10.66-1.08,15.04-10.05L380.2,71.68z"/>
						<g>
							<path class="st15" d="M390.45,83.02c-2.55,0.77-4.88,1.15-6.91,1.28l0.27,1.03c2.18-0.16,4.69-0.58,7.41-1.45L390.45,83.02z"
								/>
							<path class="st15" d="M395.32,88.41c-3.94,1.42-7.44,1.85-10.2,1.86l0.28,1.05c2.92-0.04,6.58-0.54,10.68-2.07L395.32,88.41z
								"/>
							<path class="st15" d="M400.4,94.03c-5.22,2.54-9.89,3.27-13.41,3.32l0.28,1.04c3.68-0.08,8.5-0.9,13.86-3.55L400.4,94.03z"/>
							<path class="st15" d="M405.23,99.37l-0.45-0.5c-6.26,3.77-11.92,4.84-16.07,4.95l0.27,1.04c4.18-0.15,9.76-1.23,15.9-4.83
								C405,99.82,405.12,99.6,405.23,99.37z"/>
						</g>
						<path class="st16" d="M380.2,71.68l9.98,37.74c0,0,10.66-1.08,15.04-10.05L380.2,71.68z"/>
					</g>
					<polygon class="st17" points="380.37,62 381.36,66.98 384.55,63.03 383.29,67.95 387.87,65.77 384.6,69.66 389.68,69.69 
						385.05,71.76 389.61,74 384.53,73.86 387.67,77.85 383.16,75.52 384.26,80.48 381.2,76.42 380.04,81.36 379.05,76.39 
						375.86,80.34 377.12,75.42 372.54,77.59 375.81,73.71 370.73,73.68 375.36,71.6 370.8,69.37 375.88,69.51 372.74,65.52 
						377.25,67.85 376.15,62.89 379.21,66.95 					"/>
				</g>
			</g>
			<g>
				<g>
					<path class="st18" d="M431.83,247.41c-4.09-0.18-8.85-0.08-14.65,0.85c-2.84,0.46-5.38,1.17-7.64,2.06
						c0.2,2.07,0.39,4.42,0.5,6.56c0.28,5.46,1.54,18.6-6.71,20.61c-8.25,2.01-32.5,0-32.5,0l-2.09,9.85
						c10.88,6.2,43.26,10.53,55.01-1.99C432.9,275.6,432.47,255.75,431.83,247.41z"/>
					<g>
						<polygon class="st5" points="354.44,285.24 369.69,289.96 373.17,276.12 356.47,274.01 						"/>
						<g>
							<line class="st16" x1="356" y1="276.64" x2="368.75" y2="278.42"/>
							<line class="st16" x1="369.19" y1="275.61" x2="366.3" y2="288.91"/>
							<line class="st16" x1="355.7" y1="279.59" x2="367.98" y2="282.07"/>
							<line class="st16" x1="354.79" y1="282.7" x2="366.84" y2="285.83"/>
						</g>
					</g>
					<g>
						<polygon class="st18" points="356.16,288.91 360.46,269.4 341.79,267.4 336.12,305.49 348.29,292.06 						"/>
						<path class="st19" d="M345.14,277.69c0,0,6.71-7.97,8.81-5.56c2.1,2.41-3.36,5.56-3.36,5.56s4.62,3.15,2.41,5.25
							C350.81,285.03,345.14,277.69,345.14,277.69z"/>
						<g>
							<line class="st16" x1="347.56" y1="292.58" x2="347.03" y2="287.34"/>
							<line class="st16" x1="350.81" y1="291.22" x2="350.81" y2="286.6"/>
						</g>
					</g>
				</g>
				<g>
					<path class="st18" d="M477.54,328.15c0,0,8.81-31.26,9.65-46.16c0.78-13.92-4.48-34.5-17.32-47.55
						c-4.56,3.82-9.43,8.29-14.09,11.11c-2.5,1.51-4.83,2.28-7.2,2.61c7.86,7,21.21,21.22,20.76,36.7
						c-0.63,21.89-3.15,42.03-3.15,42.03L477.54,328.15z"/>
					<g>
						<polygon class="st5" points="474.58,342 478.77,326.59 464.81,323.59 463.29,340.35 						"/>
						<g>
							<line class="st16" x1="465.93" y1="340.73" x2="467.27" y2="327.93"/>
							<line class="st16" x1="464.45" y1="327.58" x2="477.84" y2="330.01"/>
							<line class="st16" x1="468.89" y1="340.93" x2="470.94" y2="328.57"/>
							<line class="st16" x1="472.02" y1="341.73" x2="474.74" y2="329.58"/>
						</g>
					</g>
					<g>
						<polygon class="st18" points="479.25,340.52 460.28,334.25 456.39,352.63 493.7,362.14 481.58,348.67 						"/>
						<path class="st19" d="M466.96,350.33c0,0-7.25-7.49-4.63-9.33c2.61-1.84,5.19,3.91,5.19,3.91s3.6-4.27,5.46-1.87
							C474.84,345.45,466.96,350.33,466.96,350.33z"/>
						<g>
							<line class="st16" x1="482.03" y1="349.45" x2="476.75" y2="349.44"/>
							<line class="st16" x1="481" y1="346.08" x2="476.41" y2="345.61"/>
						</g>
					</g>
				</g>
			</g>
		</g>
		<g>
			<g>
				<g>
					<path class="st16" d="M652.91,147.26c0,0,7.7-2.77,8.57-13.03"/>
					<path class="st16" d="M661.09,146.82c0,0,3.23-3.33,3.39-6.52"/>
				</g>
				<g>
					<path class="st16" d="M556.45,108.2c0,0-9.19,52.84,18.02,52.46c27.21-0.38,15.27-21.82,8.17-16.79
						c-7.1,5.04-12.85,31.89,6.39,34.83c19.24,2.94,23.49-3.78,27.24-7.34c3.75-3.57,21.18-10.7,18.86,2.94
						c-2.31,13.64,12.17,19.93,20.98,20.77c0,0,10.7-0.63,15.11,9.02"/>
					<g>
						<g>
							<circle cx="518.85" cy="58.65" r="12.87"/>
							<circle cx="582.08" cy="57.45" r="12.87"/>
						</g>
						<g>
							<ellipse class="st18" cx="550.96" cy="80.91" rx="39.55" ry="30.11"/>
						</g>
						<g>
							<g>
								<path d="M547.88,84.77c-0.61,3.1-0.11,9.93,4.41,9.93c4.52,0,5.02-6.83,4.41-9.93c-0.15-0.76-1.32-0.44-1.17,0.32
									c0.44,2.23,0.32,8.4-3.24,8.4c-3.57,0-3.69-6.16-3.24-8.4C549.2,84.33,548.03,84.01,547.88,84.77L547.88,84.77z"/>
							</g>
							<g>
								<path class="st20" d="M555.97,76.19c0,1.43-1.63,2.59-3.64,2.59c-2.01,0-3.64-1.16-3.64-2.59c0-1.43,1.63-2.59,3.64-2.59
									C554.34,73.6,555.97,74.76,555.97,76.19z"/>
								<g>
									<path class="st20" d="M551.72,77.61c0,1.91,0,3.81,0,5.72c0,0.78,1.21,0.78,1.21,0c0-1.91,0-3.81,0-5.72
										C552.93,76.83,551.72,76.83,551.72,77.61L551.72,77.61z"/>
								</g>
							</g>
							<g>
								<ellipse class="st21" cx="579.09" cy="85.52" rx="7.7" ry="3.97"/>
								<path class="st21" d="M530.89,85.05c0.07,2.19-3.32,4.18-7.57,4.44c-4.25,0.26-7.75-1.31-7.81-3.5
									c-0.07-2.19,3.32-4.18,7.57-4.44C527.33,81.29,530.83,82.86,530.89,85.05z"/>
							</g>
							<g>
								<ellipse transform="matrix(0.2288 -0.9735 0.9735 0.2288 371.482 618.1227)" cx="575.86" cy="74.6" rx="9.73" ry="9.73"/>
								<ellipse transform="matrix(0.6276 -0.7785 0.7785 0.6276 137.1063 438.2133)" cx="526.62" cy="75.79" rx="9.73" ry="9.73"/>
							</g>
							<g>
								<path class="st22" d="M522.63,72.99c-0.06,0.39-0.09,0.79-0.09,1.2c0,3.23,1.83,5.86,4.09,5.86c2.26,0,4.09-2.62,4.09-5.86
									c0-0.41-0.03-0.82-0.09-1.2"/>
								<path class="st22" d="M572.66,72.26c-0.06,0.39-0.09,0.79-0.09,1.2c0,3.23,1.83,5.86,4.09,5.86s4.09-2.62,4.09-5.86
									c0-0.41-0.03-0.82-0.09-1.2"/>
							</g>
						</g>
					</g>
				</g>
				<g>
					<path class="st16" d="M614.38,145.84c0,0-18.98,6.13-14.78,22.91c4.2,16.79,25.74,2.1,33.99,6.29
						c8.25,4.2,14.69,14.97,5.04,31.61c-9.65,16.65-6.16,31.05,9.37,37.49"/>
					<g>
						<g>
							<path class="st17" d="M600.81,103.59c0,0-10.57-16.26-15.45-15.29c-4.89,0.97-6.43,28.52-3.86,27.04
								C584.08,113.85,600.81,103.59,600.81,103.59z"/>
							<path class="st17" d="M627.62,103.59c0,0,10.57-16.26,15.45-15.29c4.89,0.97,6.43,28.52,3.86,27.04
								C644.36,113.85,627.62,103.59,627.62,103.59z"/>
						</g>
						<g>
							<ellipse class="st17" cx="614.38" cy="120.45" rx="36.49" ry="27.78"/>
						</g>
						<g>
							<path d="M637.89,112.55c0,1.28-1.04,2.32-2.32,2.32s-2.32-1.04-2.32-2.32c0-1.28,1.04-2.32,2.32-2.32
								S637.89,111.27,637.89,112.55z"/>
							<g>
								<path d="M626.74,117.62c0,0.48-0.39,0.86-0.86,0.86c-0.48,0-0.86-0.39-0.86-0.86c0-0.48,0.39-0.86,0.86-0.86
									C626.35,116.76,626.74,117.15,626.74,117.62z"/>
								<circle cx="626.02" cy="120.91" r="0.86"/>
								<path d="M629.45,118.99c0,0.48-0.39,0.86-0.86,0.86c-0.48,0-0.86-0.39-0.86-0.86c0-0.48,0.39-0.86,0.86-0.86
									C629.06,118.12,629.45,118.51,629.45,118.99z"/>
							</g>
							<g>
								<path d="M603.53,118.4c0,0.48,0.39,0.86,0.86,0.86c0.48,0,0.86-0.39,0.86-0.86c0-0.48-0.39-0.86-0.86-0.86
									C603.91,117.54,603.53,117.93,603.53,118.4z"/>
								<path d="M603.38,121.68c0,0.48,0.39,0.86,0.86,0.86c0.48,0,0.86-0.39,0.86-0.86s-0.39-0.86-0.86-0.86
									C603.77,120.82,603.38,121.21,603.38,121.68z"/>
								<path d="M600.81,119.77c0,0.48,0.39,0.86,0.86,0.86s0.86-0.39,0.86-0.86c0-0.48-0.39-0.86-0.86-0.86
									S600.81,119.29,600.81,119.77z"/>
							</g>
							<path d="M594.81,113.07c0,1.28-1.04,2.32-2.32,2.32c-1.28,0-2.32-1.04-2.32-2.32s1.04-2.32,2.32-2.32
								C593.77,110.74,594.81,111.78,594.81,113.07z"/>
							<g>
								<path d="M611.53,124.02c-0.57,2.86-0.1,9.16,4.07,9.16c4.17,0,4.63-6.3,4.07-9.16c-0.14-0.7-1.21-0.41-1.08,0.3
									c0.41,2.05,0.3,7.75-2.99,7.75c-3.29,0-3.4-5.68-2.99-7.75C612.75,123.61,611.67,123.31,611.53,124.02L611.53,124.02z"/>
							</g>
							<g>
								<path class="st23" d="M618.99,116.1c0,1.32-1.5,2.39-3.36,2.39c-1.85,0-3.36-1.07-3.36-2.39c0-1.32,1.5-2.39,3.36-2.39
									C617.49,113.71,618.99,114.78,618.99,116.1z"/>
								<g>
									<path class="st23" d="M615.08,117.41c0,1.76,0,3.52,0,5.28c0,0.72,1.12,0.72,1.12,0c0-1.76,0-3.52,0-5.28
										C616.19,116.69,615.08,116.69,615.08,117.41L615.08,117.41z"/>
								</g>
							</g>
						</g>
						<g>
							<path class="st18" d="M600.37,94.8v6.48c0,1.96,1.36,3.57,3.01,3.57s3.01-1.61,3.01-3.57v-7.93
								C604.31,93.7,602.3,94.19,600.37,94.8z"/>
							<path class="st18" d="M614.38,92.68c-0.47,0-0.94,0.01-1.41,0.03v6.86c0,1.96,1.36,3.57,3.01,3.57
								c1.66,0,3.01-1.61,3.01-3.57V92.9C617.48,92.76,615.94,92.68,614.38,92.68z"/>
							<path class="st18" d="M623.87,93.63v5.93c0,1.96,1.36,3.57,3.01,3.57s3.01-1.61,3.01-3.57v-4.25
								C627.97,94.62,625.96,94.06,623.87,93.63z"/>
							<path class="st18" d="M641.81,119.76c-0.2,1.64,1.23,3.19,3.18,3.42l5.6,0.68c0.18-1.12,0.28-2.25,0.28-3.41
								c0-0.89-0.06-1.78-0.17-2.65l-4.98-0.61C643.77,116.96,642.01,118.11,641.81,119.76z"/>
							<path class="st18" d="M647.42,132.25l-5.62-4c-1.6-1.14-3.7-0.97-4.66,0.38c-0.96,1.35-0.44,3.39,1.16,4.53l5.39,3.84
								C645.14,135.52,646.38,133.93,647.42,132.25z"/>
							<path class="st18" d="M631.06,137.87c-0.98-1.7-2.96-2.41-4.39-1.59c-1.44,0.83-1.81,2.9-0.82,4.6l2.94,5.1
								c1.97-0.65,3.85-1.42,5.62-2.31L631.06,137.87z"/>
							<path class="st18" d="M614.38,138.95c-1.66,0-3.01,1.61-3.01,3.57v5.61c0.99,0.06,2,0.1,3.01,0.1c1.02,0,2.02-0.04,3.01-0.1
								v-5.61C617.39,140.56,616.03,138.95,614.38,138.95z"/>
							<path class="st18" d="M599.31,135.25c-1.6-0.44-3.33,0.76-3.85,2.65l-1.52,5.57c1.76,0.91,3.64,1.7,5.6,2.36l1.73-6.35
								C601.8,137.59,600.91,135.69,599.31,135.25z"/>
							<path class="st18" d="M586.28,130.36l-3.71,3.71c1.17,1.58,2.54,3.07,4.08,4.44l3.89-3.89c1.39-1.39,1.57-3.48,0.39-4.66
								C589.76,128.79,587.66,128.97,586.28,130.36z"/>
							<path class="st18" d="M585.56,119c-0.73-1.49-2.77-2-4.53-1.13l-3.11,1.53c-0.02,0.35-0.03,0.7-0.03,1.05
								c0,1.83,0.24,3.61,0.68,5.35l5.12-2.52C585.45,122.42,586.29,120.49,585.56,119z"/>
						</g>
					</g>
				</g>
				<path class="st18" d="M635.48,165.56c0,0-7.78,10.06-7.69,12.23c0.09,2.17,7.71-6.13,7.71-6.13s-6.28,6.28-5.94,7.22
					c0.34,0.94,1.59,0.81,7.67-4.79c0,0-5.78,5.76-5.22,7.09c0.56,1.33,7.57-4.8,7.57-4.8s-5.53,5.54-4.67,6.31
					c0.86,0.78,5.27-2.67,6.84-5.13s-0.32-2.88-0.94-3.53C639.1,172.24,637.08,164.41,635.48,165.56z"/>
			</g>
			<g>
				<g>
					<g>
						<g>
							<polygon class="st24" points="510.97,427.96 506.46,442.87 497.64,440.75 502.1,423.54 							"/>
							<g>
								<line class="st25" x1="499.44" y1="441.68" x2="504.3" y2="424.72"/>
								<line class="st24" x1="501.87" y1="441.93" x2="506.45" y2="426.61"/>
								<line class="st24" x1="504.3" y1="442.87" x2="508.76" y2="427.5"/>
							</g>
						</g>
						<g>
							<polygon class="st24" points="491.42,438.17 509.6,442.84 507.26,461.25 471.75,462.01 487.53,448.52 							"/>
							<path class="st26" d="M498.01,454.15c-1.95-1.3-2.47-3.94-1.17-5.89c1.3-1.95,3.94-2.47,5.89-1.17
								c1.95,1.3,2.47,3.94,1.17,5.89C502.6,454.93,499.96,455.46,498.01,454.15z"/>
							<g>
								<line class="st25" x1="484.27" y1="451.8" x2="487.51" y2="454.84"/>
								<line class="st25" x1="481.73" y1="453.55" x2="485.67" y2="456.97"/>
							</g>
						</g>
						<g>
							<path class="st17" d="M499.44,421.94c0,0,10.86-85.15,22.07-118.74l36.6,3.09l3.62,0.97c0,0-24.08,54.28-31.15,71.46
								c-7.36,17.89-15.91,46.01-15.91,46.01L499.44,421.94z"/>
							<path class="st16" d="M517.71,316.93c0,0,13.01,4.2,16.09-11.75"/>
							<g>
								<path class="st4" d="M495.99,425.44c-0.2,1.08,0.53,2.13,1.61,2.32l17.96,3.24c1.08,0.2,2.13-0.53,2.32-1.61l0.75-4.16
									c0.2-1.08-0.53-2.13-1.61-2.32l-17.96-3.24c-1.08-0.2-2.13,0.53-2.32,1.61L495.99,425.44z"/>
								<path class="st9" d="M495.99,425.44c-0.2,1.08,0.53,2.13,1.61,2.32l17.96,3.24c1.08,0.2,2.13-0.53,2.32-1.61l0.75-4.16
									c0.2-1.08-0.53-2.13-1.61-2.32l-17.96-3.24c-1.08-0.2-2.13,0.53-2.32,1.61L495.99,425.44z"/>
							</g>
						</g>
					</g>
					<g>
						<g>
							<polygon class="st24" points="615.29,349.83 627.72,340.46 633.59,347.38 619.83,358.64 							"/>
							<g>
								<line class="st25" x1="632.69" y1="345.56" x2="618.75" y2="356.38"/>
								<line class="st24" x1="630.87" y1="343.93" x2="618.14" y2="353.59"/>
								<line class="st24" x1="629.46" y1="341.73" x2="616.8" y2="351.51"/>
							</g>
						</g>
						<g>
							<polygon class="st24" points="637.09,353.12 625.17,338.63 637.92,325.15 667.03,345.48 646.33,347.06 							"/>
							<path class="st26" d="M641.2,336.33c0.81,2.2-0.33,4.64-2.53,5.44c-2.2,0.81-4.64-0.33-5.45-2.53
								c-0.8-2.2,0.33-4.64,2.53-5.45C637.96,333,640.39,334.13,641.2,336.33z"/>
							<g>
								<line class="st25" x1="650.9" y1="346.34" x2="650.08" y2="341.97"/>
								<line class="st25" x1="653.98" y1="346.42" x2="652.82" y2="341.34"/>
							</g>
						</g>
						<g>
							<path class="st27" d="M540.11,321.43h4.44c0,0,4.97,58.96,28.68,63.37c23.71,4.41,46.61-26.16,46.61-26.16l-7.79-9.09
								c0,0-18.88,13.78-22.66,9.09c-3.78-4.68-12.38-27.14-13.85-57.77l-34.04,2.62"/>
							<path class="st16" d="M561.84,302.48c0,0-2.8,23.36,16.23,21.96"/>
							<g>
								<path class="st4" d="M608.82,346.25c-0.85,0.7-0.97,1.97-0.26,2.82l11.64,14.05c0.7,0.85,1.97,0.97,2.82,0.26l3.26-2.7
									c0.85-0.7,0.97-1.97,0.26-2.82l-11.64-14.05c-0.7-0.85-1.97-0.97-2.82-0.26L608.82,346.25z"/>
								<path class="st9" d="M608.82,346.25c-0.85,0.7-0.97,1.97-0.26,2.82l11.64,14.05c0.7,0.85,1.97,0.97,2.82,0.26l3.26-2.7
									c0.85-0.7,0.97-1.97,0.26-2.82l-11.64-14.05c-0.7-0.85-1.97-0.97-2.82-0.26L608.82,346.25z"/>
							</g>
						</g>
					</g>
					<g>
						<path class="st18" d="M616.66,196.27c0,0,5.56-6.61,7.66-11.96c2.1-5.35,3.88-21.3,4.93-21.51c1.05-0.21,1.58,6.64,1.3,10
							c-0.28,3.36,8.37,6.88,8.37,6.88s-2.01,9.77-9.66,20.68C621.59,211.27,616.66,196.27,616.66,196.27z"/>
						<g>
							<path class="st18" d="M495.13,162.15c0,0,0.18-11.88-1.58-15.65c-1.76-3.78-3.05,6.11-2.68,11.32
								C491.25,163.03,494.61,163.94,495.13,162.15z"/>
							<g>
								<line class="st18" x1="495.22" y1="129.66" x2="494.17" y2="159.79"/>
								<g>
									<line class="st28" x1="500.35" y1="138.61" x2="489.98" y2="119.77"/>
									<line class="st28" x1="498.25" y1="121.28" x2="491.55" y2="138.79"/>
									<line class="st28" x1="501.84" y1="132.42" x2="485.89" y2="125.23"/>
									<line class="st28" x1="503.36" y1="124.84" x2="487.36" y2="134.1"/>
									<line class="st28" x1="487.17" y1="130.52" x2="483.5" y2="132.11"/>
									<line class="st28" x1="503.62" y1="139.62" x2="506.67" y2="144.45"/>
									<line class="st28" x1="488.12" y1="138.43" x2="482.94" y2="144.54"/>
									<path class="st28" d="M488.17,122.13c-0.14-0.14-3.55-3.38-3.55-3.38"/>
									<line class="st28" x1="510.94" y1="129.21" x2="502.16" y2="129.45"/>
									<line class="st28" x1="512.37" y1="118.42" x2="510.08" y2="119.92"/>
									<line class="st28" x1="505.92" y1="116.3" x2="501.75" y2="121.81"/>
									<line class="st28" x1="493.93" y1="120.41" x2="492.24" y2="112.33"/>
									<line class="st28" x1="485.77" y1="127.89" x2="475.26" y2="128.34"/>
								</g>
							</g>
							<g>
								<path class="st18" d="M499.98,175.29c0,0-0.77-21.18-3.45-25.83c-2.68-4.66-2.17,11.98-2.17,11.98l-8.73,3.07
									c0,0-0.53,1,0.42,4.64c0.96,3.64,3.22,10.84,3.22,10.84S499.47,179.23,499.98,175.29z"/>
								<path class="st18" d="M491.3,160.01c0,0,5,6.53,5.84,5.44c0.85-1.09-5.14-10.58-6.56-10.42c-1.42,0.16-4.26,3.14-5.49,4.8
									c-1.23,1.65-1.57,3.59-0.3,5.38c1.27,1.79,8,5.59,8.82,5.12c0.65-0.38,1.57-1.02-4.86-7.04
									C488.76,163.29,503.6,176.48,491.3,160.01z"/>
							</g>
						</g>
					</g>
				</g>
				<g>
					<path class="st14" d="M523.92,254.29c0,0-33.57-38.66-34.83-73.99l11.12-4.28c0,0,21.22,50.15,41.77,59.38
						c20.55,9.23,36.22-1.85,50.62-15.51c14.41-13.66,27.56-29.6,27.56-29.6l11.47,8.11c0,0-16.79,35.53-48.4,57.91l-2.24,54
						c0,0-42.11,9.51-62.95-6.57L523.92,254.29z"/>
					<g>
						<path class="st29" d="M506.09,229.07c0.32,0.54,0.65,1.08,0.97,1.61v-40.15c-0.33-0.66-0.66-1.3-0.97-1.92V229.07z"/>
						<g>
							<path class="st29" d="M490.93,193.58c0.08,0.32,0.16,0.65,0.24,0.97h17.97c-0.17-0.32-0.34-0.65-0.51-0.97H490.93z"/>
						</g>
						<g>
							<path class="st29" d="M495.82,208.67c0.13,0.32,0.26,0.65,0.4,0.97h21.62c-0.2-0.32-0.41-0.64-0.61-0.97H495.82z"/>
							<path class="st29" d="M625.97,208.67h-22.19c-0.3,0.32-0.61,0.64-0.92,0.97h22.52C625.58,209.31,625.78,208.99,625.97,208.67
								z"/>
						</g>
						<g>
							<path class="st29" d="M517.14,245.67c0.33,0.45,0.65,0.88,0.97,1.3v-36.91c-0.33-0.51-0.65-1.02-0.97-1.54V245.67z"/>
							<path class="st29" d="M518.11,303.2l-0.06,0.54c0.02,0.02,0.04,0.03,0.06,0.05V303.2z"/>
						</g>
						<g>
							<path class="st29" d="M616.22,223.22h-27.23c-0.36,0.33-0.73,0.65-1.09,0.97h27.6C615.74,223.87,615.99,223.54,616.22,223.22
								z"/>
							<path class="st29" d="M527.6,223.22h-24.84c0.18,0.32,0.35,0.65,0.53,0.97h25.13C528.15,223.87,527.87,223.55,527.6,223.22z"
								/>
						</g>
						<path class="st29" d="M529.16,225.03c-0.32-0.36-0.65-0.74-0.97-1.11v85.28c0.32,0.12,0.64,0.24,0.97,0.35V225.03z"/>
						<path class="st29" d="M541.49,312.34c0.32,0.04,0.64,0.08,0.97,0.12v-76.85c-0.16-0.07-0.32-0.13-0.48-0.2
							c-0.16-0.07-0.32-0.15-0.48-0.23V312.34z"/>
						<g>
							<path class="st29" d="M544.95,236.6h-34.14c0.21,0.33,0.43,0.65,0.64,0.97h36.52C546.97,237.3,545.97,236.97,544.95,236.6z"
								/>
							<path class="st29" d="M605.24,236.6h-36.63c-0.98,0.37-1.98,0.69-2.98,0.97h38.73C604.66,237.24,604.95,236.92,605.24,236.6z
								"/>
						</g>
						<path class="st29" d="M593.4,248.26h-74.31c0.26,0.33,0.5,0.66,0.74,0.97h72.46C592.66,248.91,593.03,248.59,593.4,248.26z"/>
						<polygon class="st29" points="582.99,262.12 583.03,261.15 523.1,261.15 522.99,262.12 						"/>
						<polygon class="st29" points="582.47,274.5 582.51,273.53 521.63,273.53 521.52,274.5 						"/>
						<polygon class="st29" points="582,285.83 582.04,284.86 520.28,284.86 520.17,285.83 						"/>
						<polygon class="st29" points="581.55,296.79 581.59,295.82 518.98,295.82 518.87,296.79 						"/>
						<path class="st29" d="M581.12,307.26l0.04-0.97h-59.27c0.59,0.34,1.19,0.66,1.8,0.97H581.12z"/>
						<path class="st29" d="M559.87,312.96c0.32-0.02,0.65-0.03,0.97-0.05v-74.38c-0.32,0.04-0.64,0.09-0.97,0.12V312.96z"/>
						<path class="st29" d="M571.28,311.94c0.33-0.04,0.65-0.09,0.97-0.13v-76.76c-0.32,0.16-0.64,0.31-0.97,0.46V311.94z"/>
						<path class="st29" d="M585.4,254.73c0.32-0.24,0.65-0.48,0.97-0.72v-28.5c-0.32,0.27-0.64,0.54-0.97,0.81V254.73z"/>
						<path class="st29" d="M598.5,243.56c0.32-0.31,0.65-0.62,0.97-0.93v-29.49c-0.32,0.33-0.64,0.65-0.97,0.98V243.56z"/>
						<path class="st29" d="M612.12,228.55c0.33-0.41,0.65-0.82,0.97-1.22V198.5c-0.31,0.36-0.64,0.72-0.97,1.09V228.55z"/>
					</g>
					<line class="st16" x1="553.43" y1="238.61" x2="548.83" y2="312.98"/>
					<path class="st16" d="M523.92,254.29c0,0-33.57-38.66-34.83-73.99l11.12-4.28c0,0,21.22,50.15,41.77,59.38
						c20.55,9.23,36.22-1.85,50.62-15.51c14.41-13.66,27.56-29.6,27.56-29.6l11.47,8.11c0,0-16.79,35.53-48.4,57.91l-2.24,54
						c0,0-42.11,9.51-62.95-6.57L523.92,254.29z"/>
					<path class="st30" d="M552.38,244.22l-11.26,3.99c0,0-2.08-8.52-0.28-13.5l8.42-2.91l11.42,0.68l6.57,4.82
						c0,0,0.15,6.29-5.31,13.53L552.38,244.22z"/>
					<g>
						<path class="st19" d="M530.77,253.35v7.39c0,3.73,3.05,6.77,6.77,6.77h0.23c3.72,0,6.77-3.05,6.77-6.77v-7.39H530.77z"/>
						<line class="st16" x1="530.77" y1="257.25" x2="544.55" y2="257.25"/>
					</g>
					<path d="M500.89,180.74c0,0.94-0.76,1.7-1.7,1.7c-0.94,0-1.7-0.76-1.7-1.7c0-0.94,0.76-1.7,1.7-1.7
						C500.12,179.04,500.89,179.8,500.89,180.74z"/>
					<path d="M622.23,195.76c0,0.94-0.76,1.7-1.7,1.7c-0.94,0-1.7-0.76-1.7-1.7s0.76-1.7,1.7-1.7
						C621.46,194.06,622.23,194.82,622.23,195.76z"/>
					<path class="st16" d="M614,197.47c0,0,4.72,4.83,12.57,10.19"/>
					<path class="st16" d="M490.14,189.77c0,0,10.83-4.47,13.59-5.99"/>
				</g>
				<g>
					<g>
						<g>
							<g>
								<path class="st2" d="M578.84,217.48c-0.28,2.49-2.54,4.29-5.05,4.01c-2.51-0.28-4.32-2.53-4.05-5.02
									c0.28-2.49,2.54-4.29,5.05-4.01C577.31,212.74,579.12,214.99,578.84,217.48z"/>
								<g>
									<g>
										<path class="st7" d="M572.25,217.3c0.01-0.25,0.14-0.76,0.32-1.09c0.48-0.88,1.4-1.03,2.32-0.84
											c0.6,0.12,0.86-0.8,0.25-0.92c-1.23-0.25-2.5-0.06-3.25,1.04c-0.36,0.52-0.57,1.18-0.6,1.82
											C571.26,217.91,572.21,217.91,572.25,217.3L572.25,217.3z"/>
									</g>
								</g>
							</g>
							<g>
								<path class="st2" d="M533.58,213.19c-0.28,2.49,1.53,4.74,4.05,5.02c2.51,0.28,4.77-1.51,5.05-4.01
									c0.28-2.49-1.53-4.74-4.05-5.02C536.12,208.9,533.86,210.7,533.58,213.19z"/>
								<g>
									<g>
										<path class="st7" d="M540.99,214.69c0.11-0.63,0.06-1.31-0.17-1.9c-0.48-1.24-1.67-1.73-2.93-1.76
											c-0.62-0.01-0.62,0.94,0,0.96c0.94,0.02,1.81,0.34,2.09,1.3c0.08,0.27,0.11,0.56,0.11,0.84c0,0.09-0.01,0.18-0.02,0.27
											c-0.01,0.15,0-0.01,0,0.03C539.96,215.04,540.89,215.3,540.99,214.69L540.99,214.69z"/>
									</g>
								</g>
							</g>
						</g>
						<g>
							<path class="st2" d="M560.24,238.57c-0.18,2.59-2.45,4.55-5.04,4.37l-2-0.14c-2.59-0.18-4.55-2.45-4.37-5.04l0.69-9.67
								c0.18-2.59,2.45-4.55,5.04-4.37l2,0.14c2.59,0.18,4.55,2.45,4.37,5.04L560.24,238.57z"/>
							<g>
								<path class="st8" d="M570.2,218.27c-0.6,6.57-6.46,11.46-13.04,10.87l-4.9-0.45c-6.57-0.6-11.46-6.46-10.87-13.04
									l1.29-14.25c0.6-6.57,6.46-11.46,13.04-10.87l4.9,0.45c6.57,0.6,11.46,6.46,10.87,13.04L570.2,218.27z"/>
								<path class="st9" d="M570.2,218.27c-0.6,6.57-6.46,11.46-13.04,10.87l-4.9-0.45c-6.57-0.6-11.46-6.46-10.87-13.04
									l1.29-14.25c0.6-6.57,6.46-11.46,13.04-10.87l4.9,0.45c6.57,0.6,11.46,6.46,10.87,13.04L570.2,218.27z"/>
							</g>
							<g>
								<polygon class="st10" points="556.57,206.88 554.4,213.34 557.86,213.58 								"/>
								<g>
									<path class="st11" d="M548.75,209.58c-0.11,0.92-0.95,1.57-1.87,1.46c-0.92-0.11-1.57-0.95-1.46-1.87
										c0.11-0.92,0.95-1.57,1.87-1.46C548.21,207.83,548.86,208.66,548.75,209.58z"/>
									<path class="st11" d="M566.54,209.54c-0.11,0.92-0.95,1.57-1.87,1.46s-1.57-0.95-1.46-1.87c0.11-0.92,0.95-1.57,1.87-1.46
										C566,207.79,566.65,208.63,566.54,209.54z"/>
								</g>
								<g>
									<path class="st12" d="M549.21,216.3c-0.33,1.98-2.21,3.32-4.2,2.99c-1.98-0.33-3.32-2.21-2.99-4.2
										c0.33-1.98,2.21-3.32,4.2-2.99C548.21,212.43,549.55,214.31,549.21,216.3z"/>
									<path class="st12" d="M569.18,216.85c-0.33,1.98-2.21,3.32-4.2,2.99c-1.98-0.33-3.32-2.21-2.99-4.2
										c0.33-1.98,2.21-3.32,4.2-2.99C568.17,212.99,569.51,214.87,569.18,216.85z"/>
								</g>
								<path class="st31" d="M553.38,218.2c0.05,1.43,1.14,2.63,2.6,2.76c1.46,0.13,2.75-0.85,3.06-2.25L553.38,218.2z"/>
							</g>
						</g>
					</g>
					<path d="M537.85,209.16c0,0-6.8-10.48-0.03-21.08s20.73-9.47,25.6-2.03c0,0,9.95-2.4,13.88,6.41
						c3.93,8.8-1.73,20.07-1.73,20.07l-2.55-0.09l-2.43,1.58c0,0,2.01-13.2-0.46-15.89c-1.79-1.95-7.43-2.78-11.41-0.63
						c-3.98,2.15-8.6,0.94-11.21-1.55c0,0-1.25,11.13-5.77,14.76l-1.7-1.41L537.85,209.16z"/>
				</g>
			</g>
			<g>
				<line class="st16" x1="601.54" y1="272.15" x2="604.81" y2="286.27"/>
				<line class="st16" x1="615" y1="264.67" x2="631.4" y2="280.21"/>
				<line class="st16" x1="619.69" y1="252.98" x2="645" y2="261.28"/>
			</g>
		</g>
		<g>
			<g>
				
					<rect x="603.76" y="413.29" transform="matrix(-1 -1.224647e-16 1.224647e-16 -1 1251.4403 866.0455)" class="st3" width="43.91" height="39.47"/>
				<g>
					<path class="st16" d="M635.56,421.86l-8.71-9.09c0,0-1.7-12.45-7.9-12.3c-6.2,0.14,1.18,10.03,7.9,12.3"/>
					<path class="st16" d="M627.31,412.45c0,0,11.78-3.93,11.64-8.75C638.81,398.87,630.63,401.19,627.31,412.45z"/>
					<line class="st16" x1="626.09" y1="452.76" x2="626.86" y2="412.77"/>
				</g>
				<g>
					<polygon class="st4" points="618.72,416.44 617.13,419.67 613.57,420.18 616.14,422.69 615.54,426.23 618.72,424.56 
						621.9,426.23 621.29,422.69 623.86,420.18 620.31,419.67 					"/>
					<polygon class="st4" points="610.41,427.74 608.82,430.96 605.26,431.48 607.83,433.99 607.23,437.53 610.41,435.86 
						613.59,437.53 612.98,433.99 615.55,431.48 612,430.96 					"/>
					<polygon class="st4" points="640.14,439.58 638.55,442.8 634.99,443.31 637.57,445.82 636.96,449.36 640.14,447.69 
						643.32,449.36 642.71,445.82 645.28,443.31 641.73,442.8 					"/>
					<polygon class="st4" points="633.13,426.71 631.54,429.93 627.99,430.44 630.56,432.95 629.95,436.49 633.13,434.82 
						636.31,436.49 635.71,432.95 638.28,430.44 634.72,429.93 					"/>
					<polygon class="st4" points="640.14,414.78 638.55,418 634.99,418.52 637.57,421.03 636.96,424.57 640.14,422.9 643.32,424.57 
						642.71,421.03 645.28,418.52 641.73,418 					"/>
					<polygon class="st4" points="619.66,439.58 618.07,442.8 614.52,443.31 617.09,445.82 616.48,449.36 619.66,447.69 
						622.84,449.36 622.24,445.82 624.81,443.31 621.25,442.8 					"/>
				</g>
			</g>
			<g>
				<rect x="65.23" y="390.47" class="st19" width="44.76" height="59.03"/>
				<g>
					<circle class="st4" cx="70.56" cy="406.73" r="2.72"/>
					<path class="st4" d="M78.71,396.24c0,1.5-1.22,2.72-2.72,2.72c-1.5,0-2.72-1.22-2.72-2.72s1.22-2.72,2.72-2.72
						C77.5,393.52,78.71,394.74,78.71,396.24z"/>
					<path class="st4" d="M82.7,413.34c0,1.5-1.22,2.72-2.72,2.72c-1.5,0-2.72-1.22-2.72-2.72s1.22-2.72,2.72-2.72
						C81.48,410.62,82.7,411.84,82.7,413.34z"/>
					<path class="st4" d="M87.53,405.29c0,1.5-1.22,2.72-2.72,2.72c-1.5,0-2.72-1.22-2.72-2.72c0-1.5,1.22-2.72,2.72-2.72
						C86.31,402.57,87.53,403.79,87.53,405.29z"/>
					<path class="st4" d="M98.75,413.34c0,1.5-1.22,2.72-2.72,2.72c-1.5,0-2.72-1.22-2.72-2.72s1.22-2.72,2.72-2.72
						C97.54,410.62,98.75,411.84,98.75,413.34z"/>
					<path class="st4" d="M108.52,406.73c0,1.5-1.22,2.72-2.72,2.72s-2.72-1.22-2.72-2.72s1.22-2.72,2.72-2.72
						S108.52,405.23,108.52,406.73z"/>
					<path class="st4" d="M99.2,398.18c0,1.5-1.22,2.72-2.72,2.72c-1.5,0-2.72-1.22-2.72-2.72c0-1.5,1.22-2.72,2.72-2.72
						C97.99,395.46,99.2,396.68,99.2,398.18z"/>
					<circle class="st4" cx="71.31" cy="425.04" r="2.72"/>
					<circle class="st4" cx="84.81" cy="425.66" r="2.72"/>
					<path class="st4" d="M80.5,433.98c0,1.5-1.22,2.72-2.72,2.72c-1.5,0-2.72-1.22-2.72-2.72c0-1.5,1.22-2.72,2.72-2.72
						C79.28,431.26,80.5,432.48,80.5,433.98z"/>
					<circle class="st4" cx="71.31" cy="442.79" r="2.72"/>
					<circle class="st4" cx="84.81" cy="442.79" r="2.72"/>
					<circle class="st4" cx="96.03" cy="444.47" r="2.72"/>
					<path class="st4" d="M100.11,431.94c1.3,0.75,1.75,2.41,1,3.71c-0.75,1.3-2.41,1.75-3.71,1c-1.3-0.75-1.75-2.41-1-3.71
						C97.15,431.64,98.81,431.19,100.11,431.94z"/>
					<path class="st4" d="M107.16,426.49c1.3,0.75,1.75,2.41,1,3.71c-0.75,1.3-2.41,1.75-3.71,1c-1.3-0.75-1.75-2.41-1-3.71
						C104.2,426.18,105.86,425.73,107.16,426.49z"/>
					<path class="st4" d="M108.52,443.74c0,1.5-1.22,2.72-2.72,2.72s-2.72-1.22-2.72-2.72s1.22-2.72,2.72-2.72
						S108.52,442.24,108.52,443.74z"/>
					<path class="st4" d="M98.75,424.12c0,1.5-1.22,2.72-2.72,2.72c-1.5,0-2.72-1.22-2.72-2.72c0-1.5,1.22-2.72,2.72-2.72
						C97.54,421.4,98.75,422.62,98.75,424.12z"/>
				</g>
				<g>
					<g>
						<path class="st16" d="M89.46,390.47c0,0,3.91-22.02,11.75-18.15C109.08,376.2,94.7,387.84,89.46,390.47z"/>
						<path class="st16" d="M88.5,390.47c0,0-3.91-22.02-11.75-18.15C68.89,376.2,83.26,387.84,88.5,390.47z"/>
						<line class="st16" x1="78.23" y1="400.8" x2="89.46" y2="390.83"/>
						<line class="st16" x1="101.21" y1="401.64" x2="89.09" y2="390.83"/>
					</g>
					<line class="st16" x1="89.55" y1="449.5" x2="89.55" y2="390.47"/>
					<line class="st16" x1="65.23" y1="418.58" x2="110" y2="418.58"/>
				</g>
			</g>
			<g>
				<rect x="97.86" y="412.39" class="st4" width="48.68" height="43.75"/>
				<g>
					<rect x="103" y="412.39" class="st15" width="5.6" height="43.75"/>
					<rect x="113.07" y="412.39" class="st15" width="5.6" height="43.75"/>
					<rect x="124.68" y="412.39" class="st15" width="5.6" height="43.75"/>
					<rect x="134.76" y="412.39" class="st15" width="5.6" height="43.75"/>
				</g>
				<rect x="97.86" y="412.39" class="st16" width="48.68" height="43.75"/>
				<g>
					<path class="st16" d="M111.29,421.89l9.65-10.07c0,0,1.89-13.8,8.76-13.64c6.87,0.16-1.31,11.12-8.76,13.64"/>
					<path class="st16" d="M120.44,411.46c0,0-13.06-4.35-12.9-9.7C107.69,396.41,116.76,398.98,120.44,411.46z"/>
					<line class="st16" x1="121.79" y1="456.14" x2="120.94" y2="411.82"/>
				</g>
			</g>
		</g>
		<g>
			<rect x="397.28" y="383.65" class="st32" width="45.74" height="12.21"/>
			<g>
				<g>
					<g>
						<rect x="403.38" y="363.21" class="st4" width="5.49" height="22.02"/>
						<path class="st33" d="M403.38,371.48c0,0,0.62-2.09,2.74-2.55c2.13-0.46,2.74-3.4,2.74-3.4"/>
						<path class="st33" d="M403.38,376.81c0,0,0.62-2.09,2.74-2.55c2.13-0.46,2.74-3.4,2.74-3.4"/>
						<path class="st33" d="M403.38,382.37c0,0,0.93-2.32,2.74-2.78c1.82-0.46,2.74-1.24,2.74-2.78"/>
						<rect x="403.38" y="363.21" class="st16" width="5.49" height="22.02"/>
					</g>
					<path class="st34" d="M405.87,348.37c0,0-5.25,5.95-4.4,9.04c0.85,3.09,7.35,3.02,8.35,0.77
						C411.67,354.01,405.87,348.37,405.87,348.37z"/>
					<line class="st16" x1="405.78" y1="365.91" x2="405.78" y2="356.37"/>
				</g>
				<g>
					<g>
						<rect x="417.76" y="363.21" class="st4" width="5.49" height="22.02"/>
						<path class="st33" d="M417.76,371.48c0,0,0.62-2.09,2.74-2.55c2.13-0.46,2.74-3.4,2.74-3.4"/>
						<path class="st33" d="M417.76,376.81c0,0,0.62-2.09,2.74-2.55c2.13-0.46,2.74-3.4,2.74-3.4"/>
						<path class="st33" d="M417.76,382.37c0,0,0.93-2.32,2.74-2.78c1.82-0.46,2.74-1.24,2.74-2.78"/>
						<rect x="417.76" y="363.21" class="st16" width="5.49" height="22.02"/>
					</g>
					<path class="st34" d="M420.25,348.37c0,0-5.25,5.95-4.4,9.04c0.85,3.09,7.35,3.02,8.35,0.77
						C426.04,354.01,420.25,348.37,420.25,348.37z"/>
					<line class="st16" x1="420.15" y1="365.91" x2="420.15" y2="356.37"/>
				</g>
				<g>
					<g>
						<rect x="432.13" y="363.21" class="st4" width="5.49" height="22.02"/>
						<path class="st33" d="M432.13,371.48c0,0,0.62-2.09,2.74-2.55c2.13-0.46,2.74-3.4,2.74-3.4"/>
						<path class="st33" d="M432.13,376.81c0,0,0.62-2.09,2.74-2.55c2.13-0.46,2.74-3.4,2.74-3.4"/>
						<path class="st33" d="M432.13,382.37c0,0,0.93-2.32,2.74-2.78c1.82-0.46,2.74-1.24,2.74-2.78"/>
						<rect x="432.13" y="363.21" class="st16" width="5.49" height="22.02"/>
					</g>
					<path class="st34" d="M434.62,348.37c0,0-5.25,5.95-4.4,9.04c0.85,3.09,7.35,3.02,8.35,0.77
						C440.41,354.01,434.62,348.37,434.62,348.37z"/>
					<line class="st16" x1="434.52" y1="365.91" x2="434.52" y2="356.37"/>
				</g>
			</g>
			<path class="st5" d="M397.28,387.95c2.63,1.43,6.74,1.97,12.9-1.09c0,0,6.68,8,16.37,0.12c0,0,6.66,7.04,16.47,0.8v-4.12h-45.74
				V387.95z"/>
			<g>
				<rect x="393.26" y="395.4" class="st5" width="53.78" height="14.35"/>
				<path class="st18" d="M393.26,401.16c2.6,1.76,7.08,2.57,14.75-0.72c0,0,8.69,6.84,20.05,0.46c0,0,9.67,5.26,18.98-0.97v-4.53
					h-53.78V401.16z"/>
			</g>
			<g>
				<rect x="386.46" y="409.62" class="st5" width="67.38" height="17.98"/>
				<path class="st17" d="M386.46,414.94c3.65,2.35,9.7,3.17,19.32-2.88c0,0,8.3,11.13,19.66,1.08c0,0,8.75,8.65,17.59,1.08
					c0,0,5.76,4.34,10.82,0.88v-5.49h-67.38V414.94z"/>
			</g>
		</g>
		<g>
			<path class="st35" d="M333.31,396.55c0,0-17.5-13.93-23.08-28.05c-5.58-14.12,11.47-12.13,11.47-12.13s4.98,20.2,20.72,34.07
				L333.31,396.55z"/>
			<g>
				<g>
					<g>
						<path class="st35" d="M267.33,404.23c0,0-11.31-11.01-13.96-30.01c-2.65-19,11.9-3.36,11.9-3.36s3.74,18.14,10.86,26.53
							C283.24,405.78,267.33,404.23,267.33,404.23z"/>
						<g>
							<path class="st30" d="M260.12,438.82l30.84-29.04l-13.85-16.56l-14.34,10.82l3.74,6.39
								C266.51,410.42,257.35,429.54,260.12,438.82z"/>
							<g>
								<line class="st30" x1="263.43" y1="418.05" x2="269.51" y2="416.71"/>
								<line class="st30" x1="264.49" y1="414.74" x2="270.16" y2="413.48"/>
								<path class="st30" d="M259.52,417.84c0.19-0.11,5.64-6.4,5.64-6.4"/>
								<path class="st9" d="M264.71,411.89c0,0-0.12,0.03-0.34,0.07c-1.57,0.32-8.06,1.51-8.63-0.81
									c-0.66-2.65,12.14-0.96,8.85,0.77"/>
							</g>
							<path class="st36" d="M279.5,420.39c-2.44-1.04-4.37-3.2-4.98-6c-1.02-4.6,1.69-8.03,6.49-10.16
								c1.05-0.47,3.68-0.89,4.74-0.7l5.22,6.25L279.5,420.39z"/>
						</g>
					</g>
					<g>
						<path class="st4" d="M239.6,378.3c0,0,13.22,3.78,26.44,0c13.22-3.78,10.36-6.5,10.42-8.6c0.07-2.1-5.39-32.45,4.47-48.54
							c9.86-16.09,14.31-17.8,19.74-22.09s15.32-16.8,12.9-31c-2.43-14.2-23.82-8.61-32.64-2.52c-8.82,6.1-34.2,37.46-39.66,54.01
							C235.82,336.12,232.26,353.96,239.6,378.3z"/>
						<g>
							<path class="st37" d="M246.84,379.61c0,0-12.72-34.25,8.92-68.66c21.64-34.41,36.88-48.05,39.53-49.31"/>
							<path class="st37" d="M257.16,379.61c0,0-14.63-39.04,13.6-76.41c28.23-37.37,31.17-39.19,31.17-39.19"/>
							<path class="st37" d="M269.25,376.97c0,0-12.17-33.75,6.02-61.12c18.19-27.37,32.79-47.78,32.79-47.78"/>
							<g>
								<path class="st33" d="M273.39,375.57c0,0-12.64-45.81,19.27-74.7"/>
								<path class="st33" d="M262.34,379.17c0,0-11.41-34.19,4.74-61.21c16.14-27.02,34.99-40.72,34.99-40.72"/>
								<path class="st33" d="M249.37,379.17c0,0-7.19-40.16,10.23-66.26c17.42-26.1,33.07-44.1,33.07-44.1"/>
								<path class="st33" d="M243.12,379.59c0,0-10.2-35.79,1.22-58.97c11.42-23.18,41.78-58.99,41.78-58.99"/>
							</g>
						</g>
						<path class="st16" d="M239.6,378.3c0,0,13.22,3.78,26.44,0c13.22-3.78,10.36-6.5,10.42-8.6c0.07-2.1-5.39-32.45,4.47-48.54
							c9.86-16.09,14.31-17.8,19.74-22.09s15.32-16.8,12.9-31c-2.43-14.2-23.82-8.61-32.64-2.52c-8.82,6.1-34.2,37.46-39.66,54.01
							C235.82,336.12,232.26,353.96,239.6,378.3z"/>
					</g>
				</g>
				<g>
					<g>
						<path class="st30" d="M326.1,431.88l30.84-29.04l-13.85-16.56l-14.34,10.82l3.74,6.39
							C332.5,403.49,323.33,422.61,326.1,431.88z"/>
						<g>
							<line class="st30" x1="329.42" y1="411.11" x2="335.49" y2="409.77"/>
							<line class="st30" x1="330.47" y1="407.8" x2="336.15" y2="406.55"/>
							<path class="st30" d="M325.5,410.9c0.19-0.11,5.64-6.4,5.64-6.4"/>
							<path class="st9" d="M330.7,404.96c0,0-0.12,0.03-0.34,0.07c-1.57,0.32-8.06,1.51-8.63-0.81c-0.66-2.65,12.13-0.96,8.85,0.77
								"/>
						</g>
						<path class="st36" d="M345.48,413.46c-2.44-1.04-4.37-3.2-4.98-6c-1.02-4.6,1.69-8.03,6.49-10.16
							c1.05-0.47,3.68-0.89,4.74-0.7l5.22,6.25L345.48,413.46z"/>
					</g>
					<g>
						<path class="st4" d="M283.22,290.93l4.32,0.92c0,0-6.6,38.4,4.03,64.52c10.63,26.13,13.99,20.53,19.58,19.13
							c5.6-1.4,18.46-10.81,22.38-14.36c3.92-3.55,0.02-11.64-2.93-18.09c-2.95-6.44-9.93-24.99-7.56-36.28
							c2.37-11.29,12.36-34.89-0.47-52.05"/>
						<g>
							<path class="st37" d="M304.02,264.01c0,0-4.94,43.64,2.62,73.05c7.1,27.6,11.38,34.83,11.38,34.83"/>
							<path class="st37" d="M320.37,261.63c0,0-9.22,30.66-6.18,58.12c2.81,25.39,15.62,44.43,15.62,44.43"/>
							<path class="st37" d="M309.33,375.57c0,0-17.36-34.26-16.65-66.02c0.7-31.27,2.6-41.48,2.6-41.48"/>
							<g>
								<path class="st33" d="M323.45,255.96c0,0,1.66,20.99-1.75,35.26c-3.41,14.27-4.56,30.96,0,44.44
									c4.56,13.47,11.83,25.48,11.83,25.48"/>
								<path class="st33" d="M309.11,266.73c0,0-3.51,36.52,0,55.79c3.51,19.27,13.8,45.98,13.8,45.98"/>
								<path class="st33" d="M298.83,267.33c0,0-2.58,43.98,1.85,69.42c2.7,15.54,10.06,30.77,13.27,37.08"/>
								<path class="st33" d="M291.65,267.4c0,0-3.93,43.33-1.87,58.86c2.06,15.53,6.08,36.47,17.29,50.55"/>
							</g>
						</g>
						<path class="st16" d="M283.22,290.93l4.32,0.92c0,0-6.6,38.4,4.03,64.52c10.63,26.13,13.99,20.53,19.58,19.13
							c5.6-1.4,18.46-10.81,22.38-14.36c3.92-3.55,0.02-11.64-2.93-18.09c-2.95-6.44-9.93-24.99-7.56-36.28
							c2.37-11.29,12.36-34.89-0.47-52.05"/>
					</g>
				</g>
				<g>
					<path class="st35" d="M354.5,111.49c0,0-0.1-13.57-1.76-14.66c-1.66-1.09-1.93,2.5-2.44,8.05c-0.49,5.3-1.48,6.95,0.23,8.09
						C352.24,114.11,354.56,113.99,354.5,111.49z"/>
					<g>
						<line class="st35" x1="341.46" y1="85.14" x2="354.01" y2="111.56"/>
						<g>
							<line class="st28" x1="349.88" y1="90.56" x2="332.53" y2="78.96"/>
							<line class="st28" x1="340.32" y1="76.57" x2="342.37" y2="94.64"/>
							<line class="st28" x1="348.39" y1="84.56" x2="331.45" y2="85.49"/>
							<line class="st28" x1="346.32" y1="77.36" x2="336.67" y2="92.47"/>
							<line class="st28" x1="334.9" y1="89.48" x2="332.46" y2="92.48"/>
							<line class="st28" x1="353.14" y1="89.97" x2="357.93" y2="92.77"/>
							<line class="st28" x1="339.26" y1="95.87" x2="337.53" y2="103.45"/>
							<path class="st28" d="M332.03,81.8c-0.18-0.05-4.56-1.33-4.56-1.33"/>
							<line class="st28" x1="354.8" y1="77.73" x2="347.34" y2="81.86"/>
							<line class="st28" x1="351.22" y1="67.8" x2="349.91" y2="70.11"/>
							<line class="st28" x1="344.71" y1="68.85" x2="343.58" y2="75.46"/>
							<line class="st28" x1="336.22" y1="77.75" x2="331.15" y2="71.54"/>
							<line class="st28" x1="332.53" y1="87.84" x2="323.68" y2="92.92"/>
						</g>
					</g>
					<g>
						<path class="st35" d="M350.51,112.53c0,0,2.63-7.06,1.08-8.14c-1.56-1.08-4.28,5.16-4.51,9.82
							c-0.24,4.66,3.49,13.38,4.61,15.25c1.12,1.87,5.92,0.8,8.23,0.32c2.31-0.49,1.48-9.27,1.05-13.41
							c-0.43-4.14-3.3-5.91-4.16-6.72"/>
						<path class="st35" d="M354.42,106.79c0,0,1.44-0.76,4.17,1.64c2.73,2.4,3.84,4.92,3.39,7.68s-0.8,4.13-2.15,3.85
							c-1.35-0.28-0.06-5.42-0.06-5.42s-0.86,4.42-2.48,4.11c-1.61-0.31,0.27-5.88,0.27-5.88s-1.6,5.69-3.26,5.35
							C352.64,117.77,354.42,106.79,354.42,106.79z"/>
					</g>
				</g>
				<path class="st18" d="M228.55,272.89c0.04,0.15,3.48,13.65,6.74,20.08c3.26,6.43,3.96,6.43,4.66,5.88
					c0.7-0.56-2.93-6.99-3.77-9.58c0,0,4.12,8.74,5.8,8.81c1.68,0.07-2.38-7.83-2.94-9.65c0,0,4.27,9.58,5.74,8.95
					c1.47-0.63-3.29-10.14-3.29-10.14s4.41,8.04,5.6,7.55c1.19-0.49-3.5-8.81-3.5-9.65s1.51,1.33,3.69,3.01
					c2.18,1.68,3.02,0.7,0.72-2.16c-0.53-0.66-8-9.66-9.39-14.9S226.89,267.12,228.55,272.89z"/>
			</g>
			<g>
				<path class="st38" d="M274.2,260.68c0,0-2.7-0.1-3.39,5.3c-0.44,3.48,1.52,10.03,12.51,12.8s26.47,3.46,39.58-2.66
					c13.11-6.11,5.79-19.58,4.5-19.32C326.12,257.07,296.68,278,274.2,260.68z"/>
				<path class="st38" d="M240.48,270.62c0,3.65-3.49,6.61-7.8,6.61c-4.31,0-7.8-2.96-7.8-6.61c0-3.65,3.49-6.61,7.8-6.61
					C236.99,264.01,240.48,266.97,240.48,270.62z"/>
				<path class="st38" d="M365.53,134.09c0,3.65-3.49,6.61-7.8,6.61c-4.31,0-7.8-2.96-7.8-6.61c0-3.65,3.49-6.61,7.8-6.61
					C362.04,127.48,365.53,130.44,365.53,134.09z"/>
				<path class="st18" d="M270.45,230.19c0,0-2.89,28.08,4.01,34.38c6.9,6.29,26.26,11.75,41.87,5.67s14.76-18.25,14.97-48.05
					c0,0,17.53-4.9,31.22-26.9c13.69-22,6.95-52.06,4.46-57.67c-2.52-5.65-12.58-8.8-17.51,1.16c-4.94,9.96-8.92,30.97-20.26,43.55
					c-11.33,12.57-16.58,18.03-34.83,17.19s-49.08-0.25-63.88,20.86c-14.8,21.11-12.85,44.82-3.02,49.23s14.92-4.52,16.88-15.11
					C247.07,239.71,265.41,224.14,270.45,230.19z"/>
				<g>
					<g>
						<g>
							<path class="st39" d="M285.13,237.86c1.05-2.13,2.1-4.27,3.15-6.4c1.41-2.88-2.9-5.41-4.32-2.52
								c-1.05,2.13-2.1,4.27-3.15,6.4C279.39,238.21,283.71,240.75,285.13,237.86L285.13,237.86z"/>
						</g>
					</g>
					<g>
						<g>
							<path class="st39" d="M299.91,218.41c0.55,1.26,1.1,2.53,1.65,3.79c0.52,1.2,2.38,1.57,3.42,0.9c1.25-0.8,1.46-2.13,0.9-3.42
								c-0.55-1.26-1.1-2.53-1.65-3.79c-0.52-1.2-2.38-1.57-3.42-0.9C299.56,215.79,299.35,217.12,299.91,218.41L299.91,218.41z"/>
						</g>
					</g>
					<g>
						<g>
							<path class="st39" d="M304.42,247.34c0.17-1.76,0.43-3.49,0.77-5.22c0.26-1.32-0.38-2.7-1.75-3.08
								c-1.23-0.34-2.81,0.42-3.08,1.75c-0.43,2.17-0.74,4.35-0.95,6.55c-0.13,1.35,1.24,2.5,2.5,2.5
								C303.38,249.84,304.29,248.69,304.42,247.34L304.42,247.34z"/>
						</g>
					</g>
					<g>
						<g>
							<path class="st39" d="M312.95,230.47c0.81,1.48,1.62,2.97,2.43,4.45c0.65,1.18,2.28,1.56,3.42,0.9
								c1.2-0.7,1.55-2.23,0.9-3.42c-0.81-1.48-1.62-2.97-2.43-4.45c-0.65-1.18-2.28-1.56-3.42-0.9
								C312.65,227.75,312.3,229.28,312.95,230.47L312.95,230.47z"/>
						</g>
					</g>
					<g>
						<g>
							<path class="st39" d="M315.45,260.09c0.18-1.87,0.36-3.73,0.53-5.6c0.13-1.35-1.24-2.5-2.5-2.5c-1.46,0-2.37,1.15-2.5,2.5
								c-0.18,1.87-0.36,3.73-0.53,5.6c-0.13,1.35,1.24,2.5,2.5,2.5C314.41,262.59,315.33,261.44,315.45,260.09L315.45,260.09z"/>
						</g>
					</g>
					<g>
						<g>
							<path class="st39" d="M292.54,265.55c-0.08-1.59-0.17-3.17-0.25-4.76c-0.07-1.35-1.1-2.5-2.5-2.5c-1.3,0-2.57,1.15-2.5,2.5
								c0.08,1.59,0.17,3.17,0.25,4.76c0.07,1.35,1.1,2.5,2.5,2.5C291.33,268.05,292.61,266.91,292.54,265.55L292.54,265.55z"/>
						</g>
					</g>
					<g>
						<g>
							<path class="st39" d="M318.99,213.14c0.95,1.43,1.9,2.87,2.85,4.3c0.75,1.12,2.21,1.61,3.42,0.9
								c1.12-0.65,1.65-2.29,0.9-3.42c-0.95-1.43-1.9-2.87-2.85-4.3c-0.75-1.12-2.21-1.61-3.42-0.9
								C318.77,210.38,318.24,212.01,318.99,213.14L318.99,213.14z"/>
						</g>
					</g>
					<g>
						<g>
							<path class="st39" d="M278.31,219.51c0.88-1.32,1.74-2.46,2.75-3.64c0.88-1.03,1.01-2.53,0-3.54c-0.9-0.9-2.65-1.03-3.54,0
								c-1.27,1.48-2.45,3.03-3.53,4.65c-0.75,1.12-0.22,2.77,0.9,3.42C276.11,221.12,277.55,220.63,278.31,219.51L278.31,219.51z"
								/>
						</g>
					</g>
					<g>
						<g>
							<path class="st39" d="M273.72,248.18c0.22,1.31,0.45,2.61,0.67,3.92c0.22,1.29,1.88,2.13,3.08,1.75
								c1.39-0.45,1.98-1.69,1.75-3.08c-0.22-1.31-0.45-2.61-0.67-3.92c-0.22-1.29-1.88-2.13-3.08-1.75
								C274.07,245.55,273.48,246.79,273.72,248.18L273.72,248.18z"/>
						</g>
					</g>
					<g>
						<g>
							<path class="st39" d="M322.97,243.58c-0.08,1.31-0.09,2.61-0.04,3.92c0.05,1.31,1.12,2.56,2.5,2.5
								c1.31-0.06,2.55-1.1,2.5-2.5c-0.05-1.31-0.03-2.61,0.04-3.92c0.08-1.31-1.2-2.56-2.5-2.5
								C324.05,241.15,323.06,242.18,322.97,243.58L322.97,243.58z"/>
						</g>
					</g>
					<g>
						<g>
							<path class="st39" d="M324.31,200.43c1.59-1.11,3.18-2.22,4.77-3.34c1.1-0.77,1.62-2.19,0.9-3.42
								c-0.64-1.09-2.31-1.67-3.42-0.9c-1.59,1.11-3.18,2.22-4.77,3.34c-1.1,0.77-1.62,2.19-0.9,3.42
								C321.53,200.63,323.2,201.21,324.31,200.43L324.31,200.43z"/>
						</g>
					</g>
					<g>
						<g>
							<path class="st39" d="M338.03,205.05c1.21,0.36,2.47,0.78,3.6,1.27c1.24,0.53,2.68,0.37,3.42-0.9
								c0.62-1.05,0.35-2.88-0.9-3.42c-1.57-0.68-3.16-1.28-4.8-1.77c-1.29-0.38-2.72,0.46-3.08,1.75
								C335.92,203.31,336.73,204.67,338.03,205.05L338.03,205.05z"/>
						</g>
					</g>
					<g>
						<g>
							<path class="st39" d="M343.61,186.89c0.57-2.81,1.03-5.64,1.4-8.49c0.18-1.34-1.28-2.5-2.5-2.5c-1.5,0-2.32,1.16-2.5,2.5
								c-0.32,2.4-0.74,4.79-1.23,7.16C338.15,188.71,342.97,190.05,343.61,186.89L343.61,186.89z"/>
						</g>
					</g>
					<g>
						<g>
							<path class="st39" d="M356.72,181.79c1.82-0.26,3.64-0.55,5.45-0.88c1.33-0.24,2.08-1.86,1.75-3.08
								c-0.38-1.4-1.74-1.99-3.08-1.75c-1.81,0.33-3.63,0.62-5.45,0.88c-1.34,0.19-2.07,1.89-1.75,3.08
								C354.04,181.48,355.38,181.98,356.72,181.79L356.72,181.79z"/>
						</g>
					</g>
					<g>
						<g>
							<path class="st39" d="M355.24,166.47c0.73-1.92,1.46-3.83,2.2-5.75c0.48-1.26-0.53-2.74-1.75-3.08
								c-1.41-0.39-2.59,0.48-3.08,1.75c-0.73,1.92-1.46,3.83-2.2,5.75c-0.48,1.26,0.53,2.74,1.75,3.08
								C353.57,168.61,354.76,167.74,355.24,166.47L355.24,166.47z"/>
						</g>
					</g>
					<g>
						<g>
							<path class="st39" d="M359.09,142.14c0.68,1.74,1.43,3.45,2.27,5.11c0.61,1.2,2.3,1.55,3.42,0.9
								c1.22-0.72,1.51-2.21,0.9-3.42c-0.65-1.28-1.25-2.58-1.77-3.92c-0.49-1.26-1.68-2.13-3.08-1.75
								C359.64,139.4,358.6,140.88,359.09,142.14L359.09,142.14z"/>
						</g>
					</g>
					<g>
						<g>
							<path class="st39" d="M351.22,152.44c1.08-1.13,2-2.42,2.67-3.83c0.56-1.18,0.37-2.75-0.9-3.42
								c-1.11-0.59-2.82-0.37-3.42,0.9c-0.27,0.58-0.58,1.13-0.94,1.66c-0.08,0.12-0.18,0.24-0.26,0.37
								c-0.21,0.32,0.23-0.25-0.02,0.03c-0.22,0.25-0.44,0.51-0.67,0.76c-0.9,0.95-1.01,2.61,0,3.54
								C348.66,153.34,350.26,153.46,351.22,152.44L351.22,152.44z"/>
						</g>
					</g>
					<g>
						<g>
							<path class="st39" d="M255.94,219.84c0.8,1.21,1.61,2.41,2.41,3.61c0.72,1.09,2.24,1.66,3.42,0.9
								c1.08-0.7,1.67-2.26,0.9-3.42c-0.8-1.21-1.61-2.41-2.41-3.61c-0.72-1.09-2.24-1.66-3.42-0.9
								C255.75,217.11,255.16,218.67,255.94,219.84L255.94,219.84z"/>
						</g>
					</g>
					<g>
						<g>
							<path class="st39" d="M264.57,205.54c0.12,1.64,0.37,3.27,0.79,4.86c0.35,1.31,1.78,2.1,3.08,1.75
								c1.32-0.36,2.09-1.77,1.75-3.08c-0.34-1.28-0.52-2.3-0.61-3.53c-0.1-1.35-1.08-2.5-2.5-2.5
								C265.8,203.04,264.47,204.19,264.57,205.54L264.57,205.54z"/>
						</g>
					</g>
					<g>
						<g>
							<path class="st39" d="M242.17,221.77c2.04-0.97,4.13-1.79,6.28-2.51c3.03-1.02,1.73-5.85-1.33-4.82
								c-2.55,0.86-5.04,1.87-7.47,3.02c-1.22,0.58-1.54,2.33-0.9,3.42C239.48,222.13,240.94,222.35,242.17,221.77L242.17,221.77z"
								/>
						</g>
					</g>
					<g>
						<g>
							<path class="st39" d="M243.09,232.1c0.52,1.3,1.05,2.6,1.57,3.9c0.49,1.21,1.69,2.19,3.08,1.75
								c1.17-0.38,2.27-1.78,1.75-3.08c-0.52-1.3-1.05-2.6-1.57-3.9c-0.49-1.21-1.69-2.19-3.08-1.75
								C243.67,229.4,242.57,230.8,243.09,232.1L243.09,232.1z"/>
						</g>
					</g>
					<g>
						<g>
							<path class="st39" d="M229.54,238.08c1.47-0.84,2.94-1.68,4.41-2.53c1.17-0.68,1.58-2.26,0.9-3.42
								c-0.69-1.17-2.25-1.58-3.42-0.9c-1.47,0.85-2.94,1.69-4.41,2.53c-1.17,0.67-1.57,2.27-0.9,3.42
								C226.81,238.37,228.36,238.75,229.54,238.08L229.54,238.08z"/>
						</g>
					</g>
					<g>
						<g>
							<path class="st39" d="M231.99,249.13c0.59,1.54,1.18,3.09,1.77,4.63c0.48,1.26,1.68,2.13,3.08,1.75
								c1.21-0.33,2.23-1.81,1.75-3.08c-0.59-1.54-1.18-3.09-1.77-4.63c-0.48-1.26-1.68-2.13-3.08-1.75
								C232.53,246.39,231.51,247.86,231.99,249.13L231.99,249.13z"/>
						</g>
					</g>
					<g>
						<g>
							<path class="st39" d="M227.47,260.96c0.58-1.35,1.3-2.62,2.15-3.82c0.76-1.07,0.22-2.83-0.9-3.42
								c-1.29-0.68-2.61-0.24-3.42,0.9c-0.85,1.2-1.57,2.47-2.15,3.82c-0.52,1.2-0.39,2.74,0.9,3.42
								C225.13,262.42,226.91,262.24,227.47,260.96L227.47,260.96z"/>
						</g>
					</g>
				</g>
			</g>
			<g>
				<ellipse class="st38" cx="296.37" cy="200.44" rx="8.83" ry="5.14"/>
				<path class="st18" d="M312.81,175.83c0,3.59-2.94,6.5-6.56,6.5c-3.62,0-6.56-2.91-6.56-6.5c0-3.59,2.94-6.5,6.56-6.5
					C309.87,169.32,312.81,172.24,312.81,175.83z"/>
				<path class="st18" d="M285.51,156.82h7.76c5.16,0,9.38,4.81,9.38,10.68v12.03c0,0.34-0.02,0.67-0.04,1
					c0.08,0.35,0.13,0.72,0.13,1.1v7.32v0.41v7.32c0,2.66-2.17,4.83-4.83,4.83h-3.08c-2.66,0-4.83-2.17-4.83-4.83v-6.48h-4.49
					c-5.16,0-9.38-4.81-9.38-10.68V167.5C276.13,161.62,280.35,156.82,285.51,156.82z"/>
				<g>
					<path class="st6" d="M303.31,172.9c0,0-7.61-2.53-9.92-7.44c-2.31-4.91-1.73-5.97-1.73-5.97s-4.29,5.87-11.07,7.31
						c-5.59,1.19-5.37,0.36-5.92-0.94c-0.51-1.19-0.85-9.48,7.65-14.58c8.5-5.1,17.63-4.6,23.92,1.76
						c6.3,6.35,5.53,16.36,3.41,18.86C307.54,174.42,304.75,175.82,303.31,172.9z"/>
					<path class="st6" d="M297.74,146.25c0,7.08,5.74,12.81,12.81,12.81c7.08,0,12.81-5.74,12.81-12.81
						c0-7.08-5.74-12.81-12.81-12.81C303.48,133.44,297.74,139.17,297.74,146.25z"/>
					
						<ellipse transform="matrix(0.9881 -0.1539 0.1539 0.9881 -16.3421 51.5152)" class="st6" cx="324.57" cy="131.31" rx="7.37" ry="7.37"/>
				</g>
				<g>
					<path class="st4" d="M312.43,175.83c0,3.38-2.77,6.13-6.18,6.13c-3.41,0-6.18-2.74-6.18-6.13c0-3.38,2.77-6.13,6.18-6.13
						C309.66,169.7,312.43,172.45,312.43,175.83z"/>
					<g>
						<g>
							<path class="st7" d="M303.59,176.64c-0.03-0.55,0.06-1.12,0.28-1.63c0.54-1.25,1.78-1.5,3.03-1.38c0.88,0.08,0.88-1.3,0-1.38
								c-1.66-0.15-3.33,0.36-4.15,1.91c-0.39,0.74-0.59,1.64-0.54,2.48C302.27,177.52,303.65,177.52,303.59,176.64L303.59,176.64z"
								/>
						</g>
					</g>
				</g>
				<g>
					<g>
						<path class="st11" d="M291.66,171.43c0,0.97-0.78,1.75-1.75,1.75c-0.97,0-1.75-0.78-1.75-1.75c0-0.97,0.78-1.75,1.75-1.75
							C290.88,169.68,291.66,170.46,291.66,171.43z"/>
						<path class="st11" d="M280.21,171.17c0,0.82-0.67,1.49-1.49,1.49c-0.82,0-1.49-0.67-1.49-1.49c0-0.82,0.67-1.49,1.49-1.49
							C279.54,169.68,280.21,170.34,280.21,171.17z"/>
					</g>
					<g>
						<path class="st40" d="M281.88,178.33c0,0,0.88,2.56,2.74,2.74c1.86,0.18,3.31-1.88,3.42-3.49L281.88,178.33z"/>
						<g>
							<path class="st11" d="M281.34,178.47c0.49,1.39,1.56,2.92,3.13,3.13c2.29,0.3,3.9-2,4.12-4.03c0.03-0.28-0.28-0.59-0.56-0.56
								c-2.05,0.25-4.1,0.5-6.15,0.75c-0.7,0.09-0.71,1.2,0,1.12c2.05-0.25,4.1-0.5,6.15-0.75c-0.19-0.19-0.37-0.37-0.56-0.56
								c-0.17,1.57-1.83,3.75-3.57,2.66c-0.7-0.44-1.21-1.28-1.48-2.05C282.18,177.5,281.1,177.79,281.34,178.47z"/>
						</g>
					</g>
					<g>
						<path class="st12" d="M297.74,177.86c0,2.4-1.95,4.35-4.35,4.35c-2.4,0-4.35-1.95-4.35-4.35c0-2.4,1.95-4.35,4.35-4.35
							C295.79,173.51,297.74,175.46,297.74,177.86z"/>
						<path class="st12" d="M277.3,174.91c-0.26,0-0.52,0.03-0.77,0.09v4.51c0,0.67,0.03,1.33,0.16,1.96
							c0.18,0.03,0.42,0.06,0.61,0.06c1.83,0,3.31-1.48,3.31-3.31C280.61,176.39,279.13,174.91,277.3,174.91z"/>
					</g>
					<polygon class="st10" points="283.84,169.68 284.2,175.63 281.36,173.9 					"/>
				</g>
			</g>
		</g>
		<g>
			<g>
				<g>
					<g>
						<path class="st18" d="M243.38,146.73c0,0,6.23-10.11,9.75-12.35c3.51-2.24-0.71,6.79-3.83,10.98
							C246.17,149.56,242.85,148.52,243.38,146.73z"/>
						<g>
							<line class="st18" x1="260.77" y1="119.29" x2="245.46" y2="145.26"/>
							<g>
								<line class="st28" x1="251.64" y1="124.08" x2="270.51" y2="113.77"/>
								<line class="st28" x1="262.73" y1="110.6" x2="258.96" y2="128.96"/>
								<line class="st28" x1="253.71" y1="118.06" x2="271.02" y2="120.58"/>
								<line class="st28" x1="256.5" y1="110.85" x2="265.01" y2="127.26"/>
								<line class="st28" x1="267.1" y1="124.35" x2="269.34" y2="127.66"/>
								<line class="st28" x1="248.34" y1="123.17" x2="243.17" y2="125.6"/>
								<line class="st28" x1="262.05" y1="130.51" x2="263.12" y2="138.44"/>
								<path class="st28" d="M270.77,116.73c0.19-0.04,4.81-0.94,4.81-0.94"/>
								<line class="st28" x1="247.77" y1="110.46" x2="255.04" y2="115.38"/>
								<line class="st28" x1="252.36" y1="100.59" x2="253.49" y2="103.08"/>
								<line class="st28" x1="258.94" y1="102.27" x2="259.49" y2="109.16"/>
								<line class="st28" x1="266.84" y1="112.19" x2="272.61" y2="106.28"/>
								<line class="st28" x1="269.69" y1="122.88" x2="278.31" y2="128.91"/>
							</g>
						</g>
						<g>
							<path class="st18" d="M232.22,155.2c0,0,12.04-17.44,16.8-19.92c4.76-2.48-4.61,11.27-4.61,11.27l5.71,7.28
								c0,0-0.09,1.13-2.85,3.68c-2.76,2.56-8.55,7.41-8.55,7.41S230.53,158.8,232.22,155.2z"/>
							<path class="st18" d="M247.76,146.99c0,0-7.73,2.82-7.85,1.45c-0.13-1.38,10.02-6.16,11.13-5.25c1.11,0.9,1.9,4.94,2.05,7
								c0.15,2.05-0.61,3.88-2.64,4.7c-2.03,0.82-9.75,0.41-10.19-0.43c-0.34-0.66-0.78-1.7,7.89-3.32
								C248.14,151.12,228.53,154.26,247.76,146.99z"/>
						</g>
					</g>
					<g>
						<path class="st18" d="M97.85,100.37c0,0,0.18-11.88-1.58-15.65c-1.76-3.78-3.05,6.11-2.67,11.32
							C93.97,101.25,97.33,102.15,97.85,100.37z"/>
						<g>
							<line class="st18" x1="97.94" y1="67.88" x2="96.89" y2="98"/>
							<g>
								<line class="st28" x1="103.07" y1="76.83" x2="92.7" y2="57.98"/>
								<line class="st28" x1="100.96" y1="59.49" x2="94.27" y2="77"/>
								<line class="st28" x1="104.55" y1="70.63" x2="88.61" y2="63.45"/>
								<line class="st28" x1="106.08" y1="63.06" x2="90.08" y2="72.31"/>
								<line class="st28" x1="89.88" y1="68.73" x2="86.22" y2="70.33"/>
								<line class="st28" x1="106.33" y1="77.83" x2="109.39" y2="82.67"/>
								<line class="st28" x1="90.84" y1="76.65" x2="85.66" y2="82.76"/>
								<path class="st28" d="M90.89,60.34c-0.14-0.14-3.55-3.38-3.55-3.38"/>
								<line class="st28" x1="113.66" y1="67.43" x2="104.87" y2="67.66"/>
								<line class="st28" x1="115.09" y1="56.63" x2="112.8" y2="58.13"/>
								<line class="st28" x1="108.63" y1="54.51" x2="104.47" y2="60.02"/>
								<line class="st28" x1="96.64" y1="58.63" x2="94.95" y2="50.54"/>
								<line class="st28" x1="88.49" y1="66.11" x2="77.98" y2="66.56"/>
							</g>
						</g>
						<g>
							<path class="st18" d="M102.7,113.51c0,0-0.77-21.18-3.45-25.83c-2.68-4.66-2.17,11.98-2.17,11.98l-8.73,3.07
								c0,0-0.53,1,0.42,4.64c0.96,3.64,3.22,10.84,3.22,10.84S102.19,117.45,102.7,113.51z"/>
							<path class="st18" d="M94.02,98.23c0,0,5,6.53,5.84,5.44c0.85-1.09-5.14-10.58-6.56-10.42c-1.42,0.16-4.26,3.14-5.49,4.8
								c-1.23,1.65-1.57,3.59-0.3,5.38c1.27,1.79,8,5.59,8.82,5.12c0.65-0.38,1.57-1.02-4.86-7.04
								C91.48,101.5,106.32,114.7,94.02,98.23z"/>
						</g>
					</g>
				</g>
				<g>
					<g>
						<path class="st24" d="M163.44,370.5c-0.07-0.28,7.33-10.42,7.33-10.42l7.78,5.81l-7.27,10.56L163.44,370.5z"/>
						<g>
							<path class="st41" d="M171.14,358.4c0,0,9.77-18.88,8.55-33.78c-1.22-14.9-9.03-27.49-16.35-35.25
								c-7.32-7.76-21.86-30.58-18.79-36.38c3.07-5.8,30.88-5.48,30.88-5.48s26.96,51.72,25.49,66.2
								c-1.47,14.48-11.63,39.23-21.24,50.04L171.14,358.4z"/>
							<g>
								<path class="st4" d="M183.86,366.51c0.6-0.92,0.34-2.17-0.58-2.77l-11.99-7.84c-0.92-0.6-2.17-0.34-2.77,0.58l-1.48,2.27
									c-0.6,0.92-0.34,2.17,0.58,2.77l11.99,7.84c0.92,0.6,2.17,0.34,2.77-0.58L183.86,366.51z"/>
								<path class="st9" d="M183.86,366.51c0.6-0.92,0.34-2.17-0.58-2.77l-11.99-7.84c-0.92-0.6-2.17-0.34-2.77,0.58l-1.48,2.27
									c-0.6,0.92-0.34,2.17,0.58,2.77l11.99,7.84c0.92,0.6,2.17,0.34,2.77-0.58L183.86,366.51z"/>
							</g>
						</g>
						<g>
							<polygon class="st27" points="176.44,377.2 161.04,366.48 148.62,380.26 171.21,407.67 171.13,386.9 							"/>
							<path class="st24" d="M160.03,382.64c2.26,0.63,4.6-0.7,5.23-2.95c0.63-2.26-0.7-4.6-2.95-5.23c-2.26-0.63-4.6,0.7-5.23,2.95
								C156.45,379.67,157.77,382.01,160.03,382.64z"/>
							<g>
								<line class="st25" x1="170.77" y1="391.52" x2="166.36" y2="391.04"/>
								<line class="st25" x1="171.11" y1="394.58" x2="165.94" y2="393.83"/>
							</g>
						</g>
					</g>
					<g>
						<polygon class="st24" points="113.19,327.86 104.27,321.52 108.73,313.75 118.75,320.8 						"/>
						<g>
							<path class="st41" d="M174.23,263.41l-7.72,4.03c4.19,38.08,1.06,74.17-17.69,79.63c-18.75,5.46-33.92-18.6-33.92-18.6
								l5.46-7.21c0,0,13.76,7.34,20.31,5.25c6.55-2.1,3.52-20.77,0-37.56c-3.52-16.79-8.59-40.03-8.59-40.03l37.17-5.23"/>
							<g>
								<path class="st4" d="M112.72,333.75c0.92,0.6,2.17,0.34,2.77-0.58l7.84-11.99c0.6-0.92,0.34-2.17-0.58-2.77l-2.27-1.48
									c-0.92-0.6-2.17-0.34-2.77,0.58l-7.84,11.99c-0.6,0.92-0.34,2.17,0.58,2.77L112.72,333.75z"/>
								<path class="st9" d="M112.72,333.75c0.92,0.6,2.17,0.34,2.77-0.58l7.84-11.99c0.6-0.92,0.34-2.17-0.58-2.77l-2.27-1.48
									c-0.92-0.6-2.17-0.34-2.77,0.58l-7.84,11.99c-0.6,0.92-0.34,2.17,0.58,2.77L112.72,333.75z"/>
							</g>
							<g>
								<path class="st9" d="M137.54,275.2c0,0,10.3-7.87,9.25-19.3"/>
								<path class="st9" d="M138.4,279.17c0,0,12.87-9,12.31-22.43"/>
							</g>
						</g>
						<g>
							<polygon class="st27" points="102.83,327.97 111.55,311.36 96.32,300.75 71.95,326.58 92.54,323.92 							"/>
							<path class="st24" d="M95.39,312.37c-0.34,2.32,1.26,4.48,3.58,4.82c2.32,0.34,4.48-1.26,4.82-3.58s-1.26-4.48-3.58-4.82
								C97.88,308.45,95.73,310.05,95.39,312.37z"/>
							<g>
								<line class="st25" x1="87.92" y1="324.14" x2="87.84" y2="319.7"/>
								<line class="st25" x1="84.92" y1="324.85" x2="85.02" y2="319.63"/>
							</g>
						</g>
					</g>
				</g>
			</g>
			<g>
				<path class="st19" d="M123.78,202.29c0,0-1.02,47.98,1.84,51.82c2.86,3.85,18.31,5.11,35.76,3.22
					c17.45-1.89,21.65-2.66,22.49-9.83c0.84-7.17-2.76-41.72-2.76-41.72s26.26-0.66,47.24-21.52c0,0,7.26-8.3,11.6-15.7l-11.6-12.63
					c0,0-25,26.19-72.26,24.61c0,0-35.74-0.16-50.85-62.23l-15.95,3.27C89.3,121.58,87.75,176.56,123.78,202.29z"/>
				<g>
					<g>
						<path class="st18" d="M201.08,172.9c-2.22,0.89-4.56,1.75-7.04,2.55c0,6.29,1.03,17.94,7.81,25.71
							c2.29-0.86,4.69-1.89,7.14-3.1C206.78,192.06,202.85,180.93,201.08,172.9z"/>
						<path class="st18" d="M104.44,180.97c5.94-2.58,16.66-7.76,24.62-14.55c-1.3-1.33-2.6-2.78-3.9-4.37
							c-3.11,2.3-7.4,5.56-12.36,7.93c-4.33,2.07-8.51,3.67-11.74,4.8C102.09,176.86,103.22,178.93,104.44,180.97z"/>
						<path class="st18" d="M183.11,227.82c-0.52-6.66-1.15-13.38-1.56-17.62c-30.17,7.66-49.59,4.22-57.91,1.78
							c-0.04,4.48-0.06,10.05-0.01,15.66C140.06,235.44,174.7,229.45,183.11,227.82z"/>
					</g>
					<g>
						<path class="st19" d="M132.58,227.04c0,0-7.75-5.93-5.58-8c2.17-2.07,5.34,2.9,5.34,2.9s2.74-4.45,4.8-2.48
							C139.2,221.42,132.58,227.04,132.58,227.04z"/>
						<path class="st19" d="M146.63,228.02c0,0-7.75-5.93-5.58-8c2.17-2.07,5.34,2.9,5.34,2.9s2.74-4.45,4.8-2.48
							C153.26,222.41,146.63,228.02,146.63,228.02z"/>
						<path class="st19" d="M160.68,227.04c0,0-7.75-5.93-5.58-8c2.17-2.07,5.34,2.9,5.34,2.9s2.74-4.45,4.8-2.48
							C167.31,221.42,160.68,227.04,160.68,227.04z"/>
						<path class="st19" d="M174.73,225.83c0,0-7.75-5.94-5.58-8c2.17-2.07,5.34,2.9,5.34,2.9s2.74-4.45,4.8-2.48
							C181.36,220.22,174.73,225.83,174.73,225.83z"/>
					</g>
					<g>
						<path class="st4" d="M134.59,209.7c-0.05,1.04-0.94,1.84-1.98,1.79c-1.04-0.05-1.84-0.94-1.79-1.98
							c0.05-1.04,0.94-1.84,1.98-1.79C133.84,207.77,134.64,208.66,134.59,209.7z"/>
						<path class="st4" d="M132.73,235.1c0,1.04-0.85,1.89-1.89,1.89s-1.89-0.85-1.89-1.89s0.85-1.89,1.89-1.89
							S132.73,234.06,132.73,235.1z"/>
						<path class="st4" d="M142.17,235.98c0,1.04-0.85,1.89-1.89,1.89c-1.04,0-1.89-0.85-1.89-1.89s0.85-1.89,1.89-1.89
							C141.33,234.09,142.17,234.93,142.17,235.98z"/>
						<path class="st4" d="M152.6,235.98c0,1.04-0.85,1.89-1.89,1.89c-1.04,0-1.89-0.85-1.89-1.89s0.85-1.89,1.89-1.89
							C151.75,234.09,152.6,234.93,152.6,235.98z"/>
						<path class="st4" d="M163.35,235.56c0,1.04-0.85,1.89-1.89,1.89c-1.04,0-1.89-0.85-1.89-1.89c0-1.04,0.85-1.89,1.89-1.89
							C162.5,233.67,163.35,234.51,163.35,235.56z"/>
						<path class="st4" d="M173.03,235.1c0,1.04-0.85,1.89-1.89,1.89c-1.04,0-1.89-0.85-1.89-1.89s0.85-1.89,1.89-1.89
							C172.19,233.21,173.03,234.06,173.03,235.1z"/>
						<path class="st4" d="M181.11,233.67c0,1.04-0.85,1.89-1.89,1.89c-1.04,0-1.89-0.85-1.89-1.89s0.85-1.89,1.89-1.89
							C180.26,231.78,181.11,232.62,181.11,233.67z"/>
						<path class="st4" d="M145.25,211.03c-0.05,1.04-0.94,1.84-1.98,1.79c-1.04-0.05-1.84-0.94-1.79-1.98
							c0.05-1.04,0.94-1.84,1.98-1.79C144.5,209.1,145.3,209.99,145.25,211.03z"/>
						<path class="st4" d="M156.03,210.83c-0.05,1.04-0.94,1.84-1.98,1.79c-1.04-0.05-1.84-0.94-1.79-1.98
							c0.05-1.04,0.94-1.84,1.98-1.79C155.29,208.9,156.09,209.78,156.03,210.83z"/>
						<path class="st4" d="M166.51,209.7c-0.05,1.04-0.94,1.84-1.98,1.79c-1.04-0.05-1.84-0.94-1.79-1.98
							c0.05-1.04,0.94-1.84,1.98-1.79C165.76,207.77,166.56,208.66,166.51,209.7z"/>
						<path class="st4" d="M176.12,208.32c-0.05,1.04-0.94,1.84-1.98,1.79c-1.04-0.05-1.84-0.94-1.79-1.98
							c0.05-1.04,0.94-1.84,1.98-1.79C175.37,206.39,176.17,207.28,176.12,208.32z"/>
					</g>
				</g>
				<g>
					<g>
						<path class="st4" d="M87.63,120.15c0.15,1.09,1.16,1.86,2.25,1.71l14.2-1.91c1.09-0.15,1.86-1.16,1.71-2.25l-0.36-2.69
							c-0.15-1.09-1.16-1.86-2.25-1.71l-14.2,1.91c-1.09,0.15-1.86,1.16-1.71,2.25L87.63,120.15z"/>
						<path class="st9" d="M87.63,120.15c0.15,1.09,1.16,1.86,2.25,1.71l14.2-1.91c1.09-0.15,1.86-1.16,1.71-2.25l-0.36-2.69
							c-0.15-1.09-1.16-1.86-2.25-1.71l-14.2,1.91c-1.09,0.15-1.86,1.16-1.71,2.25L87.63,120.15z"/>
					</g>
					<g>
						<path class="st4" d="M226.09,156.37c-0.75,0.81-0.7,2.08,0.1,2.83l11.46,10.65c0.81,0.75,2.08,0.7,2.83-0.1l1.84-1.99
							c0.75-0.81,0.7-2.08-0.1-2.83l-11.46-10.65c-0.81-0.75-2.08-0.7-2.83,0.1L226.09,156.37z"/>
						<path class="st9" d="M226.09,156.37c-0.75,0.81-0.7,2.08,0.1,2.83l11.46,10.65c0.81,0.75,2.08,0.7,2.83-0.1l1.84-1.99
							c0.75-0.81,0.7-2.08-0.1-2.83l-11.46-10.65c-0.81-0.75-2.08-0.7-2.83,0.1L226.09,156.37z"/>
					</g>
				</g>
			</g>
			<g>
				<path class="st35" d="M163.87,181.65c0,2.98-4.15,5.4-9.27,5.4c-5.12,0-9.27-2.42-9.27-5.4c0-2.98,4.15-5.4,9.27-5.4
					C159.72,176.25,163.87,178.67,163.87,181.65z"/>
				<path class="st18" d="M137.34,155.82c0,3.77,3.08,6.83,6.88,6.83s6.88-3.06,6.88-6.83s-3.08-6.83-6.88-6.83
					S137.34,152.05,137.34,155.82z"/>
				<path class="st18" d="M165.99,135.86h-8.15c-5.42,0-9.85,5.05-9.85,11.21v12.63c0,0.36,0.02,0.71,0.05,1.05
					c-0.09,0.37-0.14,0.76-0.14,1.16v7.69v0.43v7.69c0,2.79,2.28,5.07,5.07,5.07h3.23c2.79,0,5.07-2.28,5.07-5.07v-6.8h4.71
					c5.42,0,9.85-5.05,9.85-11.21v-12.63C175.84,140.9,171.41,135.86,165.99,135.86z"/>
				<path class="st6" d="M180.21,130.5c-4.55-6.32-12.84-10.48-23.76-9.76c-7.79,0.51-13.31,9.76-13.31,9.76
					c-4.77,1.14-8.84,6.88-7.84,14.16c1,7.27,6.52,10.22,6.52,10.22s2.31,1.95,4.32,0.14c0.53-0.48,1.58-1.57,2.85-2.93
					c2.48-1.08,7.01-3.47,8.73-7.14c0.35-0.74,0.63-1.39,0.86-1.97c8.29,5.35,21.51,5.75,22.36,1.83c0.88-4.06-3.57-5.63-3.57-5.63
					C181.13,140.81,184.75,136.82,180.21,130.5z"/>
				<g>
					<path class="st4" d="M137.74,155.82c0,3.55,2.9,6.43,6.49,6.43c3.58,0,6.49-2.88,6.49-6.43c0-3.55-2.9-6.43-6.49-6.43
						C140.64,149.39,137.74,152.27,137.74,155.82z"/>
					<g>
						<g>
							<path class="st7" d="M148.42,156.67c0.05-0.87-0.17-1.81-0.57-2.58c-0.85-1.62-2.59-2.15-4.32-1.99
								c-0.87,0.08-0.88,1.46,0,1.38c1.33-0.12,2.65,0.15,3.22,1.48c0.23,0.53,0.33,1.15,0.3,1.72
								C146.99,157.55,148.37,157.55,148.42,156.67L148.42,156.67z"/>
						</g>
					</g>
				</g>
				<g>
					<g>
						<path class="st11" d="M159.54,151.2c0,1.01,0.82,1.84,1.84,1.84c1.01,0,1.84-0.82,1.84-1.84c0-1.01-0.82-1.84-1.84-1.84
							C160.36,149.36,159.54,150.18,159.54,151.2z"/>
						<path class="st11" d="M171.56,150.93c0,0.87,0.7,1.57,1.57,1.57c0.87,0,1.57-0.7,1.57-1.57c0-0.87-0.7-1.57-1.57-1.57
							C172.26,149.36,171.56,150.06,171.56,150.93z"/>
					</g>
					<g>
						<path class="st40" d="M169.81,158.44c0,0-0.92,2.69-2.87,2.87c-1.95,0.18-3.48-1.98-3.59-3.66L169.81,158.44z"/>
						<g>
							<path class="st11" d="M169.27,158.29c-0.29,0.81-0.83,1.71-1.57,2.17c-1.86,1.15-3.61-1.14-3.79-2.81
								c-0.19,0.19-0.37,0.37-0.56,0.56c2.15,0.26,4.31,0.53,6.46,0.79c0.71,0.09,0.71-1.03,0-1.12c-2.15-0.26-4.31-0.53-6.46-0.79
								c-0.28-0.03-0.59,0.28-0.56,0.56c0.23,2.11,1.91,4.51,4.29,4.2c1.64-0.21,2.75-1.81,3.26-3.26
								C170.59,157.91,169.51,157.62,169.27,158.29z"/>
						</g>
					</g>
					<g>
						<path class="st12" d="M153.16,157.95c0,2.52,2.04,4.56,4.56,4.56c2.52,0,4.56-2.04,4.56-4.56c0-2.52-2.04-4.56-4.56-4.56
							C155.2,153.39,153.16,155.43,153.16,157.95z"/>
						<path class="st12" d="M174.62,154.86c0.28,0,0.55,0.04,0.81,0.1v4.73c0,0.71-0.03,1.39-0.17,2.06
							c-0.19,0.03-0.44,0.06-0.64,0.06c-1.92,0-3.47-1.56-3.47-3.47C171.14,156.41,172.7,154.86,174.62,154.86z"/>
					</g>
					<polygon class="st10" points="167.75,149.36 167.37,155.61 170.36,153.79 					"/>
				</g>
				<g>
					<g>
						<path class="st21" d="M129.17,100.53l9.98,37.74c0,0,10.66-1.08,15.04-10.05L129.17,100.53z"/>
						<g>
							<path class="st4" d="M137.08,117.96c0,0.79-0.64,1.44-1.44,1.44s-1.44-0.64-1.44-1.44c0-0.79,0.64-1.44,1.44-1.44
								S137.08,117.17,137.08,117.96z"/>
							<path class="st4" d="M136.93,111.02c0,0.64-0.52,1.15-1.15,1.15c-0.64,0-1.15-0.52-1.15-1.15c0-0.64,0.52-1.15,1.15-1.15
								C136.42,109.86,136.93,110.38,136.93,111.02z"/>
							<path class="st4" d="M133.73,107.37c0,0.71-0.58,1.29-1.29,1.29c-0.71,0-1.29-0.58-1.29-1.29s0.58-1.29,1.29-1.29
								C133.16,106.08,133.73,106.66,133.73,107.37z"/>
							<circle class="st4" cx="141.16" cy="117.81" r="1.86"/>
							<path class="st4" d="M141.34,126.91c0,1.01-0.82,1.84-1.84,1.84c-1.01,0-1.84-0.82-1.84-1.84c0-1.01,0.82-1.84,1.84-1.84
								C140.52,125.07,141.34,125.9,141.34,126.91z"/>
							<path class="st4" d="M149.68,125.42c0,1-0.81,1.81-1.81,1.81c-1,0-1.81-0.81-1.81-1.81s0.81-1.81,1.81-1.81
								C148.87,123.61,149.68,124.42,149.68,125.42z"/>
							<path class="st4" d="M146.53,132.01c0,1.03-0.83,1.86-1.86,1.86s-1.86-0.83-1.86-1.86c0-1.03,0.83-1.86,1.86-1.86
								S146.53,130.98,146.53,132.01z"/>
							<circle class="st4" cx="140.42" cy="135.75" r="0.92"/>
							<circle class="st4" cx="151.08" cy="130.15" r="1.4"/>
						</g>
						<path class="st16" d="M129.17,100.53l9.98,37.74c0,0,10.66-1.08,15.04-10.05L129.17,100.53z"/>
					</g>
					<circle class="st5" cx="127.5" cy="97.32" r="4.82"/>
				</g>
			</g>
			<g>
				<line class="st9" x1="73.54" y1="293.92" x2="62.55" y2="288.57"/>
				<line class="st9" x1="80.76" y1="282.02" x2="70.62" y2="270.16"/>
				<line class="st9" x1="92.57" y1="276.55" x2="81.01" y2="256.47"/>
				<line class="st9" x1="101.68" y1="269.81" x2="98.55" y2="252.98"/>
			</g>
		</g>
	</g>
</g>
</svg>
