<?xml version="1.0" encoding="utf-8"?>
<!-- Generator: Adobe Illustrator 24.2.3, SVG Export Plug-In . SVG Version: 6.00 Build 0)  -->
<svg version="1.1" id="Layer_1" xmlns="http://www.w3.org/2000/svg" xmlns:xlink="http://www.w3.org/1999/xlink" x="0px" y="0px"
	 viewBox="0 0 458.9 313.3" style="enable-background:new 0 0 458.9 313.3;" xml:space="preserve">
<style type="text/css">
	.st0{fill:#FFFEFD;stroke:#1C191B;stroke-width:0.7506;stroke-miterlimit:6.6667;}
	.st1{fill:#5260AA;stroke:#000000;stroke-width:0.7506;stroke-miterlimit:6.6667;}
	.st2{fill:#FFFFFF;}
	.st3{fill:#FACFD8;stroke:#000000;stroke-width:0.7506;stroke-miterlimit:6.6667;}
	.st4{fill:#1C191B;}
	.st5{fill:#FFFEFD;stroke:#1C191B;stroke-width:0.7506;stroke-miterlimit:6.6664;}
	.st6{fill:#020202;}
	.st7{fill:#FFFEFD;}
	.st8{fill:none;stroke:#1C191B;stroke-width:0.7506;stroke-miterlimit:6.6667;}
	.st9{fill:#FF6766;}
	.st10{fill:#0C0C0C;}
	.st11{fill:#FF999A;}
	.st12{fill:#F47AB3;stroke:#1C191B;stroke-width:0.7506;stroke-miterlimit:6.6667;}
	.st13{fill:#FF3327;}
	.st14{fill:#FACFD8;}
	.st15{fill:none;stroke:#000000;stroke-width:0.7506;stroke-miterlimit:6.6667;}
	.st16{fill:#C4E2E7;stroke:#000000;stroke-width:0.7506;stroke-miterlimit:6.6667;}
	.st17{fill:#FFFFFF;stroke:#000000;stroke-width:0.7506;stroke-miterlimit:6.6667;}
	.st18{fill:#FF3327;stroke:#000000;stroke-width:0.7506;stroke-miterlimit:6.6667;}
	.st19{stroke:#000000;stroke-width:0.7506;stroke-miterlimit:6.6667;}
	.st20{fill:#F47AB3;}
	.st21{fill:none;stroke:#FFFFFF;stroke-width:0.7506;stroke-miterlimit:6.6667;}
	.st22{fill:#FF84B5;stroke:#F47AB3;stroke-width:0.7506;stroke-miterlimit:6.6667;}
	.st23{fill:#FFFFFF;stroke:#251F20;stroke-width:0.7506;stroke-miterlimit:6.6667;}
	.st24{fill:none;stroke:#251F20;stroke-width:0.7506;stroke-miterlimit:6.6667;}
	.st25{fill:#FF3327;stroke:#251F20;stroke-width:0.7506;stroke-miterlimit:6.6667;}
	.st26{fill:#C4E2E7;stroke:#251F20;stroke-width:0.7506;stroke-miterlimit:6.6667;}
	.st27{fill:none;stroke:#FFF597;stroke-width:0.7506;stroke-miterlimit:6.6667;}
	.st28{fill:#FFBDB5;}
	.st29{fill:#FF3327;stroke:#1C191B;stroke-width:0.7506;stroke-miterlimit:6.6667;}
	.st30{fill:#FFFEFD;stroke:#0C0C0C;stroke-width:0.7506;stroke-miterlimit:6.6667;}
	.st31{fill:#F47AB3;stroke:#000000;stroke-width:0.7506;stroke-miterlimit:6.6667;}
	.st32{fill:none;stroke:#F47AB3;stroke-width:0.7506;stroke-miterlimit:6.6667;}
	.st33{fill:#FADD5C;stroke:#000000;stroke-width:0.7506;stroke-miterlimit:6.6667;}
	.st34{fill:#FFFFFF;stroke:#1C191B;stroke-width:0.7506;stroke-miterlimit:6.6667;}
	.st35{fill:#FACFD8;stroke:#1C191B;stroke-width:0.7506;stroke-miterlimit:6.6667;}
	.st36{fill:none;stroke:#5260AA;stroke-width:1.5013;stroke-miterlimit:6.6667;}
	.st37{fill:#FADD5C;stroke:#1C191B;stroke-width:0.7506;stroke-miterlimit:6.6667;}
	.st38{fill:#FADD5C;}
	.st39{fill:#FFFDFD;}
	.st40{fill:#5260AA;stroke:#1C191B;stroke-width:0.7506;stroke-miterlimit:6.6667;}
</style>
<g id="OBJECTS">
	<g>
		<g>
			<g>
				<g>
					<path class="st0" d="M219.9,70c0,0-11.5-9.5-15.1-13.6c-3.5-4.2-7-11.6-7.8-11.3c-0.8,0.3,1.8,5.6,1.8,5.6s-7.5-8-8.5-7.6
						c-1,0.4,4.2,6.3,4.2,6.3s-5.4-6.3-6-5.6c-0.6,0.7,4.4,6.4,4.4,6.4s-5-6-5.9-5.1c-1,0.9,4.4,5.8,4.4,5.8s-5.1-5.1-5.8-4
						c-0.6,1.1,16.6,22.9,26.7,28.7c0,0,2.5,2.1,4.2,1.6C218.2,76.5,221.7,71.7,219.9,70z"/>
					<path class="st0" d="M211.3,76.5c0.2,0.2,0.8,0.7,0.8,0.7s-7-1.2-7.2-3.6c-0.2-2.4,5.1-0.4,5.1-0.4s-3.5-3.3-2-4.4
						c1.5-1.1,3.9,1.9,3.9,1.9s-3.3-4.2-1.4-4.8c1.9-0.6,3.9,2.7,3.9,2.7s-3.5-4.4-1.9-5.2c1.6-0.8,3.5,3.3,3.5,3.3
						s-2.9-6.4-1.4-6.6c1.5-0.2,4.3,8.1,4.6,10.4C219.6,72.8,211.3,76.5,211.3,76.5z"/>
				</g>
				<g>
					<path class="st0" d="M298,50.9c0,0,2.7-14.7,2.7-20.1s-2.1-13.4-1.3-13.7c0.8-0.2,2.2,5.4,2.2,5.4s0.5-10.9,1.6-11.3
						c1-0.4,0.9,7.6,0.9,7.6s0-8.3,0.9-8.2c0.9,0.1,0.8,7.7,0.8,7.7s-0.1-7.8,1.3-7.7c1.3,0.1,0.4,7.2,0.4,7.2s0.6-7.2,1.8-6.8
						c1.2,0.4,2.1,28.2-1.8,39.1c0,0-0.5,3.3-2.2,3.9C303.6,54.7,297.8,53.3,298,50.9z"/>
					<path class="st0" d="M296.8,52.5c0,0-3-7.8-0.9-8.7s2.3,5.5,2.3,5.5s0.5-3.2,1.7-3c1.2,0.2,0,4,0,4s1.4-5.2,2.7-4.7
						c1.3,0.5,0.5,4.6,0.5,4.6s1.7-4.5,3-3.9c1.3,0.6-0.5,4.5-0.5,4.5s2-4.8,3.2-4.2c1.1,0.6-0.8,5-0.8,5s2-4.2,3.9-3.1
						s-2.5,6.3-3.3,7.4C307.6,57.1,298,56.4,296.8,52.5z"/>
				</g>
			</g>
			<g>
				<g>
					<path class="st1" d="M252.6,163.3c0,0-6.1-32.2-2.8-67c0,0-23.9-3.7-39.3-19.6l8.2-10.5c0,0,22.6,16.5,47.4,11.9
						c24.8-4.6,28.9-21.3,30.7-26.5l12.8,2.9c0,0-0.7,20.4-17.6,36.5c0,0,10.1,30.7,27,46.5c0,0-8.4,14-21.5,19.2
						C284.3,161.9,255.2,166.6,252.6,163.3z"/>
					<g>
						<path class="st2" d="M271.3,146.8c0,1.4-1.2,2.6-2.6,2.6s-2.6-1.2-2.6-2.6c0-1.4,1.2-2.6,2.6-2.6
							C270.1,144.1,271.3,145.3,271.3,146.8z"/>
						<ellipse class="st2" cx="278.9" cy="135.1" rx="5.4" ry="5.4"/>
						<circle class="st2" cx="260.3" cy="132.3" r="3.6"/>
						<path class="st2" d="M255.8,144.3c0,0.7-0.6,1.3-1.3,1.3s-1.3-0.6-1.3-1.3s0.6-1.3,1.3-1.3
							C255.3,143.1,255.8,143.6,255.8,144.3z"/>
						<path class="st2" d="M304.1,131.4c0,2-1.6,3.7-3.7,3.7s-3.7-1.6-3.7-3.7s1.6-3.7,3.7-3.7S304.1,129.4,304.1,131.4z"/>
						<path class="st2" d="M290.4,117c0,1.2-1,2.2-2.2,2.2c-1.2,0-2.2-1-2.2-2.2s1-2.2,2.2-2.2C289.4,114.8,290.4,115.8,290.4,117z"
							/>
						<path class="st2" d="M266.1,114.1c0,2-1.6,3.6-3.6,3.6s-3.6-1.6-3.6-3.6c0-2,1.6-3.6,3.6-3.6
							C264.4,110.5,266.1,112.1,266.1,114.1z"/>
						
							<ellipse transform="matrix(0.9246 -0.3809 0.3809 0.9246 -18.2925 114.1238)" class="st2" cx="279.2" cy="103.3" rx="5.7" ry="5.7"/>
						<path class="st2" d="M285.9,83.5c0,1.4-1.1,2.5-2.5,2.5c-1.4,0-2.5-1.1-2.5-2.5s1.1-2.5,2.5-2.5
							C284.8,81,285.9,82.1,285.9,83.5z"/>
						<path class="st2" d="M263.4,92.1c0,1.3-1,2.3-2.3,2.3c-1.3,0-2.3-1-2.3-2.3s1-2.3,2.3-2.3C262.3,89.9,263.4,90.9,263.4,92.1z"
							/>
						<path class="st2" d="M235,87.6c0,1.3-1,2.3-2.3,2.3c-1.3,0-2.3-1-2.3-2.3s1-2.3,2.3-2.3C234,85.3,235,86.3,235,87.6z"/>
						<path class="st2" d="M249.6,84c0,2.4-2,4.4-4.4,4.4c-2.4,0-4.4-2-4.4-4.4c0-2.4,2-4.4,4.4-4.4S249.6,81.6,249.6,84z"/>
						<path class="st2" d="M302.1,72.8c0,1.3-1.1,2.4-2.4,2.4c-1.3,0-2.4-1.1-2.4-2.4c0-1.3,1.1-2.4,2.4-2.4
							C301.1,70.4,302.1,71.5,302.1,72.8z"/>
						<path class="st2" d="M304.7,59.9c0,2.2-1.8,3.9-3.9,3.9s-3.9-1.8-3.9-3.9c0-2.2,1.8-3.9,3.9-3.9
							C302.9,56,304.7,57.8,304.7,59.9z"/>
					</g>
					<path class="st0" d="M273.8,77.2c0.3,1.9-2.2,3.9-5.6,4.4c-3.4,0.6-6.4-0.5-6.7-2.4s2.2-3.9,5.6-4.4
						C270.5,74.2,273.5,75.3,273.8,77.2z"/>
				</g>
				<path class="st3" d="M272.3,168.9c0,0-9.5,7.3-16.5,2.9s-2.9-16.5,12.4-19c15.3-2.5,21,2.8,29-2c8-4.8,16.8-16.1,21.7-13.4
					c4.9,2.8,1.4,11.8-5.1,17.7c-6.5,5.9-14.2,8.1-20.1,8.1C287.8,163.3,277.3,165,272.3,168.9z"/>
			</g>
			<g>
				<g>
					<path class="st4" d="M251.2,59.4c0,0-3.5,5-3.9,11.5c-0.2,2.5,2.2,6.8,11.7,5.3c9.6-1.5,19.5-3.8,22.2-5.8c2.7-2,3-5.7,0.8-8.7
						c-1.3-1.7-7.9-9.5-8.6-9.9C272.6,51.4,252.1,56.5,251.2,59.4z"/>
					<g>
						<g>
							
								<ellipse transform="matrix(0.9893 -0.1456 0.1456 0.9893 -5.5885 40.888)" class="st5" cx="276.5" cy="58.6" rx="3.1" ry="3.1"/>
							<g>
								<g>
									<path class="st6" d="M275.3,59.2C275.3,59.2,275.3,59.1,275.3,59.2c0,0,0-0.2,0-0.2c0-0.2,0-0.4,0-0.6
										c0.2-0.7,0.7-0.9,1.4-0.9c0.5,0,0.5-0.7,0-0.7c-0.9,0.1-1.7,0.4-2,1.3c-0.2,0.4-0.2,0.9-0.1,1.3
										C274.7,59.8,275.4,59.6,275.3,59.2L275.3,59.2z"/>
								</g>
							</g>
						</g>
						<g>
							<path class="st0" d="M248.9,63.2c0.2,1.7,1.8,2.9,3.6,2.6c1.7-0.2,2.9-1.8,2.6-3.5c-0.2-1.7-1.8-2.9-3.6-2.6
								C249.9,59.9,248.7,61.5,248.9,63.2z"/>
							<g>
								<g>
									<path class="st6" d="M254.1,62.9c0-0.4-0.2-0.9-0.5-1.2c-0.5-0.8-1.4-0.9-2.3-0.7c-0.5,0.1-0.3,0.8,0.2,0.7
										c0.6-0.1,1.2-0.1,1.6,0.5c0.1,0.2,0.2,0.3,0.2,0.5c0,0.1,0,0.1,0,0.2c0,0.1,0-0.1,0,0C253.5,63.3,254.2,63.4,254.1,62.9
										L254.1,62.9z"/>
								</g>
							</g>
						</g>
					</g>
					<g>
						<path class="st0" d="M271,75.4c0.3,1.7-0.8,3.4-2.6,3.8l-1.4,0.3c-1.7,0.3-3.4-0.8-3.8-2.6l-1.2-6.5c-0.3-1.7,0.8-3.4,2.6-3.8
							l1.4-0.3c1.7-0.3,3.4,0.8,3.8,2.6L271,75.4z"/>
						<g>
							<path class="st7" d="M273.9,59.4c0.8,4.9-2.5,9.6-7.4,10.4l-1.7,0.3c-4.9,0.8-9.6-2.5-10.4-7.4l-1.4-8.1
								c-0.8-4.9,2.5-9.6,7.4-10.4l1.7-0.3c4.9-0.8,9.6,2.5,10.4,7.4L273.9,59.4z"/>
							<path class="st8" d="M273.9,59.4c0.8,4.9-2.5,9.6-7.4,10.4l-1.7,0.3c-4.9,0.8-9.6-2.5-10.4-7.4l-1.4-8.1
								c-0.8-4.9,2.5-9.6,7.4-10.4l1.7-0.3c4.9-0.8,9.6,2.5,10.4,7.4L273.9,59.4z"/>
						</g>
						<g>
							<polygon class="st9" points="263.1,55 262.7,59.7 265.1,59.2 							"/>
							<g>
								<path class="st10" d="M258.3,58.2c0.1,0.6-0.4,1.2-1,1.3c-0.6,0.1-1.2-0.4-1.3-1c-0.1-0.6,0.4-1.2,1-1.3
									C257.7,57.1,258.3,57.5,258.3,58.2z"/>
								<path class="st10" d="M270.1,55.1c0.1,0.6-0.4,1.2-1,1.3c-0.6,0.1-1.2-0.4-1.3-1c-0.1-0.6,0.4-1.2,1-1.3
									C269.5,54,270,54.4,270.1,55.1z"/>
							</g>
							<g>
								<path class="st11" d="M260,62.3c0.1,1.3-0.9,2.5-2.2,2.6c-1.3,0.1-2.5-0.9-2.6-2.2c-0.1-1.3,0.9-2.5,2.2-2.6
									C258.7,60,259.9,61,260,62.3z"/>
								<path class="st11" d="M273,59.3c0.1,1.3-0.9,2.5-2.2,2.6c-1.3,0.1-2.5-0.9-2.6-2.2s0.9-2.5,2.2-2.6
									C271.7,57,272.9,57.9,273,59.3z"/>
							</g>
							<g>
								<g>
									<path class="st10" d="M263.2,63.7c1.1,1.5,4.3,0.9,4.4-1.1c0-0.5-0.8-0.5-0.8,0c0,0.7-0.8,1.1-1.3,1.1
										c-0.4,0-0.9,0-1.2-0.2c-0.1-0.1-0.4-0.3-0.3-0.2C263.5,62.9,262.9,63.3,263.2,63.7L263.2,63.7z"/>
								</g>
							</g>
						</g>
					</g>
					<path class="st4" d="M250.3,60.3c0,0-4-2.7-4.4-8.3s3.5-11.2,7.8-12.3c6.3-1.6,8.6,0.8,8.6,0.8s3.7-4.3,10.4-0.3
						c6.1,3.7,2,13.3,2,13.3L273,54c0,0-1.2-6.8-5.9-6.6c-4.8,0.3-4.3,6.7-11.9,2.6c0,0,1.3,5.8-1.9,9.1L250.3,60.3z"/>
					<g>
						<path class="st12" d="M270.8,47.1c-1,0.9-2.1,1.4-2.5,0.9c-0.4-0.4,0.1-1.5,1.1-2.5c1-0.9,2.1-1.4,2.5-0.9
							C272.3,45.1,271.8,46.2,270.8,47.1z"/>
						<path class="st12" d="M272.9,49.4c-1.1,0.9-2.2,1.2-2.6,0.8c-0.4-0.5,0.2-1.5,1.2-2.4c1.1-0.9,2.2-1.2,2.6-0.8
							C274.5,47.5,273.9,48.6,272.9,49.4z"/>
					</g>
				</g>
				<g>
					<g>
						<path class="st13" d="M240.4,20.3l7.5,28.3c0,0,8-0.8,11.3-7.5L240.4,20.3z"/>
						<g>
							<path class="st14" d="M248.1,28.9c-1.9,0.6-3.7,0.9-5.2,1l0.2,0.8c1.6-0.1,3.5-0.4,5.6-1.1L248.1,28.9z"/>
							<path class="st14" d="M251.7,32.9c-3,1.1-5.6,1.4-7.7,1.4l0.2,0.8c2.2,0,4.9-0.4,8-1.6L251.7,32.9z"/>
							<path class="st14" d="M255.6,37.1c-3.9,1.9-7.4,2.5-10.1,2.5l0.2,0.8c2.8-0.1,6.4-0.7,10.4-2.7L255.6,37.1z"/>
							<path class="st14" d="M259.2,41.1l-0.3-0.4c-4.7,2.8-8.9,3.6-12.1,3.7l0.2,0.8c3.1-0.1,7.3-0.9,11.9-3.6
								C259,41.5,259.1,41.3,259.2,41.1z"/>
						</g>
						<path class="st15" d="M240.4,20.3l7.5,28.3c0,0,8-0.8,11.3-7.5L240.4,20.3z"/>
					</g>
					<polygon class="st16" points="240.5,13.1 241.3,16.8 243.7,13.8 242.7,17.5 246.2,15.9 243.7,18.8 247.5,18.8 244,20.4 
						247.5,22.1 243.7,22 246,25 242.6,23.2 243.4,26.9 241.2,23.9 240.3,27.6 239.5,23.9 237.1,26.8 238.1,23.1 234.7,24.8 
						237.1,21.9 233.3,21.8 236.8,20.3 233.3,18.6 237.2,18.7 234.8,15.7 238.2,17.5 237.4,13.7 239.7,16.8 					"/>
				</g>
			</g>
			<g>
				<g>
					<path class="st17" d="M279.2,152.3c-3.1-0.1-6.6-0.1-11,0.6c-2.1,0.3-4,0.9-5.7,1.5c0.2,1.6,0.3,3.3,0.4,4.9
						c0.2,4.1,1.2,14-5,15.5c-6.2,1.5-24.4,0-24.4,0l-1.6,7.4c8.2,4.7,32.5,7.9,41.3-1.5C280,173.4,279.6,158.5,279.2,152.3z"/>
					<g>
						<polygon class="st3" points="221.1,180.6 232.5,184.2 235.1,173.8 222.6,172.2 						"/>
						<g>
							<line class="st15" x1="222.2" y1="174.2" x2="231.8" y2="175.5"/>
							<line class="st15" x1="232.1" y1="173.4" x2="230" y2="183.4"/>
							<line class="st15" x1="222" y1="176.4" x2="231.2" y2="178.3"/>
							<line class="st15" x1="221.3" y1="178.7" x2="230.4" y2="181.1"/>
						</g>
					</g>
					<g>
						<polygon class="st17" points="222.4,183.4 225.6,168.8 211.6,167.3 207.3,195.8 216.4,185.8 						"/>
						<path class="st18" d="M214.1,175c0,0,5-6,6.6-4.2c1.6,1.8-2.5,4.2-2.5,4.2s3.5,2.4,1.8,3.9C218.3,180.5,214.1,175,214.1,175z"
							/>
						<g>
							<line class="st15" x1="215.9" y1="186.2" x2="215.5" y2="182.2"/>
							<line class="st15" x1="218.3" y1="185.1" x2="218.3" y2="181.7"/>
						</g>
					</g>
				</g>
				<g>
					<path class="st17" d="M313.5,212.9c0,0,6.6-23.5,7.2-34.6c0.6-10.4-3.4-25.9-13-35.7c-3.4,2.9-7.1,6.2-10.6,8.3
						c-1.9,1.1-3.6,1.7-5.4,2c5.9,5.3,15.9,15.9,15.6,27.5c-0.5,16.4-2.4,31.5-2.4,31.5L313.5,212.9z"/>
					<g>
						<polygon class="st3" points="311.2,223.3 314.4,211.7 303.9,209.4 302.8,222 						"/>
						<g>
							<line class="st15" x1="304.8" y1="222.3" x2="305.8" y2="212.7"/>
							<line class="st15" x1="303.6" y1="212.4" x2="313.7" y2="214.3"/>
							<line class="st15" x1="307" y1="222.5" x2="308.5" y2="213.2"/>
							<line class="st15" x1="309.3" y1="223.1" x2="311.4" y2="213.9"/>
						</g>
					</g>
					<g>
						<polygon class="st17" points="314.8,222.1 300.5,217.4 297.6,231.2 325.6,238.4 316.5,228.3 						"/>
						<path class="st18" d="M305.5,229.5c0,0-5.4-5.6-3.5-7c2-1.4,3.9,2.9,3.9,2.9s2.7-3.2,4.1-1.4
							C311.4,225.8,305.5,229.5,305.5,229.5z"/>
						<g>
							<line class="st15" x1="316.8" y1="228.8" x2="312.9" y2="228.8"/>
							<line class="st15" x1="316.1" y1="226.3" x2="312.6" y2="226"/>
						</g>
					</g>
				</g>
			</g>
		</g>
		<g>
			<g>
				<g>
					<path class="st15" d="M445.1,77.1c0,0,5.8-2.1,6.4-9.8"/>
					<path class="st15" d="M451.2,76.7c0,0,2.4-2.5,2.5-4.9"/>
				</g>
				<g>
					<path class="st15" d="M372.7,47.8c0,0-6.9,39.7,13.5,39.4c20.4-0.3,11.5-16.4,6.1-12.6c-5.3,3.8-9.6,23.9,4.8,26.1
						c14.4,2.2,17.6-2.8,20.4-5.5c2.8-2.7,15.9-8,14.2,2.2c-1.7,10.2,9.1,15,15.7,15.6c0,0,8-0.5,11.3,6.8"/>
					<g>
						<g>
							<circle cx="344.5" cy="10.6" r="9.7"/>
							<circle cx="391.9" cy="9.7" r="9.7"/>
						</g>
						<g>
							<ellipse class="st17" cx="368.6" cy="27.3" rx="29.7" ry="22.6"/>
						</g>
						<g>
							<g>
								<path d="M366.3,30.2c-0.5,2.3-0.1,7.5,3.3,7.5c3.4,0,3.8-5.1,3.3-7.5c-0.1-0.6-1-0.3-0.9,0.2c0.3,1.7,0.2,6.3-2.4,6.3
									c-2.7,0-2.8-4.6-2.4-6.3C367.3,29.8,366.4,29.6,366.3,30.2L366.3,30.2z"/>
							</g>
							<g>
								<path class="st19" d="M372.3,23.7c0,1.1-1.2,1.9-2.7,1.9s-2.7-0.9-2.7-1.9c0-1.1,1.2-1.9,2.7-1.9
									C371.1,21.8,372.3,22.7,372.3,23.7z"/>
								<g>
									<path class="st19" d="M369.2,24.8c0,1.4,0,2.9,0,4.3c0,0.6,0.9,0.6,0.9,0c0-1.4,0-2.9,0-4.3
										C370.1,24.2,369.2,24.2,369.2,24.8L369.2,24.8z"/>
								</g>
							</g>
							<g>
								<ellipse class="st20" cx="389.7" cy="30.7" rx="5.8" ry="3"/>
								<path class="st20" d="M353.5,30.4c0.1,1.6-2.5,3.1-5.7,3.3c-3.2,0.2-5.8-1-5.9-2.6c-0.1-1.6,2.5-3.1,5.7-3.3
									C350.8,27.6,353.5,28.7,353.5,30.4z"/>
							</g>
							<g>
								<ellipse transform="matrix(0.2288 -0.9735 0.9735 0.2288 276.7362 394.3732)" cx="387.3" cy="22.5" rx="7.3" ry="7.3"/>
								<ellipse transform="matrix(0.6276 -0.7785 0.7785 0.6276 112.1999 281.4489)" cx="350.3" cy="23.4" rx="7.3" ry="7.3"/>
							</g>
							<g>
								<path class="st21" d="M347.3,21.3c0,0.3-0.1,0.6-0.1,0.9c0,2.4,1.4,4.4,3.1,4.4c1.7,0,3.1-2,3.1-4.4c0-0.3,0-0.6-0.1-0.9"/>
								<path class="st21" d="M384.9,20.8c0,0.3-0.1,0.6-0.1,0.9c0,2.4,1.4,4.4,3.1,4.4c1.7,0,3.1-2,3.1-4.4c0-0.3,0-0.6-0.1-0.9"/>
							</g>
						</g>
					</g>
				</g>
				<g>
					<path class="st15" d="M416.2,76c0,0-14.2,4.6-11.1,17.2c3.2,12.6,19.3,1.6,25.5,4.7c6.2,3.2,11,11.2,3.8,23.7
						c-7.2,12.5-4.6,23.3,7,28.1"/>
					<g>
						<g>
							<path class="st16" d="M406,44.3c0,0-7.9-12.2-11.6-11.5c-3.7,0.7-4.8,21.4-2.9,20.3C393.4,52,406,44.3,406,44.3z"/>
							<path class="st16" d="M426.1,44.3c0,0,7.9-12.2,11.6-11.5c3.7,0.7,4.8,21.4,2.9,20.3C438.7,52,426.1,44.3,426.1,44.3z"/>
						</g>
						<g>
							<ellipse class="st16" cx="416.2" cy="57" rx="27.4" ry="20.9"/>
						</g>
						<g>
							<path d="M433.8,51c0,1-0.8,1.7-1.7,1.7c-1,0-1.7-0.8-1.7-1.7s0.8-1.7,1.7-1.7C433.1,49.3,433.8,50.1,433.8,51z"/>
							<g>
								<path d="M425.5,54.8c0,0.4-0.3,0.6-0.6,0.6c-0.4,0-0.6-0.3-0.6-0.6c0-0.4,0.3-0.6,0.6-0.6C425.2,54.2,425.5,54.5,425.5,54.8
									z"/>
								<circle cx="424.9" cy="57.3" r="0.6"/>
								<path d="M427.5,55.9c0,0.4-0.3,0.6-0.6,0.6c-0.4,0-0.6-0.3-0.6-0.6c0-0.4,0.3-0.6,0.6-0.6C427.2,55.2,427.5,55.5,427.5,55.9
									z"/>
							</g>
							<g>
								<path d="M408,55.4c0,0.4,0.3,0.6,0.6,0.6c0.4,0,0.6-0.3,0.6-0.6c0-0.4-0.3-0.6-0.6-0.6C408.3,54.8,408,55.1,408,55.4z"/>
								<path d="M407.9,57.9c0,0.4,0.3,0.6,0.6,0.6c0.4,0,0.6-0.3,0.6-0.6s-0.3-0.6-0.6-0.6S407.9,57.5,407.9,57.9z"/>
								<path d="M406,56.4c0,0.4,0.3,0.6,0.6,0.6s0.6-0.3,0.6-0.6c0-0.4-0.3-0.6-0.6-0.6S406,56.1,406,56.4z"/>
							</g>
							<path d="M401.5,51.4c0,1-0.8,1.7-1.7,1.7c-1,0-1.7-0.8-1.7-1.7s0.8-1.7,1.7-1.7C400.7,49.7,401.5,50.4,401.5,51.4z"/>
							<g>
								<path d="M414,59.6c-0.4,2.1-0.1,6.9,3.1,6.9s3.5-4.7,3.1-6.9c-0.1-0.5-0.9-0.3-0.8,0.2c0.3,1.5,0.2,5.8-2.2,5.8
									c-2.5,0-2.6-4.3-2.2-5.8C415,59.3,414.2,59.1,414,59.6L414,59.6z"/>
							</g>
							<g>
								<path class="st22" d="M419.6,53.7c0,1-1.1,1.8-2.5,1.8c-1.4,0-2.5-0.8-2.5-1.8c0-1,1.1-1.8,2.5-1.8S419.6,52.7,419.6,53.7z"
									/>
								<g>
									<path class="st22" d="M416.7,54.7c0,1.3,0,2.6,0,4c0,0.5,0.8,0.5,0.8,0c0-1.3,0-2.6,0-4C417.5,54.1,416.7,54.1,416.7,54.7
										L416.7,54.7z"/>
								</g>
							</g>
						</g>
						<g>
							<path class="st17" d="M405.7,37.7v4.9c0,1.5,1,2.7,2.3,2.7s2.3-1.2,2.3-2.7v-6C408.6,36.9,407.1,37.2,405.7,37.7z"/>
							<path class="st17" d="M416.2,36.1c-0.4,0-0.7,0-1.1,0v5.1c0,1.5,1,2.7,2.3,2.7c1.2,0,2.3-1.2,2.3-2.7v-5
								C418.5,36.2,417.4,36.1,416.2,36.1z"/>
							<path class="st17" d="M423.3,36.8v4.5c0,1.5,1,2.7,2.3,2.7c1.2,0,2.3-1.2,2.3-2.7v-3.2C426.4,37.6,424.9,37.1,423.3,36.8z"/>
							<path class="st17" d="M436.8,56.4c-0.2,1.2,0.9,2.4,2.4,2.6l4.2,0.5c0.1-0.8,0.2-1.7,0.2-2.6c0-0.7,0-1.3-0.1-2l-3.7-0.5
								C438.2,54.3,436.9,55.2,436.8,56.4z"/>
							<path class="st17" d="M441,65.8l-4.2-3c-1.2-0.9-2.8-0.7-3.5,0.3c-0.7,1-0.3,2.5,0.9,3.4l4,2.9
								C439.3,68.3,440.2,67.1,441,65.8z"/>
							<path class="st17" d="M428.7,70c-0.7-1.3-2.2-1.8-3.3-1.2c-1.1,0.6-1.4,2.2-0.6,3.5l2.2,3.8c1.5-0.5,2.9-1.1,4.2-1.7
								L428.7,70z"/>
							<path class="st17" d="M416.2,70.8c-1.2,0-2.3,1.2-2.3,2.7v4.2c0.7,0,1.5,0.1,2.3,0.1c0.8,0,1.5,0,2.3-0.1v-4.2
								C418.4,72,417.4,70.8,416.2,70.8z"/>
							<path class="st17" d="M404.9,68.1c-1.2-0.3-2.5,0.6-2.9,2l-1.1,4.2c1.3,0.7,2.7,1.3,4.2,1.8l1.3-4.8
								C406.7,69.8,406.1,68.4,404.9,68.1z"/>
							<path class="st17" d="M395.1,64.4l-2.8,2.8c0.9,1.2,1.9,2.3,3.1,3.3l2.9-2.9c1-1,1.2-2.6,0.3-3.5
								C397.7,63.2,396.1,63.3,395.1,64.4z"/>
							<path class="st17" d="M394.6,55.9c-0.5-1.1-2.1-1.5-3.4-0.8l-2.3,1.1c0,0.3,0,0.5,0,0.8c0,1.4,0.2,2.7,0.5,4l3.8-1.9
								C394.5,58.4,395.1,57,394.6,55.9z"/>
						</g>
					</g>
				</g>
				<path class="st17" d="M432,90.8c0,0-5.8,7.6-5.8,9.2c0.1,1.6,5.8-4.6,5.8-4.6s-4.7,4.7-4.5,5.4c0.3,0.7,1.2,0.6,5.8-3.6
					c0,0-4.3,4.3-3.9,5.3c0.4,1,5.7-3.6,5.7-3.6s-4.2,4.2-3.5,4.7c0.6,0.6,4-2,5.1-3.9c1.2-1.8-0.2-2.2-0.7-2.6
					C434.7,95.8,433.2,89.9,432,90.8z"/>
			</g>
			<g>
				<g>
					<g>
						<g>
							<polygon class="st23" points="338.6,287.8 335.2,299 328.6,297.4 331.9,284.5 							"/>
							<g>
								<line class="st24" x1="329.9" y1="298.1" x2="333.6" y2="285.3"/>
								<line class="st24" x1="331.7" y1="298.3" x2="335.2" y2="286.8"/>
								<line class="st24" x1="333.6" y1="299" x2="336.9" y2="287.4"/>
							</g>
						</g>
						<g>
							<polygon class="st23" points="323.9,295.4 337.5,299 335.8,312.8 309.1,313.3 321,303.2 							"/>
							<path class="st25" d="M328.8,307.4c-1.5-1-1.9-3-0.9-4.4c1-1.5,3-1.9,4.4-0.9c1.5,1,1.9,3,0.9,4.4
								C332.3,308,330.3,308.4,328.8,307.4z"/>
							<g>
								<line class="st24" x1="318.5" y1="305.7" x2="321" y2="308"/>
								<line class="st24" x1="316.6" y1="307" x2="319.6" y2="309.6"/>
							</g>
						</g>
						<g>
							<path class="st16" d="M329.9,283.3c0,0,8.2-63.9,16.6-89.1l27.5,2.3l2.7,0.7c0,0-18.1,40.7-23.4,53.6
								c-5.5,13.4-11.9,34.5-11.9,34.5L329.9,283.3z"/>
							<path class="st15" d="M343.6,204.4c0,0,9.8,3.2,12.1-8.8"/>
							<g>
								<path class="st2" d="M327.3,285.9c-0.2,0.8,0.4,1.6,1.2,1.7l13.5,2.4c0.8,0.2,1.6-0.4,1.7-1.2l0.6-3.1
									c0.2-0.8-0.4-1.6-1.2-1.7l-13.5-2.4c-0.8-0.2-1.6,0.4-1.7,1.2L327.3,285.9z"/>
								<path class="st8" d="M327.3,285.9c-0.2,0.8,0.4,1.6,1.2,1.7l13.5,2.4c0.8,0.2,1.6-0.4,1.7-1.2l0.6-3.1
									c0.2-0.8-0.4-1.6-1.2-1.7l-13.5-2.4c-0.8-0.2-1.6,0.4-1.7,1.2L327.3,285.9z"/>
							</g>
						</g>
					</g>
					<g>
						<g>
							<polygon class="st23" points="416.9,229.1 426.2,222.1 430.6,227.3 420.3,235.7 							"/>
							<g>
								<line class="st24" x1="429.9" y1="225.9" x2="419.5" y2="234"/>
								<line class="st24" x1="428.6" y1="224.7" x2="419" y2="232"/>
								<line class="st24" x1="427.5" y1="223.1" x2="418" y2="230.4"/>
							</g>
						</g>
						<g>
							<polygon class="st23" points="433.2,231.6 424.3,220.7 433.9,210.6 455.7,225.9 440.2,227.1 							"/>
							<path class="st25" d="M436.3,219c0.6,1.7-0.2,3.5-1.9,4.1c-1.7,0.6-3.5-0.2-4.1-1.9c-0.6-1.7,0.2-3.5,1.9-4.1
								C433.9,216.5,435.7,217.3,436.3,219z"/>
							<g>
								<line class="st24" x1="443.6" y1="226.5" x2="443" y2="223.2"/>
								<line class="st24" x1="445.9" y1="226.6" x2="445" y2="222.8"/>
							</g>
						</g>
						<g>
							<path class="st26" d="M360.4,207.8h3.3c0,0,3.7,44.3,21.5,47.6s35-19.6,35-19.6l-5.8-6.8c0,0-14.2,10.3-17,6.8
								c-2.8-3.5-9.3-20.4-10.4-43.4l-25.6,2"/>
							<path class="st15" d="M376.7,193.6c0,0-2.1,17.5,12.2,16.5"/>
							<g>
								<path class="st2" d="M412,226.4c-0.6,0.5-0.7,1.5-0.2,2.1l8.7,10.5c0.5,0.6,1.5,0.7,2.1,0.2l2.4-2c0.6-0.5,0.7-1.5,0.2-2.1
									l-8.7-10.5c-0.5-0.6-1.5-0.7-2.1-0.2L412,226.4z"/>
								<path class="st8" d="M412,226.4c-0.6,0.5-0.7,1.5-0.2,2.1l8.7,10.5c0.5,0.6,1.5,0.7,2.1,0.2l2.4-2c0.6-0.5,0.7-1.5,0.2-2.1
									l-8.7-10.5c-0.5-0.6-1.5-0.7-2.1-0.2L412,226.4z"/>
							</g>
						</g>
					</g>
					<g>
						<path class="st17" d="M417.9,113.9c0,0,4.2-5,5.7-9c1.6-4,2.9-16,3.7-16.1c0.8-0.2,1.2,5,1,7.5c-0.2,2.5,6.3,5.2,6.3,5.2
							s-1.5,7.3-7.3,15.5C421.6,125.1,417.9,113.9,417.9,113.9z"/>
						<g>
							<path class="st17" d="M326.7,88.3c0,0,0.1-8.9-1.2-11.7c-1.3-2.8-2.3,4.6-2,8.5C323.8,88.9,326.3,89.6,326.7,88.3z"/>
							<g>
								<line class="st15" x1="326.7" y1="63.9" x2="326" y2="86.5"/>
								<g>
									<line class="st27" x1="330.6" y1="70.6" x2="322.8" y2="56.4"/>
									<line class="st27" x1="329" y1="57.6" x2="324" y2="70.7"/>
									<line class="st27" x1="331.7" y1="65.9" x2="319.7" y2="60.5"/>
									<line class="st27" x1="332.8" y1="60.2" x2="320.8" y2="67.2"/>
									<line class="st27" x1="320.7" y1="64.5" x2="317.9" y2="65.7"/>
									<line class="st27" x1="333" y1="71.3" x2="335.3" y2="75"/>
									<line class="st27" x1="321.4" y1="70.4" x2="317.5" y2="75"/>
									<path class="st27" d="M321.4,58.2c-0.1-0.1-2.7-2.5-2.7-2.5"/>
									<line class="st27" x1="338.5" y1="63.5" x2="331.9" y2="63.7"/>
									<line class="st27" x1="339.6" y1="55.4" x2="337.9" y2="56.6"/>
									<line class="st27" x1="334.8" y1="53.8" x2="331.6" y2="58"/>
									<line class="st27" x1="325.8" y1="56.9" x2="324.5" y2="50.9"/>
									<line class="st27" x1="319.6" y1="62.5" x2="311.8" y2="62.9"/>
								</g>
							</g>
							<g>
								<path class="st17" d="M330.3,98.1c0,0-0.6-15.9-2.6-19.4c-2-3.5-1.6,9-1.6,9l-6.6,2.3c0,0-0.4,0.8,0.3,3.5
									c0.7,2.7,2.4,8.1,2.4,8.1S329.9,101.1,330.3,98.1z"/>
								<path class="st17" d="M323.8,86.6c0,0,3.8,4.9,4.4,4.1c0.6-0.8-3.9-7.9-4.9-7.8c-1.1,0.1-3.2,2.4-4.1,3.6
									c-0.9,1.2-1.2,2.7-0.2,4c1,1.3,6,4.2,6.6,3.8c0.5-0.3,1.2-0.8-3.6-5.3C321.9,89.1,333,99,323.8,86.6z"/>
							</g>
						</g>
					</g>
				</g>
				<g>
					<path class="st13" d="M348.3,157.4c0,0-25.2-29-26.1-55.5l8.3-3.2c0,0,15.9,37.6,31.4,44.6c15.4,6.9,27.2-1.4,38-11.6
						c10.8-10.3,20.7-22.2,20.7-22.2l8.6,6.1c0,0-12.6,26.7-36.3,43.5l-1.7,40.5c0,0-31.6,7.1-47.3-4.9L348.3,157.4z"/>
					<g>
						<path class="st28" d="M334.9,138.5c0.2,0.4,0.5,0.8,0.7,1.2v-30.1c-0.2-0.5-0.5-1-0.7-1.4V138.5z"/>
						<g>
							<path class="st28" d="M323.5,111.8c0.1,0.2,0.1,0.5,0.2,0.7h13.5c-0.1-0.2-0.3-0.5-0.4-0.7H323.5z"/>
						</g>
						<g>
							<path class="st28" d="M327.2,123.2c0.1,0.2,0.2,0.5,0.3,0.7h16.2c-0.2-0.2-0.3-0.5-0.5-0.7H327.2z"/>
							<path class="st28" d="M424.9,123.2h-16.7c-0.2,0.2-0.5,0.5-0.7,0.7h16.9C424.6,123.7,424.7,123.4,424.9,123.2z"/>
						</g>
						<g>
							<path class="st28" d="M343.2,150.9c0.2,0.3,0.5,0.7,0.7,1v-27.7c-0.2-0.4-0.5-0.8-0.7-1.2V150.9z"/>
							<path class="st28" d="M343.9,194.1l0,0.4c0,0,0,0,0,0V194.1z"/>
						</g>
						<g>
							<path class="st28" d="M417.6,134.1h-20.4c-0.3,0.2-0.5,0.5-0.8,0.7H417C417.2,134.6,417.4,134.3,417.6,134.1z"/>
							<path class="st28" d="M351,134.1h-18.6c0.1,0.2,0.3,0.5,0.4,0.7h18.9C351.5,134.6,351.2,134.3,351,134.1z"/>
						</g>
						<path class="st28" d="M352.2,135.5c-0.2-0.3-0.5-0.6-0.7-0.8v64c0.2,0.1,0.5,0.2,0.7,0.3V135.5z"/>
						<path class="st28" d="M361.5,201c0.2,0,0.5,0.1,0.7,0.1v-57.7c-0.1-0.1-0.2-0.1-0.4-0.2c-0.1-0.1-0.2-0.1-0.4-0.2L361.5,201
							L361.5,201z"/>
						<g>
							<path class="st28" d="M364.1,144.1h-25.6c0.2,0.2,0.3,0.5,0.5,0.7h27.4C365.6,144.7,364.8,144.4,364.1,144.1z"/>
							<path class="st28" d="M409.3,144.1h-27.5c-0.7,0.3-1.5,0.5-2.2,0.7h29.1C408.9,144.6,409.1,144.4,409.3,144.1z"/>
						</g>
						<path class="st28" d="M400.4,152.9h-55.8c0.2,0.2,0.4,0.5,0.6,0.7h54.4C399.9,153.4,400.2,153.1,400.4,152.9z"/>
						<polygon class="st28" points="392.6,163.3 392.7,162.6 347.7,162.6 347.6,163.3 						"/>
						<polygon class="st28" points="392.2,172.6 392.3,171.9 346.6,171.9 346.5,172.6 						"/>
						<polygon class="st28" points="391.9,181.1 391.9,180.4 345.6,180.4 345.5,181.1 						"/>
						<polygon class="st28" points="391.5,189.3 391.6,188.6 344.6,188.6 344.5,189.3 						"/>
						<path class="st28" d="M391.2,197.2l0-0.7h-44.5c0.4,0.3,0.9,0.5,1.4,0.7H391.2z"/>
						<path class="st28" d="M375.3,201.5c0.2,0,0.5,0,0.7,0v-55.8c-0.2,0-0.5,0.1-0.7,0.1V201.5z"/>
						<path class="st28" d="M383.8,200.7c0.2,0,0.5-0.1,0.7-0.1V143c-0.2,0.1-0.5,0.2-0.7,0.3V200.7z"/>
						<path class="st28" d="M394.4,157.7c0.2-0.2,0.5-0.4,0.7-0.5v-21.4c-0.2,0.2-0.5,0.4-0.7,0.6V157.7z"/>
						<path class="st28" d="M404.3,149.4c0.2-0.2,0.5-0.5,0.7-0.7v-22.1c-0.2,0.2-0.5,0.5-0.7,0.7V149.4z"/>
						<path class="st28" d="M414.5,138.1c0.2-0.3,0.5-0.6,0.7-0.9v-21.6c-0.2,0.3-0.5,0.5-0.7,0.8V138.1z"/>
					</g>
					<line class="st15" x1="370.4" y1="145.6" x2="367" y2="201.5"/>
					<path class="st15" d="M348.3,157.4c0,0-25.2-29-26.1-55.5l8.3-3.2c0,0,15.9,37.6,31.4,44.6c15.4,6.9,27.2-1.4,38-11.6
						c10.8-10.3,20.7-22.2,20.7-22.2l8.6,6.1c0,0-12.6,26.7-36.3,43.5l-1.7,40.5c0,0-31.6,7.1-47.3-4.9L348.3,157.4z"/>
					<path class="st29" d="M369.6,149.9l-8.5,3c0,0-1.6-6.4-0.2-10.1l6.3-2.2l8.6,0.5l4.9,3.6c0,0,0.1,4.7-4,10.2L369.6,149.9z"/>
					<g>
						<path class="st18" d="M353.4,156.7v5.5c0,2.8,2.3,5.1,5.1,5.1h0.2c2.8,0,5.1-2.3,5.1-5.1v-5.5L353.4,156.7L353.4,156.7z"/>
						<line class="st15" x1="353.4" y1="159.6" x2="363.8" y2="159.6"/>
					</g>
					<path d="M331,102.2c0,0.7-0.6,1.3-1.3,1.3c-0.7,0-1.3-0.6-1.3-1.3s0.6-1.3,1.3-1.3C330.4,100.9,331,101.5,331,102.2z"/>
					<path d="M422.1,113.5c0,0.7-0.6,1.3-1.3,1.3c-0.7,0-1.3-0.6-1.3-1.3c0-0.7,0.6-1.3,1.3-1.3
						C421.5,112.2,422.1,112.8,422.1,113.5z"/>
					<path class="st15" d="M415.9,114.8c0,0,3.5,3.6,9.4,7.6"/>
					<path class="st15" d="M322.9,109c0,0,8.1-3.4,10.2-4.5"/>
				</g>
				<g>
					<g>
						<g>
							<g>
								<path class="st0" d="M389.5,129.8c-0.2,1.9-1.9,3.2-3.8,3c-1.9-0.2-3.2-1.9-3-3.8c0.2-1.9,1.9-3.2,3.8-3
									C388.4,126.2,389.7,127.9,389.5,129.8z"/>
								<g>
									<g>
										<path class="st6" d="M384.6,129.7c0-0.2,0.1-0.6,0.2-0.8c0.4-0.7,1.1-0.8,1.7-0.6c0.5,0.1,0.6-0.6,0.2-0.7
											c-0.9-0.2-1.9,0-2.4,0.8c-0.3,0.4-0.4,0.9-0.5,1.4C383.8,130.1,384.5,130.1,384.6,129.7L384.6,129.7z"/>
									</g>
								</g>
							</g>
							<g>
								<path class="st0" d="M355.5,126.6c-0.2,1.9,1.1,3.6,3,3.8c1.9,0.2,3.6-1.1,3.8-3c0.2-1.9-1.1-3.6-3-3.8
									C357.4,123.3,355.7,124.7,355.5,126.6z"/>
								<g>
									<g>
										<path class="st6" d="M361.1,127.7c0.1-0.5,0-1-0.1-1.4c-0.4-0.9-1.3-1.3-2.2-1.3c-0.5,0-0.5,0.7,0,0.7
											c0.7,0,1.4,0.3,1.6,1c0.1,0.2,0.1,0.4,0.1,0.6c0,0.1,0,0.1,0,0.2c0,0.1,0,0,0,0C360.3,128,361,128.1,361.1,127.7
											L361.1,127.7z"/>
									</g>
								</g>
							</g>
						</g>
						<g>
							<path class="st0" d="M375.5,145.6c-0.1,1.9-1.8,3.4-3.8,3.3l-1.5-0.1c-1.9-0.1-3.4-1.8-3.3-3.8l0.5-7.3
								c0.1-1.9,1.8-3.4,3.8-3.3l1.5,0.1c1.9,0.1,3.4,1.8,3.3,3.8L375.5,145.6z"/>
							<g>
								<path class="st7" d="M383,130.4c-0.5,4.9-4.8,8.6-9.8,8.2l-3.7-0.3c-4.9-0.5-8.6-4.8-8.2-9.8l1-10.7
									c0.5-4.9,4.8-8.6,9.8-8.2l3.7,0.3c4.9,0.5,8.6,4.8,8.2,9.8L383,130.4z"/>
								<path class="st8" d="M383,130.4c-0.5,4.9-4.8,8.6-9.8,8.2l-3.7-0.3c-4.9-0.5-8.6-4.8-8.2-9.8l1-10.7
									c0.5-4.9,4.8-8.6,9.8-8.2l3.7,0.3c4.9,0.5,8.6,4.8,8.2,9.8L383,130.4z"/>
							</g>
							<g>
								<polygon class="st9" points="372.8,121.8 371.2,126.7 373.8,126.9 								"/>
								<g>
									<path class="st10" d="M366.9,123.9c-0.1,0.7-0.7,1.2-1.4,1.1c-0.7-0.1-1.2-0.7-1.1-1.4c0.1-0.7,0.7-1.2,1.4-1.1
										C366.5,122.5,367,123.2,366.9,123.9z"/>
									<path class="st10" d="M380.3,123.8c-0.1,0.7-0.7,1.2-1.4,1.1s-1.2-0.7-1.1-1.4c0.1-0.7,0.7-1.2,1.4-1.1
										C379.9,122.5,380.4,123.1,380.3,123.8z"/>
								</g>
								<g>
									<path class="st11" d="M367.3,128.9c-0.2,1.5-1.7,2.5-3.2,2.2c-1.5-0.2-2.5-1.7-2.2-3.2c0.2-1.5,1.7-2.5,3.2-2.2
										C366.5,126,367.5,127.4,367.3,128.9z"/>
									<path class="st11" d="M382.3,129.3c-0.2,1.5-1.7,2.5-3.2,2.2c-1.5-0.2-2.5-1.7-2.2-3.2c0.2-1.5,1.7-2.5,3.2-2.2
										C381.5,126.4,382.5,127.8,382.3,129.3z"/>
								</g>
								<path class="st30" d="M370.4,130.3c0,1.1,0.9,2,2,2.1c1.1,0.1,2.1-0.6,2.3-1.7L370.4,130.3z"/>
							</g>
						</g>
					</g>
					<path d="M358.7,123.5c0,0-5.1-7.9,0-15.8c5.1-8,15.6-7.1,19.2-1.5c0,0,7.5-1.8,10.4,4.8c3,6.6-1.3,15.1-1.3,15.1l-1.9-0.1
						l-1.8,1.2c0,0,1.5-9.9-0.3-11.9c-1.3-1.5-5.6-2.1-8.6-0.5c-3,1.6-6.5,0.7-8.4-1.2c0,0-0.9,8.4-4.3,11.1l-1.3-1.1L358.7,123.5z"
						/>
				</g>
			</g>
			<g>
				<line class="st15" x1="406.5" y1="170.8" x2="409" y2="181.4"/>
				<line class="st15" x1="416.7" y1="165.2" x2="429" y2="176.9"/>
				<line class="st15" x1="420.2" y1="156.4" x2="439.2" y2="162.7"/>
			</g>
		</g>
		<g>
			<g>
				<rect x="408.2" y="276.8" class="st1" width="33" height="29.6"/>
				<g>
					<path class="st15" d="M432.1,283.2l-6.5-6.8c0,0-1.3-9.3-5.9-9.2c-4.7,0.1,0.9,7.5,5.9,9.2"/>
					<path class="st15" d="M425.9,276.1c0,0,8.8-3,8.7-6.6C434.5,265.9,428.4,267.7,425.9,276.1z"/>
					<line class="st15" x1="425" y1="306.4" x2="425.6" y2="276.4"/>
				</g>
				<g>
					<polygon class="st2" points="419.4,279.1 418.2,281.6 415.6,281.9 417.5,283.8 417.1,286.5 419.4,285.2 421.8,286.5 
						421.4,283.8 423.3,281.9 420.6,281.6 					"/>
					<polygon class="st2" points="413.2,287.6 412,290 409.3,290.4 411.3,292.3 410.8,295 413.2,293.7 415.6,295 415.1,292.3 
						417.1,290.4 414.4,290 					"/>
					<polygon class="st2" points="435.5,296.5 434.3,298.9 431.7,299.3 433.6,301.2 433.1,303.8 435.5,302.6 437.9,303.8 
						437.5,301.2 439.4,299.3 436.7,298.9 					"/>
					<polygon class="st2" points="430.3,286.8 429.1,289.3 426.4,289.6 428.3,291.5 427.9,294.2 430.3,292.9 432.6,294.2 
						432.2,291.5 434.1,289.6 431.5,289.3 					"/>
					<polygon class="st2" points="435.5,277.9 434.3,280.3 431.7,280.7 433.6,282.6 433.1,285.2 435.5,284 437.9,285.2 437.5,282.6 
						439.4,280.7 436.7,280.3 					"/>
					<polygon class="st2" points="420.1,296.5 419,298.9 416.3,299.3 418.2,301.2 417.8,303.8 420.1,302.6 422.5,303.8 422.1,301.2 
						424,299.3 421.3,298.9 					"/>
				</g>
			</g>
			<g>
				<rect x="4" y="259.6" class="st18" width="33.6" height="44.3"/>
				<g>
					<circle class="st2" cx="8" cy="271.8" r="2"/>
					<path class="st2" d="M14.1,264c0,1.1-0.9,2-2,2s-2-0.9-2-2c0-1.1,0.9-2,2-2C13.2,261.9,14.1,262.8,14.1,264z"/>
					<path class="st2" d="M17.1,276.8c0,1.1-0.9,2-2,2s-2-0.9-2-2c0-1.1,0.9-2,2-2C16.2,274.8,17.1,275.7,17.1,276.8z"/>
					<path class="st2" d="M20.7,270.8c0,1.1-0.9,2-2,2s-2-0.9-2-2c0-1.1,0.9-2,2-2S20.7,269.6,20.7,270.8z"/>
					<path class="st2" d="M29.1,276.8c0,1.1-0.9,2-2,2s-2-0.9-2-2c0-1.1,0.9-2,2-2C28.2,274.8,29.1,275.7,29.1,276.8z"/>
					<path class="st2" d="M36.5,271.8c0,1.1-0.9,2-2,2s-2-0.9-2-2c0-1.1,0.9-2,2-2S36.5,270.7,36.5,271.8z"/>
					<path class="st2" d="M29.5,265.4c0,1.1-0.9,2-2,2s-2-0.9-2-2c0-1.1,0.9-2,2-2C28.6,263.4,29.5,264.3,29.5,265.4z"/>
					<circle class="st2" cx="8.5" cy="285.6" r="2"/>
					<circle class="st2" cx="18.7" cy="286.1" r="2"/>
					<path class="st2" d="M15.4,292.3c0,1.1-0.9,2-2,2s-2-0.9-2-2c0-1.1,0.9-2,2-2S15.4,291.2,15.4,292.3z"/>
					<circle class="st2" cx="8.5" cy="298.9" r="2"/>
					<circle class="st2" cx="18.7" cy="298.9" r="2"/>
					<circle class="st2" cx="27.1" cy="300.2" r="2"/>
					<path class="st2" d="M30.2,290.8c1,0.6,1.3,1.8,0.8,2.8s-1.8,1.3-2.8,0.8c-1-0.6-1.3-1.8-0.8-2.8
						C27.9,290.5,29.2,290.2,30.2,290.8z"/>
					<path class="st2" d="M35.4,286.7c1,0.6,1.3,1.8,0.8,2.8s-1.8,1.3-2.8,0.8c-1-0.6-1.3-1.8-0.8-2.8
						C33.2,286.4,34.5,286.1,35.4,286.7z"/>
					<path class="st2" d="M36.5,299.6c0,1.1-0.9,2-2,2s-2-0.9-2-2c0-1.1,0.9-2,2-2S36.5,298.5,36.5,299.6z"/>
					<path class="st2" d="M29.1,284.9c0,1.1-0.9,2-2,2s-2-0.9-2-2c0-1.1,0.9-2,2-2C28.2,282.9,29.1,283.8,29.1,284.9z"/>
				</g>
				<g>
					<g>
						<path class="st15" d="M22.2,259.6c0,0,2.9-16.5,8.8-13.6C36.9,248.9,26.1,257.7,22.2,259.6z"/>
						<path class="st15" d="M21.4,259.6c0,0-2.9-16.5-8.8-13.6C6.7,248.9,17.5,257.7,21.4,259.6z"/>
						<line class="st15" x1="13.7" y1="267.4" x2="22.2" y2="259.9"/>
						<line class="st15" x1="31" y1="268" x2="21.9" y2="259.9"/>
					</g>
					<line class="st15" x1="22.2" y1="303.9" x2="22.2" y2="259.6"/>
					<line class="st15" x1="4" y1="280.7" x2="37.6" y2="280.7"/>
				</g>
			</g>
			<g>
				<rect x="28.5" y="276.1" class="st2" width="36.5" height="32.8"/>
				<g>
					<rect x="32.3" y="276.1" class="st14" width="4.2" height="32.8"/>
					<rect x="39.9" y="276.1" class="st14" width="4.2" height="32.8"/>
					<rect x="48.6" y="276.1" class="st14" width="4.2" height="32.8"/>
					<rect x="56.2" y="276.1" class="st14" width="4.2" height="32.8"/>
				</g>
				<rect x="28.5" y="276.1" class="st15" width="36.5" height="32.8"/>
				<g>
					<path class="st15" d="M38.5,283.2l7.2-7.6c0,0,1.4-10.4,6.6-10.2s-1,8.3-6.6,10.2"/>
					<path class="st15" d="M45.4,275.4c0,0-9.8-3.3-9.7-7.3C35.8,264.1,42.7,266,45.4,275.4z"/>
					<line class="st15" x1="46.4" y1="308.9" x2="45.8" y2="275.7"/>
				</g>
			</g>
		</g>
		<g>
			<rect x="253.2" y="254.5" class="st31" width="34.3" height="9.2"/>
			<g>
				<g>
					<g>
						<rect x="257.8" y="239.2" class="st2" width="4.1" height="16.5"/>
						<path class="st32" d="M257.8,245.4c0,0,0.5-1.6,2.1-1.9c1.6-0.3,2.1-2.6,2.1-2.6"/>
						<path class="st32" d="M257.8,249.4c0,0,0.5-1.6,2.1-1.9c1.6-0.3,2.1-2.6,2.1-2.6"/>
						<path class="st32" d="M257.8,253.6c0,0,0.7-1.7,2.1-2.1c1.4-0.3,2.1-0.9,2.1-2.1"/>
						<rect x="257.8" y="239.2" class="st15" width="4.1" height="16.5"/>
					</g>
					<path class="st33" d="M259.7,228c0,0-3.9,4.5-3.3,6.8c0.6,2.3,5.5,2.3,6.3,0.6C264,232.3,259.7,228,259.7,228z"/>
					<line class="st15" x1="259.6" y1="241.2" x2="259.6" y2="234"/>
				</g>
				<g>
					<g>
						<rect x="268.6" y="239.2" class="st2" width="4.1" height="16.5"/>
						<path class="st32" d="M268.6,245.4c0,0,0.5-1.6,2.1-1.9c1.6-0.3,2.1-2.6,2.1-2.6"/>
						<path class="st32" d="M268.6,249.4c0,0,0.5-1.6,2.1-1.9c1.6-0.3,2.1-2.6,2.1-2.6"/>
						<path class="st32" d="M268.6,253.6c0,0,0.7-1.7,2.1-2.1c1.4-0.3,2.1-0.9,2.1-2.1"/>
						<rect x="268.6" y="239.2" class="st15" width="4.1" height="16.5"/>
					</g>
					<path class="st33" d="M270.5,228c0,0-3.9,4.5-3.3,6.8c0.6,2.3,5.5,2.3,6.3,0.6C274.8,232.3,270.5,228,270.5,228z"/>
					<line class="st15" x1="270.4" y1="241.2" x2="270.4" y2="234"/>
				</g>
				<g>
					<g>
						<rect x="279.4" y="239.2" class="st2" width="4.1" height="16.5"/>
						<path class="st32" d="M279.4,245.4c0,0,0.5-1.6,2.1-1.9c1.6-0.3,2.1-2.6,2.1-2.6"/>
						<path class="st32" d="M279.4,249.4c0,0,0.5-1.6,2.1-1.9c1.6-0.3,2.1-2.6,2.1-2.6"/>
						<path class="st32" d="M279.4,253.6c0,0,0.7-1.7,2.1-2.1c1.4-0.3,2.1-0.9,2.1-2.1"/>
						<rect x="279.4" y="239.2" class="st15" width="4.1" height="16.5"/>
					</g>
					<path class="st33" d="M281.3,228c0,0-3.9,4.5-3.3,6.8c0.6,2.3,5.5,2.3,6.3,0.6C285.6,232.3,281.3,228,281.3,228z"/>
					<line class="st15" x1="281.2" y1="241.2" x2="281.2" y2="234"/>
				</g>
			</g>
			<path class="st3" d="M253.2,257.7c2,1.1,5.1,1.5,9.7-0.8c0,0,5,6,12.3,0.1c0,0,5,5.3,12.4,0.6v-3.1h-34.3V257.7z"/>
			<g>
				<rect x="250.2" y="263.3" class="st3" width="40.4" height="10.8"/>
				<path class="st17" d="M250.2,267.7c2,1.3,5.3,1.9,11.1-0.5c0,0,6.5,5.1,15.1,0.3c0,0,7.3,3.9,14.2-0.7v-3.4h-40.4V267.7z"/>
			</g>
			<g>
				<rect x="245.1" y="274" class="st3" width="50.6" height="13.5"/>
				<path class="st16" d="M245.1,278c2.7,1.8,7.3,2.4,14.5-2.2c0,0,6.2,8.4,14.8,0.8c0,0,6.6,6.5,13.2,0.8c0,0,4.3,3.3,8.1,0.7V274
					h-50.6L245.1,278L245.1,278z"/>
			</g>
		</g>
		<g>
			<path class="st34" d="M205.2,264.2c0,0-13.1-10.5-17.3-21.1s8.6-9.1,8.6-9.1s3.7,15.2,15.6,25.6L205.2,264.2z"/>
			<g>
				<g>
					<g>
						<path class="st34" d="M155.7,270c0,0-8.5-8.3-10.5-22.5c-2-14.3,8.9-2.5,8.9-2.5s2.8,13.6,8.2,19.9
							C167.6,271.1,155.7,270,155.7,270z"/>
						<g>
							<path class="st29" d="M150.3,295.9l23.1-21.8L163,261.7l-10.8,8.1l2.8,4.8C155.1,274.6,148.2,289,150.3,295.9z"/>
							<g>
								<line class="st8" x1="152.7" y1="280.3" x2="157.3" y2="279.3"/>
								<line class="st8" x1="153.5" y1="277.9" x2="157.8" y2="276.9"/>
								<path class="st29" d="M149.8,280.2c0.1-0.1,4.2-4.8,4.2-4.8"/>
								<path class="st8" d="M153.7,275.7c0,0-0.1,0-0.3,0.1c-1.2,0.2-6.1,1.1-6.5-0.6C146.5,273.2,156.1,274.4,153.7,275.7"/>
							</g>
							<path class="st35" d="M164.8,282.1c-1.8-0.8-3.3-2.4-3.7-4.5c-0.8-3.5,1.3-6,4.9-7.6c0.8-0.4,2.8-0.7,3.6-0.5l3.9,4.7
								L164.8,282.1z"/>
						</g>
					</g>
					<g>
						<path class="st2" d="M134.9,250.5c0,0,9.9,2.8,19.8,0c9.9-2.8,7.8-4.9,7.8-6.5c0.1-1.6-4-24.4,3.4-36.4
							c7.4-12.1,10.7-13.4,14.8-16.6c4.1-3.2,11.5-12.6,9.7-23.3c-1.8-10.7-17.9-6.5-24.5-1.9c-6.6,4.6-25.7,28.1-29.8,40.5
							C132,218.8,129.4,232.2,134.9,250.5z"/>
						<g>
							<path class="st36" d="M140.3,251.5c0,0-9.5-25.7,6.7-51.5s27.7-36.1,29.7-37"/>
							<path class="st36" d="M148,251.5c0,0-11-29.3,10.2-57.4s23.4-29.4,23.4-29.4"/>
							<path class="st36" d="M157.1,249.5c0,0-9.1-25.3,4.5-45.9s24.6-35.9,24.6-35.9"/>
							<g>
								<path class="st32" d="M160.2,248.5c0,0-9.5-34.4,14.5-56.1"/>
								<path class="st32" d="M151.9,251.2c0,0-8.6-25.7,3.6-45.9c12.1-20.3,26.3-30.6,26.3-30.6"/>
								<path class="st32" d="M142.2,251.2c0,0-5.4-30.1,7.7-49.7s24.8-33.1,24.8-33.1"/>
								<path class="st32" d="M137.5,251.5c0,0-7.7-26.9,0.9-44.3c8.6-17.4,31.4-44.3,31.4-44.3"/>
							</g>
						</g>
						<path class="st15" d="M134.9,250.5c0,0,9.9,2.8,19.8,0c9.9-2.8,7.8-4.9,7.8-6.5c0.1-1.6-4-24.4,3.4-36.4
							c7.4-12.1,10.7-13.4,14.8-16.6c4.1-3.2,11.5-12.6,9.7-23.3c-1.8-10.7-17.9-6.5-24.5-1.9c-6.6,4.6-25.7,28.1-29.8,40.5
							C132,218.8,129.4,232.2,134.9,250.5z"/>
					</g>
				</g>
				<g>
					<g>
						<path class="st29" d="M199.8,290.7l23.1-21.8l-10.4-12.4l-10.8,8.1l2.8,4.8C204.6,269.4,197.7,283.8,199.8,290.7z"/>
						<g>
							<line class="st8" x1="202.3" y1="275.1" x2="206.8" y2="274.1"/>
							<line class="st8" x1="203.1" y1="272.6" x2="207.3" y2="271.7"/>
							<path class="st29" d="M199.3,275c0.1-0.1,4.2-4.8,4.2-4.8"/>
							<path class="st8" d="M203.2,270.5c0,0-0.1,0-0.3,0.1c-1.2,0.2-6.1,1.1-6.5-0.6C196,268,205.6,269.2,203.2,270.5"/>
						</g>
						<path class="st35" d="M214.3,276.9c-1.8-0.8-3.3-2.4-3.7-4.5c-0.8-3.5,1.3-6,4.9-7.6c0.8-0.4,2.8-0.7,3.6-0.5l3.9,4.7
							L214.3,276.9z"/>
					</g>
					<g>
						<path class="st2" d="M167.6,184.9l3.2,0.7c0,0-5,28.8,3,48.4c8,19.6,10.5,15.4,14.7,14.4c4.2-1.1,13.9-8.1,16.8-10.8
							c2.9-2.7,0-8.7-2.2-13.6c-2.2-4.8-7.5-18.8-5.7-27.2c1.8-8.5,9.3-26.2-0.4-39.1"/>
						<g>
							<path class="st36" d="M183.2,164.7c0,0-3.7,32.8,2,54.8c5.3,20.7,8.5,26.1,8.5,26.1"/>
							<path class="st36" d="M195.5,162.9c0,0-6.9,23-4.6,43.6c2.1,19.1,11.7,33.4,11.7,33.4"/>
							<path class="st36" d="M187.2,248.5c0,0-13-25.7-12.5-49.6c0.5-23.5,2-31.1,2-31.1"/>
							<g>
								<path class="st32" d="M197.8,158.7c0,0,1.2,15.8-1.3,26.5c-2.6,10.7-3.4,23.2,0,33.4c3.4,10.1,8.9,19.1,8.9,19.1"/>
								<path class="st32" d="M187,166.8c0,0-2.6,27.4,0,41.9c2.6,14.5,10.4,34.5,10.4,34.5"/>
								<path class="st32" d="M179.3,167.2c0,0-1.9,33,1.4,52.1c2,11.7,7.6,23.1,10,27.8"/>
								<path class="st32" d="M173.9,167.3c0,0-3,32.5-1.4,44.2c1.5,11.7,4.6,27.4,13,37.9"/>
							</g>
						</g>
						<path class="st15" d="M167.6,184.9l3.2,0.7c0,0-5,28.8,3,48.4c8,19.6,10.5,15.4,14.7,14.4c4.2-1.1,13.9-8.1,16.8-10.8
							c2.9-2.7,0-8.7-2.2-13.6c-2.2-4.8-7.5-18.8-5.7-27.2c1.8-8.5,9.3-26.2-0.4-39.1"/>
					</g>
				</g>
				<g>
					<path class="st34" d="M221.1,50.2c0,0-0.1-10.2-1.3-11c-1.2-0.8-1.4,1.9-1.8,6c-0.4,4-1.1,5.2,0.2,6.1
						C219.4,52.2,221.2,52.1,221.1,50.2z"/>
					<g>
						<line class="st8" x1="211.3" y1="30.4" x2="220.7" y2="50.3"/>
						<g>
							<line class="st27" x1="217.6" y1="34.5" x2="204.6" y2="25.8"/>
							<line class="st27" x1="210.5" y1="24" x2="212" y2="37.6"/>
							<line class="st27" x1="216.5" y1="30" x2="203.8" y2="30.7"/>
							<line class="st27" x1="215" y1="24.6" x2="207.7" y2="35.9"/>
							<line class="st27" x1="206.4" y1="33.7" x2="204.6" y2="36"/>
							<line class="st27" x1="220.1" y1="34.1" x2="223.7" y2="36.2"/>
							<line class="st27" x1="209.7" y1="38.5" x2="208.4" y2="44.2"/>
							<path class="st27" d="M204.2,27.9c-0.1,0-3.4-1-3.4-1"/>
							<line class="st27" x1="221.3" y1="24.9" x2="215.7" y2="28"/>
							<line class="st27" x1="218.6" y1="17.4" x2="217.7" y2="19.2"/>
							<line class="st27" x1="213.8" y1="18.2" x2="212.9" y2="23.2"/>
							<line class="st27" x1="207.4" y1="24.9" x2="203.6" y2="20.2"/>
							<line class="st27" x1="204.6" y1="32.5" x2="198" y2="36.3"/>
						</g>
					</g>
					<g>
						<path class="st34" d="M218.1,51c0,0,2-5.3,0.8-6.1c-1.2-0.8-3.2,3.9-3.4,7.4c-0.2,3.5,2.6,10,3.5,11.4s4.4,0.6,6.2,0.2
							c1.7-0.4,1.1-7,0.8-10.1c-0.3-3.1-2.5-4.4-3.1-5"/>
						<path class="st34" d="M221,46.7c0,0,1.1-0.6,3.1,1.2c2,1.8,2.9,3.7,2.5,5.8c-0.3,2.1-0.6,3.1-1.6,2.9s0-4.1,0-4.1
							s-0.6,3.3-1.9,3.1c-1.2-0.2,0.2-4.4,0.2-4.4s-1.2,4.3-2.4,4C219.7,54.9,221,46.7,221,46.7z"/>
					</g>
				</g>
				<path class="st17" d="M126.6,171.4c0,0.1,2.6,10.2,5.1,15.1c2.4,4.8,3,4.8,3.5,4.4c0.5-0.4-2.2-5.2-2.8-7.2c0,0,3.1,6.6,4.4,6.6
					c1.3,0.1-1.8-5.9-2.2-7.2c0,0,3.2,7.2,4.3,6.7c1.1-0.5-2.5-7.6-2.5-7.6s3.3,6,4.2,5.7c0.9-0.4-2.6-6.6-2.6-7.2s1.1,1,2.8,2.3
					c1.6,1.3,2.3,0.5,0.5-1.6c-0.4-0.5-6-7.3-7-11.2C133.1,166.1,125.3,167,126.6,171.4z"/>
			</g>
			<g>
				<path class="st37" d="M160.8,162.2c0,0-2-0.1-2.5,4c-0.3,2.6,1.1,7.5,9.4,9.6c8.2,2.1,19.9,2.6,29.7-2
					c9.8-4.6,4.3-14.7,3.4-14.5C199.8,159.5,177.7,175.2,160.8,162.2z"/>
				<path class="st37" d="M135.5,169.7c0,2.7-2.6,5-5.9,5c-3.2,0-5.9-2.2-5.9-5s2.6-5,5.9-5C132.9,164.7,135.5,166.9,135.5,169.7z"
					/>
				<path class="st37" d="M229.4,67.2c0,2.7-2.6,5-5.9,5s-5.9-2.2-5.9-5s2.6-5,5.9-5C226.8,62.2,229.4,64.5,229.4,67.2z"/>
				<path class="st17" d="M158,139.3c0,0-2.2,21.1,3,25.8c5.2,4.7,19.7,8.8,31.4,4.3c11.7-4.6,11.1-13.7,11.2-36.1
					c0,0,13.2-3.7,23.4-20.2c10.3-16.5,5.2-39.1,3.3-43.3c-1.9-4.2-9.4-6.6-13.1,0.9c-3.7,7.5-6.7,23.2-15.2,32.7
					c-8.5,9.4-12.4,13.5-26.1,12.9c-13.7-0.6-36.8-0.2-48,15.7s-9.6,33.6-2.3,37c7.4,3.3,11.2-3.4,12.7-11.3
					C140.5,146.5,154.2,134.8,158,139.3z"/>
				<g>
					<g>
						<g>
							<path class="st38" d="M169,145.1c0.8-1.6,1.6-3.2,2.4-4.8c1.1-2.2-2.2-4.1-3.2-1.9c-0.8,1.6-1.6,3.2-2.4,4.8
								C164.7,145.3,168,147.3,169,145.1L169,145.1z"/>
						</g>
					</g>
					<g>
						<g>
							<path class="st38" d="M180.1,130.5c0.4,0.9,0.8,1.9,1.2,2.8c0.4,0.9,1.8,1.2,2.6,0.7c0.9-0.6,1.1-1.6,0.7-2.6
								c-0.4-0.9-0.8-1.9-1.2-2.8c-0.4-0.9-1.8-1.2-2.6-0.7C179.9,128.5,179.7,129.5,180.1,130.5L180.1,130.5z"/>
						</g>
					</g>
					<g>
						<g>
							<path class="st38" d="M183.5,152.2c0.1-1.3,0.3-2.6,0.6-3.9c0.2-1-0.3-2-1.3-2.3c-0.9-0.3-2.1,0.3-2.3,1.3
								c-0.3,1.6-0.6,3.3-0.7,4.9c-0.1,1,0.9,1.9,1.9,1.9C182.7,154.1,183.4,153.2,183.5,152.2L183.5,152.2z"/>
						</g>
					</g>
					<g>
						<g>
							<path class="st38" d="M189.9,139.5c0.6,1.1,1.2,2.2,1.8,3.3c0.5,0.9,1.7,1.2,2.6,0.7c0.9-0.5,1.2-1.7,0.7-2.6
								c-0.6-1.1-1.2-2.2-1.8-3.3c-0.5-0.9-1.7-1.2-2.6-0.7C189.7,137.5,189.4,138.6,189.9,139.5L189.9,139.5z"/>
						</g>
					</g>
					<g>
						<g>
							<path class="st38" d="M191.8,161.8c0.1-1.4,0.3-2.8,0.4-4.2c0.1-1-0.9-1.9-1.9-1.9c-1.1,0-1.8,0.9-1.9,1.9
								c-0.1,1.4-0.3,2.8-0.4,4.2c-0.1,1,0.9,1.9,1.9,1.9C191,163.6,191.7,162.8,191.8,161.8L191.8,161.8z"/>
						</g>
					</g>
					<g>
						<g>
							<path class="st38" d="M174.6,165.9c-0.1-1.2-0.1-2.4-0.2-3.6c-0.1-1-0.8-1.9-1.9-1.9c-1,0-1.9,0.9-1.9,1.9
								c0.1,1.2,0.1,2.4,0.2,3.6c0.1,1,0.8,1.9,1.9,1.9C173.7,167.7,174.7,166.9,174.6,165.9L174.6,165.9z"/>
						</g>
					</g>
					<g>
						<g>
							<path class="st38" d="M194.5,126.5c0.7,1.1,1.4,2.2,2.1,3.2c0.6,0.8,1.7,1.2,2.6,0.7c0.8-0.5,1.2-1.7,0.7-2.6
								c-0.7-1.1-1.4-2.2-2.1-3.2c-0.6-0.8-1.7-1.2-2.6-0.7C194.3,124.5,193.9,125.7,194.5,126.5L194.5,126.5z"/>
						</g>
					</g>
					<g>
						<g>
							<path class="st38" d="M163.9,131.3c0.7-1,1.3-1.8,2.1-2.7c0.7-0.8,0.8-1.9,0-2.7c-0.7-0.7-2-0.8-2.7,0
								c-1,1.1-1.8,2.3-2.6,3.5c-0.6,0.8-0.2,2.1,0.7,2.6C162.3,132.5,163.3,132.2,163.9,131.3L163.9,131.3z"/>
						</g>
					</g>
					<g>
						<g>
							<path class="st38" d="M160.5,152.8c0.2,1,0.3,2,0.5,2.9c0.2,1,1.4,1.6,2.3,1.3c1-0.3,1.5-1.3,1.3-2.3c-0.2-1-0.3-2-0.5-2.9
								c-0.2-1-1.4-1.6-2.3-1.3C160.7,150.9,160.3,151.8,160.5,152.8L160.5,152.8z"/>
						</g>
					</g>
					<g>
						<g>
							<path class="st38" d="M197.4,149.4c-0.1,1-0.1,2,0,2.9s0.8,1.9,1.9,1.9c1,0,1.9-0.8,1.9-1.9c0-1,0-2,0-2.9
								c0.1-1-0.9-1.9-1.9-1.9C198.3,147.6,197.5,148.3,197.4,149.4L197.4,149.4z"/>
						</g>
					</g>
					<g>
						<g>
							<path class="st38" d="M198.4,117c1.2-0.8,2.4-1.7,3.6-2.5c0.8-0.6,1.2-1.6,0.7-2.6c-0.5-0.8-1.7-1.3-2.6-0.7
								c-1.2,0.8-2.4,1.7-3.6,2.5c-0.8,0.6-1.2,1.6-0.7,2.6C196.4,117.1,197.6,117.6,198.4,117L198.4,117z"/>
						</g>
					</g>
					<g>
						<g>
							<path class="st38" d="M208.7,120.5c0.9,0.3,1.9,0.6,2.7,1c0.9,0.4,2,0.3,2.6-0.7c0.5-0.8,0.3-2.2-0.7-2.6
								c-1.2-0.5-2.4-1-3.6-1.3c-1-0.3-2,0.3-2.3,1.3C207.2,119.1,207.8,120.2,208.7,120.5L208.7,120.5z"/>
						</g>
					</g>
					<g>
						<g>
							<path class="st38" d="M212.9,106.8c0.4-2.1,0.8-4.2,1.1-6.4c0.1-1-1-1.9-1.9-1.9c-1.1,0-1.7,0.9-1.9,1.9
								c-0.2,1.8-0.6,3.6-0.9,5.4C208.8,108.2,212.5,109.2,212.9,106.8L212.9,106.8z"/>
						</g>
					</g>
					<g>
						<g>
							<path class="st38" d="M222.8,103c1.4-0.2,2.7-0.4,4.1-0.7c1-0.2,1.6-1.4,1.3-2.3c-0.3-1.1-1.3-1.5-2.3-1.3
								c-1.4,0.2-2.7,0.5-4.1,0.7c-1,0.1-1.6,1.4-1.3,2.3C220.8,102.8,221.8,103.1,222.8,103L222.8,103z"/>
						</g>
					</g>
					<g>
						<g>
							<path class="st38" d="M221.7,91.5c0.5-1.4,1.1-2.9,1.7-4.3c0.4-0.9-0.4-2.1-1.3-2.3c-1.1-0.3-1.9,0.4-2.3,1.3
								c-0.5,1.4-1.1,2.9-1.7,4.3c-0.4,0.9,0.4,2.1,1.3,2.3C220.4,93.1,221.3,92.4,221.7,91.5L221.7,91.5z"/>
						</g>
					</g>
					<g>
						<g>
							<path class="st38" d="M224.6,73.2c0.5,1.3,1.1,2.6,1.7,3.8c0.5,0.9,1.7,1.2,2.6,0.7c0.9-0.5,1.1-1.7,0.7-2.6
								c-0.5-1-0.9-1.9-1.3-2.9c-0.4-0.9-1.3-1.6-2.3-1.3C225,71.2,224.2,72.3,224.6,73.2L224.6,73.2z"/>
						</g>
					</g>
					<g>
						<g>
							<path class="st38" d="M218.6,81c0.8-0.8,1.5-1.8,2-2.9c0.4-0.9,0.3-2.1-0.7-2.6c-0.8-0.4-2.1-0.3-2.6,0.7
								c-0.2,0.4-0.4,0.8-0.7,1.2c-0.1,0.1-0.1,0.2-0.2,0.3c-0.2,0.2,0.2-0.2,0,0c-0.2,0.2-0.3,0.4-0.5,0.6c-0.7,0.7-0.8,2,0,2.7
								C216.7,81.6,217.9,81.7,218.6,81L218.6,81z"/>
						</g>
					</g>
					<g>
						<g>
							<path class="st38" d="M147.1,131.6c0.6,0.9,1.2,1.8,1.8,2.7c0.5,0.8,1.7,1.2,2.6,0.7c0.8-0.5,1.3-1.7,0.7-2.6
								c-0.6-0.9-1.2-1.8-1.8-2.7c-0.5-0.8-1.7-1.2-2.6-0.7C147,129.5,146.5,130.7,147.1,131.6L147.1,131.6z"/>
						</g>
					</g>
					<g>
						<g>
							<path class="st38" d="M153.6,120.8c0.1,1.2,0.3,2.5,0.6,3.6c0.3,1,1.3,1.6,2.3,1.3c1-0.3,1.6-1.3,1.3-2.3
								c-0.3-1-0.4-1.7-0.5-2.6c-0.1-1-0.8-1.9-1.9-1.9C154.5,118.9,153.5,119.8,153.6,120.8L153.6,120.8z"/>
						</g>
					</g>
					<g>
						<g>
							<path class="st38" d="M136.8,133c1.5-0.7,3.1-1.3,4.7-1.9c2.3-0.8,1.3-4.4-1-3.6c-1.9,0.6-3.8,1.4-5.6,2.3
								c-0.9,0.4-1.2,1.7-0.7,2.6C134.8,133.3,135.9,133.4,136.8,133L136.8,133z"/>
						</g>
					</g>
					<g>
						<g>
							<path class="st38" d="M137.5,140.8c0.4,1,0.8,2,1.2,2.9c0.4,0.9,1.3,1.6,2.3,1.3c0.9-0.3,1.7-1.3,1.3-2.3s-0.8-2-1.2-2.9
								c-0.4-0.9-1.3-1.6-2.3-1.3C137.9,138.7,137.1,139.8,137.5,140.8L137.5,140.8z"/>
						</g>
					</g>
					<g>
						<g>
							<path class="st38" d="M127.3,145.2c1.1-0.6,2.2-1.3,3.3-1.9c0.9-0.5,1.2-1.7,0.7-2.6c-0.5-0.9-1.7-1.2-2.6-0.7
								c-1.1,0.6-2.2,1.3-3.3,1.9c-0.9,0.5-1.2,1.7-0.7,2.6C125.3,145.5,126.4,145.8,127.3,145.2L127.3,145.2z"/>
						</g>
					</g>
					<g>
						<g>
							<path class="st38" d="M129.1,153.5c0.4,1.2,0.9,2.3,1.3,3.5c0.4,0.9,1.3,1.6,2.3,1.3c0.9-0.2,1.7-1.4,1.3-2.3
								c-0.4-1.2-0.9-2.3-1.3-3.5c-0.4-0.9-1.3-1.6-2.3-1.3C129.6,151.5,128.8,152.6,129.1,153.5L129.1,153.5z"/>
						</g>
					</g>
					<g>
						<g>
							<path class="st38" d="M125.8,162.4c0.4-1,1-2,1.6-2.9c0.6-0.8,0.2-2.1-0.7-2.6c-1-0.5-2-0.2-2.6,0.7
								c-0.6,0.9-1.2,1.9-1.6,2.9c-0.4,0.9-0.3,2.1,0.7,2.6C124,163.5,125.3,163.4,125.8,162.4L125.8,162.4z"/>
						</g>
					</g>
				</g>
			</g>
			<g>
				<ellipse class="st37" cx="177.5" cy="117" rx="6.6" ry="3.9"/>
				<path class="st17" d="M189.8,98.5c0,2.7-2.2,4.9-4.9,4.9s-4.9-2.2-4.9-4.9c0-2.7,2.2-4.9,4.9-4.9
					C187.6,93.6,189.8,95.8,189.8,98.5z"/>
				<path class="st17" d="M169.3,84.3h5.8c3.9,0,7,3.6,7,8v9c0,0.3,0,0.5,0,0.8c0.1,0.3,0.1,0.5,0.1,0.8v5.5v0.3v5.5
					c0,2-1.6,3.6-3.6,3.6h-2.3c-2,0-3.6-1.6-3.6-3.6v-4.9h-3.4c-3.9,0-7-3.6-7-8v-9C162.3,87.9,165.4,84.3,169.3,84.3z"/>
				<g>
					<path class="st4" d="M182.7,96.3c0,0-5.7-1.9-7.4-5.6c-1.7-3.7-1.3-4.5-1.3-4.5s-3.2,4.4-8.3,5.5c-4.2,0.9-4,0.3-4.4-0.7
						c-0.4-0.9-0.6-7.1,5.7-10.9c6.4-3.8,13.2-3.5,18,1.3c4.7,4.8,4.2,12.3,2.6,14.2C185.9,97.5,183.8,98.5,182.7,96.3z"/>
					<path class="st4" d="M178.5,76.3c0,5.3,4.3,9.6,9.6,9.6c5.3,0,9.6-4.3,9.6-9.6c0-5.3-4.3-9.6-9.6-9.6
						C182.8,66.7,178.5,71,178.5,76.3z"/>
					<ellipse class="st4" cx="198.6" cy="65.1" rx="5.5" ry="5.5"/>
				</g>
				<g>
					<path class="st2" d="M189.5,98.5c0,2.5-2.1,4.6-4.6,4.6c-2.6,0-4.6-2.1-4.6-4.6c0-2.5,2.1-4.6,4.6-4.6
						C187.5,93.9,189.5,96,189.5,98.5z"/>
					<g>
						<g>
							<path class="st6" d="M182.9,99.1c0-0.4,0-0.8,0.2-1.2c0.4-0.9,1.3-1.1,2.3-1c0.7,0.1,0.7-1,0-1c-1.2-0.1-2.5,0.3-3.1,1.4
								c-0.3,0.6-0.4,1.2-0.4,1.9C181.9,99.8,182.9,99.8,182.9,99.1L182.9,99.1z"/>
						</g>
					</g>
				</g>
				<g>
					<g>
						<path class="st10" d="M173.9,95.2c0,0.7-0.6,1.3-1.3,1.3c-0.7,0-1.3-0.6-1.3-1.3c0-0.7,0.6-1.3,1.3-1.3
							C173.4,93.9,173.9,94.5,173.9,95.2z"/>
						<path class="st10" d="M165.3,95c0,0.6-0.5,1.1-1.1,1.1c-0.6,0-1.1-0.5-1.1-1.1s0.5-1.1,1.1-1.1
							C164.8,93.9,165.3,94.4,165.3,95z"/>
					</g>
					<g>
						<path class="st39" d="M166.6,100.4c0,0,0.7,1.9,2.1,2.1c1.4,0.1,2.5-1.4,2.6-2.6L166.6,100.4z"/>
						<g>
							<path class="st10" d="M166.2,100.5c0.4,1,1.2,2.2,2.3,2.3c1.7,0.2,2.9-1.5,3.1-3c0-0.2-0.2-0.4-0.4-0.4
								c-1.5,0.2-3.1,0.4-4.6,0.6c-0.5,0.1-0.5,0.9,0,0.8c1.5-0.2,3.1-0.4,4.6-0.6c-0.1-0.1-0.3-0.3-0.4-0.4c-0.1,1.2-1.4,2.8-2.7,2
								c-0.5-0.3-0.9-1-1.1-1.5C166.8,99.8,166,100,166.2,100.5z"/>
						</g>
					</g>
					<g>
						<path class="st11" d="M178.5,100c0,1.8-1.5,3.3-3.3,3.3c-1.8,0-3.3-1.5-3.3-3.3c0-1.8,1.5-3.3,3.3-3.3
							C177,96.8,178.5,98.2,178.5,100z"/>
						<path class="st11" d="M163.2,97.8c-0.2,0-0.4,0-0.6,0.1v3.4c0,0.5,0,1,0.1,1.5c0.1,0,0.3,0,0.5,0c1.4,0,2.5-1.1,2.5-2.5
							C165.6,98.9,164.5,97.8,163.2,97.8z"/>
					</g>
					<polygon class="st9" points="168.1,93.9 168.3,98.4 166.2,97.1 					"/>
				</g>
			</g>
		</g>
		<g>
			<g>
				<g>
					<g>
						<path class="st17" d="M137.7,76.7c0,0,4.7-7.6,7.3-9.3c2.6-1.7-0.5,5.1-2.9,8.2C139.8,78.8,137.3,78,137.7,76.7z"/>
						<g>
							<line class="st15" x1="150.8" y1="56.1" x2="139.3" y2="75.6"/>
							<g>
								<line class="st27" x1="143.9" y1="59.7" x2="158.1" y2="51.9"/>
								<line class="st27" x1="152.2" y1="49.6" x2="149.4" y2="63.3"/>
								<line class="st27" x1="145.5" y1="55.2" x2="158.4" y2="57"/>
								<line class="st27" x1="147.5" y1="49.7" x2="153.9" y2="62.1"/>
								<line class="st27" x1="155.5" y1="59.9" x2="157.2" y2="62.4"/>
								<line class="st27" x1="141.4" y1="59" x2="137.5" y2="60.8"/>
								<line class="st27" x1="151.7" y1="64.5" x2="152.5" y2="70.5"/>
								<path class="st27" d="M158.3,54.2c0.1,0,3.6-0.7,3.6-0.7"/>
								<line class="st27" x1="141" y1="49.5" x2="146.5" y2="53.1"/>
								<line class="st27" x1="144.4" y1="42" x2="145.3" y2="43.9"/>
								<line class="st27" x1="149.4" y1="43.3" x2="149.8" y2="48.5"/>
								<line class="st27" x1="155.3" y1="50.8" x2="159.6" y2="46.3"/>
								<line class="st27" x1="157.4" y1="58.8" x2="163.9" y2="63.3"/>
							</g>
						</g>
						<g>
							<path class="st17" d="M129.3,83c0,0,9-13.1,12.6-15c3.6-1.9-3.5,8.5-3.5,8.5l4.3,5.5c0,0-0.1,0.8-2.1,2.8
								c-2.1,1.9-6.4,5.6-6.4,5.6S128.1,85.7,129.3,83z"/>
							<path class="st17" d="M141,76.9c0,0-5.8,2.1-5.9,1.1c-0.1-1,7.5-4.6,8.4-3.9c0.8,0.7,1.4,3.7,1.5,5.3c0.1,1.5-0.5,2.9-2,3.5
								s-7.3,0.3-7.6-0.3c-0.3-0.5-0.6-1.3,5.9-2.5C141.3,80,126.6,82.3,141,76.9z"/>
						</g>
					</g>
					<g>
						<path class="st17" d="M28.5,41.9c0,0,0.1-8.9-1.2-11.7c-1.3-2.8-2.3,4.6-2,8.5C25.5,42.5,28.1,43.2,28.5,41.9z"/>
						<g>
							<line class="st15" x1="28.5" y1="17.5" x2="27.7" y2="40.1"/>
							<g>
								<line class="st27" x1="32.4" y1="24.2" x2="24.6" y2="10.1"/>
								<line class="st27" x1="30.8" y1="11.2" x2="25.8" y2="24.3"/>
								<line class="st27" x1="33.5" y1="19.6" x2="21.5" y2="14.2"/>
								<line class="st27" x1="34.6" y1="13.9" x2="22.6" y2="20.8"/>
								<line class="st27" x1="22.5" y1="18.1" x2="19.7" y2="19.3"/>
								<line class="st27" x1="34.8" y1="25" x2="37.1" y2="28.6"/>
								<line class="st27" x1="23.2" y1="24.1" x2="19.3" y2="28.7"/>
								<path class="st27" d="M23.2,11.8c-0.1-0.1-2.7-2.5-2.7-2.5"/>
								<line class="st27" x1="40.3" y1="17.2" x2="33.7" y2="17.3"/>
								<line class="st27" x1="41.4" y1="9" x2="39.7" y2="10.2"/>
								<line class="st27" x1="36.5" y1="7.5" x2="33.4" y2="11.6"/>
								<line class="st27" x1="27.5" y1="10.5" x2="26.3" y2="4.5"/>
								<line class="st27" x1="21.4" y1="16.2" x2="13.5" y2="16.5"/>
							</g>
						</g>
						<g>
							<path class="st17" d="M32.1,51.7c0,0-0.6-15.9-2.6-19.4c-2-3.5-1.6,9-1.6,9l-6.6,2.3c0,0-0.4,0.8,0.3,3.5
								c0.7,2.7,2.4,8.1,2.4,8.1S31.7,54.7,32.1,51.7z"/>
							<path class="st17" d="M25.6,40.3c0,0,3.8,4.9,4.4,4.1c0.6-0.8-3.9-7.9-4.9-7.8s-3.2,2.4-4.1,3.6c-0.9,1.2-1.2,2.7-0.2,4
								c1,1.3,6,4.2,6.6,3.8c0.5-0.3,1.2-0.8-3.6-5.3C23.7,42.7,34.8,52.6,25.6,40.3z"/>
						</g>
					</g>
				</g>
				<g>
					<g>
						<path class="st23" d="M77.7,244.6c-0.1-0.2,5.5-7.8,5.5-7.8l5.8,4.4l-5.5,7.9L77.7,244.6z"/>
						<g>
							<path class="st40" d="M83.5,235.6c0,0,7.3-14.2,6.4-25.4c-0.9-11.2-6.8-20.6-12.3-26.5c-5.5-5.8-16.4-23-14.1-27.3
								c2.3-4.4,23.2-4.1,23.2-4.1s20.2,38.8,19.1,49.7c-1.1,10.9-8.7,29.4-15.9,37.6L83.5,235.6z"/>
							<g>
								<path class="st2" d="M93,241.7c0.5-0.7,0.3-1.6-0.4-2.1l-9-5.9c-0.7-0.5-1.6-0.3-2.1,0.4l-1.1,1.7c-0.5,0.7-0.3,1.6,0.4,2.1
									l9,5.9c0.7,0.5,1.6,0.3,2.1-0.4L93,241.7z"/>
								<path class="st8" d="M93,241.7c0.5-0.7,0.3-1.6-0.4-2.1l-9-5.9c-0.7-0.5-1.6-0.3-2.1,0.4l-1.1,1.7c-0.5,0.7-0.3,1.6,0.4,2.1
									l9,5.9c0.7,0.5,1.6,0.3,2.1-0.4L93,241.7z"/>
							</g>
						</g>
						<g>
							<polygon class="st26" points="87.4,249.7 75.9,241.6 66.6,252 83.5,272.6 83.5,257 							"/>
							<path class="st23" d="M75.1,253.8c1.7,0.5,3.5-0.5,3.9-2.2c0.5-1.7-0.5-3.5-2.2-3.9c-1.7-0.5-3.5,0.5-3.9,2.2
								C72.4,251.5,73.4,253.3,75.1,253.8z"/>
							<g>
								<line class="st24" x1="83.2" y1="260.4" x2="79.9" y2="260.1"/>
								<line class="st24" x1="83.4" y1="262.7" x2="79.6" y2="262.2"/>
							</g>
						</g>
					</g>
					<g>
						<polygon class="st23" points="40,212.6 33.3,207.9 36.6,202 44.1,207.3 						"/>
						<g>
							<path class="st40" d="M85.8,164.3l-5.8,3c3.1,28.6,0.8,55.7-13.3,59.8c-14.1,4.1-25.5-14-25.5-14l4.1-5.4
								c0,0,10.3,5.5,15.2,3.9c4.9-1.6,2.6-15.6,0-28.2c-2.6-12.6-6.4-30-6.4-30l27.9-3.9"/>
							<g>
								<path class="st2" d="M39.6,217.1c0.7,0.5,1.6,0.3,2.1-0.4l5.9-9c0.5-0.7,0.3-1.6-0.4-2.1l-1.7-1.1c-0.7-0.5-1.6-0.3-2.1,0.4
									l-5.9,9c-0.5,0.7-0.3,1.6,0.4,2.1L39.6,217.1z"/>
								<path class="st8" d="M39.6,217.1c0.7,0.5,1.6,0.3,2.1-0.4l5.9-9c0.5-0.7,0.3-1.6-0.4-2.1l-1.7-1.1c-0.7-0.5-1.6-0.3-2.1,0.4
									l-5.9,9c-0.5,0.7-0.3,1.6,0.4,2.1L39.6,217.1z"/>
							</g>
							<g>
								<path class="st8" d="M58.2,173.1c0,0,7.7-5.9,6.9-14.5"/>
								<path class="st8" d="M58.9,176.1c0,0,9.7-6.8,9.2-16.8"/>
							</g>
						</g>
						<g>
							<polygon class="st26" points="32.2,212.7 38.7,200.3 27.3,192.3 9,211.7 24.5,209.7 							"/>
							<path class="st23" d="M26.6,201c-0.3,1.7,0.9,3.4,2.7,3.6c1.7,0.3,3.4-0.9,3.6-2.7s-0.9-3.4-2.7-3.6
								C28.5,198.1,26.9,199.3,26.6,201z"/>
							<g>
								<line class="st24" x1="21" y1="209.8" x2="20.9" y2="206.5"/>
								<line class="st24" x1="18.8" y1="210.4" x2="18.8" y2="206.5"/>
							</g>
						</g>
					</g>
				</g>
			</g>
			<g>
				<path class="st18" d="M47.9,118.4c0,0-0.8,36,1.4,38.9c2.1,2.9,13.7,3.8,26.8,2.4s16.3-2,16.9-7.4C93.7,146.9,91,121,91,121
					s19.7-0.5,35.5-16.2c0,0,5.4-6.2,8.7-11.8l-8.7-9.5c0,0-18.8,19.7-54.2,18.5c0,0-26.8-0.1-38.2-46.7l-12,2.5
					C22,57.8,20.9,99.1,47.9,118.4z"/>
				<g>
					<g>
						<path class="st17" d="M105.9,96.3c-1.7,0.7-3.4,1.3-5.3,1.9c0,4.7,0.8,13.5,5.9,19.3c1.7-0.6,3.5-1.4,5.4-2.3
							C110.2,110.7,107.3,102.3,105.9,96.3z"/>
						<path class="st17" d="M33.4,102.4c4.5-1.9,12.5-5.8,18.5-10.9c-1-1-2-2.1-2.9-3.3c-2.3,1.7-5.6,4.2-9.3,6
							c-3.3,1.6-6.4,2.8-8.8,3.6C31.6,99.3,32.5,100.8,33.4,102.4z"/>
						<path class="st17" d="M92.5,137.5c-0.4-5-0.9-10-1.2-13.2c-22.6,5.7-37.2,3.2-43.5,1.3c0,3.4,0,7.5,0,11.8
							C60.1,143.3,86.1,138.8,92.5,137.5z"/>
					</g>
					<g>
						<path class="st18" d="M54.5,137c0,0-5.8-4.5-4.2-6c1.6-1.6,4,2.2,4,2.2s2.1-3.3,3.6-1.9C59.5,132.7,54.5,137,54.5,137z"/>
						<path class="st18" d="M65.1,137.7c0,0-5.8-4.5-4.2-6c1.6-1.6,4,2.2,4,2.2s2.1-3.3,3.6-1.9C70,133.5,65.1,137.7,65.1,137.7z"/>
						<path class="st18" d="M75.6,137c0,0-5.8-4.5-4.2-6c1.6-1.6,4,2.2,4,2.2s2.1-3.3,3.6-1.9C80.6,132.7,75.6,137,75.6,137z"/>
						<path class="st18" d="M86.2,136.1c0,0-5.8-4.5-4.2-6c1.6-1.6,4,2.2,4,2.2s2.1-3.3,3.6-1.9C91.1,131.8,86.2,136.1,86.2,136.1z"
							/>
					</g>
					<g>
						<path class="st2" d="M56,123.9c0,0.8-0.7,1.4-1.5,1.3c-0.8,0-1.4-0.7-1.3-1.5c0-0.8,0.7-1.4,1.5-1.3
							C55.5,122.5,56.1,123.2,56,123.9z"/>
						<path class="st2" d="M54.6,143c0,0.8-0.6,1.4-1.4,1.4s-1.4-0.6-1.4-1.4c0-0.8,0.6-1.4,1.4-1.4S54.6,142.2,54.6,143z"/>
						<path class="st2" d="M61.7,143.7c0,0.8-0.6,1.4-1.4,1.4c-0.8,0-1.4-0.6-1.4-1.4c0-0.8,0.6-1.4,1.4-1.4
							C61.1,142.3,61.7,142.9,61.7,143.7z"/>
						<path class="st2" d="M69.6,143.7c0,0.8-0.6,1.4-1.4,1.4c-0.8,0-1.4-0.6-1.4-1.4c0-0.8,0.6-1.4,1.4-1.4
							C68.9,142.3,69.6,142.9,69.6,143.7z"/>
						<path class="st2" d="M77.6,143.4c0,0.8-0.6,1.4-1.4,1.4c-0.8,0-1.4-0.6-1.4-1.4c0-0.8,0.6-1.4,1.4-1.4
							C77,141.9,77.6,142.6,77.6,143.4z"/>
						<path class="st2" d="M84.9,143c0,0.8-0.6,1.4-1.4,1.4c-0.8,0-1.4-0.6-1.4-1.4c0-0.8,0.6-1.4,1.4-1.4
							C84.3,141.6,84.9,142.2,84.9,143z"/>
						<path class="st2" d="M91,141.9c0,0.8-0.6,1.4-1.4,1.4c-0.8,0-1.4-0.6-1.4-1.4c0-0.8,0.6-1.4,1.4-1.4
							C90.3,140.5,91,141.2,91,141.9z"/>
						<path class="st2" d="M64,124.9c0,0.8-0.7,1.4-1.5,1.3c-0.8,0-1.4-0.7-1.3-1.5c0-0.8,0.7-1.4,1.5-1.3
							C63.5,123.5,64.1,124.2,64,124.9z"/>
						<path class="st2" d="M72.1,124.8c0,0.8-0.7,1.4-1.5,1.3s-1.4-0.7-1.3-1.5s0.7-1.4,1.5-1.3C71.6,123.3,72.2,124,72.1,124.8z"/>
						<path class="st2" d="M80,123.9c0,0.8-0.7,1.4-1.5,1.3c-0.8,0-1.4-0.7-1.3-1.5c0-0.8,0.7-1.4,1.5-1.3
							C79.4,122.5,80,123.2,80,123.9z"/>
						<path class="st2" d="M87.2,122.9c0,0.8-0.7,1.4-1.5,1.3c-0.8,0-1.4-0.7-1.3-1.5c0-0.8,0.7-1.4,1.5-1.3
							C86.6,121.5,87.2,122.1,87.2,122.9z"/>
					</g>
				</g>
				<g>
					<g>
						<path class="st2" d="M20.8,56.7c0.1,0.8,0.9,1.4,1.7,1.3l10.7-1.4c0.8-0.1,1.4-0.9,1.3-1.7l-0.3-2c-0.1-0.8-0.9-1.4-1.7-1.3
							L21.8,53c-0.8,0.1-1.4,0.9-1.3,1.7L20.8,56.7z"/>
						<path class="st8" d="M20.8,56.7c0.1,0.8,0.9,1.4,1.7,1.3l10.7-1.4c0.8-0.1,1.4-0.9,1.3-1.7l-0.3-2c-0.1-0.8-0.9-1.4-1.7-1.3
							L21.8,53c-0.8,0.1-1.4,0.9-1.3,1.7L20.8,56.7z"/>
					</g>
					<g>
						<path class="st2" d="M124.7,83.9c-0.6,0.6-0.5,1.6,0.1,2.1l8.6,8c0.6,0.6,1.6,0.5,2.1-0.1l1.4-1.5c0.6-0.6,0.5-1.6-0.1-2.1
							l-8.6-8c-0.6-0.6-1.6-0.5-2.1,0.1L124.7,83.9z"/>
						<path class="st8" d="M124.7,83.9c-0.6,0.6-0.5,1.6,0.1,2.1l8.6,8c0.6,0.6,1.6,0.5,2.1-0.1l1.4-1.5c0.6-0.6,0.5-1.6-0.1-2.1
							l-8.6-8c-0.6-0.6-1.6-0.5-2.1,0.1L124.7,83.9z"/>
					</g>
				</g>
			</g>
			<g>
				<path class="st34" d="M78,102.9c0,2.2-3.1,4.1-7,4.1c-3.8,0-7-1.8-7-4.1s3.1-4.1,7-4.1C74.9,98.8,78,100.7,78,102.9z"/>
				<path class="st17" d="M58.1,83.5c0,2.8,2.3,5.1,5.2,5.1c2.9,0,5.2-2.3,5.2-5.1s-2.3-5.1-5.2-5.1C60.4,78.4,58.1,80.7,58.1,83.5z
					"/>
				<path class="st17" d="M79.6,68.5h-6.1c-4.1,0-7.4,3.8-7.4,8.4v9.5c0,0.3,0,0.5,0,0.8c-0.1,0.3-0.1,0.6-0.1,0.9v5.8v0.3v5.8
					c0,2.1,1.7,3.8,3.8,3.8h2.4c2.1,0,3.8-1.7,3.8-3.8v-5.1h3.5c4.1,0,7.4-3.8,7.4-8.4v-9.5C87,72.3,83.7,68.5,79.6,68.5z"/>
				<path class="st4" d="M90.3,64.5c-3.4-4.7-9.6-7.9-17.8-7.3c-5.8,0.4-10,7.3-10,7.3c-3.6,0.9-6.6,5.2-5.9,10.6
					c0.8,5.5,4.9,7.7,4.9,7.7s1.7,1.5,3.2,0.1c0.4-0.4,1.2-1.2,2.1-2.2c1.9-0.8,5.3-2.6,6.6-5.4c0.3-0.6,0.5-1,0.6-1.5
					c6.2,4,16.1,4.3,16.8,1.4c0.7-3-2.7-4.2-2.7-4.2C91,72.2,93.7,69.2,90.3,64.5z"/>
				<g>
					<path class="st2" d="M58.4,83.5c0,2.7,2.2,4.8,4.9,4.8c2.7,0,4.9-2.2,4.9-4.8c0-2.7-2.2-4.8-4.9-4.8
						C60.6,78.7,58.4,80.8,58.4,83.5z"/>
					<g>
						<g>
							<path class="st6" d="M66.4,84.1c0-0.7-0.1-1.4-0.4-1.9c-0.6-1.2-1.9-1.6-3.2-1.5c-0.7,0.1-0.7,1.1,0,1c1-0.1,2,0.1,2.4,1.1
								c0.2,0.4,0.2,0.9,0.2,1.3C65.3,84.8,66.4,84.8,66.4,84.1L66.4,84.1z"/>
						</g>
					</g>
				</g>
				<g>
					<g>
						<path class="st10" d="M74.8,80c0,0.8,0.6,1.4,1.4,1.4c0.8,0,1.4-0.6,1.4-1.4c0-0.8-0.6-1.4-1.4-1.4
							C75.4,78.7,74.8,79.3,74.8,80z"/>
						<path class="st10" d="M83.8,79.8c0,0.7,0.5,1.2,1.2,1.2c0.7,0,1.2-0.5,1.2-1.2c0-0.7-0.5-1.2-1.2-1.2
							C84.3,78.7,83.8,79.2,83.8,79.8z"/>
					</g>
					<g>
						<path class="st39" d="M82.5,85.5c0,0-0.7,2-2.2,2.2s-2.6-1.5-2.7-2.7L82.5,85.5z"/>
						<g>
							<path class="st10" d="M82.1,85.4c-0.2,0.6-0.6,1.3-1.2,1.6c-1.4,0.9-2.7-0.9-2.8-2.1c-0.1,0.1-0.3,0.3-0.4,0.4
								c1.6,0.2,3.2,0.4,4.8,0.6c0.5,0.1,0.5-0.8,0-0.8c-1.6-0.2-3.2-0.4-4.8-0.6c-0.2,0-0.4,0.2-0.4,0.4c0.2,1.6,1.4,3.4,3.2,3.2
								c1.2-0.2,2.1-1.4,2.4-2.4C83.1,85.1,82.2,84.9,82.1,85.4z"/>
						</g>
					</g>
					<g>
						<path class="st11" d="M70,85.1c0,1.9,1.5,3.4,3.4,3.4s3.4-1.5,3.4-3.4c0-1.9-1.5-3.4-3.4-3.4S70,83.2,70,85.1z"/>
						<path class="st11" d="M86.1,82.8c0.2,0,0.4,0,0.6,0.1v3.6c0,0.5,0,1-0.1,1.5c-0.1,0-0.3,0-0.5,0c-1.4,0-2.6-1.2-2.6-2.6
							C83.5,83.9,84.6,82.8,86.1,82.8z"/>
					</g>
					<polygon class="st9" points="80.9,78.7 80.6,83.3 82.9,82 					"/>
				</g>
				<g>
					<g>
						<path class="st20" d="M52,42l7.5,28.3c0,0,8-0.8,11.3-7.5L52,42z"/>
						<g>
							<path class="st2" d="M57.9,55.1c0,0.6-0.5,1.1-1.1,1.1c-0.6,0-1.1-0.5-1.1-1.1c0-0.6,0.5-1.1,1.1-1.1
								C57.4,54,57.9,54.5,57.9,55.1z"/>
							<path class="st2" d="M57.8,49.9c0,0.5-0.4,0.9-0.9,0.9c-0.5,0-0.9-0.4-0.9-0.9c0-0.5,0.4-0.9,0.9-0.9
								C57.4,49,57.8,49.4,57.8,49.9z"/>
							<path class="st2" d="M55.4,47.1c0,0.5-0.4,1-1,1c-0.5,0-1-0.4-1-1c0-0.5,0.4-1,1-1C55,46.2,55.4,46.6,55.4,47.1z"/>
							<circle class="st2" cx="61" cy="55" r="1.4"/>
							<path class="st2" d="M61.1,61.8c0,0.8-0.6,1.4-1.4,1.4c-0.8,0-1.4-0.6-1.4-1.4c0-0.8,0.6-1.4,1.4-1.4
								C60.5,60.4,61.1,61,61.1,61.8z"/>
							<path class="st2" d="M67.4,60.7c0,0.8-0.6,1.4-1.4,1.4s-1.4-0.6-1.4-1.4s0.6-1.4,1.4-1.4S67.4,59.9,67.4,60.7z"/>
							<path class="st2" d="M65,65.6c0,0.8-0.6,1.4-1.4,1.4c-0.8,0-1.4-0.6-1.4-1.4c0-0.8,0.6-1.4,1.4-1.4
								C64.4,64.2,65,64.9,65,65.6z"/>
							<circle class="st2" cx="60.4" cy="68.4" r="0.7"/>
							<circle class="st2" cx="68.4" cy="64.2" r="1.1"/>
						</g>
						<path class="st15" d="M52,42l7.5,28.3c0,0,8-0.8,11.3-7.5L52,42z"/>
					</g>
					<circle class="st3" cx="50.7" cy="39.6" r="3.6"/>
				</g>
			</g>
			<g>
				<line class="st8" x1="10.2" y1="187.2" x2="2" y2="183.1"/>
				<line class="st8" x1="15.6" y1="178.2" x2="8" y2="169.3"/>
				<line class="st8" x1="24.5" y1="174.1" x2="15.8" y2="159.1"/>
				<line class="st8" x1="31.3" y1="169.1" x2="29" y2="156.4"/>
			</g>
		</g>
	</g>
</g>
</svg>
