<?xml version="1.0" encoding="utf-8"?>
<!-- Generator: Adobe Illustrator 24.2.3, SVG Export Plug-In . SVG Version: 6.00 Build 0)  -->
<svg version="1.1" xmlns="http://www.w3.org/2000/svg" xmlns:xlink="http://www.w3.org/1999/xlink" x="0px" y="0px"
	 viewBox="0 0 500 500" style="enable-background:new 0 0 500 500;" xml:space="preserve">
<style type="text/css">
	.st0{fill:#FFFFFF;}
	.st1{fill:#644DBD;}
	.st2{fill:none;stroke:#644DBD;stroke-miterlimit:10;}
	.st3{fill:#FFFEFD;}
	.st4{fill:#FF84B5;}
	.st5{fill:none;stroke:#000000;stroke-width:0.75;stroke-miterlimit:10;}
	.st6{fill:none;stroke:#000000;stroke-width:0.5;stroke-miterlimit:10;}
	.st7{fill:none;stroke:#000000;stroke-miterlimit:10;}
	.st8{fill:#6DD6B4;}
	.st9{fill:#FFFFFF;stroke:#000000;stroke-miterlimit:10;}
	.st10{fill:#020202;}
	.st11{fill:#0C0C0C;}
	.st12{fill:#FFFDFD;}
	.st13{fill:#000007;}
</style>
<g id="BACKGROUND">
	<rect class="st0" width="500" height="500"/>
</g>
<g id="OBJECTS">
	<g>
		<g>
			<g>
				<g>
					<g>
						<path class="st0" d="M73.75,324.01c0,0,19.16,22.46,36.45,25.28s21.95-5.51,25.05-11.16c3.11-5.65,7.43-22.17,7.43-22.17
							l-26.6-6.7c0,0,0.49,7.97-2.74,13.2c-3.23,5.23-17.36,2.39-29.85-8.05L73.75,324.01z"/>
						<g>
							<path d="M73.3,324.45c11.13,12.97,27.79,27.72,46.1,25.91c16.64-1.64,20.38-20.93,23.88-34.23c0.08-0.32-0.11-0.69-0.44-0.77
								c-8.86-2.23-17.73-4.47-26.6-6.7c-0.38-0.09-0.81,0.19-0.79,0.6c0.3,5.97-0.6,14.84-8.02,15.12
								c-8.56,0.32-17.16-5.28-23.51-10.42c-0.26-0.21-0.62-0.26-0.88,0c-3.25,3.2-6.49,6.4-9.74,9.61
								c-0.57,0.57,0.31,1.45,0.88,0.88c1.51-1.49,3.01-2.97,4.52-4.46c0.82-0.81,4.01-5.04,5.15-5.08c0.05,0,3.93,3.51,4.22,3.7
								c2.01,1.34,4.11,2.56,6.3,3.6c3.29,1.56,6.8,2.84,10.43,3.27c6.45,0.76,9.74-1.87,11.18-8.16c0.53-2.32-0.14-5.9,0.72-7.94
								c-0.48,1.12-0.94,0.18,0.24,0.73c0.92,0.43,2.14,0.54,3.12,0.79c5.72,1.44,11.44,2.88,17.16,4.33
								c1.4,0.35,3.75,0.49,4.99,1.26c0.33,0.2-0.1-1.19-0.32-0.08c-0.25,1.25-0.68,2.51-1.03,3.73c-1.87,6.59-3.67,13.57-7.2,19.5
								c-4.46,7.5-11.48,10.18-20.09,9.45c-15.65-1.32-29.58-14.08-39.41-25.53C73.66,322.96,72.78,323.85,73.3,324.45z"/>
						</g>
					</g>
					<g>
						<g>
							<g>
								<path class="st0" d="M71.46,303l13.66,10.74l-11.6,13.05l-12.5-13.44C61.02,313.35,70.46,302.22,71.46,303z"/>
								<g>
									<path class="st1" d="M70.91,303.55c4.42,3.48,9.15,6.74,13.34,10.49c-0.32-0.28,0.88-0.99-0.66,0.26
										c-1.12,0.91-2.03,2.28-2.99,3.36c-2.03,2.29-5.69,5.1-6.99,7.87c-0.56,1.2,0.31,0.66,0.08,0.32
										c-0.74-1.08-1.89-2.03-2.78-2.99c-2.51-2.7-5.01-5.39-7.52-8.09c-0.43-0.46-1.76-2.39-1.79-1.43
										c-0.03,0.97,1.67-1.44,2.07-1.89c1-1.13,6.08-8.01,7.57-7.7c0.97,0.2,1.39-1.29,0.41-1.49c-1.83-0.38-4.05,2.67-5.05,3.7
										c-2.13,2.2-4.16,4.51-6.14,6.84c-0.28,0.33-0.3,0.77,0,1.09c4.17,4.48,8.34,8.96,12.5,13.44c0.27,0.29,0.82,0.3,1.09,0
										c3.87-4.35,7.73-8.7,11.6-13.05c0.25-0.28,0.34-0.82,0-1.09c-4.55-3.58-9.11-7.16-13.66-10.74
										C71.23,301.85,70.13,302.93,70.91,303.55z"/>
								</g>
							</g>
							<polygon class="st1" points="84.48,313.17 80.54,310.14 69.55,322.52 73.52,326.79 							"/>
							<line class="st2" x1="66.37" y1="302.29" x2="80.36" y2="314.72"/>
							<line class="st2" x1="63.16" y1="305.9" x2="76.67" y2="317.91"/>
							<line class="st2" x1="60.18" y1="309.26" x2="73.69" y2="321.27"/>
						</g>
						<g>
							<g>
								<path class="st3" d="M72.32,299.04L56.96,281.4c0,0-1.78-3.05-4-1.06c-2.22,2-10.64,8.77-26.98,26.47
									c-0.66,0.71-9.77,10.76,6.8,8.46c2.52-0.35,18.4-4.24,18.4-4.24s5.96,4.11,8.01,5.18c1.06,0.55,1.35,0.76,4.18-2.32
									c3.51-3.82,7.94-8.35,10.28-12.36C73.93,301.03,73.66,300.57,72.32,299.04z"/>
								<g>
									<path class="st4" d="M73.15,298.22c-5.16-5.93-10.01-12.73-15.71-18.12c-2.99-2.83-5.1-0.78-7.63,1.44
										c-4.52,3.96-8.87,8.11-13.1,12.36c-4.51,4.53-9.94,9.04-13.41,14.46c-1.38,2.15-2.48,5.06-0.24,7.05
										c3.35,2.96,9.86,1.08,13.75,0.22c2.98-0.66,5.96-1.37,8.93-2.09c1.24-0.3,2.52-0.55,3.74-0.9
										c0.95-0.27,2.37-0.13,1.25-0.51c4.2,1.42,7.55,7.97,11.99,4.1c3.77-3.29,7.38-7.58,10.3-11.65
										C75.07,301.74,75.39,300.89,73.15,298.22c-0.97-1.15-2.61,0.51-1.65,1.65c2.21,2.64-5.07,8.98-6.77,10.83
										c-1.04,1.13-2.49,3.43-3.85,4.03c-1.29,0.57-1.2,0.37-2.55-0.37c-2.56-1.4-5.01-4.38-7.93-4.34
										c-3.74,0.05-8.23,1.99-11.88,2.83c-2.87,0.66-12.58,3.72-14.29,0.44c-0.94-1.8,1.51-4.4,2.57-5.66
										c4.65-5.56,10.05-10.68,15.24-15.73c3-2.92,6.06-5.77,9.2-8.53c2.01-1.77,3.11-2.71,5.3-0.68
										c5.47,5.06,10.05,11.55,14.95,17.17C72.49,301,74.13,299.35,73.15,298.22z"/>
								</g>
							</g>
							<g>
								<g>
									<g>
										<path class="st4" d="M44.79,304.6c-0.23,2.51-0.47,5.02-0.7,7.54c-0.14,1.49,2.2,1.49,2.33,0
											c0.23-2.51,0.47-5.02,0.7-7.54C47.26,303.11,44.93,303.12,44.79,304.6L44.79,304.6z"/>
									</g>
								</g>
								<g>
									<g>
										<path class="st4" d="M38.96,304.2c-0.16,3.06-0.32,6.12-0.48,9.18c-0.08,1.5,2.26,1.5,2.33,0
											c0.16-3.06,0.32-6.12,0.48-9.18C41.38,302.7,39.04,302.71,38.96,304.2L38.96,304.2z"/>
									</g>
								</g>
							</g>
							<path class="st4" d="M54.33,294.81c2.85-0.74,9.8,1.26,10.72,5.46c0.91,4.2-6.22,1.79-6.22,1.79s2.47,6.09-1.36,7.56
								C53.62,311.09,48.62,296.3,54.33,294.81z"/>
						</g>
					</g>
				</g>
				<g>
					<g>
						<path class="st0" d="M123.8,381.92c0,0,22.18-19.49,28.4-27.82c6.21-8.33,9.32-13.84,10.59-21.75c1.27-7.91,0-18.5,0-18.5
							l28.95-1.93c0,0,1.69,16.06,0,26.51c-1.69,10.45-13.95,26.41-33.6,39.83c-19.65,13.42-27.84,16.74-27.84,16.74L123.8,381.92z"
							/>
						<g>
							<path d="M124.24,382.36c10.32-9.08,21.49-18.33,29.63-29.48c6.6-9.05,10.17-18.07,10.11-29.33c-0.01-2.11-0.1-4.23-0.26-6.33
								c-0.08-1.16,0.31-3.6-0.89-2.75c1.03-0.73,4.88-0.33,6.04-0.4c6.78-0.45,13.56-0.91,20.34-1.36
								c0.59-0.04,1.77-0.36,2.35-0.16c-0.63-0.22-0.37-0.93-0.34,0.51c0.09,4.3,0.61,8.59,0.64,12.91
								c0.08,11.25-2.1,19.68-8.96,28.7c-8.47,11.11-19.61,19.56-31.2,27.16c-4.71,3.09-9.48,6.09-14.39,8.86
								c-1.9,1.07-4.45,3.06-6.63,3.46c-1.17,0.22,0.38,0.55,0.01,0.23c-0.89-0.77-1.49-3-2.01-4.04c-1.45-2.91-2.89-5.81-4.34-8.72
								c-0.36-0.72-1.44-0.09-1.08,0.63c2.17,4.36,4.34,8.71,6.51,13.07c0.11,0.22,0.47,0.39,0.71,0.29
								c4.57-1.88,8.89-4.58,13.09-7.14c11.95-7.27,23.8-15.13,33.57-25.22c6.54-6.76,13.47-15.11,15.21-24.64
								c1.58-8.63,0.92-17.99,0.02-26.68c-0.03-0.32-0.26-0.65-0.63-0.63c-9.65,0.64-19.3,1.29-28.95,1.93
								c-0.31,0.02-0.67,0.27-0.63,0.63c0.83,7.18,1.1,14.85-0.72,21.88c-2.23,8.64-7.94,16.44-13.96,22.88
								c-7.55,8.09-15.83,15.56-24.13,22.87C122.75,382.01,123.64,382.89,124.24,382.36z"/>
						</g>
					</g>
					<g>
						<g>
							<g>
								<path class="st0" d="M110.28,390.22l13.71-10.67l9.87,14.4l-16.06,8.89C117.8,402.85,109.27,391,110.28,390.22z"/>
								<g>
									<path class="st1" d="M110.82,390.77c4.57-3.56,9.14-7.11,13.71-10.67c-0.4-0.05-0.81-0.1-1.21-0.16
										c2.49,3.63,4.98,7.26,7.47,10.9c0.47,0.68,1.17,2.25,1.86,2.71c1.23,0.82-0.13,0.37,0.62-0.15
										c-1.57,1.08-3.41,1.89-5.07,2.81c-2.44,1.35-4.88,2.7-7.32,4.05c-0.74,0.41-1.89,0.78-2.48,1.38
										c-1.05,1.05-0.96-0.26-0.03,0.68c-1.26-1.27-8.14-10.26-7.42-11.7c0.44-0.89-0.89-1.67-1.33-0.78
										c-0.84,1.68,1.61,4.6,2.4,5.86c1.61,2.57,3.35,5.08,5.12,7.54c0.25,0.35,0.66,0.5,1.06,0.28
										c5.35-2.96,10.71-5.93,16.06-8.89c0.35-0.19,0.51-0.72,0.28-1.06c-3.29-4.8-6.58-9.6-9.87-14.4
										c-0.31-0.45-0.8-0.48-1.21-0.16c-4.57,3.56-9.14,7.11-13.71,10.67C108.95,390.29,110.05,391.37,110.82,390.77z"/>
								</g>
							</g>
							<polygon class="st1" points="123.29,380.04 119.4,383.12 128.76,396.78 133.86,393.95 							"/>
							<line class="st2" x1="108.36" y1="394.99" x2="123.8" y2="384.41"/>
							<line class="st2" x1="111.09" y1="398.98" x2="126.01" y2="388.75"/>
							<line class="st2" x1="113.63" y1="402.68" x2="128.54" y2="392.45"/>
						</g>
						<g>
							<g>
								<path class="st3" d="M106.65,388.42l-20.83,10.66c0,0-3.39,0.99-1.99,3.63c1.41,2.63,5.94,12.44,19.18,32.56
									c0.53,0.81,8.08,12.08,9.85-4.55c0.27-2.53,0.32-18.88,0.32-18.88s5.42-4.8,6.96-6.53c0.79-0.89,1.06-1.13-1.24-4.61
									c-2.87-4.33-6.18-9.72-9.52-12.95C108.96,387.34,108.45,387.5,106.65,388.42z"/>
								<g>
									<path class="st4" d="M106.06,387.42c-6.96,3.56-14.76,6.84-21.24,10.82c-3.35,2.05-2.35,4.37-0.82,7.35
										c2.51,4.89,5.21,9.69,8.03,14.41c3.52,5.89,6.88,12.46,11.35,17.68c1.77,2.06,4.54,4.36,7.25,2.53
										c3.69-2.49,3.47-9.33,3.57-13.28c0.08-3.06,0.1-6.11,0.13-9.17c0.01-1.38,0.11-2.81,0.03-4.2
										c-0.05-0.85,0.45-2.08-0.21-1.01c2.57-4.2,9.84-5.42,6.61-11.13c-2.41-4.26-5.37-8.58-8.54-12.32
										C109.94,386.43,109.19,385.88,106.06,387.42c-1.35,0.66-0.17,2.67,1.18,2.02c3.11-1.52,7.44,6.96,8.89,9.16
										c1.67,2.53,4.09,4.53,2.03,7.09c-1.76,2.19-5.42,3.7-6.13,6.45c-0.91,3.48-0.05,8.29-0.11,11.88
										c-0.05,3.31,0.72,12.45-2.51,14.19c-2.63,1.43-5.28-3.35-6.44-5.14c-3.85-5.9-7.6-11.88-11.13-17.99
										c-1.94-3.36-3.82-6.77-5.59-10.22c-1.21-2.35-1.46-3.6,0.88-5.14c6.16-4.08,13.53-6.92,20.12-10.29
										C108.57,388.75,107.39,386.73,106.06,387.42z"/>
								</g>
							</g>
							<g>
								<g>
									<g>
										<path class="st4" d="M105.37,416.48c2.38,0.83,4.76,1.67,7.15,2.5c1.42,0.5,2.03-1.76,0.62-2.25
											c-2.38-0.83-4.76-1.67-7.15-2.5C104.57,413.73,103.96,415.99,105.37,416.48L105.37,416.48z"/>
									</g>
								</g>
								<g>
									<g>
										<path class="st4" d="M103.58,422.04c2.93,0.89,5.87,1.78,8.8,2.68c1.44,0.44,2.06-1.81,0.62-2.25
											c-2.93-0.89-5.87-1.78-8.8-2.68C102.76,419.35,102.15,421.6,103.58,422.04L103.58,422.04z"/>
									</g>
								</g>
							</g>
							<path class="st4" d="M98.2,404.86c-0.03-2.95,3.58-9.21,7.88-9.08c4.3,0.13,0.24,6.47,0.24,6.47s6.51-0.93,7.01,3.15
								C113.83,409.48,98.26,410.77,98.2,404.86z"/>
						</g>
					</g>
				</g>
				<g>
					<g>
						<path class="st0" d="M233.77,99.31c-0.63-0.51-1.19-1.25-1.92-2.3c-1.82-2.63-3.71-2.65-3.27-0.32
							c0.25,1.35,4.55,14.17,6.49,16.28s9.86,6.17,10.62-0.03c0.75-6.21-1.4-20.76-2.56-24.89c-1.24-4.43-2.54-3.47-2.62-2.23
							c0,0-0.77-1.69-1.42-1.69c-0.66,0-1,1-1,1s-0.33-1.1-0.8-1.04c-0.47,0.06-0.95,0.33-1.06,1c-0.11,0.68-0.16,1.18-0.16,1.18
							s-0.69-1.36-1.17-1.31c-0.48,0.05-0.93-0.07-0.93,2.14c0,2.21,0.28,7.46,0.21,8.67c-0.07,1.22-0.24,3.09-0.24,3.09
							L233.77,99.31"/>
						<path class="st5" d="M238.87,105.14c0,0-0.38-4.51-2.56-4.83c-2.19-0.32-2.95-1.14-4.45-3.31c-1.82-2.63-3.71-2.65-3.27-0.32
							c0.25,1.35,4.55,14.17,6.49,16.28s9.86,6.17,10.62-0.03c0.75-6.21-1.39-20.76-2.56-24.89c-1.33-4.69-3.07-3.44-2.48-1.15
							c0.59,2.29,1.15,6.28,1.15,6.28"/>
						<path class="st5" d="M233.88,99.32c0,0,0.51-3.95,0.25-7.09c-0.26-3.15-0.31-6.98,0.28-7.21c0.59-0.23,1.42,0,1.98,2.96
							c0.56,2.96,0.99,5.91,0.99,5.91"/>
						<path class="st5" d="M239.38,93.73c0,0-1.21-8.34-1.4-8.93c-0.32-0.98-1.96-1.49-1.89,1.89"/>
						<path class="st6" d="M240.45,86.49c0,0-1.15-4.44-2.38-1.12"/>
					</g>
					<g>
						<g>
							
								<ellipse transform="matrix(0.7338 -0.6794 0.6794 0.7338 -18.9631 194.2876)" class="st4" cx="238.43" cy="121.34" rx="10.66" ry="9.46"/>
							<g>
								<path class="st0" d="M231.78,129.62l0.6-15.54c-0.13,0.11-0.25,0.21-0.38,0.32c-0.22,0.21-0.43,0.43-0.64,0.65l-0.53,13.76
									C231.13,129.1,231.45,129.38,231.78,129.62z"/>
								<path class="st0" d="M235.77,131.26l2.13-19.8c-0.34,0.06-0.67,0.13-1.01,0.22l-2.08,19.38
									C235.13,131.15,235.45,131.21,235.77,131.26z"/>
								<path class="st0" d="M240.4,130.88l2.49-19.01c-0.31-0.11-0.63-0.21-0.95-0.29l-2.56,19.56
									C239.72,131.08,240.06,130.99,240.4,130.88z"/>
								<path class="st0" d="M244.64,128.47l2.28-13.55c-0.2-0.28-0.42-0.56-0.67-0.82c-0.05-0.06-0.11-0.1-0.16-0.16l-2.59,15.42
									C243.89,129.09,244.28,128.79,244.64,128.47z"/>
							</g>
						</g>
						<path class="st4" d="M172.43,162.18c0,0,23.48-1.36,33.43-10.68c9.96-9.32,14.27-14.96,18.01-22.72
							c3.74-7.76,6.59-14.49,15.44-12.14c8.85,2.35,12.74,13.89,7.23,32.11c-5.51,18.22-18.97,35.73-26.46,39.97
							c-7.48,4.23-25.45,12.57-25.45,12.57L172.43,162.18z"/>
					</g>
				</g>
				<g>
					<path class="st0" d="M57.46,247.14c0,0-8.58,0-9.64,1.48c-1.06,1.48,2.97,2.12,6.89,2.22c3.92,0.11,12.08-0.64,12.08-0.64
						s-5.19,3.71-4.13,5.51c1.06,1.8,5.91-1.27,8.99-3.81c3.08-2.54,6.99-7.46,7.79-7.97l-8.79-8.66l-15.26,3.57l-3.8,0.69
						c0,0-3.38,0.69-3.35,1.18c0.02,0.48,0.91,1.11,0.91,1.11s-1.58,0.76-1.5,1.43c0.08,0.67,1.51,1.16,1.51,1.16
						s-1.94,0.68-1.73,1.54c0.21,0.87,2.03,1.49,3.14,1.49C51.69,247.45,57.46,247.14,57.46,247.14z"/>
					<path class="st7" d="M57.46,247.14c0,0-8.58,0-9.64,1.48c-1.06,1.48,2.97,2.12,6.89,2.22c3.92,0.11,12.08-0.64,12.08-0.64
						s-5.19,3.71-4.13,5.51c1.06,1.8,5.91-1.27,8.99-3.81c3.08-2.54,6.99-7.46,7.79-7.97"/>
					<path class="st7" d="M51.82,247.45c0,0-4.24,0.01-4.49-1.4s4.38-1.8,9.78-2.26"/>
					<path class="st7" d="M55.63,240.92c0,0-7.79,0.52-8.05,2.18c-0.15,0.94,0.85,1.32,3.39,1.33"/>
					<path class="st7" d="M71.16,235.28c0,0-10.52,2.65-16.52,3.71c-6,1.06-6.28,1.21-6.39,1.93c-0.11,0.72,0.79,1.03,1.57,0.86"/>
				</g>
			</g>
			<g>
				<g>
					<path class="st8" d="M96.55,298.94c0,0,13.98,18.22,49.79,20.13c35.8,1.91,54.45-5.08,54.45-5.08s-5.33-55.35-14.11-71.32
						s-53.09-18.22-65.04,2.4S96.55,298.94,96.55,298.94z"/>
				</g>
				<g>
					<path class="st0" d="M141.94,264.38c2.69,5.68,2.83,11.26,0.31,12.45c-2.52,1.19-6.75-2.45-9.44-8.13
						c-2.69-5.68-2.83-11.26-0.31-12.45C135.02,255.06,139.25,258.7,141.94,264.38z"/>
					<path class="st0" d="M125.41,281.31c1.01,6.21-0.41,11.6-3.16,12.05c-2.75,0.45-5.8-4.22-6.81-10.43
						c-1.01-6.21,0.41-11.6,3.16-12.05C121.36,270.43,124.41,275.1,125.41,281.31z"/>
					<path class="st0" d="M147.05,296.59c-3.14,5.45-7.65,8.73-10.07,7.34c-2.42-1.39-1.82-6.94,1.32-12.39
						c3.14-5.45,7.65-8.73,10.07-7.34C150.78,285.6,150.19,291.14,147.05,296.59z"/>
					<path class="st0" d="M164.88,304.39c2.3,5.85,2.06,11.43-0.54,12.44c-2.6,1.02-6.56-2.9-8.86-8.75
						c-2.3-5.85-2.06-11.43,0.54-12.44C158.62,294.61,162.58,298.53,164.88,304.39z"/>
					
						<ellipse transform="matrix(0.2504 -0.9681 0.9681 0.2504 -152.5676 406.8656)" class="st0" cx="186.45" cy="301.96" rx="11.39" ry="5.05"/>
					<path class="st0" d="M178.06,283.08c1.34,6.14,0.21,11.61-2.51,12.2c-2.72,0.59-6.02-3.91-7.36-10.05
						c-1.34-6.14-0.21-11.61,2.51-12.2C173.43,272.43,176.72,276.93,178.06,283.08z"/>
					
						<ellipse transform="matrix(0.9037 -0.4281 0.4281 0.9037 -96.7771 104.4462)" class="st0" cx="183.84" cy="267.4" rx="5.05" ry="11.39"/>
					<path class="st0" d="M165.2,259.52c-0.74,6.25-3.58,11.04-6.35,10.71c-2.77-0.33-4.41-5.66-3.67-11.9
						c0.74-6.25,3.58-11.04,6.35-10.71C164.29,247.95,165.94,253.27,165.2,259.52z"/>
					<path class="st0" d="M130.38,250.12c-3.14,5.45-7.65,8.73-10.07,7.34c-2.41-1.39-1.82-6.94,1.32-12.39s7.65-8.73,10.07-7.34
						C134.11,239.12,133.52,244.67,130.38,250.12z"/>
					<g>
						<path class="st0" d="M110.79,290.89c-1.97-1.97-7.18,0.03-11.62,4.48c-0.82,0.82-1.55,1.66-2.2,2.51
							c-0.27,0.68-0.42,1.06-0.42,1.06s2.09,2.72,6.71,6.16c1.02-0.73,2.06-1.6,3.05-2.59
							C110.76,298.07,112.76,292.86,110.79,290.89z"/>
					</g>
					<g>
						<path class="st0" d="M127.63,303.23c-2.79,0-5.05,5.1-5.05,11.39c0,0.08,0,0.15,0,0.22c3.02,0.98,6.33,1.85,9.94,2.55
							c0.1-0.89,0.16-1.81,0.16-2.77C132.68,308.32,130.42,303.23,127.63,303.23z"/>
					</g>
				</g>
				<g>
					<g>
						<path d="M96.11,299.38c9.73,12.51,28.59,17.98,43.46,19.73c14.79,1.75,30.24,1.28,44.98-0.87c5.48-0.8,11.18-1.73,16.4-3.66
							c0.75-0.28,0.42-1.49-0.33-1.21c-4.57,1.69-9.52,2.57-14.3,3.34c-14.24,2.3-29.07,2.72-43.43,1.48
							c-15.58-1.34-35.68-6.57-45.89-19.7C96.5,297.87,95.62,298.76,96.11,299.38L96.11,299.38z"/>
					</g>
				</g>
			</g>
			<g>
				<g>
					<g>
						<ellipse class="st4" cx="80.91" cy="236.3" rx="10.66" ry="9.46"/>
						<g>
							<path class="st0" d="M70.4,237.86l11-11c-0.16-0.01-0.33-0.02-0.49-0.02c-0.31,0-0.61,0.02-0.91,0.04l-9.74,9.74
								C70.28,237.04,70.32,237.46,70.4,237.86z"/>
							<path class="st0" d="M72.22,241.78l15.01-13.08c-0.29-0.19-0.58-0.36-0.89-0.52l-14.7,12.81
								C71.82,241.26,72.01,241.52,72.22,241.78z"/>
							<path class="st0" d="M75.87,244.64l14.74-12.26c-0.15-0.29-0.32-0.58-0.5-0.85l-15.17,12.61
								C75.23,244.33,75.55,244.49,75.87,244.64z"/>
							<path class="st0" d="M80.62,245.75l10.88-8.4c0.04-0.35,0.07-0.7,0.07-1.05c0-0.08-0.01-0.15-0.01-0.22l-12.38,9.55
								C79.65,245.7,80.13,245.74,80.62,245.75z"/>
						</g>
					</g>
					<path class="st4" d="M117.95,226.84c0,0,2.04,15.39,16.45,20.9c14.41,5.51,45.2,9.75,57.06,1.84
						c11.86-7.91,18.65-32.06,17.66-44.77c-0.99-12.71-7.86-27.74-16.02-34.4c-8.16-6.66-14.47-11.51-22.11-13.83
						c-7.64-2.32-30.8-5.71-57.35,20.56c-26.55,26.27-37.22,39.75-39.55,48.87c-2.32,9.12,3.39,19.18,13.13,17.92
						S107.44,238.28,117.95,226.84z"/>
				</g>
				<g>
					<g>
						<g>
							<path d="M77.46,241.36c2.62,3.09,7.83,3.44,11.49,3.1c6.34-0.6,11.98-3.5,17.17-7.03c15.09-10.25,26.99-25.37,34.75-41.76
								c0.34-0.72-0.74-1.36-1.08-0.63c-7.21,15.25-17.94,29.17-31.51,39.32c-4.24,3.17-8.94,6.25-14.05,7.8
								c-4.45,1.35-12.34,2.52-15.89-1.67C77.83,239.86,76.95,240.75,77.46,241.36L77.46,241.36z"/>
						</g>
					</g>
					<g>
						<g>
							<path d="M175.05,158.95c20.28,7.91,33.39,28.67,33.44,50.05c0,0.8,1.25,0.81,1.25,0c-0.06-21.99-13.54-43.14-34.36-51.26
								C174.63,157.46,174.31,158.67,175.05,158.95L175.05,158.95z"/>
						</g>
					</g>
					<g>
						<g>
							<path d="M207.44,195.81c7.09-2.5,13.91-6.49,19.34-11.68c0.58-0.56-0.3-1.44-0.88-0.88c-5.26,5.03-11.92,8.94-18.79,11.36
								C206.36,194.87,206.68,196.08,207.44,195.81L207.44,195.81z"/>
						</g>
					</g>
				</g>
				<g>
					<g>
						<path class="st0" d="M152.63,177.42c0,0-3.76-5.78-5.49-5.43c-1.74,0.34-2.28,10.14-1.37,9.61
							C146.68,181.07,152.63,177.42,152.63,177.42z"/>
						<path class="st0" d="M162.15,177.42c0,0,3.76-5.78,5.49-5.43c1.74,0.34,2.28,10.14,1.37,9.61
							C168.1,181.07,162.15,177.42,162.15,177.42z"/>
					</g>
					<g>
						<ellipse class="st0" cx="157.45" cy="183.41" rx="12.97" ry="9.87"/>
					</g>
					<g>
						<path d="M165.8,180.6c0,0.46-0.37,0.83-0.83,0.83c-0.46,0-0.83-0.37-0.83-0.83c0-0.46,0.37-0.83,0.83-0.83
							C165.43,179.78,165.8,180.15,165.8,180.6z"/>
						<g>
							<circle cx="161.53" cy="182.41" r="0.31"/>
							<circle cx="161.58" cy="183.57" r="0.31"/>
							<path d="M162.8,182.89c0,0.17-0.14,0.31-0.31,0.31c-0.17,0-0.31-0.14-0.31-0.31c0-0.17,0.14-0.31,0.31-0.31
								C162.66,182.59,162.8,182.72,162.8,182.89z"/>
						</g>
						<g>
							<circle cx="153.9" cy="182.68" r="0.31"/>
							<path d="M153.54,183.85c0,0.17,0.14,0.31,0.31,0.31c0.17,0,0.31-0.14,0.31-0.31c0-0.17-0.14-0.31-0.31-0.31
								C153.68,183.54,153.54,183.68,153.54,183.85z"/>
							<circle cx="152.93" cy="183.17" r="0.31"/>
						</g>
						<circle cx="149.67" cy="180.79" r="0.83"/>
						<g>
							<path d="M156.44,184.68c-0.2,1.02-0.04,3.26,1.45,3.26c1.48,0,1.65-2.24,1.45-3.26c-0.05-0.25-0.43-0.14-0.38,0.11
								c0.14,0.73,0.11,2.75-1.06,2.75c-1.17,0-1.21-2.02-1.06-2.75C156.87,184.54,156.49,184.43,156.44,184.68L156.44,184.68z"/>
						</g>
						<g>
							<path class="st4" d="M159.09,181.87c0,0.47-0.53,0.85-1.19,0.85c-0.66,0-1.19-0.38-1.19-0.85c0-0.47,0.53-0.85,1.19-0.85
								C158.55,181.02,159.09,181.4,159.09,181.87z"/>
							<g>
								<path class="st4" d="M157.7,182.33c0,0.62,0,1.25,0,1.87c0,0.26,0.4,0.26,0.4,0c0-0.62,0-1.25,0-1.87
									C158.09,182.07,157.7,182.07,157.7,182.33L157.7,182.33z"/>
							</g>
						</g>
					</g>
				</g>
			</g>
			<g>
				<path d="M147.24,118.15c0,0-12.33,4.62-18.76,14.91c-6.44,10.29,1.09,19.99,6.25,21.8c5.17,1.81,17.22,3.17,23.11-1.27
					c5.89-4.44,3.75-31.09,1.83-34.81C157.75,115.07,148.51,117.06,147.24,118.15z"/>
				<path class="st9" d="M177.96,106.05h-9.74c-6.48,0-11.78,6.03-11.78,13.41v15.11c0,0.43,0.02,0.85,0.06,1.26
					c-0.11,0.45-0.17,0.91-0.17,1.38v9.2v0.51v9.2c0,3.34,2.73,6.07,6.07,6.07h3.87c3.34,0,6.07-2.73,6.07-6.07v-8.14h5.63
					c6.48,0,11.78-6.03,11.78-13.41v-15.11C189.74,112.08,184.43,106.05,177.96,106.05z"/>
				<g>
					<path d="M155.61,126.25c0,0,9.55-3.17,12.45-9.34c2.9-6.16,2.17-7.49,2.17-7.49s5.38,7.37,13.9,9.19
						c7.02,1.5,6.74,0.46,7.43-1.18c0.63-1.5,1.06-11.9-9.61-18.31c-10.67-6.41-22.13-5.77-30.04,2.21
						c-7.91,7.98-6.94,20.55-4.28,23.69C150.29,128.15,153.8,129.91,155.61,126.25z"/>
					<ellipse transform="matrix(0.9273 -0.3743 0.3743 0.9273 -24.0767 61.5851)" cx="146.51" cy="92.78" rx="16.09" ry="16.09"/>
				</g>
				<g>
					<ellipse class="st0" cx="151.92" cy="129.92" rx="7.76" ry="7.69"/>
					<g>
						<g>
							<path class="st10" d="M156.8,130.94c0.06-1.02-0.19-2.12-0.66-3.02c-0.99-1.9-3.03-2.5-5.05-2.31
								c-0.87,0.08-0.88,1.46,0,1.38c1.65-0.15,3.28,0.21,3.98,1.86c0.27,0.64,0.4,1.39,0.36,2.09
								C155.37,131.82,156.75,131.82,156.8,130.94L156.8,130.94z"/>
						</g>
					</g>
				</g>
				<g>
					<g>
						<circle class="st11" cx="172.43" cy="124.39" r="2.2"/>
						<path class="st11" d="M184.62,124.07c0,1.04,0.84,1.88,1.87,1.88c1.04,0,1.87-0.84,1.87-1.88c0-1.04-0.84-1.87-1.87-1.87
							C185.46,122.2,184.62,123.03,184.62,124.07z"/>
					</g>
					<g>
						<path class="st12" d="M182.52,133.06c0,0-1.1,3.22-3.44,3.44c-2.33,0.22-4.16-2.37-4.29-4.38L182.52,133.06z"/>
						<g>
							<path class="st11" d="M181.98,132.91c-0.35,1-1.01,2.1-1.93,2.66c-2.31,1.42-4.47-1.38-4.7-3.46
								c-0.19,0.19-0.37,0.37-0.56,0.56c2.58,0.32,5.15,0.63,7.73,0.95c0.71,0.09,0.71-1.03,0-1.12c-2.58-0.32-5.15-0.63-7.73-0.95
								c-0.28-0.03-0.59,0.28-0.56,0.56c0.27,2.45,2.22,5.27,5,4.92c1.92-0.24,3.22-2.13,3.83-3.83
								C183.3,132.53,182.22,132.24,181.98,132.91z"/>
						</g>
					</g>
					<g>
						<path class="st4" d="M162.6,132.47c0,3.02,2.44,5.46,5.46,5.46c3.02,0,5.46-2.44,5.46-5.46c0-3.02-2.44-5.46-5.46-5.46
							C165.05,127.01,162.6,129.45,162.6,132.47z"/>
						<path class="st4" d="M188.27,128.77c0.33,0,0.65,0.04,0.96,0.12v5.66c0,0.85-0.03,1.66-0.2,2.46
							c-0.23,0.04-0.52,0.07-0.76,0.07c-2.29,0-4.16-1.86-4.16-4.16C184.12,130.63,185.98,128.77,188.27,128.77z"/>
					</g>
					<polygon class="st4" points="180.05,122.2 179.6,129.67 183.17,127.5 					"/>
				</g>
			</g>
		</g>
		<g>
			<g>
				<g>
					<g>
						<g>
							<path class="st0" d="M337.96,406.53l-1.42-17.32l-17.28,2.47l4.32,17.84C323.57,409.53,338.07,407.79,337.96,406.53z"/>
							<g>
								<path d="M338.73,406.53c-0.47-5.77-0.95-11.55-1.42-17.32c-0.04-0.55-0.46-0.82-0.98-0.74c-5.76,0.82-11.52,1.65-17.29,2.47
									c-0.42,0.06-0.63,0.59-0.54,0.95c1.44,5.95,2.88,11.9,4.32,17.84c0.07,0.3,0.42,0.61,0.74,0.57
									c2.89-0.35,5.77-0.75,8.64-1.26c1.52-0.27,5.87-0.42,6.5-2.31c0.31-0.95-1.18-1.35-1.49-0.41
									c-0.42,1.26-12.03,2.63-13.58,2.43c1.14,0.15,0.48,0.73,0.38-0.68c-0.07-1.02-0.52-2.14-0.76-3.14
									c-0.67-2.78-1.35-5.57-2.02-8.35c-0.41-1.68-0.81-3.37-1.22-5.05c0.32,1.3-1.07,0.54,0.52,0.75
									c0.99,0.13,2.43-0.35,3.41-0.49c4.27-0.61,8.54-1.22,12.8-1.83c-0.33-0.25-0.65-0.5-0.98-0.74
									c0.47,5.77,0.95,11.55,1.42,17.32C337.27,407.51,338.82,407.52,338.73,406.53z"/>
							</g>
						</g>
						<g>
							<g>
								<path class="st8" d="M341.74,407.98l6.25,22.55c0,0,1.23,4.1-1.66,4.84c-2.89,0.75-12.02,4.29-35.8,8.16
									c-0.95,0.16-19.53,4.5-8.47-8.05c1.68-1.91,18.03-16.47,18.03-16.47s-0.14-7.24,0.1-9.54c0.12-1.19,0.11-1.55,4.24-2.2
									c5.12-0.82,11.34-2.02,15.98-1.75C340.97,405.55,341.2,406.03,341.74,407.98z"/>
							</g>
							<g>
								<g>
									<g>
										<path d="M323.15,425.91c-2.23-1.19-4.45-2.38-6.67-3.57c-1.32-0.71-2.5,1.31-1.18,2.02c2.23,1.19,4.45,2.38,6.67,3.57
											C323.3,428.63,324.48,426.62,323.15,425.91L323.15,425.91z"/>
									</g>
								</g>
								<g>
									<g>
										<path d="M318.45,431.51c-2.64-1.56-5.28-3.11-7.92-4.67c-1.3-0.76-2.47,1.25-1.18,2.02c2.64,1.56,5.28,3.11,7.92,4.67
											C318.57,434.29,319.75,432.27,318.45,431.51L318.45,431.51z"/>
									</g>
								</g>
							</g>
							<path class="st0" d="M328.28,413.03c-2.35,2.44-2.28,6.33,0.16,8.69c2.44,2.35,6.33,2.28,8.69-0.16
								c2.35-2.44,2.28-6.33-0.16-8.69C334.52,410.51,330.64,410.58,328.28,413.03z"/>
						</g>
					</g>
					<g>
						<path d="M315.75,389.21c0,0-18.08-48.39-20.9-66.47c-2.82-18.08,13.92-58.75,27.3-75.14c13.38-16.38,32.02-2.02,36.54,6.33
							c4.52,8.35-4.33,35.18-8.1,40.13c-3.77,4.95-19.5,14.2-21.98,25.33c-3.82,17.18,5.78,61.25,7.76,66.9
							C338.34,391.95,316.27,390.62,315.75,389.21z"/>
						<g>
							<path class="st0" d="M343.39,390.74c0.16,1.09-0.6,2.11-1.69,2.27l-28.05,4.14c-1.09,0.16-2.11-0.6-2.27-1.69l-1.15-7.78
								c-0.16-1.09,0.6-2.11,1.69-2.27l28.05-4.14c1.09-0.16,2.11,0.6,2.27,1.69L343.39,390.74z"/>
							<g>
								<path class="st13" d="M342.77,390.74c0.1,1.47-1.03,1.64-2.09,1.8c-1.01,0.15-2.01,0.3-3.02,0.45
									c-3.26,0.48-6.51,0.96-9.77,1.44c-3.32,0.49-6.64,0.98-9.97,1.47c-1.12,0.17-2.25,0.33-3.37,0.5
									c-0.74,0.11-1.56,0.37-2.17-0.26c-0.76-0.78-0.68-2.78-0.83-3.76c-0.22-1.5-0.53-3.01-0.67-4.52
									c-0.1-1.13,0.55-1.73,1.6-1.89c0.85-0.14,1.71-0.25,2.57-0.38c6.57-0.97,13.13-1.94,19.7-2.91c1.33-0.2,2.67-0.39,4-0.59
									c0.8-0.12,1.84-0.46,2.49,0.21c0.43,0.44,0.44,1.14,0.52,1.71c0.14,0.92,0.27,1.85,0.41,2.77c0.2,1.38,0.41,2.76,0.61,4.13
									c0.12,0.79,1.32,0.46,1.21-0.33c-0.2-1.38-0.41-2.76-0.61-4.13c-0.19-1.28-0.22-2.72-0.61-3.96
									c-0.82-2.63-3.88-1.67-5.85-1.38c-7.15,1.06-14.3,2.11-21.46,3.17c-1.8,0.27-4.89,0.14-5.68,2.17
									c-0.45,1.14,0.04,2.72,0.21,3.88c0.25,1.66,0.46,3.33,0.74,4.98c0.26,1.61,1.44,2.65,3.11,2.45
									c0.62-0.07,1.24-0.18,1.85-0.27c3.27-0.48,6.55-0.97,9.82-1.45c4.16-0.61,8.31-1.23,12.47-1.84
									c2.23-0.33,6.25-0.2,6.03-3.45C343.97,389.94,342.72,389.93,342.77,390.74z"/>
							</g>
						</g>
					</g>
				</g>
				<g>
					<path class="st0" d="M432.02,255.09c-0.32-4.87-1.91-25.32-6.51-25.74c-4.6-0.42-10.78,2.86-10.78,2.86s-1.78,13.13-1.78,16.74
						c0,3.6,0.37,5.4,1.78,4.45c1.4-0.95,2.78-6.67,2.78-6.67s1.8,13.77,3.5,14.62c1.54,0.77,2.11,0.16,1.49-7.3
						c0.31,1.93,0.75,4.25,1.24,5.39c0.92,2.14,0.82,2.47,1.56,2.33c0.74-0.13,0.81-3.55,0.76-4.48c-0.05-0.93,0.17,0.45,0.4,1.32
						c0.23,0.87,0.88,3.02,1.44,3.18c0.57,0.16,0.91-0.95,0.94-1.85c0.03-0.9-0.15-4.4-0.15-4.4s0-0.01,0-0.01
						c0.44,2.53,0.99,4.92,1.81,5.07C431.88,260.85,432.34,259.96,432.02,255.09z"/>
					<path class="st7" d="M422.27,251.56c0.95,9.82,0.42,10.62-1.27,9.78c-1.69-0.85-3.5-14.62-3.5-14.62s-1.38,5.72-2.78,6.67
						c-1.4,0.95-1.78-0.85-1.78-4.45c0-3.6,1.78-16.74,1.78-16.74s6.18-3.28,10.78-2.86c4.6,0.42,6.19,20.87,6.51,25.74
						c0.32,4.87-0.14,5.76-1.52,5.51c-1.38-0.25-1.98-6.78-2.61-9.75"/>
					<path class="st7" d="M425.51,250.96c0,0,1.22,9.56,0,10.66c-1.22,1.1-1.92-2.74-2.95-6.81"/>
					<path class="st7" d="M428.41,253.63c0,0,1.05,6.78,0,7.99c-1.05,1.21-2.22-3.3-2.46-6.08"/>
				</g>
				<g>
					<g>
						<path class="st0" d="M270.12,88.32c-1.69-0.21-5.44,8.71-5.44,8.71c-0.1,0.04-0.18,0.09-0.28,0.14
							c-0.19-0.97-0.42-2-0.53-2.96c-0.2-1.87-0.94-9.31-1.11-11.6c-0.16-2.3-0.82-2.4-1.59-2.49c-0.76-0.08-1.27,1.79-1.27,1.79
							l-0.46-0.8c0,0-0.48-0.43-1.38-0.25S257,82.53,257,82.53l-0.8-0.78c0,0-0.73,0.13-1.36,0.73c-0.23,0.22-0.47,1.59-0.68,3.24
							l-0.08-0.24c-0.57-0.79-1.77-0.34-2.33,2.84c-0.56,3.17-0.14,19.28,0.86,23.67c1.01,4.39,11.93,0.57,13.12-0.29
							c1.19-0.86,2.68-6.07,4.38-13.56C271.81,90.66,271.81,88.54,270.12,88.32z"/>
						<path class="st5" d="M260.09,102.52c0,0-0.28-3.34,4.59-5.48c0,0,3.74-8.92,5.44-8.71c1.69,0.21,1.69,2.33,0,9.82
							c-1.69,7.49-3.19,12.7-4.38,13.56s-12.11,4.68-13.12,0.29c-1.01-4.39-1.43-20.5-0.86-23.67c0.56-3.17,1.77-3.63,2.33-2.84"/>
						<path class="st5" d="M253.32,94.75c0,0,0.92-11.64,1.61-12.43c0.88-1.01,2-0.67,2.07,0.96"/>
						<path class="st5" d="M256.34,94.75c0,0,0-12.92,1.48-13.77c1.48-0.85,1.77,0,1.98,1.62"/>
						<path class="st5" d="M258.89,94.26c0,0-0.07-12.93,1.91-13.92c1.98-0.99,1.91,1.43,2.12,4.32c0.21,2.89,1.27,12.37,1.27,12.37
							"/>
					</g>
					<g>
						<path class="st0" d="M312.14,186.24c0,0-28.88-0.97-42.72-19.51s-18.93-40.78-16.95-50.57c1.98-9.79,11.3-10.29,14.97-7.78
							c3.67,2.51,12.43,25.11,23.16,31.6c10.73,6.5,19.79,7.45,36.28,6.68C343.38,145.9,319.56,189.55,312.14,186.24z"/>
						<path class="st8" d="M269.41,110.71c-0.76-1.14-1.42-1.96-1.96-2.33c-3.67-2.51-12.99-2.01-14.97,7.78
							c-0.12,0.57-0.2,1.19-0.27,1.84C254.75,115.72,260.12,112.09,269.41,110.71z"/>
						<g>
							<path d="M312.14,185.62c-13.74-0.51-29.14-5.56-38.92-15.43c-8.59-8.67-14.43-21.29-17.82-32.87
								c-2.2-7.53-6.05-21.66,1.4-27.57c2.89-2.29,7.87-3.08,10.81-0.41c2.47,2.24,3.99,6.22,5.62,9.09
								c4.14,7.31,8.49,15.64,15.31,20.85c6.55,5,15.01,7.34,23.11,7.97c5.26,0.41,10.66-0.5,15.86,0c3.08,0.3,4.32,2.27,4.46,5.27
								c0.33,7.02-3.71,14.65-7.12,20.52c-1.74,3-7.84,14.26-12.54,12.59c-0.74-0.26-1.06,0.92-0.32,1.18
								c4.03,1.43,8.32-4.86,10.21-7.44c4.46-6.08,8.21-13.21,10.11-20.54c0.99-3.8,2.19-10.29-2.39-12.32
								c-3.93-1.74-9.96-0.17-14.14-0.28c-6.6-0.17-13.14-1.13-19.22-3.82c-11.11-4.92-16.79-14.92-22.54-25.08
								c-3.04-5.37-5.39-11.67-12.67-10.76c-9.25,1.15-10.42,11.22-9.64,18.73c1.24,12,5.94,23.81,12.1,34.1
								c6.71,11.21,15.48,18.91,27.86,23.29c6.5,2.3,13.57,3.89,20.49,4.15C312.93,186.88,312.93,185.65,312.14,185.62z"/>
						</g>
					</g>
				</g>
				<g>
					<g>
						<g>
							<path class="st0" d="M432.95,315.16l-17.25,2.08l3.13,17.18l17.67-5C436.49,329.42,434.21,315.01,432.95,315.16z"/>
							<g>
								<path d="M432.95,314.39c-5.75,0.69-11.5,1.39-17.25,2.08c-0.53,0.06-0.84,0.44-0.74,0.98c1.04,5.73,2.09,11.45,3.13,17.18
									c0.07,0.41,0.58,0.65,0.95,0.54c5.89-1.67,11.78-3.33,17.67-5c0.43-0.12,0.61-0.53,0.54-0.95
									c-0.47-2.93-0.99-5.86-1.63-8.77c-0.31-1.42-0.64-5.51-2.45-6.04c-0.96-0.28-1.37,1.21-0.41,1.49
									c0.9,0.26,1.62,6.09,1.79,6.93c0.44,2.17,0.92,4.37,1.18,6.56c-0.08-0.72,1.05-0.44-0.28-0.48
									c-0.84-0.03-2.03,0.57-2.83,0.8c-2.74,0.77-5.47,1.55-8.21,2.32c-1.77,0.5-3.94,0.78-5.6,1.58
									c1.09-0.53,0.33,1.19,0.64-0.15c0.18-0.8-0.45-2.47-0.59-3.25c-0.8-4.4-1.6-8.8-2.41-13.19c-0.25,0.33-0.5,0.65-0.74,0.98
									c5.75-0.69,11.5-1.39,17.25-2.08C433.92,315.81,433.93,314.27,432.95,314.39z"/>
							</g>
						</g>
						<g>
							<g>
								<path class="st8" d="M434.26,311.33l22.29-7.11c0,0,4.05-1.38,4.9,1.48s4.75,11.85,9.52,35.46
									c0.19,0.95,5.25,19.34-7.72,8.78c-1.97-1.61-17.15-17.38-17.15-17.38s-7.23,0.41-9.54,0.27c-1.19-0.08-1.55-0.05-2.37-4.15
									c-1.01-5.09-2.46-11.26-2.36-15.9C431.85,312.19,432.33,311.94,434.26,311.33z"/>
							</g>
							<g>
								<g>
									<g>
										<path d="M452.9,329.18c-1.1,2.27-2.21,4.54-3.31,6.81c-0.65,1.34,1.36,2.53,2.02,1.18c1.1-2.27,2.21-4.54,3.31-6.81
											C455.57,329.01,453.56,327.83,452.9,329.18L452.9,329.18z"/>
									</g>
								</g>
								<g>
									<g>
										<path d="M458.67,333.66c-1.45,2.7-2.91,5.4-4.36,8.09c-0.71,1.32,1.3,2.5,2.02,1.18c1.45-2.7,2.91-5.4,4.36-8.09
											C461.4,333.52,459.39,332.34,458.67,333.66L458.67,333.66z"/>
									</g>
								</g>
							</g>
							<path class="st0" d="M439.81,324.58c2.53,2.26,6.42,2.04,8.67-0.5c2.26-2.53,2.04-6.42-0.5-8.67
								c-2.53-2.26-6.42-2.04-8.67,0.5C437.06,318.44,437.28,322.32,439.81,324.58z"/>
						</g>
					</g>
					<g>
						<g>
							<path d="M337.96,243.65c0,0-1.59,52.68,8.01,81.14c9.6,28.46,23.16,29.02,42.65,22.24c19.49-6.78,26.1-8.74,26.1-8.74
								l-4.33-20.64c0,0-14.25,4.12-23.38,2.34c-9.13-1.78,0.09-51.49,0-59.12c-0.09-7.63,0.47-19.56-5.74-25.03
								C375.07,230.37,336.45,236.59,337.96,243.65z"/>
						</g>
						<g>
							<g>
								<g>
									<path d="M337.34,243.65c-0.62,21.1,0.23,42.67,3.77,63.49c2.15,12.64,5.49,27.34,14.47,37.04
										c6.88,7.43,16.31,8.05,25.66,5.75c11.44-2.81,22.36-7.66,33.66-11.03c0.77-0.23,0.44-1.44-0.33-1.21
										c-8.48,2.52-16.82,5.53-25.18,8.42c-10.31,3.56-22.48,6.87-31.49-1.38c-10.03-9.19-13.4-25.04-15.58-37.92
										c-2.23-13.15-3.15-26.53-3.58-39.86c-0.25-7.76-0.37-15.54-0.14-23.3C338.61,242.84,337.36,242.85,337.34,243.65
										L337.34,243.65z"/>
								</g>
							</g>
							<g>
								<g>
									<path d="M366.53,247.6c0.57,9.83,10.97,16.85,18.95,20.34c0.73,0.32,1.37-0.76,0.63-1.08c-7.53-3.29-17.79-9.9-18.33-19.26
										C367.74,246.8,366.49,246.8,366.53,247.6L366.53,247.6z"/>
								</g>
							</g>
						</g>
						<g>
							<path class="st0" d="M416.25,309.75c1.09-0.16,2.11,0.6,2.27,1.69l4.14,28.05c0.16,1.09-0.6,2.11-1.69,2.27l-7.78,1.15
								c-1.09,0.16-2.11-0.6-2.27-1.69l-4.14-28.05c-0.16-1.09,0.6-2.11,1.69-2.27L416.25,309.75z"/>
							<g>
								<path d="M416.25,310.38c1.47-0.1,1.64,1.03,1.8,2.09c0.15,1.01,0.3,2.01,0.45,3.02c0.48,3.26,0.96,6.51,1.44,9.77
									c0.49,3.32,0.98,6.64,1.47,9.97c0.17,1.12,0.33,2.25,0.5,3.37c0.11,0.74,0.37,1.56-0.26,2.17
									c-0.78,0.76-2.78,0.68-3.76,0.83c-1.5,0.22-3.01,0.53-4.52,0.67c-1.13,0.1-1.73-0.55-1.89-1.6
									c-0.14-0.85-0.25-1.71-0.38-2.57c-0.97-6.57-1.94-13.13-2.91-19.7c-0.2-1.33-0.39-2.67-0.59-4
									c-0.12-0.8-0.46-1.84,0.21-2.49c0.44-0.43,1.14-0.44,1.71-0.52c0.92-0.14,1.85-0.27,2.77-0.41c1.38-0.2,2.76-0.41,4.13-0.61
									c0.79-0.12,0.46-1.32-0.33-1.21c-1.38,0.2-2.76,0.41-4.13,0.61c-1.28,0.19-2.72,0.22-3.96,0.61
									c-2.63,0.82-1.67,3.88-1.38,5.85c1.06,7.15,2.11,14.3,3.17,21.46c0.27,1.8,0.14,4.89,2.17,5.68
									c1.14,0.45,2.72-0.04,3.88-0.21c1.66-0.25,3.33-0.46,4.98-0.74c1.61-0.26,2.65-1.44,2.45-3.11
									c-0.07-0.62-0.18-1.24-0.27-1.85c-0.48-3.27-0.97-6.55-1.45-9.82c-0.61-4.16-1.23-8.31-1.84-12.47
									c-0.33-2.23-0.2-6.25-3.45-6.03C415.46,309.18,415.45,310.43,416.25,310.38z"/>
							</g>
						</g>
					</g>
				</g>
			</g>
			<g>
				<g>
					<g>
						<path class="st0" d="M383.26,183.48c0,0,6.21,55.93,3.25,62.29c-2.97,6.36-24.72,11.02-46.04,9.46s-26.69-9.18-30.79-25
							c-4.1-15.82-3.95-40.39-1.06-59.88c2.89-19.49,17.76-26.83,17.76-26.83s19.59-9.18,48.26-3.04
							c28.68,6.14,53.25,29.21,58.97,43.2c5.72,14,4.03,33.27,1.69,41.33c-2.33,8.05-7.23,10.03-14.31,10.84
							c-7.09,0.81-12.59-3.21-16.83-19.53c-4.24-16.31-11.73-32.68-35.21-39.19"/>
						<g>
							<path class="st10" d="M382.63,183.48c1.02,9.22,1.9,18.47,2.65,27.72c0.56,6.86,1.06,13.73,1.29,20.61
								c0.13,3.94,1.06,9.79-0.57,13.55c-1.52,3.5-7.01,5.12-10.23,6.1c-5.46,1.67-11.19,2.53-16.87,3.02
								c-10.99,0.95-24.09,1.42-34.36-3.3c-16.35-7.5-17.06-32.64-17.37-47.85c-0.38-19.17-0.94-43.91,15.79-56.82
								c7.67-5.92,19.05-7.06,28.31-7.45c23.26-0.96,45.48,7.42,63.21,22.31c6.45,5.42,12.68,11.7,16.85,19.09
								c4.98,8.83,5.85,19.77,5.45,29.71c-0.41,10.18-1.56,22.56-13.54,24.73c-11.99,2.17-15.83-9.09-18.47-18.75
								c-2.34-8.55-5.31-16.93-10.88-23.97c-6.32-7.99-15.11-12.84-24.77-15.66c-0.77-0.23-1.1,0.98-0.33,1.21
								c11.93,3.48,21.94,10.24,28.1,21.18c5.19,9.21,6,19.92,10.85,29.18c2.8,5.35,7.01,8.91,13.26,8.38
								c8.34-0.71,13.38-4.89,15.36-12.99c4.32-17.73,2.03-37.85-9.89-52.03c-14.67-17.45-36.33-29.77-58.92-32.85
								c-12.98-1.77-29.49-1.69-41.6,4.44c-14.97,7.56-18.2,25.11-19.39,40.17c-0.99,12.49-1.05,25.22,0.69,37.65
								c1.14,8.15,2.95,17.31,7.82,24.15c4.54,6.38,11.83,9.03,19.31,10.18c12.27,1.9,25.55,1.36,37.64-1.44
								c5.55-1.28,14.46-3.2,15.6-9.86c1.14-6.67,0.2-14.05-0.21-20.74c-0.81-13.24-2.05-26.47-3.52-39.66
								C383.8,182.69,382.54,182.68,382.63,183.48L382.63,183.48z"/>
						</g>
					</g>
					<g>
						<path class="st8" d="M349.08,248.6c-17.27,0.1-28.2-2.98-34.93-6.25c4.33,7.73,11.43,11.79,26.32,12.87
							c21.33,1.55,43.08-3.11,46.04-9.46c0.22-0.47,0.39-1.22,0.51-2.2C379.7,245.99,367.68,248.5,349.08,248.6z"/>
						<g>
							<path class="st8" d="M408.82,228.78c3.42,5.99,7.44,7.61,12.17,7.07c6.6-0.76,11.29-2.53,13.79-9.26
								C421.72,229.76,413.52,229.57,408.82,228.78z"/>
						</g>
					</g>
					<g>
						<g>
							<path class="st10" d="M382.63,183.48c1.02,9.22,1.9,18.47,2.65,27.72c0.56,6.86,1.06,13.73,1.29,20.61
								c0.13,3.94,1.06,9.79-0.57,13.55c-1.52,3.5-7.01,5.12-10.23,6.1c-5.46,1.67-11.19,2.53-16.87,3.02
								c-10.99,0.95-24.09,1.42-34.36-3.3c-16.35-7.5-17.06-32.64-17.37-47.85c-0.38-19.17-0.94-43.91,15.79-56.82
								c7.67-5.92,19.05-7.06,28.31-7.45c23.26-0.96,45.48,7.42,63.21,22.31c6.45,5.42,12.68,11.7,16.85,19.09
								c4.98,8.83,5.85,19.77,5.45,29.71c-0.41,10.18-1.56,22.56-13.54,24.73c-11.99,2.17-15.83-9.09-18.47-18.75
								c-2.34-8.55-5.31-16.93-10.88-23.97c-6.32-7.99-15.11-12.84-24.77-15.66c-0.77-0.23-1.1,0.98-0.33,1.21
								c11.93,3.48,21.94,10.24,28.1,21.18c5.19,9.21,6,19.92,10.85,29.18c2.8,5.35,7.01,8.91,13.26,8.38
								c8.34-0.71,13.38-4.89,15.36-12.99c4.32-17.73,2.03-37.85-9.89-52.03c-14.67-17.45-36.33-29.77-58.92-32.85
								c-12.98-1.77-29.49-1.69-41.6,4.44c-14.97,7.56-18.2,25.11-19.39,40.17c-0.99,12.49-1.05,25.22,0.69,37.65
								c1.14,8.15,2.95,17.31,7.82,24.15c4.54,6.38,11.83,9.03,19.31,10.18c12.27,1.9,25.55,1.36,37.64-1.44
								c5.55-1.28,14.46-3.2,15.6-9.86c1.14-6.67,0.2-14.05-0.21-20.74c-0.81-13.24-2.05-26.47-3.52-39.66
								C383.8,182.69,382.54,182.68,382.63,183.48L382.63,183.48z"/>
						</g>
					</g>
				</g>
				<g>
					<g>
						<path class="st8" d="M352.68,145.36c0.16-0.79,0.79-1,1.4-0.46l5.72,5.1c0.61,0.54,0.47,1.19-0.3,1.44l-7.28,2.41
							c-0.77,0.25-1.27-0.19-1.1-0.98L352.68,145.36z"/>
					</g>
					<g>
						<path class="st8" d="M319.92,160.82c0.16-0.79,0.79-1,1.4-0.46l5.72,5.1c0.61,0.54,0.47,1.19-0.3,1.44l-7.28,2.41
							c-0.77,0.25-1.27-0.19-1.1-0.98L319.92,160.82z"/>
					</g>
					<g>
						<path class="st8" d="M262.72,117.78c0.16-0.79,0.79-1,1.4-0.46l5.72,5.1c0.61,0.54,0.47,1.19-0.3,1.44l-7.28,2.41
							c-0.77,0.25-1.27-0.19-1.1-0.98L262.72,117.78z"/>
					</g>
					<g>
						<path class="st8" d="M267.55,138.59c0.76-0.28,1.27,0.14,1.13,0.94l-1.29,7.55c-0.14,0.8-0.76,1.03-1.38,0.51l-5.9-4.89
							c-0.62-0.52-0.51-1.17,0.25-1.45L267.55,138.59z"/>
					</g>
					<g>
						<path class="st8" d="M286.11,142.87c0.76-0.28,1.27,0.14,1.13,0.94l-1.29,7.56c-0.14,0.8-0.76,1.03-1.38,0.51l-5.9-4.89
							c-0.62-0.52-0.51-1.17,0.25-1.45L286.11,142.87z"/>
					</g>
					<g>
						<path class="st8" d="M292.76,166.18c0.81,0.09,1.07,0.69,0.59,1.35l-4.53,6.18c-0.48,0.65-1.14,0.58-1.47-0.16l-3.09-7.01
							c-0.33-0.74,0.07-1.28,0.87-1.19L292.76,166.18z"/>
					</g>
					<g>
						<path class="st8" d="M311.02,154.85c0.81,0.09,1.07,0.69,0.59,1.35l-4.53,6.18c-0.48,0.65-1.14,0.58-1.47-0.16l-3.09-7.01
							c-0.33-0.74,0.07-1.28,0.87-1.19L311.02,154.85z"/>
					</g>
					<g>
						<path class="st8" d="M346.67,168.99c0.48-0.65,1.14-0.58,1.47,0.16l3.09,7.01c0.33,0.74-0.07,1.28-0.87,1.19l-7.62-0.83
							c-0.81-0.09-1.07-0.69-0.59-1.35L346.67,168.99z"/>
					</g>
					<g>
						<path class="st8" d="M318.7,186.39c0.14-0.8,0.76-1.03,1.38-0.51l5.9,4.89c0.62,0.52,0.51,1.17-0.25,1.45l-7.19,2.66
							c-0.76,0.28-1.27-0.14-1.13-0.94L318.7,186.39z"/>
					</g>
					<g>
						<path class="st8" d="M319.88,215.65c0.53-0.61,1.18-0.48,1.45,0.28l2.49,7.25c0.26,0.77-0.17,1.27-0.97,1.11l-7.52-1.47
							c-0.8-0.16-1.01-0.78-0.48-1.39L319.88,215.65z"/>
					</g>
					<g>
						<path class="st8" d="M337.71,199.17c0.41-0.7,1.07-0.7,1.47,0l3.83,6.64c0.41,0.7,0.07,1.28-0.74,1.28h-7.66
							c-0.81,0-1.14-0.57-0.74-1.28L337.71,199.17z"/>
					</g>
					<g>
						<path class="st8" d="M359.96,185.59c0.41-0.7,1.07-0.7,1.47,0l3.83,6.64c0.41,0.7,0.07,1.28-0.74,1.28l-7.66,0
							c-0.81,0-1.14-0.57-0.74-1.28L359.96,185.59z"/>
					</g>
					<g>
						<path class="st8" d="M370.98,161.87c0.41-0.7,1.07-0.7,1.47,0l3.83,6.64c0.41,0.7,0.07,1.28-0.74,1.28h-7.66
							c-0.81,0-1.14-0.57-0.74-1.28L370.98,161.87z"/>
					</g>
					<g>
						<path class="st8" d="M391.6,149.87c0.41-0.7,1.07-0.7,1.47,0l3.83,6.64c0.41,0.7,0.07,1.28-0.74,1.28l-7.66,0
							c-0.81,0-1.14-0.57-0.74-1.28L391.6,149.87z"/>
					</g>
					<g>
						<path class="st8" d="M391.76,177.45c-0.14-0.8,0.37-1.22,1.13-0.94l7.19,2.65c0.76,0.28,0.87,0.93,0.25,1.45l-5.89,4.9
							c-0.62,0.52-1.25,0.29-1.38-0.51L391.76,177.45z"/>
					</g>
					<g>
						<path class="st8" d="M417.32,182.17c-0.14-0.8,0.37-1.22,1.13-0.94l7.19,2.65c0.76,0.28,0.87,0.93,0.25,1.45l-5.89,4.9
							c-0.62,0.52-1.25,0.29-1.38-0.51L417.32,182.17z"/>
					</g>
					<g>
						<path class="st8" d="M406.73,201.37c-0.14-0.8,0.37-1.22,1.13-0.94l7.19,2.65c0.76,0.28,0.87,0.93,0.25,1.45l-5.89,4.9
							c-0.62,0.52-1.25,0.29-1.38-0.51L406.73,201.37z"/>
					</g>
					<g>
						<path class="st8" d="M426.77,215.29c0.65-0.48,1.26-0.22,1.35,0.59l0.87,7.61c0.09,0.81-0.44,1.2-1.18,0.88l-7.03-3.05
							c-0.74-0.32-0.82-0.98-0.17-1.46L426.77,215.29z"/>
					</g>
					<g>
						<path class="st8" d="M373.23,203.9c0.3-0.75,0.96-0.85,1.46-0.21l4.73,6.03c0.5,0.64,0.25,1.25-0.55,1.37l-7.59,1.08
							c-0.8,0.11-1.21-0.41-0.91-1.16L373.23,203.9z"/>
					</g>
					<g>
						<path class="st8" d="M367.54,231.15c0.3-0.75,0.96-0.85,1.46-0.21l4.73,6.03c0.5,0.64,0.25,1.25-0.55,1.37l-7.59,1.08
							c-0.8,0.11-1.21-0.41-0.91-1.16L367.54,231.15z"/>
					</g>
					<g>
						<path class="st8" d="M352.04,216.83c0.53-0.61,1.18-0.48,1.45,0.28l2.49,7.25c0.26,0.77-0.17,1.27-0.97,1.11l-7.52-1.47
							c-0.8-0.16-1.01-0.78-0.48-1.39L352.04,216.83z"/>
					</g>
					<g>
						<path class="st8" d="M333.3,234.75c0.44-0.68,1.1-0.66,1.47,0.06l3.54,6.8c0.37,0.72,0.02,1.28-0.79,1.24l-7.66-0.33
							c-0.81-0.04-1.12-0.62-0.68-1.31L333.3,234.75z"/>
					</g>
					<ellipse class="st8" cx="334.54" cy="142.03" rx="9.77" ry="9.11"/>
				</g>
			</g>
			<g>
				<g>
					<path class="st1" d="M341.27,126.32c0,0,2.61-0.25,3.7-1.4c1.09-1.14-0.57-8.48-1.39-8.18
						C342.76,117.05,341.32,126.05,341.27,126.32z"/>
					<g>
						<path class="st0" d="M341.22,126.89c1.92-2.29,3.04-5.26,2.9-8.46l-0.6-13.9c-0.29-6.79-6.09-12.1-12.88-11.81l-10.21,0.44
							c-6.79,0.29-12.1,6.09-11.81,12.88l0.6,13.9c0.29,6.79,6.09,12.1,12.88,11.81l3.92-0.17l0.34,7.73
							c0.16,3.61,3.24,6.44,6.86,6.29l2.31-0.1c3.61-0.16,6.44-3.24,6.29-6.86l-0.47-10.85
							C341.32,127.49,341.28,127.18,341.22,126.89z"/>
						<g>
							<path d="M341.67,127.33c1.79-2.2,2.91-4.81,3.07-7.66c0.06-1.07-0.03-2.16-0.08-3.23c-0.15-3.42-0.3-6.85-0.45-10.27
								c-0.16-3.6-0.87-6.91-3.34-9.71c-2.81-3.18-6.78-4.52-10.95-4.33c-3.08,0.13-6.15,0.26-9.23,0.4
								c-4.39,0.21-8.4,2.39-10.76,6.15c-1.9,3.04-1.99,6.29-1.84,9.73c0.15,3.41,0.3,6.81,0.44,10.22c0.07,1.53,0.15,3.04,0.6,4.53
								c0.79,2.59,2.39,4.88,4.52,6.53c2.21,1.71,4.95,2.67,7.74,2.71c1.54,0.02,3.08-0.11,4.62-0.18
								c-0.21-0.21-0.42-0.42-0.63-0.63c0.11,2.42,0.2,4.84,0.32,7.26c0.17,3.65,2.52,6.82,6.3,7.31c3.18,0.41,6.87-0.2,8.92-2.85
								c1.84-2.38,1.48-5.14,1.36-7.93c-0.12-2.86-0.02-5.83-0.46-8.66c-0.12-0.79-1.33-0.46-1.21,0.33
								c0.33,2.09,0.24,4.3,0.33,6.41c0.09,1.99,0.41,4.13,0.19,6.12c-0.24,2.18-1.74,4.12-3.8,4.9c-1.25,0.48-2.68,0.44-4.01,0.47
								c-3.73,0.1-6.23-2.66-6.38-6.25c-0.1-2.38-0.21-4.75-0.31-7.13c-0.01-0.33-0.27-0.64-0.63-0.63
								c-3.49,0.15-6.89,0.5-10.08-1.27c-3.73-2.07-5.91-5.88-6.1-10.1c-0.13-2.85-0.25-5.71-0.37-8.56
								c-0.11-2.55-0.52-5.37,0.01-7.89c1.04-4.91,5.24-8.79,10.26-9.3c2.63-0.27,5.32-0.25,7.96-0.36
								c3.41-0.15,6.63-0.26,9.68,1.65c3.5,2.19,5.37,5.9,5.54,9.95c0.14,3.29,0.29,6.58,0.43,9.86c0.05,1.13,0.11,2.27,0.15,3.4
								c0.11,2.98-0.83,5.79-2.71,8.11C340.28,127.07,341.16,127.96,341.67,127.33z"/>
						</g>
					</g>
				</g>
				<path d="M329.3,94.33c0,0-2.18,4.66-8.11,7.6c-5.93,2.94-13.56,5.75-17.25,0.75c-3.69-5,0.83-8.28,0.83-8.28
					s-4.96-6.84-1.74-15.02c3.22-8.18,16.96-14.24,27.66-10.24c10.7,4.01,11.6,11.02,11.6,11.02s4.67-2.29,11.81,4.26
					c7.14,6.54,4.26,21.37,1.16,26.67c-1.53,2.61-8.78,12.8-10.42,13.96c-1,0.71-0.24-2.46-0.17-5.09c0.05-1.7-0.69-3.21-0.69-3.21
					l0.04-9.23C344.02,107.51,330.94,107.07,329.3,94.33z"/>
				<g>
					
						<ellipse transform="matrix(0.1598 -0.9872 0.9872 0.1598 182.3669 440.3113)" class="st0" cx="349.83" cy="113.03" rx="8.56" ry="8.56"/>
					<g>
						<g>
							<path d="M355.99,108.14c2.62,3.27,2.17,8.07-0.98,10.81c-3.18,2.77-8.03,2.43-10.95-0.55c-0.56-0.58-1.45,0.31-0.88,0.88
								c2.67,2.73,6.79,3.6,10.31,2.07c3.14-1.36,5.29-4.44,5.47-7.86c0.12-2.29-0.67-4.47-2.09-6.25
								C356.37,106.63,355.5,107.52,355.99,108.14L355.99,108.14z"/>
						</g>
					</g>
					<g>
						<g>
							<path class="st10" d="M345.96,114.45c-0.02-0.18-0.02-0.36-0.02-0.54c0-0.19,0.01-0.39,0.03-0.58
								c0.01-0.06,0.01-0.12,0.02-0.18c0.01-0.1-0.04,0.24,0,0.02c0.02-0.12,0.04-0.25,0.07-0.37c0.06-0.26,0.13-0.52,0.23-0.78
								c0.01-0.04,0.03-0.07,0.04-0.11c0.05-0.14-0.09,0.18-0.02,0.05c0.03-0.06,0.05-0.12,0.08-0.18c0.07-0.13,0.14-0.26,0.21-0.39
								c0.04-0.07,0.09-0.14,0.14-0.2c0.02-0.02,0.03-0.04,0.05-0.07c0.09-0.13-0.13,0.15-0.02,0.03c0.11-0.12,0.21-0.24,0.32-0.35
								c0.06-0.06,0.12-0.11,0.18-0.16c0.01-0.01,0.09-0.07,0.09-0.07c0.01,0.02-0.17,0.12-0.02,0.02c0.14-0.1,0.29-0.19,0.44-0.27
								c0.09-0.05,0.18-0.09,0.27-0.13c-0.21,0.1-0.04,0.02,0,0c0.07-0.02,0.13-0.05,0.2-0.07c0.22-0.07,0.44-0.13,0.66-0.17
								c0.05-0.01,0.1-0.02,0.15-0.03c0.21-0.04-0.1,0.01,0.07-0.01c0.13-0.01,0.26-0.02,0.39-0.03c0.31-0.02,0.62-0.01,0.93,0.01
								c0.43,0.03,0.8-0.38,0.8-0.8c0-0.45-0.36-0.77-0.8-0.8c-1.91-0.12-3.83,0.4-5.02,1.98c-0.73,0.97-1.04,2.22-1.09,3.43
								c-0.01,0.24-0.01,0.49,0.01,0.73c0.05,0.43,0.33,0.8,0.8,0.8C345.56,115.24,346,114.88,345.96,114.45L345.96,114.45z"/>
						</g>
					</g>
				</g>
				<g>
					<g>
						<path class="st11" d="M329.19,108.28c0.06,1.27-0.93,2.35-2.2,2.4c-1.27,0.06-2.35-0.93-2.4-2.2c-0.06-1.27,0.93-2.35,2.2-2.4
							C328.06,106.02,329.14,107.01,329.19,108.28z"/>
						<path class="st11" d="M314.11,108.59c0.05,1.09-0.79,2-1.88,2.05c-1.09,0.05-2-0.79-2.05-1.88c-0.05-1.08,0.79-2,1.88-2.05
							C313.14,106.67,314.06,107.51,314.11,108.59z"/>
					</g>
					<g>
						<path class="st12" d="M316.72,117.92c0,0,1.3,3.32,3.76,3.45c2.46,0.13,4.25-2.67,4.29-4.79L316.72,117.92z"/>
						<g>
							<path class="st11" d="M316.12,118.08c0.5,1.26,1.34,2.49,2.47,3.26c0.88,0.6,1.97,0.79,3,0.51c1.07-0.28,1.94-1.02,2.59-1.9
								c0.72-0.97,1.16-2.17,1.2-3.38c0.01-0.43-0.4-0.66-0.78-0.59c-2.35,0.39-4.69,0.78-7.04,1.17c-0.34,0.06-0.68,0.11-1.02,0.17
								c-0.78,0.13-0.45,1.32,0.33,1.19c2.35-0.39,4.69-0.78,7.04-1.17c0.34-0.06,0.68-0.11,1.02-0.17c-0.26-0.2-0.52-0.4-0.78-0.59
								c-0.05,1.59-1.09,3.46-2.64,4.02c-1.56,0.56-2.85-0.55-3.64-1.8c-0.16-0.26-0.31-0.52-0.45-0.8
								c-0.04-0.09-0.08-0.18-0.12-0.27c-0.06-0.13,0.06,0.14,0.01,0.02c-0.12-0.31-0.41-0.53-0.76-0.43
								C316.26,117.4,316,117.77,316.12,118.08z"/>
						</g>
					</g>
					<polygon class="st4" points="317.93,106.46 318.74,114.28 314.9,112.16 					"/>
					<g>
						
							<ellipse transform="matrix(0.6808 -0.7325 0.7325 0.6808 20.4967 280.3151)" class="st4" cx="331.84" cy="116.64" rx="5.73" ry="5.73"/>
						<path class="st4" d="M310.57,113.44c-0.35,0.02-0.68,0.07-1,0.17l0.26,5.93c0.04,0.89,0.17,1.75,0.39,2.57
							c0.24,0.03,0.49,0.05,0.74,0.03c2.4-0.1,4.27-2.14,4.17-4.54C315.01,115.2,312.97,113.34,310.57,113.44z"/>
					</g>
				</g>
			</g>
		</g>
	</g>
</g>
</svg>
