<?xml version="1.0" encoding="utf-8"?>
<!-- Generator: Adobe Illustrator 24.2.3, SVG Export Plug-In . SVG Version: 6.00 Build 0)  -->
<svg version="1.1" id="Layer_1" xmlns="http://www.w3.org/2000/svg" xmlns:xlink="http://www.w3.org/1999/xlink" x="0px" y="0px"
	 viewBox="0 0 416.8 343.8" style="enable-background:new 0 0 416.8 343.8;" xml:space="preserve">
<style type="text/css">
	.st0{fill:#FFFFFF;}
	.st1{fill:#644DBD;}
	.st2{fill:none;stroke:#644DBD;stroke-width:0.9132;stroke-miterlimit:10;}
	.st3{fill:#FFFEFD;}
	.st4{fill:#FF84B5;}
	.st5{fill:none;stroke:#000000;stroke-width:0.6849;stroke-miterlimit:10;}
	.st6{fill:none;stroke:#000000;stroke-width:0.4566;stroke-miterlimit:10;}
	.st7{fill:none;stroke:#000000;stroke-width:0.9132;stroke-miterlimit:10;}
	.st8{fill:#6DD6B4;}
	.st9{fill:#FFFFFF;stroke:#000000;stroke-width:0.9132;stroke-miterlimit:10;}
	.st10{fill:#020202;}
	.st11{fill:#0C0C0C;}
	.st12{fill:#FFFDFD;}
	.st13{fill:#000007;}
</style>
<g id="OBJECTS">
	<g>
		<g>
			<g>
				<g>
					<g>
						<path class="st0" d="M53.1,233.9c0,0,17.5,20.5,33.3,23.1c15.8,2.6,20-5,22.9-10.2c2.8-5.2,6.8-20.2,6.8-20.2l-24.3-6.1
							c0,0,0.4,7.3-2.5,12.1s-15.9,2.2-27.3-7.4L53.1,233.9z"/>
						<g>
							<path d="M52.6,234.3C62.8,246.2,78,259.6,94.7,258c15.2-1.5,18.6-19.1,21.8-31.3c0.1-0.3-0.1-0.6-0.4-0.7
								c-8.1-2-16.2-4.1-24.3-6.1c-0.3-0.1-0.7,0.2-0.7,0.5c0.3,5.5-0.5,13.6-7.3,13.8c-7.8,0.3-15.7-4.8-21.5-9.5
								c-0.2-0.2-0.6-0.2-0.8,0c-3,2.9-5.9,5.8-8.9,8.8c-0.5,0.5,0.3,1.3,0.8,0.8c1.4-1.4,2.7-2.7,4.1-4.1c0.7-0.7,3.7-4.6,4.7-4.6
								c0,0,3.6,3.2,3.9,3.4c1.8,1.2,3.8,2.3,5.8,3.3c3,1.4,6.2,2.6,9.5,3c5.9,0.7,8.9-1.7,10.2-7.5c0.5-2.1-0.1-5.4,0.7-7.3
								c-0.4,1-0.9,0.2,0.2,0.7c0.8,0.4,2,0.5,2.8,0.7c5.2,1.3,10.4,2.6,15.7,4c1.3,0.3,3.4,0.4,4.6,1.2c0.3,0.2-0.1-1.1-0.3-0.1
								c-0.2,1.1-0.6,2.3-0.9,3.4c-1.7,6-3.4,12.4-6.6,17.8c-4.1,6.8-10.5,9.3-18.3,8.6c-14.3-1.2-27-12.9-36-23.3
								C53,233,52.2,233.8,52.6,234.3z"/>
						</g>
					</g>
					<g>
						<g>
							<g>
								<path class="st0" d="M51,214.7l12.5,9.8l-10.6,11.9l-11.4-12.3C41.4,224.2,50.1,214,51,214.7z"/>
								<g>
									<path class="st1" d="M50.5,215.2c4,3.2,8.4,6.2,12.2,9.6c-0.3-0.3,0.8-0.9-0.6,0.2c-1,0.8-1.9,2.1-2.7,3.1
										c-1.9,2.1-5.2,4.7-6.4,7.2c-0.5,1.1,0.3,0.6,0.1,0.3c-0.7-1-1.7-1.9-2.5-2.7c-2.3-2.5-4.6-4.9-6.9-7.4
										c-0.4-0.4-1.6-2.2-1.6-1.3c0,0.9,1.5-1.3,1.9-1.7c0.9-1,5.6-7.3,6.9-7c0.9,0.2,1.3-1.2,0.4-1.4c-1.7-0.3-3.7,2.4-4.6,3.4
										c-1.9,2-3.8,4.1-5.6,6.2c-0.3,0.3-0.3,0.7,0,1c3.8,4.1,7.6,8.2,11.4,12.3c0.2,0.3,0.7,0.3,1,0c3.5-4,7.1-7.9,10.6-11.9
										c0.2-0.3,0.3-0.7,0-1c-4.2-3.3-8.3-6.5-12.5-9.8C50.8,213.7,49.8,214.7,50.5,215.2z"/>
								</g>
							</g>
							<polygon class="st1" points="62.9,224 59.3,221.2 49.2,232.6 52.8,236.5 							"/>
							<line class="st2" x1="46.3" y1="214.1" x2="59.1" y2="225.4"/>
							<line class="st2" x1="43.4" y1="217.4" x2="55.7" y2="228.3"/>
							<line class="st2" x1="40.7" y1="220.4" x2="53" y2="231.4"/>
						</g>
						<g>
							<g>
								<path class="st3" d="M51.8,211.1l-14-16.1c0,0-1.6-2.8-3.7-1c-2,1.8-9.7,8-24.6,24.2c-0.6,0.6-8.9,9.8,6.2,7.7
									c2.3-0.3,16.8-3.9,16.8-3.9s5.4,3.8,7.3,4.7c1,0.5,1.2,0.7,3.8-2.1c3.2-3.5,7.3-7.6,9.4-11.3
									C53.2,212.9,53,212.5,51.8,211.1z"/>
								<g>
									<path class="st4" d="M52.5,210.4c-4.7-5.4-9.1-11.6-14.3-16.5c-2.7-2.6-4.7-0.7-7,1.3c-4.1,3.6-8.1,7.4-12,11.3
										c-4.1,4.1-9.1,8.3-12.2,13.2c-1.3,2-2.3,4.6-0.2,6.4c3.1,2.7,9,1,12.6,0.2c2.7-0.6,5.4-1.3,8.2-1.9
										c1.1-0.3,2.3-0.5,3.4-0.8c0.9-0.2,2.2-0.1,1.1-0.5c3.8,1.3,6.9,7.3,10.9,3.7c3.4-3,6.7-6.9,9.4-10.6
										C54.3,213.6,54.6,212.8,52.5,210.4c-0.9-1.1-2.4,0.5-1.5,1.5c2,2.4-4.6,8.2-6.2,9.9c-0.9,1-2.3,3.1-3.5,3.7
										c-1.2,0.5-1.1,0.3-2.3-0.3c-2.3-1.3-4.6-4-7.2-4c-3.4,0-7.5,1.8-10.8,2.6c-2.6,0.6-11.5,3.4-13.1,0.4
										c-0.9-1.6,1.4-4,2.3-5.2c4.2-5.1,9.2-9.8,13.9-14.4c2.7-2.7,5.5-5.3,8.4-7.8c1.8-1.6,2.8-2.5,4.8-0.6
										c5,4.6,9.2,10.5,13.7,15.7C51.9,212.9,53.4,211.4,52.5,210.4z"/>
								</g>
							</g>
							<g>
								<g>
									<g>
										<path class="st4" d="M26.6,216.2c-0.2,2.3-0.4,4.6-0.6,6.9c-0.1,1.4,2,1.4,2.1,0c0.2-2.3,0.4-4.6,0.6-6.9
											C28.9,214.8,26.7,214.8,26.6,216.2L26.6,216.2z"/>
									</g>
								</g>
								<g>
									<g>
										<path class="st4" d="M21.3,215.8c-0.1,2.8-0.3,5.6-0.4,8.4c-0.1,1.4,2.1,1.4,2.1,0c0.1-2.8,0.3-5.6,0.4-8.4
											C23.5,214.5,21.4,214.5,21.3,215.8L21.3,215.8z"/>
									</g>
								</g>
							</g>
							<path class="st4" d="M35.3,207.2c2.6-0.7,8.9,1.2,9.8,5c0.8,3.8-5.7,1.6-5.7,1.6s2.3,5.6-1.2,6.9
								C34.7,222.1,30.1,208.6,35.3,207.2z"/>
						</g>
					</g>
				</g>
				<g>
					<g>
						<path class="st0" d="M98.8,286.8c0,0,20.3-17.8,25.9-25.4c5.7-7.6,8.5-12.6,9.7-19.9c1.2-7.2,0-16.9,0-16.9l26.4-1.8
							c0,0,1.5,14.7,0,24.2c-1.5,9.5-12.7,24.1-30.7,36.4s-25.4,15.3-25.4,15.3L98.8,286.8z"/>
						<g>
							<path d="M99.2,287.2c9.4-8.3,19.6-16.7,27.1-26.9c6-8.3,9.3-16.5,9.2-26.8c0-1.9-0.1-3.9-0.2-5.8c-0.1-1.1,0.3-3.3-0.8-2.5
								c0.9-0.7,4.5-0.3,5.5-0.4c6.2-0.4,12.4-0.8,18.6-1.2c0.5,0,1.6-0.3,2.1-0.1c-0.6-0.2-0.3-0.8-0.3,0.5
								c0.1,3.9,0.6,7.8,0.6,11.8c0.1,10.3-1.9,18-8.2,26.2c-7.7,10.1-17.9,17.9-28.5,24.8c-4.3,2.8-8.7,5.6-13.1,8.1
								c-1.7,1-4.1,2.8-6.1,3.2c-1.1,0.2,0.3,0.5,0,0.2c-0.8-0.7-1.4-2.7-1.8-3.7c-1.3-2.7-2.6-5.3-4-8c-0.3-0.7-1.3-0.1-1,0.6
								c2,4,4,8,5.9,11.9c0.1,0.2,0.4,0.4,0.6,0.3c4.2-1.7,8.1-4.2,12-6.5c10.9-6.6,21.7-13.8,30.7-23c6-6.2,12.3-13.8,13.9-22.5
								c1.4-7.9,0.8-16.4,0-24.4c0-0.3-0.2-0.6-0.6-0.6c-8.8,0.6-17.6,1.2-26.4,1.8c-0.3,0-0.6,0.2-0.6,0.6c0.8,6.6,1,13.6-0.7,20
								c-2,7.9-7.3,15-12.7,20.9c-6.9,7.4-14.5,14.2-22,20.9C97.8,286.9,98.6,287.7,99.2,287.2z"/>
						</g>
					</g>
					<g>
						<g>
							<g>
								<path class="st0" d="M86.4,294.4l12.5-9.7l9,13.2l-14.7,8.1C93.3,305.9,85.5,295.1,86.4,294.4z"/>
								<g>
									<path class="st1" d="M86.9,294.9c4.2-3.3,8.3-6.5,12.5-9.7c-0.4,0-0.7-0.1-1.1-0.1c2.3,3.3,4.5,6.6,6.8,10
										c0.4,0.6,1.1,2.1,1.7,2.5c1.1,0.7-0.1,0.3,0.6-0.1c-1.4,1-3.1,1.7-4.6,2.6c-2.2,1.2-4.5,2.5-6.7,3.7
										c-0.7,0.4-1.7,0.7-2.3,1.3c-1,1-0.9-0.2,0,0.6c-1.2-1.2-7.4-9.4-6.8-10.7c0.4-0.8-0.8-1.5-1.2-0.7
										c-0.8,1.5,1.5,4.2,2.2,5.4c1.5,2.3,3.1,4.6,4.7,6.9c0.2,0.3,0.6,0.5,1,0.3c4.9-2.7,9.8-5.4,14.7-8.1c0.3-0.2,0.5-0.7,0.3-1
										c-3-4.4-6-8.8-9-13.2c-0.3-0.4-0.7-0.4-1.1-0.1c-4.2,3.3-8.3,6.5-12.5,9.7C85.2,294.4,86.2,295.4,86.9,294.9z"/>
								</g>
							</g>
							<polygon class="st1" points="98.3,285.1 94.7,287.9 103.3,300.4 108,297.8 							"/>
							<line class="st2" x1="84.7" y1="298.7" x2="98.8" y2="289.1"/>
							<line class="st2" x1="87.2" y1="302.4" x2="100.8" y2="293"/>
							<line class="st2" x1="89.5" y1="305.8" x2="103.1" y2="296.4"/>
						</g>
						<g>
							<g>
								<path class="st3" d="M83.1,292.7l-19,9.7c0,0-3.1,0.9-1.8,3.3c1.3,2.4,5.4,11.4,17.5,29.7c0.5,0.7,7.4,11,9-4.2
									c0.2-2.3,0.3-17.2,0.3-17.2s4.9-4.4,6.4-6c0.7-0.8,1-1-1.1-4.2c-2.6-4-5.6-8.9-8.7-11.8C85.2,291.7,84.7,291.9,83.1,292.7z"
									/>
								<g>
									<path class="st4" d="M82.6,291.8c-6.4,3.3-13.5,6.2-19.4,9.9c-3.1,1.9-2.1,4-0.7,6.7c2.3,4.5,4.8,8.8,7.3,13.2
										C73,327,76,333,80.1,337.7c1.6,1.9,4.1,4,6.6,2.3c3.4-2.3,3.2-8.5,3.3-12.1c0.1-2.8,0.1-5.6,0.1-8.4c0-1.3,0.1-2.6,0-3.8
										c0-0.8,0.4-1.9-0.2-0.9c2.3-3.8,9-4.9,6-10.2c-2.2-3.9-4.9-7.8-7.8-11.3C86.1,290.9,85.4,290.4,82.6,291.8
										c-1.2,0.6-0.2,2.4,1.1,1.8c2.8-1.4,6.8,6.4,8.1,8.4c1.5,2.3,3.7,4.1,1.9,6.5c-1.6,2-4.9,3.4-5.6,5.9
										c-0.8,3.2,0,7.6-0.1,10.8c0,3,0.7,11.4-2.3,13c-2.4,1.3-4.8-3.1-5.9-4.7c-3.5-5.4-6.9-10.8-10.2-16.4
										c-1.8-3.1-3.5-6.2-5.1-9.3c-1.1-2.1-1.3-3.3,0.8-4.7c5.6-3.7,12.4-6.3,18.4-9.4C84.9,293,83.8,291.2,82.6,291.8z"/>
								</g>
							</g>
							<g>
								<g>
									<g>
										<path class="st4" d="M81.9,318.4c2.2,0.8,4.3,1.5,6.5,2.3c1.3,0.5,1.9-1.6,0.6-2.1c-2.2-0.8-4.3-1.5-6.5-2.3
											C81.2,315.8,80.6,317.9,81.9,318.4L81.9,318.4z"/>
									</g>
								</g>
								<g>
									<g>
										<path class="st4" d="M80.3,323.4c2.7,0.8,5.4,1.6,8,2.4c1.3,0.4,1.9-1.7,0.6-2.1c-2.7-0.8-5.4-1.6-8-2.4
											C79.6,321,79,323,80.3,323.4L80.3,323.4z"/>
									</g>
								</g>
							</g>
							<path class="st4" d="M75.4,307.7c0-2.7,3.3-8.4,7.2-8.3c3.9,0.1,0.2,5.9,0.2,5.9s5.9-0.8,6.4,2.9
								C89.7,312,75.4,313.1,75.4,307.7z"/>
						</g>
					</g>
				</g>
				<g>
					<g>
						<path class="st0" d="M199.2,28.7c-0.6-0.5-1.1-1.1-1.8-2.1c-1.7-2.4-3.4-2.4-3-0.3c0.2,1.2,4.2,12.9,5.9,14.9
							c1.8,1.9,9,5.6,9.7,0c0.7-5.7-1.3-19-2.3-22.7c-1.1-4-2.3-3.2-2.4-2c0,0-0.7-1.5-1.3-1.5c-0.6,0-0.9,0.9-0.9,0.9
							s-0.3-1-0.7-0.9c-0.4,0.1-0.9,0.3-1,0.9c-0.1,0.6-0.1,1.1-0.1,1.1s-0.6-1.2-1.1-1.2c-0.4,0-0.8-0.1-0.8,2s0.3,6.8,0.2,7.9
							c-0.1,1.1-0.2,2.8-0.2,2.8L199.2,28.7"/>
						<path class="st5" d="M203.9,34c0,0-0.3-4.1-2.3-4.4c-2-0.3-2.7-1-4.1-3c-1.7-2.4-3.4-2.4-3-0.3c0.2,1.2,4.2,12.9,5.9,14.9
							s9,5.6,9.7,0c0.7-5.7-1.3-19-2.3-22.7c-1.2-4.3-2.8-3.1-2.3-1.1c0.5,2.1,1.1,5.7,1.1,5.7"/>
						<path class="st5" d="M199.3,28.7c0,0,0.5-3.6,0.2-6.5c-0.2-2.9-0.3-6.4,0.3-6.6c0.5-0.2,1.3,0,1.8,2.7s0.9,5.4,0.9,5.4"/>
						<path class="st5" d="M204.3,23.6c0,0-1.1-7.6-1.3-8.2c-0.3-0.9-1.8-1.4-1.7,1.7"/>
						<path class="st6" d="M205.3,17c0,0-1.1-4.1-2.2-1"/>
					</g>
					<g>
						<g>
							
								<ellipse transform="matrix(0.7338 -0.6794 0.6794 0.7338 20.9938 151.2228)" class="st4" cx="203.5" cy="48.8" rx="9.7" ry="8.6"/>
							<g>
								<path class="st0" d="M197.4,56.4l0.5-14.2c-0.1,0.1-0.2,0.2-0.3,0.3c-0.2,0.2-0.4,0.4-0.6,0.6l-0.5,12.6
									C196.8,55.9,197.1,56.2,197.4,56.4z"/>
								<path class="st0" d="M201,57.9l1.9-18.1c-0.3,0.1-0.6,0.1-0.9,0.2l-1.9,17.7C200.4,57.8,200.7,57.8,201,57.9z"/>
								<path class="st0" d="M205.3,57.5l2.3-17.4c-0.3-0.1-0.6-0.2-0.9-0.3l-2.3,17.9C204.6,57.7,204.9,57.6,205.3,57.5z"/>
								<path class="st0" d="M209.1,55.3l2.1-12.4c-0.2-0.3-0.4-0.5-0.6-0.7c0-0.1-0.1-0.1-0.1-0.1l-2.4,14.1
									C208.4,55.9,208.8,55.6,209.1,55.3z"/>
							</g>
						</g>
						<path class="st4" d="M143.2,86.1c0,0,21.4-1.2,30.5-9.8c9.1-8.5,13-13.7,16.4-20.7s6-13.2,14.1-11.1
							c8.1,2.1,11.6,12.7,6.6,29.3c-5,16.6-17.3,32.6-24.2,36.5c-6.8,3.9-23.2,11.5-23.2,11.5L143.2,86.1z"/>
					</g>
				</g>
				<g>
					<path class="st0" d="M38.2,163.7c0,0-7.8,0-8.8,1.4c-1,1.4,2.7,1.9,6.3,2c3.6,0.1,11-0.6,11-0.6s-4.7,3.4-3.8,5
						c1,1.6,5.4-1.2,8.2-3.5c2.8-2.3,6.4-6.8,7.1-7.3l-8-7.9l-13.9,3.3l-3.5,0.6c0,0-3.1,0.6-3.1,1.1c0,0.4,0.8,1,0.8,1
						s-1.4,0.7-1.4,1.3c0.1,0.6,1.4,1.1,1.4,1.1s-1.8,0.6-1.6,1.4c0.2,0.8,1.9,1.4,2.9,1.4C32.9,164,38.2,163.7,38.2,163.7z"/>
					<path class="st7" d="M38.2,163.7c0,0-7.8,0-8.8,1.4c-1,1.4,2.7,1.9,6.3,2c3.6,0.1,11-0.6,11-0.6s-4.7,3.4-3.8,5
						c1,1.6,5.4-1.2,8.2-3.5c2.8-2.3,6.4-6.8,7.1-7.3"/>
					<path class="st7" d="M33,164c0,0-3.9,0-4.1-1.3c-0.2-1.3,4-1.6,8.9-2.1"/>
					<path class="st7" d="M36.5,158c0,0-7.1,0.5-7.4,2c-0.1,0.9,0.8,1.2,3.1,1.2"/>
					<path class="st7" d="M50.7,152.9c0,0-9.6,2.4-15.1,3.4c-5.5,1-5.7,1.1-5.8,1.8c-0.1,0.7,0.7,0.9,1.4,0.8"/>
				</g>
			</g>
			<g>
				<g>
					<path class="st8" d="M73.9,211c0,0,12.8,16.6,45.5,18.4c32.7,1.7,49.7-4.6,49.7-4.6s-4.9-50.5-12.9-65.1s-48.5-16.6-59.4,2.2
						S73.9,211,73.9,211z"/>
				</g>
				<g>
					<path class="st0" d="M115.3,179.5c2.5,5.2,2.6,10.3,0.3,11.4c-2.3,1.1-6.2-2.2-8.6-7.4c-2.5-5.2-2.6-10.3-0.3-11.4
						C109,170.9,112.9,174.3,115.3,179.5z"/>
					<path class="st0" d="M100.2,194.9c0.9,5.7-0.4,10.6-2.9,11c-2.5,0.4-5.3-3.9-6.2-9.5c-0.9-5.7,0.4-10.6,2.9-11
						C96.5,185,99.3,189.2,100.2,194.9z"/>
					<path class="st0" d="M120,208.9c-2.9,5-7,8-9.2,6.7c-2.2-1.3-1.7-6.3,1.2-11.3c2.9-5,7-8,9.2-6.7
						C123.4,198.8,122.9,203.9,120,208.9z"/>
					<path class="st0" d="M136.3,216c2.1,5.3,1.9,10.4-0.5,11.4c-2.4,0.9-6-2.6-8.1-8c-2.1-5.3-1.9-10.4,0.5-11.4
						C130.6,207.1,134.2,210.6,136.3,216z"/>
					
						<ellipse transform="matrix(0.2504 -0.9681 0.9681 0.2504 -90.0573 311.2629)" class="st0" cx="156" cy="213.8" rx="10.4" ry="4.6"/>
					<path class="st0" d="M148.3,196.5c1.2,5.6,0.2,10.6-2.3,11.1c-2.5,0.5-5.5-3.6-6.7-9.2c-1.2-5.6-0.2-10.6,2.3-11.1
						C144.1,186.8,147.1,190.9,148.3,196.5z"/>
					
						<ellipse transform="matrix(0.9037 -0.4281 0.4281 0.9037 -63.2186 83.2964)" class="st0" cx="153.6" cy="182.2" rx="4.6" ry="10.4"/>
					<path class="st0" d="M136.6,175c-0.7,5.7-3.3,10.1-5.8,9.8c-2.5-0.3-4-5.2-3.4-10.9c0.7-5.7,3.3-10.1,5.8-9.8
						C135.7,164.5,137.3,169.3,136.6,175z"/>
					<path class="st0" d="M104.8,166.4c-2.9,5-7,8-9.2,6.7c-2.2-1.3-1.7-6.3,1.2-11.3s7-8,9.2-6.7
						C108.2,156.4,107.6,161.5,104.8,166.4z"/>
					<g>
						<path class="st0" d="M86.9,203.7c-1.8-1.8-6.6,0-10.6,4.1c-0.7,0.7-1.4,1.5-2,2.3c-0.2,0.6-0.4,1-0.4,1s1.9,2.5,6.1,5.6
							c0.9-0.7,1.9-1.5,2.8-2.4C86.9,210.2,88.7,205.5,86.9,203.7z"/>
					</g>
					<g>
						<path class="st0" d="M102.3,214.9c-2.5,0-4.6,4.7-4.6,10.4c0,0.1,0,0.1,0,0.2c2.8,0.9,5.8,1.7,9.1,2.3
							c0.1-0.8,0.1-1.7,0.1-2.5C106.9,219.6,104.8,214.9,102.3,214.9z"/>
					</g>
				</g>
				<g>
					<g>
						<path d="M73.5,211.4c8.9,11.4,26.1,16.4,39.7,18c13.5,1.6,27.6,1.2,41.1-0.8c5-0.7,10.2-1.6,15-3.3c0.7-0.3,0.4-1.4-0.3-1.1
							c-4.2,1.5-8.7,2.3-13.1,3.1c-13,2.1-26.5,2.5-39.7,1.4c-14.2-1.2-32.6-6-41.9-18C73.8,210,73,210.9,73.5,211.4L73.5,211.4z"/>
					</g>
				</g>
			</g>
			<g>
				<g>
					<g>
						<ellipse class="st4" cx="59.6" cy="153.8" rx="9.7" ry="8.6"/>
						<g>
							<path class="st0" d="M50,155.2l10-10c-0.1,0-0.3,0-0.4,0c-0.3,0-0.6,0-0.8,0l-8.9,8.9C49.9,154.5,49.9,154.9,50,155.2z"/>
							<path class="st0" d="M51.7,158.8l13.7-11.9c-0.3-0.2-0.5-0.3-0.8-0.5l-13.4,11.7C51.3,158.3,51.5,158.6,51.7,158.8z"/>
							<path class="st0" d="M55,161.4l13.5-11.2c-0.1-0.3-0.3-0.5-0.5-0.8L54.1,161C54.4,161.1,54.7,161.3,55,161.4z"/>
							<path class="st0" d="M59.3,162.4l9.9-7.7c0-0.3,0.1-0.6,0.1-1c0-0.1,0-0.1,0-0.2L58,162.3C58.4,162.4,58.9,162.4,59.3,162.4z
								"/>
						</g>
					</g>
					<path class="st4" d="M93.4,145.2c0,0,1.9,14.1,15,19.1s41.3,8.9,52.1,1.7s17-29.3,16.1-40.9c-0.9-11.6-7.2-25.3-14.6-31.4
						S148.8,83.1,141.9,81c-7-2.1-28.1-5.2-52.4,18.8s-34,36.3-36.1,44.6c-2.1,8.3,3.1,17.5,12,16.4S83.8,155.6,93.4,145.2z"/>
				</g>
				<g>
					<g>
						<g>
							<path d="M56.4,158.4c2.4,2.8,7.2,3.1,10.5,2.8c5.8-0.5,10.9-3.2,15.7-6.4c13.8-9.4,24.6-23.2,31.7-38.1
								c0.3-0.7-0.7-1.2-1-0.6c-6.6,13.9-16.4,26.6-28.8,35.9c-3.9,2.9-8.2,5.7-12.8,7.1c-4.1,1.2-11.3,2.3-14.5-1.5
								C56.8,157.1,56,157.9,56.4,158.4L56.4,158.4z"/>
						</g>
					</g>
					<g>
						<g>
							<path d="M145.6,83.2c18.5,7.2,30.5,26.2,30.5,45.7c0,0.7,1.1,0.7,1.1,0c-0.1-20.1-12.4-39.4-31.4-46.8
								C145.2,81.8,144.9,82.9,145.6,83.2L145.6,83.2z"/>
						</g>
					</g>
					<g>
						<g>
							<path d="M175.2,116.8c6.5-2.3,12.7-5.9,17.7-10.7c0.5-0.5-0.3-1.3-0.8-0.8c-4.8,4.6-10.9,8.2-17.2,10.4
								C174.2,116,174.5,117.1,175.2,116.8L175.2,116.8z"/>
						</g>
					</g>
				</g>
				<g>
					<g>
						<path class="st0" d="M125.1,100c0,0-3.4-5.3-5-5c-1.6,0.3-2.1,9.3-1.3,8.8C119.7,103.4,125.1,100,125.1,100z"/>
						<path class="st0" d="M133.8,100c0,0,3.4-5.3,5-5c1.6,0.3,2.1,9.3,1.3,8.8C139.2,103.4,133.8,100,133.8,100z"/>
					</g>
					<g>
						<ellipse class="st0" cx="129.5" cy="105.5" rx="11.8" ry="9"/>
					</g>
					<g>
						<path d="M137.1,102.9c0,0.4-0.3,0.8-0.8,0.8c-0.4,0-0.8-0.3-0.8-0.8s0.3-0.8,0.8-0.8C136.8,102.2,137.1,102.5,137.1,102.9z"/>
						<g>
							<circle cx="133.2" cy="104.6" r="0.3"/>
							<circle cx="133.3" cy="105.7" r="0.3"/>
							<path d="M134.4,105c0,0.2-0.1,0.3-0.3,0.3c-0.2,0-0.3-0.1-0.3-0.3s0.1-0.3,0.3-0.3C134.3,104.8,134.4,104.9,134.4,105z"/>
						</g>
						<g>
							<circle cx="126.3" cy="104.8" r="0.3"/>
							<path d="M125.9,105.9c0,0.2,0.1,0.3,0.3,0.3s0.3-0.1,0.3-0.3c0-0.2-0.1-0.3-0.3-0.3C126.1,105.6,125.9,105.8,125.9,105.9z"/>
							<circle cx="125.4" cy="105.3" r="0.3"/>
						</g>
						<circle cx="122.4" cy="103.1" r="0.8"/>
						<g>
							<path d="M128.6,106.7c-0.2,0.9,0,3,1.3,3c1.4,0,1.5-2,1.3-3c0-0.2-0.4-0.1-0.3,0.1c0.1,0.7,0.1,2.5-1,2.5
								c-1.1,0-1.1-1.8-1-2.5C129,106.5,128.6,106.4,128.6,106.7L128.6,106.7z"/>
						</g>
						<g>
							<path class="st4" d="M131,104.1c0,0.4-0.5,0.8-1.1,0.8c-0.6,0-1.1-0.3-1.1-0.8c0-0.4,0.5-0.8,1.1-0.8
								C130.5,103.3,131,103.7,131,104.1z"/>
							<g>
								<path class="st4" d="M129.7,104.5c0,0.6,0,1.1,0,1.7c0,0.2,0.4,0.2,0.4,0c0-0.6,0-1.1,0-1.7
									C130.1,104.3,129.7,104.3,129.7,104.5L129.7,104.5z"/>
							</g>
						</g>
					</g>
				</g>
			</g>
			<g>
				<path d="M120.2,45.9c0,0-11.3,4.2-17.1,13.6c-5.9,9.4,1,18.3,5.7,19.9c4.7,1.7,15.7,2.9,21.1-1.2c5.4-4.1,3.4-28.4,1.7-31.8
					C129.8,43.1,121.3,44.9,120.2,45.9z"/>
				<path class="st9" d="M148.2,34.9h-8.9c-5.9,0-10.8,5.5-10.8,12.2v13.8c0,0.4,0,0.8,0.1,1.2c-0.1,0.4-0.2,0.8-0.2,1.3v8.4v0.5
					v8.4c0,3.1,2.5,5.5,5.5,5.5h3.5c3.1,0,5.5-2.5,5.5-5.5v-7.4h5.1c5.9,0,10.8-5.5,10.8-12.2V47.1C159,40.4,154.1,34.9,148.2,34.9z
					"/>
				<g>
					<path d="M127.8,53.3c0,0,8.7-2.9,11.4-8.5c2.6-5.6,2-6.8,2-6.8s4.9,6.7,12.7,8.4c6.4,1.4,6.2,0.4,6.8-1.1
						c0.6-1.4,1-10.9-8.8-16.7s-20.2-5.3-27.4,2c-7.2,7.3-6.3,18.8-3.9,21.6C123,55,126.2,56.7,127.8,53.3z"/>
					<ellipse cx="119.5" cy="22.7" rx="14.7" ry="14.7"/>
				</g>
				<g>
					<ellipse class="st0" cx="124.4" cy="56.7" rx="7.1" ry="7"/>
					<g>
						<g>
							<path class="st10" d="M128.9,57.6c0.1-0.9-0.2-1.9-0.6-2.8c-0.9-1.7-2.8-2.3-4.6-2.1c-0.8,0.1-0.8,1.3,0,1.3
								c1.5-0.1,3,0.2,3.6,1.7c0.2,0.6,0.4,1.3,0.3,1.9C127.6,58.4,128.9,58.4,128.9,57.6L128.9,57.6z"/>
						</g>
					</g>
				</g>
				<g>
					<g>
						<circle class="st11" cx="143.2" cy="51.6" r="2"/>
						<path class="st11" d="M154.3,51.3c0,0.9,0.8,1.7,1.7,1.7c0.9,0,1.7-0.8,1.7-1.7c0-0.9-0.8-1.7-1.7-1.7
							C155.1,49.6,154.3,50.4,154.3,51.3z"/>
					</g>
					<g>
						<path class="st12" d="M152.4,59.5c0,0-1,2.9-3.1,3.1c-2.1,0.2-3.8-2.2-3.9-4L152.4,59.5z"/>
						<g>
							<path class="st11" d="M151.9,59.4c-0.3,0.9-0.9,1.9-1.8,2.4c-2.1,1.3-4.1-1.3-4.3-3.2c-0.2,0.2-0.3,0.3-0.5,0.5
								c2.4,0.3,4.7,0.6,7.1,0.9c0.6,0.1,0.6-0.9,0-1c-2.4-0.3-4.7-0.6-7.1-0.9c-0.3,0-0.5,0.3-0.5,0.5c0.2,2.2,2,4.8,4.6,4.5
								c1.8-0.2,2.9-1.9,3.5-3.5C153.1,59,152.1,58.8,151.9,59.4z"/>
						</g>
					</g>
					<g>
						<path class="st4" d="M134.2,59c0,2.8,2.2,5,5,5s5-2.2,5-5s-2.2-5-5-5C136.4,54,134.2,56.2,134.2,59z"/>
						<path class="st4" d="M157.6,55.6c0.3,0,0.6,0,0.9,0.1v5.2c0,0.8,0,1.5-0.2,2.2c-0.2,0-0.5,0.1-0.7,0.1c-2.1,0-3.8-1.7-3.8-3.8
							C153.9,57.3,155.6,55.6,157.6,55.6z"/>
					</g>
					<polygon class="st4" points="150.1,49.6 149.7,56.4 153,54.5 					"/>
				</g>
			</g>
		</g>
		<g>
			<g>
				<g>
					<g>
						<g>
							<path class="st0" d="M294.3,309.3l-1.3-15.8l-15.8,2.3l3.9,16.3C281.2,312,294.4,310.4,294.3,309.3z"/>
							<g>
								<path d="M295.1,309.3c-0.4-5.3-0.9-10.5-1.3-15.8c0-0.5-0.4-0.7-0.9-0.7c-5.3,0.7-10.5,1.5-15.8,2.3
									c-0.4,0.1-0.6,0.5-0.5,0.9c1.3,5.4,2.6,10.9,3.9,16.3c0.1,0.3,0.4,0.6,0.7,0.5c2.6-0.3,5.3-0.7,7.9-1.2
									c1.4-0.2,5.4-0.4,5.9-2.1c0.3-0.9-1.1-1.2-1.4-0.4c-0.4,1.2-11,2.4-12.4,2.2c1,0.1,0.4,0.7,0.3-0.6c-0.1-0.9-0.5-2-0.7-2.9
									c-0.6-2.5-1.2-5.1-1.8-7.6c-0.4-1.5-0.7-3.1-1.1-4.6c0.3,1.2-1,0.5,0.5,0.7c0.9,0.1,2.2-0.3,3.1-0.4
									c3.9-0.6,7.8-1.1,11.7-1.7c-0.3-0.2-0.6-0.5-0.9-0.7c0.4,5.3,0.9,10.5,1.3,15.8C293.7,310.2,295.1,310.2,295.1,309.3z"/>
							</g>
						</g>
						<g>
							<g>
								<path class="st8" d="M297.8,310.6l5.7,20.6c0,0,1.1,3.7-1.5,4.4c-2.6,0.7-11,3.9-32.7,7.5c-0.9,0.1-17.8,4.1-7.7-7.4
									c1.5-1.7,16.5-15,16.5-15s-0.1-6.6,0.1-8.7c0.1-1.1,0.1-1.4,3.9-2c4.7-0.7,10.4-1.8,14.6-1.6
									C297.1,308.4,297.3,308.8,297.8,310.6z"/>
							</g>
							<g>
								<g>
									<g>
										<path d="M280.8,327c-2-1.1-4.1-2.2-6.1-3.3c-1.2-0.6-2.3,1.2-1.1,1.8c2,1.1,4.1,2.2,6.1,3.3
											C281,329.5,282,327.6,280.8,327L280.8,327z"/>
									</g>
								</g>
								<g>
									<g>
										<path d="M276.5,332.1c-2.4-1.4-4.8-2.8-7.2-4.3c-1.2-0.7-2.3,1.1-1.1,1.8c2.4,1.4,4.8,2.8,7.2,4.3
											C276.6,334.6,277.7,332.8,276.5,332.1L276.5,332.1z"/>
									</g>
								</g>
							</g>
							<path class="st0" d="M285.5,315.2c-2.1,2.2-2.1,5.8,0.1,7.9c2.2,2.1,5.8,2.1,7.9-0.1c2.1-2.2,2.1-5.8-0.1-7.9
								C291.2,312.9,287.7,313,285.5,315.2z"/>
						</g>
					</g>
					<g>
						<path d="M274.1,293.5c0,0-16.5-44.2-19.1-60.7c-2.6-16.5,12.7-53.7,24.9-68.6c12.2-15,29.2-1.8,33.4,5.8
							c4.1,7.6-4,32.1-7.4,36.6s-17.8,13-20.1,23.1c-3.5,15.7,5.3,55.9,7.1,61.1C294.7,296,274.5,294.7,274.1,293.5z"/>
						<g>
							<path class="st0" d="M299.3,294.9c0.1,1-0.5,1.9-1.5,2.1l-25.6,3.8c-1,0.1-1.9-0.5-2.1-1.5l-1.1-7.1c-0.1-1,0.5-1.9,1.5-2.1
								l25.6-3.8c1-0.1,1.9,0.5,2.1,1.5L299.3,294.9z"/>
							<g>
								<path class="st13" d="M298.7,294.9c0.1,1.3-0.9,1.5-1.9,1.6c-0.9,0.1-1.8,0.3-2.8,0.4c-3,0.4-5.9,0.9-8.9,1.3
									c-3,0.4-6.1,0.9-9.1,1.3c-1,0.2-2.1,0.3-3.1,0.5c-0.7,0.1-1.4,0.3-2-0.2c-0.7-0.7-0.6-2.5-0.8-3.4c-0.2-1.4-0.5-2.7-0.6-4.1
									c-0.1-1,0.5-1.6,1.5-1.7c0.8-0.1,1.6-0.2,2.3-0.3c6-0.9,12-1.8,18-2.7c1.2-0.2,2.4-0.4,3.7-0.5c0.7-0.1,1.7-0.4,2.3,0.2
									c0.4,0.4,0.4,1,0.5,1.6c0.1,0.8,0.2,1.7,0.4,2.5c0.2,1.3,0.4,2.5,0.6,3.8c0.1,0.7,1.2,0.4,1.1-0.3c-0.2-1.3-0.4-2.5-0.6-3.8
									c-0.2-1.2-0.2-2.5-0.6-3.6c-0.7-2.4-3.5-1.5-5.3-1.3c-6.5,1-13.1,1.9-19.6,2.9c-1.6,0.2-4.5,0.1-5.2,2c-0.4,1,0,2.5,0.2,3.5
									c0.2,1.5,0.4,3,0.7,4.5c0.2,1.5,1.3,2.4,2.8,2.2c0.6-0.1,1.1-0.2,1.7-0.2c3-0.4,6-0.9,9-1.3c3.8-0.6,7.6-1.1,11.4-1.7
									c2-0.3,5.7-0.2,5.5-3.2C299.8,294.1,298.7,294.1,298.7,294.9z"/>
							</g>
						</g>
					</g>
				</g>
				<g>
					<path class="st0" d="M380.2,171c-0.3-4.4-1.7-23.1-5.9-23.5s-9.8,2.6-9.8,2.6s-1.6,12-1.6,15.3c0,3.3,0.3,4.9,1.6,4.1
						c1.3-0.9,2.5-6.1,2.5-6.1s1.6,12.6,3.2,13.4c1.4,0.7,1.9,0.1,1.4-6.7c0.3,1.8,0.7,3.9,1.1,4.9c0.8,2,0.7,2.3,1.4,2.1
						c0.7-0.1,0.7-3.2,0.7-4.1c0-0.8,0.2,0.4,0.4,1.2c0.2,0.8,0.8,2.8,1.3,2.9c0.5,0.1,0.8-0.9,0.9-1.7c0-0.8-0.1-4-0.1-4v0
						c0.4,2.3,0.9,4.5,1.7,4.6C380.1,176.2,380.5,175.4,380.2,171z"/>
					<path class="st7" d="M371.3,167.7c0.9,9,0.4,9.7-1.2,8.9c-1.5-0.8-3.2-13.4-3.2-13.4s-1.3,5.2-2.5,6.1
						c-1.3,0.9-1.6-0.8-1.6-4.1c0-3.3,1.6-15.3,1.6-15.3s5.6-3,9.8-2.6s5.7,19.1,5.9,23.5c0.3,4.4-0.1,5.3-1.4,5
						c-1.3-0.2-1.8-6.2-2.4-8.9"/>
					<path class="st7" d="M374.3,167.2c0,0,1.1,8.7,0,9.7c-1.1,1-1.8-2.5-2.7-6.2"/>
					<path class="st7" d="M376.9,169.6c0,0,1,6.2,0,7.3c-1,1.1-2-3-2.2-5.6"/>
				</g>
				<g>
					<g>
						<path class="st0" d="M232.4,18.7c-1.5-0.2-5,8-5,8c-0.1,0-0.2,0.1-0.3,0.1c-0.2-0.9-0.4-1.8-0.5-2.7c-0.2-1.7-0.9-8.5-1-10.6
							c-0.1-2.1-0.7-2.2-1.5-2.3c-0.7-0.1-1.2,1.6-1.2,1.6l-0.4-0.7c0,0-0.4-0.4-1.3-0.2c-0.8,0.2-1,1.5-1,1.5l-0.7-0.7
							c0,0-0.7,0.1-1.2,0.7c-0.2,0.2-0.4,1.5-0.6,3l-0.1-0.2c-0.5-0.7-1.6-0.3-2.1,2.6c-0.5,2.9-0.1,17.6,0.8,21.6
							c0.9,4,10.9,0.5,12-0.3c1.1-0.8,2.4-5.5,4-12.4C233.9,20.8,233.9,18.9,232.4,18.7z"/>
						<path class="st5" d="M223.2,31.6c0,0-0.3-3.1,4.2-5c0,0,3.4-8.1,5-8c1.5,0.2,1.5,2.1,0,9s-2.9,11.6-4,12.4
							c-1.1,0.8-11.1,4.3-12,0.3c-0.9-4-1.3-18.7-0.8-21.6c0.5-2.9,1.6-3.3,2.1-2.6"/>
						<path class="st5" d="M217.1,24.5c0,0,0.8-10.6,1.5-11.4c0.8-0.9,1.8-0.6,1.9,0.9"/>
						<path class="st5" d="M219.8,24.5c0,0,0-11.8,1.4-12.6c1.4-0.8,1.6,0,1.8,1.5"/>
						<path class="st5" d="M222.1,24.1c0,0-0.1-11.8,1.7-12.7c1.8-0.9,1.7,1.3,1.9,3.9s1.2,11.3,1.2,11.3"/>
					</g>
					<g>
						<path class="st0" d="M270.8,108.1c0,0-26.4-0.9-39-17.8S214.5,53,216.3,44.1c1.8-8.9,10.3-9.4,13.7-7.1
							c3.4,2.3,11.4,22.9,21.2,28.9c9.8,5.9,18.1,6.8,33.1,6.1C299.3,71.3,277.5,111.1,270.8,108.1z"/>
						<path class="st8" d="M231.7,39.1c-0.7-1-1.3-1.8-1.8-2.1c-3.4-2.3-11.9-1.8-13.7,7.1c-0.1,0.5-0.2,1.1-0.2,1.7
							C218.4,43.7,223.3,40.4,231.7,39.1z"/>
						<g>
							<path d="M270.8,107.5c-12.5-0.5-26.6-5.1-35.5-14.1c-7.8-7.9-13.2-19.4-16.3-30c-2-6.9-5.5-19.8,1.3-25.2
								c2.6-2.1,7.2-2.8,9.9-0.4c2.3,2,3.6,5.7,5.1,8.3c3.8,6.7,7.8,14.3,14,19c6,4.6,13.7,6.7,21.1,7.3c4.8,0.4,9.7-0.5,14.5,0
								c2.8,0.3,3.9,2.1,4.1,4.8c0.3,6.4-3.4,13.4-6.5,18.7c-1.6,2.7-7.2,13-11.5,11.5c-0.7-0.2-1,0.8-0.3,1.1
								c3.7,1.3,7.6-4.4,9.3-6.8c4.1-5.6,7.5-12.1,9.2-18.8c0.9-3.5,2-9.4-2.2-11.3c-3.6-1.6-9.1-0.2-12.9-0.3c-6-0.2-12-1-17.6-3.5
								c-10.1-4.5-15.3-13.6-20.6-22.9c-2.8-4.9-4.9-10.7-11.6-9.8c-8.4,1.1-9.5,10.2-8.8,17.1c1.1,11,5.4,21.7,11.1,31.1
								c6.1,10.2,14.1,17.3,25.4,21.3c5.9,2.1,12.4,3.6,18.7,3.8C271.5,108.7,271.5,107.6,270.8,107.5z"/>
						</g>
					</g>
				</g>
				<g>
					<g>
						<g>
							<path class="st0" d="M381.1,225.8l-15.8,1.9l2.9,15.7l16.1-4.6C384.3,238.9,382.2,225.7,381.1,225.8z"/>
							<g>
								<path d="M381.1,225.1c-5.3,0.6-10.5,1.3-15.8,1.9c-0.5,0.1-0.8,0.4-0.7,0.9c0.9,5.2,1.9,10.5,2.9,15.7
									c0.1,0.4,0.5,0.6,0.9,0.5c5.4-1.5,10.8-3,16.1-4.6c0.4-0.1,0.6-0.5,0.5-0.9c-0.4-2.7-0.9-5.4-1.5-8c-0.3-1.3-0.6-5-2.2-5.5
									c-0.9-0.3-1.3,1.1-0.4,1.4c0.8,0.2,1.5,5.6,1.6,6.3c0.4,2,0.8,4,1.1,6c-0.1-0.7,1-0.4-0.3-0.4c-0.8,0-1.9,0.5-2.6,0.7
									c-2.5,0.7-5,1.4-7.5,2.1c-1.6,0.5-3.6,0.7-5.1,1.4c1-0.5,0.3,1.1,0.6-0.1c0.2-0.7-0.4-2.3-0.5-3c-0.7-4-1.5-8-2.2-12
									c-0.2,0.3-0.5,0.6-0.7,0.9c5.3-0.6,10.5-1.3,15.8-1.9C382,226.4,382,225,381.1,225.1z"/>
							</g>
						</g>
						<g>
							<g>
								<path class="st8" d="M382.3,222.3l20.4-6.5c0,0,3.7-1.3,4.5,1.4s4.3,10.8,8.7,32.4c0.2,0.9,4.8,17.7-7.1,8
									c-1.8-1.5-15.7-15.9-15.7-15.9s-6.6,0.4-8.7,0.2c-1.1-0.1-1.4,0-2.2-3.8c-0.9-4.6-2.2-10.3-2.2-14.5
									C380.1,223.1,380.5,222.9,382.3,222.3z"/>
							</g>
							<g>
								<g>
									<g>
										<path d="M399.3,238.6c-1,2.1-2,4.1-3,6.2c-0.6,1.2,1.2,2.3,1.8,1.1c1-2.1,2-4.1,3-6.2
											C401.8,238.5,399.9,237.4,399.3,238.6L399.3,238.6z"/>
									</g>
								</g>
								<g>
									<g>
										<path d="M404.6,242.7c-1.3,2.5-2.7,4.9-4,7.4c-0.6,1.2,1.2,2.3,1.8,1.1c1.3-2.5,2.7-4.9,4-7.4
											C407.1,242.6,405.2,241.5,404.6,242.7L404.6,242.7z"/>
									</g>
								</g>
							</g>
							<path class="st0" d="M387.4,234.4c2.3,2.1,5.9,1.9,7.9-0.5c2.1-2.3,1.9-5.9-0.5-7.9c-2.3-2.1-5.9-1.9-7.9,0.5
								C384.8,228.8,385.1,232.4,387.4,234.4z"/>
						</g>
					</g>
					<g>
						<g>
							<path d="M294.3,160.5c0,0-1.5,48.1,7.3,74.1s21.2,26.5,38.9,20.3s23.8-8,23.8-8l-4-18.8c0,0-13,3.8-21.4,2.1
								c-8.3-1.6,0.1-47,0-54s0.4-17.9-5.2-22.9C328.2,148.4,293,154.1,294.3,160.5z"/>
						</g>
						<g>
							<g>
								<g>
									<path d="M293.8,160.5c-0.6,19.3,0.2,39,3.4,58c2,11.5,5,25,13.2,33.8c6.3,6.8,14.9,7.4,23.4,5.3c10.4-2.6,20.4-7,30.7-10.1
										c0.7-0.2,0.4-1.3-0.3-1.1c-7.7,2.3-15.4,5.1-23,7.7c-9.4,3.3-20.5,6.3-28.8-1.3c-9.2-8.4-12.2-22.9-14.2-34.6
										c-2-12-2.9-24.2-3.3-36.4c-0.2-7.1-0.3-14.2-0.1-21.3C294.9,159.8,293.8,159.8,293.8,160.5L293.8,160.5z"/>
								</g>
							</g>
							<g>
								<g>
									<path d="M320.4,164.1c0.5,9,10,15.4,17.3,18.6c0.7,0.3,1.3-0.7,0.6-1c-6.9-3-16.2-9-16.7-17.6
										C321.5,163.4,320.4,163.4,320.4,164.1L320.4,164.1z"/>
								</g>
							</g>
						</g>
						<g>
							<path class="st0" d="M365.8,220.9c1-0.1,1.9,0.5,2.1,1.5l3.8,25.6c0.1,1-0.5,1.9-1.5,2.1l-7.1,1.1c-1,0.1-1.9-0.5-2.1-1.5
								l-3.8-25.6c-0.1-1,0.5-1.9,1.5-2.1L365.8,220.9z"/>
							<g>
								<path d="M365.8,221.5c1.3-0.1,1.5,0.9,1.6,1.9c0.1,0.9,0.3,1.8,0.4,2.8c0.4,3,0.9,5.9,1.3,8.9c0.4,3,0.9,6.1,1.3,9.1
									c0.2,1,0.3,2.1,0.5,3.1c0.1,0.7,0.3,1.4-0.2,2c-0.7,0.7-2.5,0.6-3.4,0.8c-1.4,0.2-2.7,0.5-4.1,0.6c-1,0.1-1.6-0.5-1.7-1.5
									c-0.1-0.8-0.2-1.6-0.3-2.3c-0.9-6-1.8-12-2.7-18c-0.2-1.2-0.4-2.4-0.5-3.7c-0.1-0.7-0.4-1.7,0.2-2.3c0.4-0.4,1-0.4,1.6-0.5
									c0.8-0.1,1.7-0.2,2.5-0.4c1.3-0.2,2.5-0.4,3.8-0.6c0.7-0.1,0.4-1.2-0.3-1.1c-1.3,0.2-2.5,0.4-3.8,0.6
									c-1.2,0.2-2.5,0.2-3.6,0.6c-2.4,0.7-1.5,3.5-1.3,5.3c1,6.5,1.9,13.1,2.9,19.6c0.2,1.6,0.1,4.5,2,5.2c1,0.4,2.5,0,3.5-0.2
									c1.5-0.2,3-0.4,4.5-0.7c1.5-0.2,2.4-1.3,2.2-2.8c-0.1-0.6-0.2-1.1-0.2-1.7c-0.4-3-0.9-6-1.3-9c-0.6-3.8-1.1-7.6-1.7-11.4
									c-0.3-2-0.2-5.7-3.2-5.5C365.1,220.4,365.1,221.5,365.8,221.5z"/>
							</g>
						</g>
					</g>
				</g>
			</g>
			<g>
				<g>
					<g>
						<path class="st0" d="M335.7,105.6c0,0,5.7,51.1,3,56.9c-2.7,5.8-22.6,10.1-42,8.6c-19.5-1.4-24.4-8.4-28.1-22.8
							c-3.7-14.4-3.6-36.9-1-54.7s16.2-24.5,16.2-24.5s17.9-8.4,44.1-2.8c26.2,5.6,48.6,26.7,53.9,39.5c5.2,12.8,3.7,30.4,1.5,37.7
							c-2.1,7.4-6.6,9.2-13.1,9.9c-6.5,0.7-11.5-2.9-15.4-17.8c-3.9-14.9-10.7-29.8-32.2-35.8"/>
						<g>
							<path class="st10" d="M335.1,105.6c0.9,8.4,1.7,16.9,2.4,25.3c0.5,6.3,1,12.5,1.2,18.8c0.1,3.6,1,8.9-0.5,12.4
								c-1.4,3.2-6.4,4.7-9.3,5.6c-5,1.5-10.2,2.3-15.4,2.8c-10,0.9-22,1.3-31.4-3c-14.9-6.8-15.6-29.8-15.9-43.7
								c-0.3-17.5-0.9-40.1,14.4-51.9c7-5.4,17.4-6.4,25.9-6.8c21.2-0.9,41.5,6.8,57.7,20.4c5.9,4.9,11.6,10.7,15.4,17.4
								c4.5,8.1,5.3,18.1,5,27.1c-0.4,9.3-1.4,20.6-12.4,22.6c-10.9,2-14.5-8.3-16.9-17.1c-2.1-7.8-4.8-15.5-9.9-21.9
								c-5.8-7.3-13.8-11.7-22.6-14.3c-0.7-0.2-1,0.9-0.3,1.1c10.9,3.2,20,9.4,25.7,19.3c4.7,8.4,5.5,18.2,9.9,26.6
								c2.6,4.9,6.4,8.1,12.1,7.7c7.6-0.6,12.2-4.5,14-11.9c3.9-16.2,1.9-34.6-9-47.5c-13.4-15.9-33.2-27.2-53.8-30
								c-11.9-1.6-26.9-1.5-38,4.1c-13.7,6.9-16.6,22.9-17.7,36.7c-0.9,11.4-1,23,0.6,34.4c1,7.4,2.7,15.8,7.1,22.1
								c4.1,5.8,10.8,8.2,17.6,9.3c11.2,1.7,23.3,1.2,34.4-1.3c5.1-1.2,13.2-2.9,14.2-9c1-6.1,0.2-12.8-0.2-18.9
								c-0.7-12.1-1.9-24.2-3.2-36.2C336.2,104.9,335.1,104.8,335.1,105.6L335.1,105.6z"/>
						</g>
					</g>
					<g>
						<path class="st8" d="M304.5,165c-15.8,0.1-25.8-2.7-31.9-5.7c4,7.1,10.4,10.8,24,11.8c19.5,1.4,39.3-2.8,42-8.6
							c0.2-0.4,0.4-1.1,0.5-2C332.5,162.7,321.5,165,304.5,165z"/>
						<g>
							<path class="st8" d="M359.1,146.9c3.1,5.5,6.8,6.9,11.1,6.5c6-0.7,10.3-2.3,12.6-8.5C370.8,147.8,363.4,147.7,359.1,146.9z"
								/>
						</g>
					</g>
					<g>
						<g>
							<path class="st10" d="M335.1,105.6c0.9,8.4,1.7,16.9,2.4,25.3c0.5,6.3,1,12.5,1.2,18.8c0.1,3.6,1,8.9-0.5,12.4
								c-1.4,3.2-6.4,4.7-9.3,5.6c-5,1.5-10.2,2.3-15.4,2.8c-10,0.9-22,1.3-31.4-3c-14.9-6.8-15.6-29.8-15.9-43.7
								c-0.3-17.5-0.9-40.1,14.4-51.9c7-5.4,17.4-6.4,25.9-6.8c21.2-0.9,41.5,6.8,57.7,20.4c5.9,4.9,11.6,10.7,15.4,17.4
								c4.5,8.1,5.3,18.1,5,27.1c-0.4,9.3-1.4,20.6-12.4,22.6c-10.9,2-14.5-8.3-16.9-17.1c-2.1-7.8-4.8-15.5-9.9-21.9
								c-5.8-7.3-13.8-11.7-22.6-14.3c-0.7-0.2-1,0.9-0.3,1.1c10.9,3.2,20,9.4,25.7,19.3c4.7,8.4,5.5,18.2,9.9,26.6
								c2.6,4.9,6.4,8.1,12.1,7.7c7.6-0.6,12.2-4.5,14-11.9c3.9-16.2,1.9-34.6-9-47.5c-13.4-15.9-33.2-27.2-53.8-30
								c-11.9-1.6-26.9-1.5-38,4.1c-13.7,6.9-16.6,22.9-17.7,36.7c-0.9,11.4-1,23,0.6,34.4c1,7.4,2.7,15.8,7.1,22.1
								c4.1,5.8,10.8,8.2,17.6,9.3c11.2,1.7,23.3,1.2,34.4-1.3c5.1-1.2,13.2-2.9,14.2-9c1-6.1,0.2-12.8-0.2-18.9
								c-0.7-12.1-1.9-24.2-3.2-36.2C336.2,104.9,335.1,104.8,335.1,105.6L335.1,105.6z"/>
						</g>
					</g>
				</g>
				<g>
					<g>
						<path class="st8" d="M307.8,70.8c0.1-0.7,0.7-0.9,1.3-0.4l5.2,4.7c0.6,0.5,0.4,1.1-0.3,1.3l-6.6,2.2c-0.7,0.2-1.2-0.2-1-0.9
							L307.8,70.8z"/>
					</g>
					<g>
						<path class="st8" d="M277.9,84.9c0.1-0.7,0.7-0.9,1.3-0.4l5.2,4.7c0.6,0.5,0.4,1.1-0.3,1.3l-6.6,2.2c-0.7,0.2-1.2-0.2-1-0.9
							L277.9,84.9z"/>
					</g>
					<g>
						<path class="st8" d="M225.6,45.6c0.1-0.7,0.7-0.9,1.3-0.4l5.2,4.7c0.6,0.5,0.4,1.1-0.3,1.3l-6.6,2.2c-0.7,0.2-1.2-0.2-1-0.9
							L225.6,45.6z"/>
					</g>
					<g>
						<path class="st8" d="M230,64.6c0.7-0.3,1.2,0.1,1,0.9l-1.2,6.9c-0.1,0.7-0.7,0.9-1.3,0.5l-5.4-4.5c-0.6-0.5-0.5-1.1,0.2-1.3
							L230,64.6z"/>
					</g>
					<g>
						<path class="st8" d="M247,68.5c0.7-0.3,1.2,0.1,1,0.9l-1.2,6.9c-0.1,0.7-0.7,0.9-1.3,0.5l-5.4-4.5c-0.6-0.5-0.5-1.1,0.2-1.3
							L247,68.5z"/>
					</g>
					<g>
						<path class="st8" d="M253.1,89.8c0.7,0.1,1,0.6,0.5,1.2l-4.1,5.6c-0.4,0.6-1,0.5-1.3-0.1l-2.8-6.4c-0.3-0.7,0.1-1.2,0.8-1.1
							L253.1,89.8z"/>
					</g>
					<g>
						<path class="st8" d="M269.7,79.4c0.7,0.1,1,0.6,0.5,1.2l-4.1,5.6c-0.4,0.6-1,0.5-1.3-0.1l-2.8-6.4c-0.3-0.7,0.1-1.2,0.8-1.1
							L269.7,79.4z"/>
					</g>
					<g>
						<path class="st8" d="M302.3,92.3c0.4-0.6,1-0.5,1.3,0.1l2.8,6.4c0.3,0.7-0.1,1.2-0.8,1.1l-7-0.8c-0.7-0.1-1-0.6-0.5-1.2
							L302.3,92.3z"/>
					</g>
					<g>
						<path class="st8" d="M276.8,108.2c0.1-0.7,0.7-0.9,1.3-0.5l5.4,4.5c0.6,0.5,0.5,1.1-0.2,1.3l-6.6,2.4c-0.7,0.3-1.2-0.1-1-0.9
							L276.8,108.2z"/>
					</g>
					<g>
						<path class="st8" d="M277.8,135c0.5-0.6,1.1-0.4,1.3,0.3l2.3,6.6c0.2,0.7-0.2,1.2-0.9,1l-6.9-1.3c-0.7-0.1-0.9-0.7-0.4-1.3
							L277.8,135z"/>
					</g>
					<g>
						<path class="st8" d="M294.1,119.9c0.4-0.6,1-0.6,1.3,0l3.5,6.1c0.4,0.6,0.1,1.2-0.7,1.2h-7c-0.7,0-1-0.5-0.7-1.2L294.1,119.9z
							"/>
					</g>
					<g>
						<path class="st8" d="M314.4,107.5c0.4-0.6,1-0.6,1.3,0l3.5,6.1c0.4,0.6,0.1,1.2-0.7,1.2h-7c-0.7,0-1-0.5-0.7-1.2L314.4,107.5z
							"/>
					</g>
					<g>
						<path class="st8" d="M324.5,85.8c0.4-0.6,1-0.6,1.3,0l3.5,6.1c0.4,0.6,0.1,1.2-0.7,1.2h-7c-0.7,0-1-0.5-0.7-1.2L324.5,85.8z"
							/>
					</g>
					<g>
						<path class="st8" d="M343.3,74.9c0.4-0.6,1-0.6,1.3,0l3.5,6.1c0.4,0.6,0.1,1.2-0.7,1.2h-7c-0.7,0-1-0.5-0.7-1.2L343.3,74.9z"
							/>
					</g>
					<g>
						<path class="st8" d="M343.5,100.1c-0.1-0.7,0.3-1.1,1-0.9l6.6,2.4c0.7,0.3,0.8,0.8,0.2,1.3l-5.4,4.5c-0.6,0.5-1.1,0.3-1.3-0.5
							L343.5,100.1z"/>
					</g>
					<g>
						<path class="st8" d="M366.8,104.4c-0.1-0.7,0.3-1.1,1-0.9l6.6,2.4c0.7,0.3,0.8,0.8,0.2,1.3l-5.4,4.5c-0.6,0.5-1.1,0.3-1.3-0.5
							L366.8,104.4z"/>
					</g>
					<g>
						<path class="st8" d="M357.2,121.9c-0.1-0.7,0.3-1.1,1-0.9l6.6,2.4c0.7,0.3,0.8,0.8,0.2,1.3l-5.4,4.5c-0.6,0.5-1.1,0.3-1.3-0.5
							L357.2,121.9z"/>
					</g>
					<g>
						<path class="st8" d="M375.5,134.6c0.6-0.4,1.2-0.2,1.2,0.5l0.8,6.9c0.1,0.7-0.4,1.1-1.1,0.8l-6.4-2.8
							c-0.7-0.3-0.7-0.9-0.2-1.3L375.5,134.6z"/>
					</g>
					<g>
						<path class="st8" d="M326.6,124.2c0.3-0.7,0.9-0.8,1.3-0.2l4.3,5.5c0.5,0.6,0.2,1.1-0.5,1.3l-6.9,1c-0.7,0.1-1.1-0.4-0.8-1.1
							L326.6,124.2z"/>
					</g>
					<g>
						<path class="st8" d="M321.4,149.1c0.3-0.7,0.9-0.8,1.3-0.2l4.3,5.5c0.5,0.6,0.2,1.1-0.5,1.3l-6.9,1c-0.7,0.1-1.1-0.4-0.8-1.1
							L321.4,149.1z"/>
					</g>
					<g>
						<path class="st8" d="M307.2,136c0.5-0.6,1.1-0.4,1.3,0.3l2.3,6.6c0.2,0.7-0.2,1.2-0.9,1l-6.9-1.3c-0.7-0.1-0.9-0.7-0.4-1.3
							L307.2,136z"/>
					</g>
					<g>
						<path class="st8" d="M290.1,152.4c0.4-0.6,1-0.6,1.3,0.1l3.2,6.2c0.3,0.7,0,1.2-0.7,1.1l-7-0.3c-0.7,0-1-0.6-0.6-1.2
							L290.1,152.4z"/>
					</g>
					<ellipse class="st8" cx="291.2" cy="67.7" rx="8.9" ry="8.3"/>
				</g>
			</g>
			<g>
				<g>
					<path class="st1" d="M297.4,53.4c0,0,2.4-0.2,3.4-1.3c1-1-0.5-7.7-1.3-7.5C298.7,44.9,297.4,53.1,297.4,53.4z"/>
					<g>
						<path class="st0" d="M297.3,53.9c1.8-2.1,2.8-4.8,2.6-7.7l-0.5-12.7c-0.3-6.2-5.6-11.1-11.8-10.8l-9.3,0.4
							c-6.2,0.3-11.1,5.6-10.8,11.8l0.5,12.7c0.3,6.2,5.6,11.1,11.8,10.8l3.6-0.2l0.3,7.1c0.1,3.3,3,5.9,6.3,5.7l2.1-0.1
							c3.3-0.1,5.9-3,5.7-6.3l-0.4-9.9C297.4,54.4,297.4,54.2,297.3,53.9z"/>
						<g>
							<path d="M297.7,54.3c1.6-2,2.7-4.4,2.8-7c0.1-1,0-2-0.1-2.9c-0.1-3.1-0.3-6.3-0.4-9.4c-0.1-3.3-0.8-6.3-3.1-8.9
								c-2.6-2.9-6.2-4.1-10-4c-2.8,0.1-5.6,0.2-8.4,0.4c-4,0.2-7.7,2.2-9.8,5.6c-1.7,2.8-1.8,5.7-1.7,8.9c0.1,3.1,0.3,6.2,0.4,9.3
								c0.1,1.4,0.1,2.8,0.5,4.1c0.7,2.4,2.2,4.5,4.1,6c2,1.6,4.5,2.4,7.1,2.5c1.4,0,2.8-0.1,4.2-0.2c-0.2-0.2-0.4-0.4-0.6-0.6
								c0.1,2.2,0.2,4.4,0.3,6.6c0.2,3.3,2.3,6.2,5.8,6.7c2.9,0.4,6.3-0.2,8.1-2.6c1.7-2.2,1.4-4.7,1.2-7.2c-0.1-2.6,0-5.3-0.4-7.9
								c-0.1-0.7-1.2-0.4-1.1,0.3c0.3,1.9,0.2,3.9,0.3,5.9c0.1,1.8,0.4,3.8,0.2,5.6c-0.2,2-1.6,3.8-3.5,4.5
								c-1.1,0.4-2.4,0.4-3.7,0.4c-3.4,0.1-5.7-2.4-5.8-5.7c-0.1-2.2-0.2-4.3-0.3-6.5c0-0.3-0.2-0.6-0.6-0.6
								c-3.2,0.1-6.3,0.5-9.2-1.2c-3.4-1.9-5.4-5.4-5.6-9.2c-0.1-2.6-0.2-5.2-0.3-7.8c-0.1-2.3-0.5-4.9,0-7.2c0.9-4.5,4.8-8,9.4-8.5
								c2.4-0.2,4.9-0.2,7.3-0.3c3.1-0.1,6.1-0.2,8.8,1.5c3.2,2,4.9,5.4,5.1,9.1c0.1,3,0.3,6,0.4,9c0,1,0.1,2.1,0.1,3.1
								c0.1,2.7-0.8,5.3-2.5,7.4C296.5,54.1,297.3,54.9,297.7,54.3z"/>
						</g>
					</g>
				</g>
				<path d="M286.4,24.2c0,0-2,4.3-7.4,6.9c-5.4,2.7-12.4,5.3-15.8,0.7s0.8-7.6,0.8-7.6s-4.5-6.2-1.6-13.7s15.5-13,25.3-9.4
					c9.8,3.7,10.6,10.1,10.6,10.1s4.3-2.1,10.8,3.9c6.5,6,3.9,19.5,1.1,24.4c-1.4,2.4-8,11.7-9.5,12.7c-0.9,0.6-0.2-2.2-0.2-4.6
					c0-1.6-0.6-2.9-0.6-2.9l0-8.4C299.9,36.2,287.9,35.8,286.4,24.2z"/>
				<g>
					<ellipse class="st0" cx="305.2" cy="41.2" rx="7.8" ry="7.8"/>
					<g>
						<g>
							<path d="M310.8,36.8c2.4,3,2,7.4-0.9,9.9c-2.9,2.5-7.3,2.2-10-0.5c-0.5-0.5-1.3,0.3-0.8,0.8c2.4,2.5,6.2,3.3,9.4,1.9
								c2.9-1.2,4.8-4.1,5-7.2c0.1-2.1-0.6-4.1-1.9-5.7C311.2,35.4,310.4,36.2,310.8,36.8L310.8,36.8z"/>
						</g>
					</g>
					<g>
						<g>
							<path class="st10" d="M301.7,42.5c0-0.2,0-0.3,0-0.5c0-0.2,0-0.4,0-0.5c0-0.1,0-0.1,0-0.2c0-0.1,0,0.2,0,0
								c0-0.1,0-0.2,0.1-0.3c0.1-0.2,0.1-0.5,0.2-0.7c0,0,0-0.1,0-0.1c0-0.1-0.1,0.2,0,0c0-0.1,0-0.1,0.1-0.2
								c0.1-0.1,0.1-0.2,0.2-0.4c0-0.1,0.1-0.1,0.1-0.2c0,0,0,0,0-0.1c0.1-0.1-0.1,0.1,0,0c0.1-0.1,0.2-0.2,0.3-0.3
								c0.1-0.1,0.1-0.1,0.2-0.1c0,0,0.1-0.1,0.1-0.1c0,0-0.2,0.1,0,0c0.1-0.1,0.3-0.2,0.4-0.2c0.1,0,0.2-0.1,0.2-0.1
								c-0.2,0.1,0,0,0,0c0.1,0,0.1,0,0.2-0.1c0.2-0.1,0.4-0.1,0.6-0.2c0,0,0.1,0,0.1,0c0.2,0-0.1,0,0.1,0c0.1,0,0.2,0,0.4,0
								c0.3,0,0.6,0,0.8,0c0.4,0,0.7-0.3,0.7-0.7c0-0.4-0.3-0.7-0.7-0.7c-1.7-0.1-3.5,0.4-4.6,1.8c-0.7,0.9-0.9,2-1,3.1
								c0,0.2,0,0.4,0,0.7c0,0.4,0.3,0.7,0.7,0.7C301.3,43.3,301.7,42.9,301.7,42.5L301.7,42.5z"/>
						</g>
					</g>
				</g>
				<g>
					<g>
						<path class="st11" d="M286.3,36.9c0.1,1.2-0.8,2.1-2,2.2c-1.2,0.1-2.1-0.8-2.2-2c-0.1-1.2,0.8-2.1,2-2.2
							C285.3,34.8,286.3,35.7,286.3,36.9z"/>
						<path class="st11" d="M272.6,37.2c0,1-0.7,1.8-1.7,1.9c-1,0-1.8-0.7-1.9-1.7c0-1,0.7-1.8,1.7-1.9
							C271.7,35.4,272.5,36.2,272.6,37.2z"/>
					</g>
					<g>
						<path class="st12" d="M274.9,45.7c0,0,1.2,3,3.4,3.2c2.2,0.1,3.9-2.4,3.9-4.4L274.9,45.7z"/>
						<g>
							<path class="st11" d="M274.4,45.8c0.5,1.2,1.2,2.3,2.3,3c0.8,0.5,1.8,0.7,2.7,0.5c1-0.3,1.8-0.9,2.4-1.7
								c0.7-0.9,1.1-2,1.1-3.1c0-0.4-0.4-0.6-0.7-0.5c-2.1,0.4-4.3,0.7-6.4,1.1c-0.3,0.1-0.6,0.1-0.9,0.2c-0.7,0.1-0.4,1.2,0.3,1.1
								c2.1-0.4,4.3-0.7,6.4-1.1c0.3-0.1,0.6-0.1,0.9-0.2c-0.2-0.2-0.5-0.4-0.7-0.5c0,1.5-1,3.2-2.4,3.7c-1.4,0.5-2.6-0.5-3.3-1.6
								c-0.1-0.2-0.3-0.5-0.4-0.7c0-0.1-0.1-0.2-0.1-0.2c-0.1-0.1,0.1,0.1,0,0c-0.1-0.3-0.4-0.5-0.7-0.4
								C274.5,45.2,274.3,45.6,274.4,45.8z"/>
						</g>
					</g>
					<polygon class="st4" points="276.1,35.2 276.8,42.4 273.3,40.4 					"/>
					<g>
						<ellipse class="st4" cx="288.8" cy="44.5" rx="5.2" ry="5.2"/>
						<path class="st4" d="M269.3,41.6c-0.3,0-0.6,0.1-0.9,0.2l0.2,5.4c0,0.8,0.2,1.6,0.4,2.3c0.2,0,0.4,0,0.7,0
							c2.2-0.1,3.9-2,3.8-4.1C273.4,43.2,271.5,41.5,269.3,41.6z"/>
					</g>
				</g>
			</g>
		</g>
	</g>
</g>
</svg>
