<svg version="1.1" xmlns="http://www.w3.org/2000/svg" xmlns:xlink="http://www.w3.org/1999/xlink" x="0px" y="0px"
	 viewBox="0 0 750 500" style="enable-background:new 0 0 750 500;" xml:space="preserve" width="100%" preserveAspectRatio="none">
<style type="text/css">
	.st0{display:none;}
	.st1{display:inline;fill:#FFFEFD;}
	.st2{fill:#FFFEFD;stroke:#1C191B;stroke-miterlimit:10;}
	.st3{fill:none;stroke:#1C191B;stroke-miterlimit:10;}
	.st4{fill:#1C191B;}
	.st5{fill:#FF999A;stroke:#1C191B;stroke-miterlimit:10;}
	.st6{fill:#FFFFFF;stroke:#1C191B;stroke-miterlimit:10;}
	.st7{fill:#FFFEFD;}
	.st8{fill:#00805E;}
	.st9{fill:#FF6766;stroke:#1C191B;stroke-miterlimit:10;}
	.st10{fill:#020202;}
	.st11{fill:#FF6766;}
	.st12{fill:#0C0C0C;}
	.st13{fill:#FF999A;}
	.st14{fill:#00805E;stroke:#1C191B;stroke-miterlimit:10;}
	.st15{fill:#FFFFFF;}
	.st16{fill:#FFC100;stroke:#1C191B;stroke-miterlimit:10;}
	.st17{fill:#FFFFFF;stroke:#000000;stroke-miterlimit:10;}
	.st18{fill:#FFC100;}
	.st19{fill:none;stroke:#000000;stroke-miterlimit:10;}
	.st20{fill:#FFFDFD;}
</style>
<g id="BACKGROUND" class="st0">
	<rect class="st1" width="750" height="500"/>
</g>
<g id="OBJECTS">
	<g>
		<g>
			<g>
				<path class="st2" d="M383.45,128.02c0,0,34.43,28.7,45.85,35.18c11.42,6.48,19.47,13.09,17.72,24.64
					c-1.74,11.55-11.55,22.36-32.35,14.89C393.88,195.27,383.45,128.02,383.45,128.02z"/>
				<path class="st2" d="M403.85,202.73c2.8-13.63-0.22-31.53-5.2-51.9c-4.99-20.37-18.87-32.76-33.08-34.9
					c0,0-26.78,14.32-33.94,43.36c-7.16,29.04-9.11,53.3-7.59,63.51c1.52,10.21,70.9,4.35,70.9,4.35S401.03,216.47,403.85,202.73z"
					/>
			</g>
			<g>
				<path class="st2" d="M406.78,222.8c0,0-13.23-51.38,12.44-82.97c25.67-31.59,75.5-42.31,75.5-42.31s5.48,73.38-38.34,121.6
					C412.55,267.33,406.78,222.8,406.78,222.8z"/>
				<g>
					<line class="st3" x1="494.72" y1="97.52" x2="417.88" y2="240.17"/>
					<path class="st4" d="M482.27,120.12l0.15,0.99l12.03-1.86c0.02-0.34,0.05-0.68,0.07-1.02L482.27,120.12z"/>
					<path class="st4" d="M473.27,136.65l0.15,0.99l19.43-3c0.05-0.34,0.1-0.69,0.15-1.03L473.27,136.65z"/>
					<path class="st4" d="M464.32,153.18l0.15,0.99l25.57-3.95c0.08-0.35,0.15-0.7,0.23-1.05L464.32,153.18z"/>
					<path class="st4" d="M457.57,167.74l29.11-4.49c0.1-0.35,0.21-0.71,0.31-1.06l-29.58,4.56L457.57,167.74z"/>
					<path class="st4" d="M449.93,180.71l32.55-5.02c0.14-0.36,0.28-0.72,0.41-1.08l-33.11,5.11L449.93,180.71z"/>
					<path class="st4" d="M442.9,194.41l33.67-5.2c0.18-0.36,0.36-0.73,0.54-1.09l-34.36,5.3L442.9,194.41z"/>
					<path class="st4" d="M434.93,209.89l32.59-5.03c0.25-0.37,0.49-0.75,0.74-1.13l-33.48,5.17L434.93,209.89z"/>
					<path class="st4" d="M453.07,222.64l-27.71,4.27l0.15,0.99l26.4-4.07C452.3,223.44,452.68,223.05,453.07,222.64z"/>
				</g>
			</g>
			<g>
				<path class="st5" d="M380.06,219.11c0,0-67.8-13.32-95.63,19.04c-27.83,32.37-26.53,81.81,16.84,128.66
					c43.37,46.84,83.14,52.84,116.61,45.07c33.47-7.77,61.99-37.5,76.79-59.5c14.8-22,39.3-71.36,26.94-106.85
					c-4.32-12.41-39.11-35.12-65.53-34.99S380.06,219.11,380.06,219.11z"/>
				
					<ellipse transform="matrix(0.3686 -0.9296 0.9296 0.3686 -65.2381 445.3236)" class="st2" cx="295.19" cy="270.68" rx="29.76" ry="20.02"/>
			</g>
			<g>
				<g>
					<g>
						<polygon class="st6" points="402.56,297.38 406.14,275.79 394.77,274.49 393.61,295.9 						"/>
					</g>
					<g>
						<g>
							<path class="st6" d="M417.39,321.79l-29.94-13.69c0,0-0.38-0.44,0.02-2.28s3.74-14.24,3.74-14.24l15.87,5.44l0.45,5.56
								c0,0,6.43,11.87,7.85,14.18S418.82,322.05,417.39,321.79z"/>
							<path class="st4" d="M387.63,305.41c0.16-0.75,0.82-3.25,1.53-5.95c2.03,0.7,5.26,2.41,6.38,5.52
								c0.9,2.48,0.26,4.82-0.33,6.19l-7.93-3.69C387.28,307.48,387.23,307.26,387.63,305.41z"/>
						</g>
						<g>
							<g>
								<g>
									<path class="st4" d="M409.8,304.34c-1.67,0.82-3.33,1.63-5,2.45c-1.11,0.54-0.14,2.19,0.97,1.65
										c1.67-0.82,3.33-1.63,5-2.45C411.87,305.45,410.9,303.8,409.8,304.34L409.8,304.34z"/>
								</g>
							</g>
							<g>
								<g>
									<path class="st4" d="M411.37,308.33c-1.47,0.75-2.95,1.49-4.42,2.24c-1.1,0.56-0.13,2.21,0.97,1.65
										c1.47-0.75,2.95-1.49,4.42-2.24C413.44,309.43,412.47,307.77,411.37,308.33L411.37,308.33z"/>
								</g>
							</g>
						</g>
					</g>
					<g>
						<path class="st2" d="M391.26,281.02l16.48,0.21c0,0,12.31-35.21,15.16-45.41c2.85-10.19,4.2-25.79-0.88-33.09
							c-5.08-7.3-15.83-15.41-20.34-14.87C397.18,188.42,391.26,281.02,391.26,281.02z"/>
						<line class="st3" x1="391.71" y1="274.4" x2="410.12" y2="274.4"/>
					</g>
				</g>
				<g>
					<g>
						<polygon class="st6" points="365.18,303.06 372.74,282.51 361.81,279.11 356.67,299.92 						"/>
					</g>
					<g>
						<g>
							<path class="st6" d="M375.2,329.8l-26.86-19.04c0,0-0.3-0.5,0.44-2.23c0.74-1.73,6.34-13.29,6.34-13.29l14.57,8.31
								l-0.59,5.55c0,0,4.1,12.86,5.06,15.4C375.13,327.02,376.56,330.33,375.2,329.8z"/>
							<path class="st4" d="M349.02,308.16c0.3-0.71,1.41-3.04,2.61-5.56c1.86,1.07,4.71,3.35,5.24,6.61
								c0.42,2.6-0.65,4.78-1.48,6.02l-7.11-5.11C348.29,310.12,348.28,309.89,349.02,308.16z"/>
						</g>
						<g>
							<g>
								<g>
									<path class="st4" d="M371.06,311.22c-1.79,0.49-3.58,0.98-5.37,1.47c-1.19,0.32-0.68,2.17,0.51,1.85
										c1.79-0.49,3.58-0.98,5.37-1.47C372.76,312.74,372.25,310.89,371.06,311.22L371.06,311.22z"/>
								</g>
							</g>
							<g>
								<g>
									<path class="st4" d="M371.86,315.43c-1.59,0.46-3.17,0.92-4.76,1.37c-1.18,0.34-0.68,2.19,0.51,1.85
										c1.59-0.46,3.17-0.92,4.76-1.37C373.55,316.94,373.05,315.09,371.86,315.43L371.86,315.43z"/>
								</g>
							</g>
						</g>
					</g>
					<g>
						<path class="st7" d="M356.79,191.33c0,0,27.63-6.73,40.38-2.91c12.75,3.82,12.71,12.62,7.85,29.36
							c-4.86,16.74-31.75,70.55-31.75,70.55l-16.48-4.41c0,0,0.43-2.63,1.28-6.93c2.98-15.21,11.11-51.33,23.45-66.44L356.79,191.33
							z"/>
						<path class="st3" d="M381.52,210.54c-12.34,15.11-20.46,51.24-23.45,66.44c-0.84,4.3-1.28,6.93-1.28,6.93l16.48,4.41
							c0,0,26.89-53.81,31.75-70.55c4.86-16.74,4.9-25.55-7.85-29.36c-12.75-3.82-40.38,2.91-40.38,2.91"/>
						<line class="st3" x1="376.68" y1="281.23" x2="358.07" y2="276.98"/>
					</g>
				</g>
			</g>
			<g>
				<path class="st8" d="M440.23,158.43c0,0.21,0.02,0.43,0.02,0.64c0,17.18-14.55,31.11-32.5,31.11c-17.95,0-32.5-14.57-32.5-31.75
					l-6.75-0.31c0,0-1,24.27,20.18,33.64c21.18,9.37,36.24,2.39,41.82-2.22c5.57-4.61,12.38-11.58,14.12-17.67
					c1.74-6.09,2.38-13.75,2.38-13.75L440.23,158.43z"/>
				<path class="st9" d="M440.23,158.43c0,0.21,0.02,0.43,0.02,0.64c0,17.18-14.55,31.11-32.5,31.11c-17.95,0-32.5-14.57-32.5-31.75
					H440.23z"/>
				<g>
					<path class="st4" d="M394.94,166.4c0,1.77-0.82,3.2-1.84,3.2c-1.02,0-1.84-1.43-1.84-3.2c0-1.77,0.82-3.2,1.84-3.2
						C394.12,163.2,394.94,164.63,394.94,166.4z"/>
					<path class="st4" d="M384.39,165.55c0,1.77-0.82,3.2-1.84,3.2c-1.02,0-1.84-1.43-1.84-3.2c0-1.77,0.82-3.2,1.84-3.2
						C383.56,162.35,384.39,163.79,384.39,165.55z"/>
					<path class="st4" d="M400.08,182.31c0,1.77-0.82,3.2-1.84,3.2c-1.02,0-1.84-1.43-1.84-3.2c0-1.77,0.82-3.2,1.84-3.2
						C399.25,179.11,400.08,180.54,400.08,182.31z"/>
					<path class="st4" d="M407.29,166.4c0,1.77-0.82,3.2-1.84,3.2c-1.02,0-1.84-1.43-1.84-3.2c0-1.77,0.82-3.2,1.84-3.2
						C406.46,163.2,407.29,164.63,407.29,166.4z"/>
					<path class="st4" d="M414.67,175.92c0,1.77-0.82,3.2-1.84,3.2c-1.02,0-1.84-1.43-1.84-3.2c0-1.77,0.82-3.2,1.84-3.2
						C413.85,172.72,414.67,174.15,414.67,175.92z"/>
					<path class="st4" d="M422.9,181.46c0,1.77-0.82,3.2-1.84,3.2c-1.02,0-1.84-1.43-1.84-3.2c0-1.77,0.82-3.2,1.84-3.2
						C422.08,178.25,422.9,179.69,422.9,181.46z"/>
					<path class="st4" d="M424.75,164.54c0,1.77-0.82,3.2-1.84,3.2c-1.02,0-1.84-1.43-1.84-3.2c0-1.77,0.82-3.2,1.84-3.2
						C423.92,161.34,424.75,162.77,424.75,164.54z"/>
					<path class="st4" d="M432.34,171.96c0,1.77-0.82,3.2-1.84,3.2c-1.02,0-1.84-1.43-1.84-3.2c0-1.77,0.82-3.2,1.84-3.2
						C431.51,168.76,432.34,170.19,432.34,171.96z"/>
				</g>
				<path class="st3" d="M368.5,158.12c-0.01,0.26-0.02,0.52-0.02,0.78c0,20.76,17.58,37.59,39.27,37.59s39.27-16.83,39.27-37.59
					c0-0.26-0.02-0.52-0.02-0.78H368.5z"/>
				<path class="st3" d="M375.25,158.43c0,17.18,14.55,31.75,32.5,31.75c17.95,0,32.5-13.93,32.5-31.11c0-0.22-0.01-0.43-0.02-0.64"
					/>
			</g>
			<g>
				<g>
					<path class="st7" d="M365.57,115.93c-14.21-2.14-35.89,7.77-55.84,26.89c-19.95,19.11-26.89,52.45-2.6,66.33
						c24.29,13.88,52.48-6.51,54.72-10.84c2.24-4.34,11.86-19.08-5.35-24.8c-7.67-2.54-14.82-1.71-20.39,0c0,0-1.54-0.81-0.3-6.41
						c1.23-5.6,2.61-11.15,8.32-20.33C349.85,137.59,365.57,115.93,365.57,115.93z"/>
					<path class="st3" d="M335.11,174.24c0,0,0.14-13.59,6.22-22.26"/>
					<path class="st3" d="M324.7,179.11c0,0,14.6-11.31,31.81-5.6c17.21,5.71,7.59,20.46,5.35,24.8
						c-2.24,4.34-30.43,24.72-54.72,10.84c-24.29-13.88-17.35-47.22,2.6-66.33c19.95-19.11,41.63-29.02,55.84-26.89"/>
				</g>
				<path class="st2" d="M359.4,177.13c0,0,13.59-7.95,18.22-9.25c4.63-1.3,5.49-0.87,4.19,0.58s-6.81,4.48-6.81,4.48
					s8.69-4.48,10.13-3.33c1.45,1.16-2.17,3.61-7.66,6.65c0,0,8.24-4.48,9.83-2.75c1.59,1.74-5.64,4.34-8.67,5.93
					c0,0,8.5-3.61,9.96-1.88c1.46,1.74-15.02,8.11-23.55,12.58C356.5,194.62,352.31,182.48,359.4,177.13z"/>
				<path class="st2" d="M430.53,194.08c0,0-2.93,2.06-6.07-2.17c-3.14-4.23-2.6-5.1-1.84-5.53s4.34,4.1,4.34,4.1
					s-3.69-5.51-1.95-6.59c1.73-1.08,5.1,3.9,5.1,3.9s-4.88-5.53-2.82-6.83c2.06-1.3,5.42,3.9,5.42,3.9s-4.45-5.42-2.49-6.51
					c1.95-1.08,7.05,6.51,6.29,9.65C435.73,191.15,432.16,193.59,430.53,194.08z"/>
			</g>
			<g>
				<path class="st2" d="M373.29,119.89c-0.46,2.58-2.95,4.3-5.53,3.84l-1.99-0.36c-2.58-0.46-4.3-2.95-3.84-5.53l1.74-9.64
					c0.46-2.58,2.95-4.3,5.53-3.84l1.99,0.36c2.58,0.46,4.3,2.95,3.84,5.53L373.29,119.89z"/>
				<path class="st4" d="M391.88,84.67c0.21-0.91,0.32-1.72,0.27-2.31c-0.29-2.89-9.04-6.07-20.1-8.75
					c-11.06-2.67-16.84,6.22-18.07,8.96c-1.23,2.75,0.65,7.81,1.58,11.03c0.93,3.22,1.82,4.49,1.82,4.49
					c1.26,4.28,20.74,4.19,26.44,3.18c-0.01,0.06-0.02,0.09-0.02,0.09s0.44-0.04,1.13-0.36c0.19-0.07,0.33-0.14,0.4-0.21l0,0
					c0.96-0.54,2.24-1.6,3.46-3.66c2.39-4.01,5.1-9.64,5.2-11.33C394.03,85.14,393.08,84.77,391.88,84.67z"/>
				<g>
					<g>
						<path class="st2" d="M394.84,96.79c-0.53,2.47-2.99,4.04-5.48,3.51c-2.49-0.54-4.08-2.98-3.55-5.45
							c0.53-2.47,2.99-4.04,5.48-3.51C393.78,91.88,395.37,94.32,394.84,96.79z"/>
						<g>
							<g>
								<path class="st10" d="M388.21,96.01c0.06-0.4,0.22-0.8,0.44-1.14c0.59-0.87,1.54-0.89,2.48-0.61
									c0.59,0.18,0.84-0.74,0.25-0.92c-1.18-0.36-2.45-0.29-3.3,0.7c-0.4,0.47-0.7,1.09-0.8,1.71
									C387.2,96.36,388.12,96.62,388.21,96.01L388.21,96.01z"/>
							</g>
						</g>
					</g>
					<g>
						<path class="st2" d="M349.84,90.58c-0.53,2.47,1.06,4.92,3.55,5.45c2.49,0.54,4.95-1.03,5.48-3.51
							c0.53-2.47-1.06-4.92-3.55-5.45C352.83,86.54,350.37,88.11,349.84,90.58z"/>
						<g>
							<g>
								<path class="st10" d="M357.13,92.8c0.17-0.61,0.17-1.33-0.01-1.94c-0.38-1.29-1.54-1.85-2.79-2c-0.61-0.08-0.6,0.88,0,0.96
									c1.46,0.18,2.28,1.31,1.88,2.73C356.04,93.14,356.97,93.4,357.13,92.8L357.13,92.8z"/>
							</g>
						</g>
					</g>
				</g>
				<path class="st2" d="M384.95,102.51c-1.16,5.38-6.51,8.83-11.88,7.67l-8.67-1.87c-5.38-1.16-8.83-6.51-7.67-11.88l3.41-15.82
					c1.16-5.38,6.51-8.83,11.88-7.67l8.67,1.87c5.38,1.16,8.83,6.51,7.67,11.88L384.95,102.51z"/>
				<g>
					<polygon class="st11" points="373.67,86.11 370.82,92.37 374.27,92.97 					"/>
					<g>
						<path class="st12" d="M365.53,88.02c-0.21,0.91-1.11,1.48-2.02,1.27c-0.91-0.21-1.48-1.11-1.27-2.02
							c0.21-0.91,1.11-1.48,2.02-1.27S365.74,87.11,365.53,88.02z"/>
						<path class="st12" d="M383.4,89.8c-0.21,0.91-1.11,1.48-2.02,1.27c-0.91-0.21-1.48-1.11-1.27-2.02
							c0.21-0.91,1.11-1.48,2.02-1.27C383.04,87.98,383.61,88.89,383.4,89.8z"/>
					</g>
					<g>
						<path class="st13" d="M365.31,94.81c-0.54,1.96-2.56,3.11-4.52,2.57c-1.96-0.54-3.11-2.56-2.57-4.52
							c0.54-1.96,2.56-3.11,4.52-2.57C364.7,90.83,365.85,92.85,365.31,94.81z"/>
						<path class="st13" d="M385.3,97.41c-0.54,1.96-2.56,3.11-4.52,2.57c-1.96-0.54-3.11-2.56-2.57-4.52
							c0.54-1.96,2.56-3.11,4.52-2.57C384.69,93.43,385.84,95.45,385.3,97.41z"/>
					</g>
					<g>
						<g>
							<path class="st12" d="M369.37,98.23c0.7,2.54,5.32,3.3,6.45,0.73c0.27-0.61-0.63-1.14-0.9-0.53
								c-0.75,1.72-4.06,1.25-4.54-0.48C370.2,97.31,369.2,97.58,369.37,98.23L369.37,98.23z"/>
						</g>
					</g>
				</g>
				<g>
					<g>
						<path class="st3" d="M240.44,86.92c0.98,4.14-2.39,8.48-7.52,9.69c-5.13,1.21-10.09-1.16-11.07-5.29
							c-0.98-4.14,2.39-8.48,7.52-9.69C234.51,80.41,239.46,82.78,240.44,86.92z"/>
						<path class="st3" d="M276.77,93.56c0,0-3.9,0.87-6.72,8.89c-2.82,8.02-18.33,9.76-23.37,0c-5.04-9.76,2.17-27.76,14.83-31.01
							c12.66-3.25,14.76,4.12,22.93,10.19c8.17,6.07,10.77,3.67,17.93-4.89c7.16-8.56,17.57-20.49,32.1-15.5
							c14.53,4.99,9.98,17.03,3.9,24.56c-6.07,7.53-4.86,7.61-4.34,14.91c0.87,12.14-22.12,26.08-34.81,18.38
							c-13.88-8.43-7.32-17.62-11.87-23.15C283.34,91.09,281,92.21,276.77,93.56z"/>
					</g>
					<path class="st9" d="M357.06,69.52c0,2.74-2.22,4.96-4.96,4.96c-2.74,0-4.96-2.22-4.96-4.96s2.22-4.96,4.96-4.96
						C354.84,64.56,357.06,66.78,357.06,69.52z"/>
					<path class="st4" d="M395.5,68.62c-0.65-2.6-2.49-13.55-16.48-13.88c-13.99-0.33-22.34,6.72-25.48,18.76
						c-1.64,6.27-0.61,10.66,0.74,13.44c0.79,0.02,2.22,0.26,3.5,1.55c0.78-2.66,1.88-6.39,5.41-10c4.66-4.77,9.65-1.3,15.72,6.18
						c6.07,7.48,15.4,3.14,15.4,3.14c6.18,1.74,12.58-0.43,12.47-8.78C406.67,70.68,395.5,68.62,395.5,68.62z"/>
				</g>
				<path class="st3" d="M356.5,115.93c0,0-3.11,5.89,4.41,9.94c7.52,4.05,17.74,0.02,16.35-5.77"/>
			</g>
		</g>
		<g>
			<g>
				<path class="st3" d="M291.6,426.54c0,0-5.52-20.25,12.49-27.41c18.01-7.16,24.52,6.71,24.52,6.71s-15.18-20.04,9.54-43.2
					c24.72-23.16,49.88-8.84,62.89,16.75c0,0-3.2-61.46,77.56-84.3c0,0,58.75-6.2,73.65,65.72c0,0,14.9-30.25,35.96-32.38
					c21.05-2.13,18.47,30.57,18.47,30.57s24.65-19.06,39.41,1.75"/>
				<path class="st3" d="M244.36,437.12c0,0-18.26-13.94-20.29-33.31c-2.02-19.37,11.57-23.7,16.77-19.66
					c0,0-7.23-35.28,11.86-45.98c19.08-10.7,31.49,15.33,31.49,15.33s-10.38-32.1,17.95-44.24c28.34-12.14,54.36,2.46,59.57,41.79"
					/>
				<g>
					<path class="st2" d="M102.63,345.99c-3.63-2.18-5.27-2.72-16.06-5.35c-17.19-4.19-24.13-24.72-16.61-38.02
						c7.52-13.3,25.82-18.39,39.51-13.1s22.85,25.52,22.9,41.57s2.36,12.87,10.75,16.92c8.39,4.05,19.37,17.35,12.14,33.11
						s-10.99,17.9-5.2,21.31c5.78,3.41,6.65,11.22-0.58,18.45c-7.23,7.23-23.95,6.72-29.2-8.28c-5.26-15-8.96-13.95-14.75-23.22
						c-5.78-9.27-3.47-17.37,0-24.89S110.46,350.7,102.63,345.99z"/>
					<path class="st3" d="M151.2,432.65c0,0-20.82-20.73-26.02-43.26c-3.6-15.58,2.83-41.52-15.72-58.29s-28.52-22.41-30.26-38.45"
						/>
					<path class="st3" d="M80.61,316.41c0.62,3.82-0.6,7.2-2.72,7.54s-4.34-2.48-4.96-6.3c-0.62-3.82,0.6-7.2,2.72-7.54
						C77.77,309.76,79.99,312.58,80.61,316.41z"/>
				</g>
				<g>
					<path class="st14" d="M102.84,422.88c0,0-4.34,5.96,0.87,12.58c5.2,6.61,14.75,0.63,20.17-4.95c5.42-5.58,9.54-15.26,8.24-17.9
						c-1.3-2.64-5.64-0.9-5.64-0.9s2.82-7.59-1.74-12.36c-4.55-4.77-15.18-2.4-15.61,6.5c0,0-9.76-13.87-18.43-4.98
						C82.02,409.75,87.44,431.46,102.84,422.88z"/>
					<line class="st3" x1="112.46" y1="416.77" x2="144.55" y2="437.12"/>
				</g>
				<g>
					<path class="st2" d="M602.08,380.31c1.44,10.61-2.55,19.91-8.9,20.77c-6.35,0.86-12.67-7.04-14.1-17.66
						c-1.44-10.61,2.55-19.91,8.9-20.77C594.33,361.79,600.64,369.7,602.08,380.31z"/>
					<path class="st2" d="M629.76,428.59c0.9,5.41-4.39,10.78-11.8,12.01c-7.41,1.23-14.15-2.16-15.05-7.56
						c-0.9-5.41,4.39-10.78,11.8-12.01C622.12,419.79,628.86,423.18,629.76,428.59z"/>
					
						<ellipse transform="matrix(0.9461 -0.324 0.324 0.9461 -92.8573 229.1262)" class="st2" cx="641.67" cy="393.43" rx="19.73" ry="11.63"/>
					
						<ellipse transform="matrix(0.5 -0.866 0.866 0.5 21.7999 726.4965)" class="st2" cx="640.06" cy="344.37" rx="30.32" ry="17.13"/>
					<g>
						<line class="st3" x1="579.73" y1="450.96" x2="653.18" y2="317.09"/>
						<line class="st3" x1="588.33" y1="362.48" x2="596.21" y2="420.93"/>
						<line class="st3" x1="588.15" y1="435.61" x2="629.76" y2="428.59"/>
						<line class="st3" x1="604.75" y1="405.37" x2="660.41" y2="387.32"/>
						<g>
							<line class="st3" x1="627.95" y1="363.08" x2="650.44" y2="359.48"/>
							<line class="st3" x1="635.32" y1="349.16" x2="658.47" y2="345.46"/>
							<line class="st3" x1="643.73" y1="334.41" x2="661.28" y2="331.61"/>
						</g>
					</g>
				</g>
			</g>
			<g>
				<circle class="st2" cx="86.58" cy="177.92" r="7.37"/>
				<path class="st2" d="M53.23,220.62c0,2.65-2.15,4.8-4.8,4.8c-2.65,0-4.8-2.15-4.8-4.8c0-2.65,2.15-4.8,4.8-4.8
					C51.08,215.82,53.23,217.97,53.23,220.62z"/>
				
					<ellipse transform="matrix(0.322 -0.9467 0.9467 0.322 -286.1222 322.3815)" class="st2" cx="82.02" cy="360.96" rx="9.76" ry="9.76"/>
				<path class="st2" d="M46.81,129.18c0,1.46-1.19,2.65-2.65,2.65c-1.46,0-2.65-1.19-2.65-2.65c0-1.46,1.19-2.65,2.65-2.65
					C45.62,126.52,46.81,127.71,46.81,129.18z"/>
				<path class="st2" d="M95.03,383.3c0,1.2-0.97,2.17-2.17,2.17c-1.2,0-2.17-0.97-2.17-2.17c0-1.2,0.97-2.17,2.17-2.17
					C94.06,381.13,95.03,382.1,95.03,383.3z"/>
				<path class="st2" d="M72.12,397.3c0,2.84-2.3,5.13-5.13,5.13c-2.84,0-5.13-2.3-5.13-5.13s2.3-5.13,5.13-5.13
					C69.82,392.17,72.12,394.47,72.12,397.3z"/>
				<circle class="st2" cx="587.76" cy="195.05" r="4.77"/>
				<path class="st2" d="M663.23,167.62c0,2.22-1.8,4.01-4.01,4.01s-4.01-1.8-4.01-4.01c0-2.22,1.8-4.01,4.01-4.01
					S663.23,165.41,663.23,167.62z"/>
				<path class="st2" d="M657.7,269.17c0,0.93-0.75,1.68-1.68,1.68c-0.93,0-1.68-0.75-1.68-1.68c0-0.93,0.75-1.68,1.68-1.68
					C656.94,267.49,657.7,268.24,657.7,269.17z"/>
				<path class="st2" d="M702.7,257.95c0,2.99-2.43,5.42-5.42,5.42c-2.99,0-5.42-2.43-5.42-5.42s2.43-5.42,5.42-5.42
					C700.27,252.52,702.7,254.95,702.7,257.95z"/>
				
					<ellipse transform="matrix(0.9251 -0.3797 0.3797 0.9251 9.4121 255.0123)" class="st2" cx="651.19" cy="103.65" rx="12.9" ry="12.9"/>
				<circle class="st2" cx="675.59" cy="312.6" r="11.93"/>
			</g>
			<g>
				<path class="st2" d="M92.76,276.81c0,0-13.45,0.98-13.77-3.47c-0.33-4.45,5.86-4.01,5.86-4.01s-8.24-5.75-4.23-15.18
					c4.01-9.43,15.83-6.61,19.95-3.04c0,0-8.35-14.97,3.25-22.88c11.6-7.91,31.34-3.58,33.83,18.22c0,0,1.73-5.31,7.37-4.99
					c5.64,0.33,4.34,8.54,4.34,8.54s4.34-12.66,18.33-11.03c13.99,1.63,13.28,22.55,8.75,30.47c-4.53,7.92-21.22,5.31-35.54,5.64
					C126.59,275.4,92.76,276.81,92.76,276.81z"/>
				<path class="st2" d="M95.32,113.03c-0.22-3.06,3.17-9.62,9.22-9.06c6.05,0.56,5.62,4,5.62,4s0.33-10.64,7.52-13.03
					c7.19-2.39,11.99,4.59,11.99,4.59s-1.9-19.56,12.08-22.41c13.98-2.85,22.96,10.83,20.67,23.9c0,0,14.98-1.89,15.6,10.37
					c0.61,12.25-73.89,7.78-73.89,7.78S95.74,118.91,95.32,113.03z"/>
				<path class="st2" d="M681.52,237.54c0.08-2.63-3.05-8.13-8.21-7.44c-5.16,0.69-4.67,3.62-4.67,3.62s-0.65-9.1-6.89-10.9
					c-6.24-1.79-10.11,4.35-10.11,4.35s0.94-16.82-11.13-18.77c-12.08-1.95-19.29,10.08-16.86,21.19c0,0-12.9-1.09-13,9.42
					c-0.1,10.52,63.56,4.08,63.56,4.08S681.36,242.59,681.52,237.54z"/>
				<path class="st2" d="M119.31,197.35c0,0-3.17-8.59,2.41-12.38c5.58-3.8,9.58,2.58,9.58,2.58s-3.7-14.62,3.85-16.91
					c7.56-2.29,10.94,6.12,11.07,14.57c0,0,0.79-5,5.57-4.43c4.78,0.58,2.27,6.4,2.27,6.4s8.4-4.05,10.04,3.78
					c1.64,7.82-8.13,6.89-8.13,6.89L119.31,197.35z"/>
				<path class="st2" d="M594.63,167.62c0,0-0.65-5.71,4.99-3.61c0,0-0.65-7.55,6-8.86c6.65-1.3,6.22,5.06,6.22,5.06
					s1.45-6.65,7.37-5.93c5.93,0.72,3.9,7.81,3.9,7.81s6.94-4.77,9.25,0c2.31,4.77-2.46,6.22-4.77,6.36
					C625.28,168.6,594.63,167.62,594.63,167.62z"/>
			</g>
		</g>
		<g>
			<g>
				<g>
					<g>
						<path class="st2" d="M466.42,170.14c0,0-7.5-7.5-8.28-13.69c-0.77-6.19,14.17-3.47,14.17-3.47s1.3,9.83,4.19,13.45
							C479.4,170.04,467.16,170.92,466.42,170.14z"/>
						<path class="st15" d="M538.75,205.46c0,0-35.78-1.3-46.84-19.08c-11.06-17.78-12.36-24.29-17.57-23.64
							c-5.2,0.65-13.95,5.64-11.42,25.81c2.53,20.17,11.12,52.63,46.34,54.22C509.25,242.77,533.32,220.65,538.75,205.46z"/>
						<path class="st8" d="M462.91,177.42c0,0,12.58-2.02,18.8-7.81c0,0-3.56-6.6-5.47-6.73c-1.91-0.14-9.68,0.95-11.54,7.27
							C462.84,176.46,462.91,177.42,462.91,177.42z"/>
						<path d="M509.44,243.27l-0.21-0.01c-26.29-1.18-42.47-20.08-46.81-54.65c-1.13-8.99-0.16-15.91,2.89-20.56
							c2.91-4.44,6.87-5.54,8.97-5.81c4-0.5,5.86,2.83,10.4,10.86c1.94,3.43,4.36,7.71,7.66,13.01
							c10.79,17.35,46.08,18.84,46.44,18.85l0.68,0.02l-0.23,0.64c-5.4,15.12-28.64,36.59-29.63,37.5L509.44,243.27z M474.99,163.2
							c-0.19,0-0.39,0.01-0.59,0.04c-1.93,0.24-5.57,1.26-8.25,5.36c-2.91,4.44-3.83,11.14-2.73,19.89
							c4.26,33.93,20.04,52.52,45.65,53.77c2.03-1.89,23.47-22.09,28.97-36.32c-5.18-0.28-36.21-2.64-46.56-19.29
							c-3.31-5.32-5.73-9.61-7.68-13.05C479.64,166.23,477.93,163.2,474.99,163.2z"/>
						<path class="st3" d="M462.91,177.42c0,0,12.58-2.02,18.8-7.81"/>
					</g>
					<g>
						<g>
							<g>
								<path class="st2" d="M438.57,95.1c1.01-0.92,2.05-1.8,3.12-2.65c1.45-1.15,4.77-4.25,6.78-4.04c2.2,0.23,3.56,5.47,4.18,7.2
									c0.95,2.64,1.78,5.34,2.53,8.05c0.43,1.55,2.84,0.89,2.41-0.66c-1.04-3.75-2.19-7.5-3.7-11.09c-0.85-2.02-2.03-5.5-4.53-6
									c-4.21-0.84-9.74,4.87-12.55,7.43C435.61,94.42,437.38,96.18,438.57,95.1L438.57,95.1z"/>
							</g>
							<path class="st2" d="M460.4,102.51c0,1.77-1.8,3.2-4.01,3.2c-2.22,0-4.01-1.43-4.01-3.2c0-1.77,1.8-3.2,4.01-3.2
								C458.61,99.31,460.4,100.74,460.4,102.51z"/>
						</g>
						<polygon class="st7" points="445.71,111.06 451.46,158.48 473.83,158.62 482.86,112.61 						"/>
						<g>
							<g>
								<path class="st14" d="M461,130.54c0,0-4.12-8.57-1.19-12.58c2.93-4.01,6.61-1.52,6.61,2.71
									C466.42,124.9,461,130.54,461,130.54z"/>
								<path class="st11" d="M479.61,129.18c-1.62-2.29-4.28-3.78-7.3-3.78c-4.94,0-8.95,4.01-8.95,8.95s4.01,8.95,8.95,8.95
									c1.77,0,3.42-0.52,4.8-1.41L479.61,129.18z"/>
								<line class="st14" x1="457.2" y1="129.78" x2="467.72" y2="133.14"/>
								<path class="st4" d="M472.31,124.89c-5.21,0-9.45,4.24-9.45,9.45c0,5.21,4.24,9.45,9.45,9.45c1.7,0,3.3-0.46,4.68-1.25
									l0.27-1.36c-1.39,1.01-3.1,1.61-4.94,1.61c-4.66,0-8.45-3.79-8.45-8.45c0-4.66,3.79-8.45,8.45-8.45
									c3.02,0,5.67,1.6,7.16,3.99l0.27-1.36C478.01,126.32,475.32,124.89,472.31,124.89z"/>
							</g>
							<g>
								
									<ellipse transform="matrix(0.1558 -0.9878 0.9878 0.1558 249.0838 580.8997)" class="st2" cx="464.4" cy="144.72" rx="8.95" ry="8.95"/>
								<path class="st16" d="M462.25,144.44c0,0-6.64-1.95-3.09-4.91c1.88-1.57,3.43,2.09,3.43,2.09s0.02-3.99,2.49-3.88
									c2.48,0.11,0.96,4.61,0.96,4.61s2.28-3.32,3.8-1.63c3.36,3.76-4.41,3.99-4.41,3.99s7.12-0.2,4.89,3.49
									c-1.27,2.11-5.23-2.44-5.23-2.44s3.02,4.34,1.34,4.99c-1.68,0.65-2.59-3.42-2.59-3.42s-1.16,4.12-2.89,2.87
									c-1.73-1.25,0.76-3.58,0.76-3.58s-3.63,1.68-4.17-0.81C456.99,143.33,462.25,144.44,462.25,144.44z"/>
								<circle class="st2" cx="463.83" cy="144.96" r="1.25"/>
							</g>
							<g>
								<circle class="st2" cx="471.16" cy="121.93" r="1.45"/>
								<circle class="st2" cx="453.01" cy="146.77" r="1.3"/>
								<path class="st2" d="M456.08,152.98c0,0.56-0.45,1.01-1.01,1.01c-0.56,0-1.01-0.45-1.01-1.01s0.45-1.01,1.01-1.01
									C455.63,151.97,456.08,152.42,456.08,152.98z"/>
								<circle class="st2" cx="458.76" cy="133.86" r="1.27"/>
								<path class="st2" d="M453.73,119.59c0,0.96-0.78,1.74-1.73,1.74c-0.96,0-1.74-0.78-1.74-1.74s0.78-1.73,1.74-1.73
									C452.96,117.85,453.73,118.63,453.73,119.59z"/>
							</g>
							<path class="st3" d="M446.69,120.49c0,0,4.84-2.42,7.63,0.83c2.78,3.25,6.03,3.68,9.05,1.25c3.03-2.43,9.24-8.91,17.89-2.62"
								/>
						</g>
						<path class="st4" d="M474.24,159.12l-23.23-0.15l-5.87-48.44l38.32,1.6L474.24,159.12z M451.9,157.98l21.52,0.14l8.84-45.04
							l-35.98-1.5L451.9,157.98z"/>
						<polygon class="st2" points="442.82,112.1 447.99,102.45 481.71,102.45 485.83,112.65 						"/>
					</g>
					<g>
						<path class="st7" d="M453.78,136.13c0.39-0.63,0.8-1.22,1.18-1.58c1.1-1.05,1.59-3.01,1.37-4.01c-0.21-1-1.4-0.56-1.4-0.56
							s0.62-1.31-0.03-2.24c-0.45-0.65-1.68-0.53-3.15-0.21c0.79-0.8,1.5-1.57,1.91-2.14c1.37-1.9-0.61-3.49-3.25-1.18
							c-2.64,2.31-7.19,5.58-7.08,10.13c0.11,4.55,2.78,10.95,5.35,10.62c2.57-0.33,6.83-5.96,6.65-7.92
							C455.24,136.14,454.62,135.91,453.78,136.13z"/>
						<path class="st4" d="M448.48,145.47c-0.58,0-1.17-0.25-1.76-0.75c-2.02-1.74-3.81-6.49-3.9-10.37c-0.1-4.27,3.6-7.41,6.3-9.7
							c0.34-0.29,0.66-0.56,0.96-0.82c1.74-1.52,3.27-1.51,4.02-0.83c0.57,0.52,0.78,1.55-0.04,2.68c-1.39,1.93-5.99,5.98-6.18,6.15
							l-0.66-0.75c0.05-0.04,4.71-4.15,6.03-5.98c0.4-0.55,0.47-1.08,0.17-1.35c-0.34-0.31-1.34-0.34-2.69,0.84
							c-0.3,0.26-0.63,0.54-0.97,0.83c-2.55,2.16-6.04,5.12-5.94,8.91c0.08,3.58,1.75,8.08,3.55,9.63c0.44,0.38,0.86,0.55,1.24,0.5
							c2.39-0.3,6.36-5.79,6.21-7.37c-0.04-0.42-0.2-0.48-0.27-0.5c-0.57-0.22-2.15,0.48-3.81,2.02l-0.68-0.73
							c1.43-1.33,3.55-2.71,4.85-2.22c0.3,0.12,0.82,0.44,0.91,1.35c0.21,2.23-4.33,8.11-7.09,8.46
							C448.65,145.47,448.57,145.47,448.48,145.47z"/>
						<path class="st3" d="M451.06,128.21c0,0,3.25-1.78,4.27,0c1.01,1.78-6,6.13-6,6.13"/>
						<path class="st3" d="M452.36,136.75c0,0,3-2.42,3.87-4.15c0.87-1.74-0.04-3.34-2.13-1.88"/>
					</g>
				</g>
				<g>
					<g>
						<g>
							<path class="st6" d="M572.26,406.6l-5.33-21.32l-13.54,4.36l9.26,23.35C562.65,412.99,572.54,407.73,572.26,406.6z"/>
							<line class="st3" x1="564.66" y1="411.89" x2="556.54" y2="388.62"/>
							<line class="st3" x1="567.97" y1="409.97" x2="560.59" y2="387.32"/>
							<line class="st3" x1="570.72" y1="408.18" x2="564.03" y2="386.21"/>
						</g>
						<g>
							<path class="st2" d="M583.63,424.74l-9.16-18.79c0,0-0.06-1.6-4.32,0.5c-4.26,2.11-10.97,5.13-11.28,5.74
								c-0.32,0.61,2.27,6.39,2.27,6.39l-8.23,15.7c0,0-4.76,1-5.83,2c-1.07,1,0.77,2.94,3.6,3.69s3.73,0.96,4.26,0.86
								c6.16-1.15,28.51-13.85,28.51-13.85S584.1,425.72,583.63,424.74z"/>
							<path class="st14" d="M576.74,420.01c0.51,3.06-1.56,5.95-4.62,6.45c-3.06,0.51-5.95-1.56-6.45-4.62
								c-0.51-3.06,1.56-5.95,4.62-6.45C573.34,414.89,576.23,416.96,576.74,420.01z"/>
						</g>
					</g>
					<g>
						<path class="st2" d="M555.44,397.49c0,0-27.18-53.38-29.78-78.47c-2.6-25.08-5.78-38.96-5.78-38.96l35.57-9.83
							c0,0,2.31,47.13,6.94,74.89c4.63,27.76,6.68,43.08,9.25,48.87C574.21,399.77,555.44,397.49,555.44,397.49z"/>
						<g>
							<path class="st7" d="M578.3,395.57c0.43,1.59-0.53,3.25-2.12,3.68l-21.98,5.9c-1.59,0.43-3.25-0.53-3.68-2.12l-1.06-3.93
								c-0.43-1.59,0.53-3.25,2.12-3.68l21.98-5.9c1.59-0.43,3.25,0.53,3.68,2.12L578.3,395.57z"/>
							<path class="st3" d="M578.3,395.57c0.43,1.59-0.53,3.25-2.12,3.68l-21.98,5.9c-1.59,0.43-3.25-0.53-3.68-2.12l-1.06-3.93
								c-0.43-1.59,0.53-3.25,2.12-3.68l21.98-5.9c1.59-0.43,3.25,0.53,3.68,2.12L578.3,395.57z"/>
						</g>
					</g>
				</g>
				<g>
					<g>
						<g>
							<path class="st6" d="M496.12,416.64l2.49-22.43l-14.59-0.64l0.57,25.78C484.59,419.36,495.99,417.83,496.12,416.64z"/>
							<line class="st3" x1="486.48" y1="419.08" x2="486.69" y2="393.69"/>
							<line class="st3" x1="489.65" y1="418.56" x2="490.49" y2="393.86"/>
							<line class="st3" x1="493" y1="417.89" x2="494.79" y2="394.26"/>
						</g>
						<g>
							<path class="st2" d="M498.49,436.51l1.42-19.44c0,0,0-1.31-3.83-1.94c-3.95-0.66-13.61-2.06-14.23-1.01
								c-0.25,0.41-1.21,5.78-2.36,7.6c-1.15,1.82-7.02,7.48-11.62,10.27c-4.59,2.79-9.56,5.3-9.6,6.75
								c-0.04,1.45,4.39,2.12,7.89,2.11c3.51,0,30.02-1.14,30.02-1.14S498.27,439.56,498.49,436.51z"/>
							
								<ellipse transform="matrix(0.5128 -0.8585 0.8585 0.5128 -128.2999 627.6772)" class="st14" cx="488.91" cy="426.89" rx="5.76" ry="5.76"/>
						</g>
					</g>
					<g>
						<path class="st2" d="M481.42,401.22c0,0-6.36-39.04,0-69.4c6.36-30.36,20.53-64.48,24-70.27
							c3.47-5.78,45.69,17.35,45.69,17.35s3.47,3.47,0,11.28c-3.47,7.81-30.9,46.81-41.93,76.34c-7.68,20.57-9.95,36.31-9.95,36.31
							S481.91,404.65,481.42,401.22z"/>
						<g>
							<path class="st7" d="M505.53,405.25c-0.03,1.65-1.4,2.98-3.05,2.95l-22.75-0.35c-1.65-0.03-2.98-1.4-2.95-3.05l0.06-4.07
								c0.03-1.65,1.4-2.98,3.05-2.95l22.75,0.35c1.65,0.03,2.98,1.4,2.95,3.05L505.53,405.25z"/>
							<path class="st3" d="M505.53,405.25c-0.03,1.65-1.4,2.98-3.05,2.95l-22.75-0.35c-1.65-0.03-2.98-1.4-2.95-3.05l0.06-4.07
								c0.03-1.65,1.4-2.98,3.05-2.95l22.75,0.35c1.65,0.03,2.98,1.4,2.95,3.05L505.53,405.25z"/>
						</g>
					</g>
				</g>
			</g>
			<path class="st17" d="M564.96,246.89l-8.58,40.34c0,0-39.33-8.02-57.11-22.34c0,0-3.25-32.53,42.07-68.75l17.35,3.69
				C558.7,199.83,570.17,224.45,564.96,246.89z"/>
			<g>
				<path class="st7" d="M483.32,216.07c-8.6,10.81-14.46,23.75-16.5,38.09c-6.58,46.25,28.97,89.55,79.39,96.72
					c46.09,6.56,88.65-19.35,100.65-59.16L483.32,216.07z"/>
				<g>
					<g>
						<path class="st18" d="M544.47,244.35c8.97,4.15,8.59,8.17,6.64,10.99c-1.95,2.82-26.24,9.98-39.9,9.98
							c-13.66,0-19.3,1.08-20.17-12.8c-0.87-13.88,8.06-29.16,8.06-29.16L544.47,244.35z"/>
						<path class="st3" d="M499.09,223.36c0,0-8.92,15.28-8.06,29.16c0.87,13.88,6.51,12.8,20.17,12.8c13.66,0,37.95-7.16,39.9-9.98
							c1.95-2.82,2.33-6.84-6.64-10.99"/>
					</g>
					<g>
						<path class="st18" d="M632.09,284.88c-0.34,5.69-7.69,22.51-19.83,20.99c-12.14-1.52-30.97-39.25-30.97-39.25
							s-0.86-5.63,4.28-3.25L632.09,284.88z"/>
						<path class="st3" d="M632.09,284.88c-0.34,5.69-7.69,22.51-19.83,20.99c-12.14-1.52-30.97-39.25-30.97-39.25
							s-0.86-5.63,4.28-3.25"/>
					</g>
					<g>
						<path class="st18" d="M553.93,263.37c0,0,4.34,2.6,0,13.01c-4.34,10.41-14.96,38.96-22.55,40.52
							c-7.59,1.55-22.99-6.44-29.28-19.47c-6.29-13.03,6.51-21.27,18.65-26.58C532.89,265.54,551.11,261.42,553.93,263.37z"/>
						<path class="st3" d="M553.93,263.37c0,0,4.34,2.6,0,13.01c-4.34,10.41-14.96,38.96-22.55,40.52
							c-7.59,1.55-22.99-6.44-29.28-19.47c-6.29-13.03,6.51-21.27,18.65-26.58C532.89,265.54,551.11,261.42,553.93,263.37z"/>
					</g>
					<g>
						<path class="st18" d="M563.25,270.85c0,0-11.06,31.77-12.8,41.75c-1.73,9.98-1.07,19.73,14.32,20.17
							c15.39,0.43,27.75-3.04,28.83-12.36c1.08-9.33-16.65-49.77-19.3-51.23C571.66,267.71,564.49,267.25,563.25,270.85z"/>
						<path class="st3" d="M563.25,270.85c0,0-11.06,31.77-12.8,41.75c-1.73,9.98-1.07,19.73,14.32,20.17
							c15.39,0.43,27.75-3.04,28.83-12.36c1.08-9.33-16.65-49.77-19.3-51.23C571.66,267.71,564.49,267.25,563.25,270.85z"/>
					</g>
				</g>
				<g>
					<path class="st18" d="M638.19,287.77c-10.46,34.71-47.57,57.29-87.75,51.58c-43.96-6.25-74.95-44.01-69.22-84.33
						c1.78-12.5,6.88-23.78,14.38-33.21l-12.28-5.74c0,0-9.49,11.64-13.2,24.16c-3.71,12.52-5.35,27.91-3.23,36.51
						c2.13,8.59,4.25,21.88,12.56,32.69c8.31,10.8,14.14,19.97,30.86,29.08c16.72,9.12,28.26,12.35,43.39,13.39
						c15.13,1.04,29.41-2.29,37.88-5.07c8.47-2.78,20.81-9,27.43-14.79c6.62-5.79,13.18-10.49,18.59-20.34
						c5.41-9.85,8.35-17.17,8.35-17.17l0.91-2.81L638.19,287.77z"/>
					<path class="st3" d="M495.6,221.81c-7.5,9.43-12.61,20.71-14.38,33.21c-5.74,40.32,25.25,78.07,69.22,84.33
						c40.18,5.72,77.29-16.87,87.75-51.58"/>
					<path class="st3" d="M574.31,258.85c-1.28,3.76-4.84,6.47-9.04,6.47c-5.27,0-9.54-4.27-9.54-9.54c0-2.01,0.62-3.87,1.68-5.41"
						/>
				</g>
				<path class="st4" d="M560.37,352.38c-4.73,0-9.48-0.33-14.22-1.01c-50.62-7.2-86.42-50.84-79.82-97.29
					c1.98-13.92,7.72-27.17,16.6-38.33l0.25-0.31l0.36,0.17l163.94,75.84l-0.13,0.42c-5.88,19.5-19.29,36.28-37.77,47.25
					C594.91,347.83,577.84,352.38,560.37,352.38z M483.47,216.69c-8.63,10.96-14.21,23.93-16.15,37.54
					c-6.53,45.9,28.9,89.04,78.97,96.16c4.68,0.67,9.34,0.99,13.95,0.99c39.54,0,75.09-23.83,86.03-59.38L483.47,216.69z"/>
			</g>
			<g>
				<g>
					<path class="st7" d="M574.31,292.86c0,0-2.06,10.73-4.77,15.4c-2.71,4.66-6.04,9.54-4.27,10.08c1.77,0.54,5.95-5.53,5.95-5.53
						s-3.31,8.02-4.07,10.84c-0.76,2.82-0.65,4.77,0.54,4.66c0.45-0.04,1.27-1.23,2.17-2.88c-0.32,1.67-0.5,3.55,0.18,3.88
						c1.27,0.62,1.77-0.03,2.69-1.66c0.92-1.62,0.28,0.87,0.66,1.45c0.38,0.58,1.25,0.9,2.08-0.46c0.37-0.61,1.06-1.58,1.7-2.46
						c-0.33,1.92,0.17,2.52,0.72,2.13c0.76-0.54,3.04-4.78,5.2-11.5c2.17-6.72,4.34-22.12,4.34-22.12L574.31,292.86z"/>
					<path class="st3" d="M573.77,316.5c-1.19,3.69-4.88,11.71-6.07,11.82c-1.19,0.11-1.3-1.84-0.54-4.66
						c0.76-2.82,4.07-10.84,4.07-10.84s-4.18,6.07-5.95,5.53c-1.77-0.54,1.55-5.42,4.27-10.08c2.71-4.66,4.77-15.4,4.77-15.4
						l13.12,1.84c0,0-2.17,15.4-4.34,22.12c-2.17,6.72-4.45,10.96-5.2,11.5c-0.76,0.54-1.41-0.76,0-4.78
						c1.41-4.01,1.63-5.53,1.63-5.53"/>
					<path class="st3" d="M570.36,324.5c0,0-1.42,4.58,0,5.05c1.42,0.47,3.41-3.47,4.35-5.86c0.94-2.39,2.35-6.8,2.35-6.8"/>
					<path class="st3" d="M573.17,326.8c0,0-0.67,2.61,1.14,2.79c1.79,0.17,3.02-4.32,3.74-6.49"/>
				</g>
				<g>
					<path class="st7" d="M547.64,233.22c0,0,18.87,14.53,21.25,34.27c2.39,19.73,2.6,26.02,4.12,26.89
						c1.52,0.87,13.01,3.9,14.75,2.82c1.73-1.08,10.41-25,5.64-47.2c-4.77-22.2-14.75-43.88-41.64-52.34L547.64,233.22z"/>
					<path class="st8" d="M570.83,284.31c0,0,9.23-0.72,20.94,2.56c0,0-2.13,8.06-3.37,9.47c-1.24,1.41-3.08,1.12-4.67,0.84
						c-1.59-0.27-10.64-1.44-11.25-3.43C571.87,291.77,570.83,284.31,570.83,284.31z"/>
					<path class="st19" d="M547.64,233.22c0,0,18.87,14.53,21.25,34.27c2.39,19.73,2.6,26.02,4.12,26.89
						c1.52,0.87,13.01,3.9,14.75,2.82c1.73-1.08,10.41-25,5.64-47.2c-4.77-22.2-14.75-43.88-41.64-52.34"/>
					<path class="st19" d="M570.83,284.31c0,0,9.23-0.72,20.94,2.56"/>
				</g>
			</g>
			<g>
				<g>
					<polygon class="st11" points="534.23,164.45 529.95,162.43 535.4,157.69 					"/>
					<path class="st17" d="M548.75,144.11l8.45,1.66c5.62,1.1,9.18,7.24,7.93,13.64l-2.58,13.1c-0.07,0.37-0.16,0.73-0.26,1.08
						c0.02,0.4-0.01,0.81-0.09,1.23l-1.57,7.97l-0.09,0.44l-1.57,7.97c-0.57,2.89-3.4,4.79-6.29,4.23l-3.35-0.66
						c-2.89-0.57-4.79-3.4-4.23-6.29l1.39-7.06l-4.89-0.96c-5.62-1.1-9.18-7.24-7.93-13.64l2.57-13.1
						C537.5,147.33,543.13,143.01,548.75,144.11z"/>
					<g>
						<path class="st4" d="M544.8,161.98c-0.03,1.06-0.92,1.89-1.98,1.86c-1.06-0.03-1.89-0.92-1.86-1.98
							c0.03-1.06,0.92-1.89,1.98-1.86C544,160.03,544.83,160.92,544.8,161.98z"/>
						<path class="st13" d="M554.16,170.3c-0.1,3.08-2.67,5.5-5.75,5.4c-3.08-0.1-5.5-2.67-5.4-5.75c0.1-3.08,2.67-5.5,5.75-5.4
							S554.26,167.22,554.16,170.3z"/>
						<path class="st3" d="M533.97,173.32c0,0,2.55,1.6,5.4-1.21"/>
					</g>
					<path class="st4" d="M556.27,152.43c0,0-15.23,0.09-18.45-8.35c-3.22-8.43,4.81-12.98,12.3-10.5c0,0-1.22-5.37,6.04-5.56
						c7.25-0.2,10.16,8.85,10.16,8.85s14.33,1.95,16.94,16.95c2.61,15-5.23,23.82-11.3,27.03c-6.07,3.22-11.69,2.4-11.69,2.4
						l4.3-14.57C564.57,168.68,553.6,164.07,556.27,152.43z"/>
					<g>
						<path class="st15" d="M573.51,173.19c-0.72,3.68-4.32,6.08-8.04,5.35c-3.72-0.73-6.14-4.31-5.41-7.99
							c0.72-3.68,4.32-6.08,8.04-5.35C571.81,165.93,574.24,169.51,573.51,173.19z"/>
						<g>
							<g>
								<path class="st10" d="M563.64,172.22c0.08-0.6,0.3-1.2,0.63-1.71c0.85-1.31,2.28-1.39,3.67-0.98
									c0.85,0.25,1.22-1.08,0.37-1.33c-1.75-0.51-3.63-0.37-4.86,1.11c-0.58,0.7-1.01,1.63-1.14,2.54
									C562.19,172.72,563.52,173.09,563.64,172.22L563.64,172.22z"/>
							</g>
						</g>
					</g>
				</g>
				<g>
					<path class="st8" d="M562.89,200.3c-0.52,2.7-3.16,4.48-5.86,3.96l-15.59-3.03c-2.7-0.52-4.48-3.16-3.96-5.86l0.66-3.38
						c0.52-2.7,3.16-4.48,5.86-3.96l15.59,3.03c2.7,0.52,4.48,3.16,3.96,5.86L562.89,200.3z"/>
					<path class="st3" d="M562.89,200.3c-0.52,2.7-3.16,4.48-5.86,3.96l-15.59-3.03c-2.7-0.52-4.48-3.16-3.96-5.86l0.66-3.38
						c0.52-2.7,3.16-4.48,5.86-3.96l15.59,3.03c2.7,0.52,4.48,3.16,3.96,5.86L562.89,200.3z"/>
				</g>
			</g>
		</g>
		<g>
			<path class="st2" d="M185.9,262.88c0,0,20.8,5.94,36.96,5.71c16.17-0.23,20.72-14.59,22.67-24.55c1.95-9.95,1.83-31.74-3.9-43.78
				c-3.82-8.02-13.92-10.95-19.97-12.2c-6.05-1.25-31.78,3.26-38.33,22.48C176.79,229.75,174.19,255.24,185.9,262.88z"/>
			<g>
				<g>
					<g>
						<g>
							<path class="st6" d="M261.08,415.23l-10.2-20.12l13.43-5.72l8.52,24.34C272.83,413.73,261.62,416.3,261.08,415.23z"/>
						</g>
						<g>
							<path class="st2" d="M264.54,434.58l-6.19-18.48c0,0-0.32-1.27,3.23-2.83c3.67-1.61,12.67-5.36,13.54-4.5
								c0.34,0.34,2.6,5.3,4.17,6.78c1.57,1.47,8.66,5.51,13.8,7.07c5.14,1.56,10.58,2.77,10.97,4.16c0.39,1.4-3.73,3.14-7.12,4
								c-3.4,0.87-29.37,6.33-29.37,6.33S265.51,437.48,264.54,434.58z"/>
							<g>
								<g>
									<g>
										<path class="st4" d="M271.66,417.8c2.87-1.39,5.73-2.77,8.6-4.16c1.39-0.67,0.17-2.73-1.21-2.07
											c-2.87,1.39-5.73,2.77-8.6,4.16C269.07,416.41,270.28,418.47,271.66,417.8L271.66,417.8z"/>
									</g>
								</g>
								<g>
									<g>
										<path class="st4" d="M277.18,423.58c2.32-1.62,4.65-3.23,6.97-4.85c1.26-0.87,0.06-2.95-1.21-2.07
											c-2.32,1.62-4.65,3.23-6.97,4.85C274.72,422.39,275.91,424.46,277.18,423.58L277.18,423.58z"/>
									</g>
								</g>
								<g>
									<g>
										<path class="st4" d="M284.27,428.79c2.21-2.35,4.42-4.7,6.63-7.06c1.05-1.12-0.63-2.82-1.69-1.69
											c-2.21,2.35-4.42,4.7-6.63,7.06C281.52,428.22,283.21,429.91,284.27,428.79L284.27,428.79z"/>
									</g>
								</g>
							</g>
							<path class="st9" d="M270.48,428.09c-2.03,0.18-6.28-2.28-6.52-4.92c-0.24-2.64,5.62,0.15,5.62,0.15s0.35-3.93,1.98-3.77
								C273.19,419.71,273.4,427.82,270.48,428.09z"/>
						</g>
					</g>
					<g>
						<path class="st2" d="M203.59,274.17l37.81,129.65c0,0,36.83-14.16,44.01-21.39l-54-124.05
							C231.42,258.38,199.97,262.75,203.59,274.17z"/>
						<g>
							<line class="st3" x1="254.82" y1="398.37" x2="207.72" y2="265.67"/>
							<line class="st3" x1="269.52" y1="391.81" x2="221.81" y2="260.33"/>
						</g>
					</g>
				</g>
				<g>
					<g>
						<g>
							<path class="st6" d="M173.05,414.66l1.82-22.49l14.44,2.15l-5.46,25.2C183.86,419.52,172.95,415.85,173.05,414.66z"/>
						</g>
						<g>
							<path class="st2" d="M164.59,434.94l6.12-20.57c0,0-0.21-1.63,4.46-0.21c4.67,1.42,11.97,3.35,12.39,3.91
								c0.42,0.56-1.23,6.85-1.23,6.85l10.97,14.52c0,0,4.99,0.21,6.24,1.05c1.25,0.84-0.29,3.11-3.03,4.34
								c-2.74,1.23-3.61,1.59-4.17,1.58c-6.43-0.13-31.2-9.24-31.2-9.24S164.27,436.02,164.59,434.94z"/>
							<g>
								<g>
									<g>
										<path class="st4" d="M182,423.37c2.5,0.23,4.99,0.45,7.49,0.68c1.53,0.14,1.52-2.25,0-2.39c-2.5-0.23-4.99-0.45-7.49-0.68
											C180.46,420.84,180.47,423.23,182,423.37L182,423.37z"/>
									</g>
								</g>
								<g>
									<g>
										<path class="st4" d="M183.18,431.66c2.71-0.5,5.41-1,8.12-1.49c1.51-0.28,0.87-2.59-0.64-2.31c-2.71,0.5-5.41,1-8.12,1.49
											C181.03,429.63,181.67,431.94,183.18,431.66L183.18,431.66z"/>
									</g>
								</g>
								<g>
									<g>
										<path class="st4" d="M187.86,437.74c2.33-0.75,4.66-1.51,6.99-2.26c1.46-0.47,0.83-2.78-0.64-2.31
											c-2.33,0.75-4.66,1.51-6.99,2.26C185.77,435.91,186.39,438.22,187.86,437.74L187.86,437.74z"/>
									</g>
								</g>
							</g>
							<path class="st9" d="M173.26,432.07c-1.68-1.17-3.35-5.78-1.83-7.96c1.51-2.17,4.21,3.73,4.21,3.73s2.8-2.79,3.94-1.62
								C180.71,427.4,175.67,433.75,173.26,432.07z"/>
						</g>
					</g>
					<g>
						<path class="st2" d="M185.74,257.17c0,0-15.74,64.25-19.21,89.4c-3.47,25.16-4.92,50.89-4.92,50.89s19.21,13.58,48.78,8.38
							l13.67-147.18C224.07,258.67,188.47,251.91,185.74,257.17z"/>
						<g>
							<line class="st3" x1="176.44" y1="403.82" x2="198.91" y2="255.49"/>
							<line class="st3" x1="192.86" y1="406.92" x2="213.79" y2="256.97"/>
						</g>
					</g>
				</g>
			</g>
			<g>
				<path class="st14" d="M253.35,195.39c0,0-6.29-16.21-5.2-26.16c1.08-9.95,8.67-12.61,12.58-6.84c3.9,5.77,3.9,22.28,3.9,22.28
					s5.2-22.87,13.88-22.07c8.67,0.8,9.85,5.79,1.3,22.07c0,0,6.77-9.78,13.69-5.44c6.92,4.34-8.08,14.31-8.08,14.31
					s14.56-8.96,19.55-5.35c4.99,3.61,2.17,10.34-9.98,15.33c0,0,22.99-6.51,25.59,3.25c2.6,9.76-13.94,11.89-35.16,16.03
					C264.19,226.93,255.96,203.31,253.35,195.39z"/>
				<g>
					<path class="st9" d="M203.59,291.99c0,0-11.9-5.86-11.62-23.41c0.28-17.54,4.7-49.43,18.9-63.78
						c14.2-14.35,32.47-19.5,51.35-9.42c18.88,10.08,31.89,25.58,31.24,42.77s-14.99,28.03-31.24,39.41
						C245.97,288.96,221.5,300.89,203.59,291.99z"/>
					<path class="st5" d="M217.56,238.16c0,0,7.84,6.81,21.99-4.63c14.15-11.44,17.33-22.86,14.73-29.51
						c-2.6-6.65-18.67-15.04-30.8-1.01C211.35,217.03,211.64,232.97,217.56,238.16z"/>
					<g>
						<path class="st2" d="M237.48,206.63c-1.53,1.91-3.49,2.87-4.37,2.16c-0.88-0.71-0.35-2.83,1.18-4.74
							c1.53-1.91,3.49-2.87,4.37-2.16C239.55,202.6,239.02,204.72,237.48,206.63z"/>
						<path class="st2" d="M217.23,211.83c-1.53,1.91-3.49,2.87-4.37,2.16c-0.88-0.71-0.35-2.83,1.18-4.74
							c1.53-1.91,3.49-2.87,4.37-2.16C219.29,207.8,218.76,209.92,217.23,211.83z"/>
						
							<ellipse transform="matrix(0.6272 -0.7789 0.7789 0.6272 -84.4864 261.7314)" class="st2" cx="231.14" cy="219.11" rx="4.43" ry="2.05"/>
						<path class="st2" d="M231.25,239.18c-1.22,2.12-3.01,3.38-3.99,2.81c-0.98-0.57-0.78-2.74,0.44-4.86
							c1.22-2.12,3.01-3.38,3.99-2.81C232.67,234.89,232.48,237.07,231.25,239.18z"/>
						<path class="st2" d="M216.25,235.96c-1.32,2.06-3.17,3.23-4.12,2.62c-0.95-0.61-0.65-2.78,0.67-4.83
							c1.32-2.06,3.17-3.23,4.12-2.62C217.87,231.73,217.57,233.9,216.25,235.96z"/>
						<path class="st2" d="M253.7,234.82c-1.53,1.91-3.49,2.87-4.37,2.16c-0.88-0.71-0.35-2.83,1.18-4.74
							c1.53-1.91,3.49-2.87,4.37-2.16C255.76,230.79,255.24,232.91,253.7,234.82z"/>
						
							<ellipse transform="matrix(0.6272 -0.7789 0.7789 0.6272 -82.7887 272.643)" class="st2" cx="243.39" cy="222.8" rx="4.43" ry="2.05"/>
						<path class="st2" d="M263.39,217.11c-1.53,1.91-3.49,2.87-4.37,2.16c-0.88-0.71-0.35-2.83,1.18-4.74
							c1.53-1.91,3.49-2.87,4.37-2.16C265.45,213.08,264.92,215.2,263.39,217.11z"/>
						<path class="st2" d="M277.63,230.84c-1.53,1.91-3.49,2.87-4.37,2.16c-0.88-0.71-0.35-2.83,1.18-4.74
							c1.53-1.91,3.49-2.87,4.37-2.16C279.69,226.82,279.16,228.94,277.63,230.84z"/>
						<path class="st2" d="M244.99,255.38c-1.53,1.91-3.49,2.87-4.37,2.16c-0.88-0.71-0.35-2.83,1.18-4.74
							c1.53-1.91,3.49-2.87,4.37-2.16C247.05,251.35,246.52,253.47,244.99,255.38z"/>
						<path class="st2" d="M245.41,274.37c-2.01,1.39-4.17,1.76-4.81,0.83c-0.64-0.93,0.46-2.81,2.48-4.21
							c2.01-1.39,4.17-1.76,4.81-0.83C248.53,271.1,247.42,272.98,245.41,274.37z"/>
						
							<ellipse transform="matrix(0.7071 -0.7071 0.7071 0.7071 -135.2381 243.2637)" class="st2" cx="226.03" cy="284.88" rx="4.43" ry="2.05"/>
						
							<ellipse transform="matrix(0.6272 -0.7789 0.7789 0.6272 -127.0269 271.8112)" class="st2" cx="220.4" cy="268.59" rx="4.43" ry="2.05"/>
						<path class="st2" d="M224,253.65c-1.32,2.06-3.17,3.23-4.12,2.62c-0.95-0.61-0.65-2.78,0.67-4.83
							c1.32-2.06,3.17-3.23,4.12-2.62C225.62,249.43,225.32,251.59,224,253.65z"/>
						<path class="st2" d="M202.99,241.68c-0.9,2.27-2.49,3.78-3.54,3.36c-1.05-0.42-1.18-2.6-0.27-4.87
							c0.9-2.27,2.49-3.78,3.54-3.36C203.77,237.23,203.89,239.41,202.99,241.68z"/>
						<path class="st2" d="M208.77,254.94c-0.9,2.27-2.49,3.78-3.54,3.36c-1.05-0.42-1.18-2.6-0.27-4.87
							c0.9-2.27,2.49-3.78,3.54-3.36C209.54,250.49,209.67,252.67,208.77,254.94z"/>
						<path class="st2" d="M263.68,250.45c-1.73,1.73-3.78,2.48-4.58,1.68c-0.8-0.8-0.05-2.85,1.68-4.58
							c1.73-1.73,3.78-2.48,4.58-1.68C266.16,246.67,265.4,248.72,263.68,250.45z"/>
						<path class="st2" d="M267.02,264.87c-2.06,1.32-4.22,1.62-4.84,0.66c-0.61-0.95,0.56-2.8,2.62-4.12
							c2.06-1.32,4.22-1.62,4.84-0.66C270.25,261.7,269.08,263.55,267.02,264.87z"/>
					</g>
				</g>
			</g>
			<g>
				<g>
					<g>
						<path class="st15" d="M210.28,287.29c-2.94-2.47-15.18-12.98-13.52-15.76c1.66-2.78,6.32-4.71,6.32-4.71s9.03,5.18,11.3,6.87
							c2.27,1.69,3.25,2.75,2.07,3.09c-1.19,0.34-5.37-1.58-5.37-1.58s7.94,7.49,7.76,8.84c-0.16,1.23-0.79,1.26-5.23-2.59
							c1.09,1.08,2.37,2.42,2.88,3.23c0.96,1.52,1.21,1.62,0.82,1.97c-0.39,0.35-2.58-1.21-3.14-1.68
							c-0.56-0.46,0.21,0.31,0.67,0.85c0.45,0.54,1.54,1.91,1.4,2.3c-0.14,0.39-0.98,0.06-1.56-0.34c-0.58-0.41-2.72-2.15-2.72-2.15
							s0,0,0,0c1.41,1.44,2.69,2.87,2.44,3.4C213.98,289.92,213.22,289.76,210.28,287.29z"/>
						<path class="st19" d="M212.13,280.16c5.8,5.15,6.53,5.23,6.7,3.88c0.17-1.35-7.76-8.84-7.76-8.84s4.19,1.92,5.37,1.58
							c1.19-0.34,0.21-1.4-2.07-3.09s-11.3-6.87-11.3-6.87s-4.66,1.93-6.32,4.71c-1.66,2.78,10.58,13.29,13.52,15.76
							c2.94,2.47,3.7,2.63,4.11,1.74c0.42-0.89-3.45-4.3-5.06-6.05"/>
						<path class="st19" d="M210.4,281.69c0,0,5.52,5.18,6.73,5.01c1.21-0.17-0.93-2.37-3.06-4.86"/>
						<path class="st19" d="M210.87,284.57c0,0,3.84,3.78,5.04,3.76c1.2-0.02-1.15-2.8-2.81-4.24"/>
					</g>
					<g>
						<path class="st7" d="M203.11,200.4c2.75,8.82-3.33,14.89-9.4,19.66c-6.07,4.77-7.52,10.99-6.51,19.66
							c1.01,8.67,11.71,19.66,14.89,23.13c3.18,3.47,2.31,9.69-5.2,11.28c-7.52,1.59-22.12-9.4-32.39-25.16
							c-10.27-15.76-9.25-26.02,4.63-43.23s39.9-18.36,39.9-18.36L203.11,200.4z"/>
						<path class="st18" d="M182.42,268.59c0,0,9.66-5.54,14.56-11.42c0,0,5.78,5.73,6.29,7.49c0.51,1.76,1,7.15-3.25,8.38
							C195.76,274.27,192.06,276.09,182.42,268.59z"/>
						<path class="st3" d="M209.03,187.39c0,0-26.02,1.16-39.9,18.36s-14.89,27.47-4.63,43.23c10.27,15.76,24.87,26.75,32.39,25.16
							c7.52-1.59,8.39-7.81,5.2-11.28c-3.18-3.47-13.88-14.46-14.89-23.13c-1.01-8.67,0.43-14.89,6.51-19.66
							c6.07-4.77,12.14-10.84,9.4-19.66"/>
						<path class="st3" d="M182.42,268.59c0,0,9.66-5.54,14.56-11.42"/>
					</g>
				</g>
				<g>
					<path class="st15" d="M294.28,242.06c-4.45-1.95-10.08-2.6-10.08-0.87c0,0.33,0.27,0.67,0.7,1.01
						c-0.62,0.15-1.15,0.42-1.53,0.75c-0.86,0.76,0.08,2.39,0.08,2.39s-0.81-0.19-1.3,0.87c-0.3,0.65,0.54,1.53,1.23,2.11
						c-0.63-0.11-1.11-0.13-1.29,0.03c-0.87,0.76-0.87,2.66,4.93,4.77c5.8,2.11,8.57,0.38,9.54-1.46
						C297.53,249.81,298.73,244.01,294.28,242.06z"/>
					<path class="st3" d="M290.92,250.79c0,0-7.97-3.2-8.84-2.44c-0.87,0.76-0.87,2.66,4.93,4.77c5.8,2.11,8.57,0.38,9.54-1.46
						c0.98-1.84,2.17-7.64-2.28-9.6s-10.08-2.6-10.08-0.87c0,1.73,7.27,3.74,7.27,3.74"/>
					<path class="st3" d="M284.02,248.45c0,0-2.04-0.97-1.88-2.25c0.16-1.27,3.12-0.81,9.46,1.9"/>
					<path class="st3" d="M283.82,245.53c0,0-2.74-3.09,1.6-2.97"/>
				</g>
			</g>
			<g>
				<path class="st4" d="M202.62,152.84c0,0-10.21,3.82-15.54,12.35c-5.33,8.52,0.9,16.56,5.18,18.06
					c4.28,1.5,14.26,2.63,19.14-1.05c4.88-3.68,3.1-25.75,1.51-28.83C211.33,150.29,203.67,151.94,202.62,152.84z"/>
				<ellipse class="st16" cx="216.77" cy="188.19" rx="9.18" ry="5.35"/>
				<path class="st17" d="M228.06,142.82h-8.07c-5.37,0-9.76,5-9.76,11.11v12.51c0,0.35,0.02,0.7,0.05,1.04
					c-0.09,0.37-0.14,0.75-0.14,1.15v7.62v0.42v7.62c0,2.76,2.26,5.02,5.02,5.02h3.2c2.76,0,5.02-2.26,5.02-5.02v-6.74h4.67
					c5.37,0,9.76-5,9.76-11.11v-12.51C237.81,147.82,233.42,142.82,228.06,142.82z"/>
				<g>
					<path class="st4" d="M209.55,159.55c0,0,7.91-2.63,10.31-7.73c2.4-5.11,1.8-6.21,1.8-6.21s4.46,6.11,11.51,7.61
						c5.82,1.24,5.58,0.38,6.16-0.98c0.53-1.24,0.88-9.86-7.96-15.17c-8.84-5.31-18.33-4.78-24.88,1.83
						c-6.55,6.61-5.75,17.02-3.55,19.62C205.15,161.13,208.05,162.58,209.55,159.55z"/>
					<path class="st4" d="M215.34,131.83c0,7.36-5.97,13.33-13.33,13.33c-7.36,0-13.33-5.97-13.33-13.33
						c0-7.36,5.97-13.33,13.33-13.33C209.37,118.5,215.34,124.47,215.34,131.83z"/>
				</g>
				<g>
					<path class="st15" d="M200.06,162.59c0,3.52,2.88,6.37,6.43,6.37c3.55,0,6.43-2.85,6.43-6.37s-2.88-6.37-6.43-6.37
						C202.94,156.22,200.06,159.07,200.06,162.59z"/>
					<g>
						<g>
							<path class="st10" d="M210.65,163.44c0.05-0.86-0.16-1.8-0.56-2.56c-0.84-1.61-2.57-2.13-4.29-1.98
								c-0.87,0.08-0.88,1.46,0,1.38c1.31-0.12,2.62,0.14,3.18,1.46c0.22,0.52,0.33,1.13,0.29,1.7
								C209.23,164.32,210.6,164.32,210.65,163.44L210.65,163.44z"/>
						</g>
					</g>
				</g>
				<g>
					<g>
						<circle class="st12" cx="223.48" cy="158.01" r="1.82"/>
						<path class="st12" d="M233.57,157.75c0,0.86,0.7,1.55,1.55,1.55c0.86,0,1.55-0.7,1.55-1.55c0-0.86-0.7-1.55-1.55-1.55
							C234.27,156.19,233.57,156.89,233.57,157.75z"/>
					</g>
					<g>
						<path class="st20" d="M231.84,165.19c0,0-0.91,2.66-2.85,2.85c-1.93,0.18-3.45-1.96-3.55-3.63L231.84,165.19z"/>
						<g>
							<path class="st12" d="M231.3,165.04c-0.28,0.8-0.82,1.69-1.55,2.15c-1.84,1.14-3.57-1.13-3.75-2.78
								c-0.19,0.19-0.37,0.37-0.56,0.56c2.13,0.26,4.27,0.52,6.4,0.78c0.71,0.09,0.71-1.03,0-1.12c-2.13-0.26-4.27-0.52-6.4-0.78
								c-0.28-0.03-0.59,0.28-0.56,0.56c0.23,2.09,1.9,4.48,4.26,4.17c1.63-0.21,2.73-1.8,3.24-3.24
								C232.62,164.66,231.54,164.37,231.3,165.04z"/>
						</g>
					</g>
					<g>
						<path class="st13" d="M215.34,164.7c0,2.5,2.02,4.52,4.52,4.52c2.5,0,4.52-2.02,4.52-4.52c0-2.5-2.02-4.52-4.52-4.52
							C217.37,160.18,215.34,162.21,215.34,164.7z"/>
						<path class="st13" d="M236.6,161.64c0.28,0,0.54,0.04,0.8,0.1v4.69c0,0.7-0.03,1.38-0.17,2.04c-0.19,0.03-0.43,0.06-0.63,0.06
							c-1.9,0-3.44-1.54-3.44-3.44C233.16,163.18,234.7,161.64,236.6,161.64z"/>
					</g>
					<polygon class="st11" points="229.79,156.19 229.42,162.39 232.38,160.59 					"/>
				</g>
			</g>
		</g>
	</g>
</g>
</svg>
