<?xml version="1.0" encoding="utf-8"?>
<!-- Generator: Adobe Illustrator 24.2.3, SVG Export Plug-In . SVG Version: 6.00 Build 0)  -->
<svg version="1.1" id="Layer_1" xmlns="http://www.w3.org/2000/svg" xmlns:xlink="http://www.w3.org/1999/xlink" x="0px" y="0px"
	 viewBox="0 0 648 396.2" style="enable-background:new 0 0 648 396.2;" xml:space="preserve">
<style type="text/css">
	.st0{display:none;}
	.st1{display:inline;fill:#FFFEFD;}
	.st2{fill:#FFFEFD;stroke:#1C191B;stroke-width:1.2074;stroke-miterlimit:10;}
	.st3{fill:none;stroke:#1C191B;stroke-width:1.2074;stroke-miterlimit:10;}
	.st4{fill:#1C191B;}
	.st5{fill:#FF999A;stroke:#1C191B;stroke-width:1.2074;stroke-miterlimit:10;}
	.st6{fill:#FFFFFF;stroke:#1C191B;stroke-width:1.2074;stroke-miterlimit:10;}
	.st7{fill:#FFFEFD;}
	.st8{fill:#00805E;}
	.st9{fill:#FF6766;stroke:#1C191B;stroke-width:1.2074;stroke-miterlimit:10;}
	.st10{fill:#020202;}
	.st11{fill:#FF6766;}
	.st12{fill:#0C0C0C;}
	.st13{fill:#FF999A;}
	.st14{fill:#00805E;stroke:#1C191B;stroke-width:1.2074;stroke-miterlimit:10;}
	.st15{fill:#FFFFFF;}
	.st16{fill:#FFC100;stroke:#1C191B;stroke-width:1.2074;stroke-miterlimit:10;}
	.st17{fill:#FFFFFF;stroke:#000000;stroke-width:1.2074;stroke-miterlimit:10;}
	.st18{fill:#FFC100;}
	.st19{fill:none;stroke:#000000;stroke-width:1.2074;stroke-miterlimit:10;}
	.st20{fill:#FFFDFD;}
</style>
<g id="BACKGROUND" class="st0">
	<rect x="148" y="-54.7" class="st1" width="500" height="500"/>
</g>
<g id="OBJECTS">
	<g>
		<g>
			<g>
				<path class="st2" d="M337.7,73.3c0,0,33.5,28.7,44.6,35.2c11.1,6.5,18.9,13.1,17.2,24.6c-1.7,11.6-11.2,22.4-31.4,14.9
					C347.9,140.5,337.7,73.3,337.7,73.3z"/>
				<path class="st2" d="M357.6,148c2.7-13.6-0.2-31.5-5.1-51.9c-4.8-20.4-18.3-32.8-32.1-34.9c0,0-26,14.3-33,43.4
					c-7,29-8.9,53.3-7.4,63.5c1.5,10.2,68.9,4.4,68.9,4.4S354.8,161.7,357.6,148z"/>
			</g>
			<g>
				<path class="st2" d="M360.4,168.1c0,0-12.9-51.4,12.1-83s73.4-42.3,73.4-42.3s5.3,73.4-37.3,121.6
					C366,212.6,360.4,168.1,360.4,168.1z"/>
				<g>
					<line class="st3" x1="445.9" y1="42.8" x2="371.2" y2="185.4"/>
					<path class="st4" d="M433.8,65.4l0.1,1l11.7-1.9c0-0.3,0-0.7,0.1-1L433.8,65.4z"/>
					<path class="st4" d="M425,81.9l0.1,1l18.9-3c0-0.3,0.1-0.7,0.1-1L425,81.9z"/>
					<path class="st4" d="M416.3,98.5l0.1,1l24.9-3.9c0.1-0.4,0.1-0.7,0.2-1.1L416.3,98.5z"/>
					<path class="st4" d="M409.8,113l28.3-4.5c0.1-0.4,0.2-0.7,0.3-1.1l-28.7,4.6L409.8,113z"/>
					<path class="st4" d="M402.3,126l31.6-5c0.1-0.4,0.3-0.7,0.4-1.1l-32.2,5.1L402.3,126z"/>
					<path class="st4" d="M395.5,139.7l32.7-5.2c0.2-0.4,0.3-0.7,0.5-1.1l-33.4,5.3L395.5,139.7z"/>
					<path class="st4" d="M387.8,155.2l31.7-5c0.2-0.4,0.5-0.8,0.7-1.1l-32.5,5.2L387.8,155.2z"/>
					<path class="st4" d="M405.4,167.9l-26.9,4.3l0.1,1l25.7-4.1C404.6,168.7,405,168.3,405.4,167.9z"/>
				</g>
			</g>
			<g>
				<path class="st5" d="M334.4,164.4c0,0-65.9-13.3-92.9,19c-27,32.4-25.8,81.8,16.4,128.7c42.2,46.8,80.8,52.8,113.3,45.1
					s60.2-37.5,74.6-59.5c14.4-22,38.2-71.4,26.2-106.9c-4.2-12.4-38-35.1-63.7-35S334.4,164.4,334.4,164.4z"/>
				
					<ellipse transform="matrix(0.3456 -0.9384 0.9384 0.3456 -37.7709 377.7572)" class="st2" cx="252" cy="216" rx="29.7" ry="19.5"/>
			</g>
			<g>
				<g>
					<g>
						<polygon class="st6" points="356.3,242.7 359.8,221.1 348.7,219.8 347.6,241.2 						"/>
					</g>
					<g>
						<g>
							<path class="st6" d="M370.7,267.1l-29.1-13.7c0,0-0.4-0.4,0-2.3c0.4-1.8,3.6-14.2,3.6-14.2l15.4,5.4l0.4,5.6
								c0,0,6.2,11.9,7.6,14.2C370.1,264.3,372.1,267.3,370.7,267.1z"/>
							<path class="st4" d="M341.8,250.7c0.2-0.8,0.8-3.3,1.5-6c2,0.7,5.1,2.4,6.2,5.5c0.9,2.5,0.3,4.8-0.3,6.2l-7.7-3.7
								C341.4,252.8,341.4,252.5,341.8,250.7z"/>
						</g>
						<g>
							<g>
								<g>
									<path class="st4" d="M363.3,249.6c-1.6,0.8-3.2,1.6-4.9,2.5c-1.1,0.5-0.1,2.2,0.9,1.6c1.6-0.8,3.2-1.6,4.9-2.5
										C365.3,250.7,364.4,249.1,363.3,249.6L363.3,249.6z"/>
								</g>
							</g>
							<g>
								<g>
									<path class="st4" d="M364.9,253.6c-1.4,0.8-2.9,1.5-4.3,2.2c-1.1,0.6-0.1,2.2,0.9,1.6c1.4-0.8,2.9-1.5,4.3-2.2
										C366.9,254.7,365.9,253,364.9,253.6L364.9,253.6z"/>
								</g>
							</g>
						</g>
					</g>
					<g>
						<path class="st2" d="M345.3,226.3l16,0.2c0,0,12-35.2,14.7-45.4c2.8-10.2,4.1-25.8-0.9-33.1c-4.9-7.3-15.4-15.4-19.8-14.9
							C351.1,133.7,345.3,226.3,345.3,226.3z"/>
						<line class="st3" x1="345.8" y1="219.7" x2="363.6" y2="219.7"/>
					</g>
				</g>
				<g>
					<g>
						<polygon class="st6" points="320,248.3 327.3,227.8 316.7,224.4 311.7,245.2 						"/>
					</g>
					<g>
						<g>
							<path class="st6" d="M329.7,275.1l-26.1-19c0,0-0.3-0.5,0.4-2.2c0.7-1.7,6.2-13.3,6.2-13.3l14.2,8.3l-0.6,5.5
								c0,0,4,12.9,4.9,15.4C329.6,272.3,331,275.6,329.7,275.1z"/>
							<path class="st4" d="M304.3,253.4c0.3-0.7,1.4-3,2.5-5.6c1.8,1.1,4.6,3.4,5.1,6.6c0.4,2.6-0.6,4.8-1.4,6l-6.9-5.1
								C303.6,255.4,303.5,255.2,304.3,253.4z"/>
						</g>
						<g>
							<g>
								<g>
									<path class="st4" d="M325.7,256.5c-1.7,0.5-3.5,1-5.2,1.5c-1.2,0.3-0.7,2.2,0.5,1.9c1.7-0.5,3.5-1,5.2-1.5
										C327.3,258,326.8,256.2,325.7,256.5L325.7,256.5z"/>
								</g>
							</g>
							<g>
								<g>
									<path class="st4" d="M326.5,260.7c-1.5,0.5-3.1,0.9-4.6,1.4c-1.1,0.3-0.7,2.2,0.5,1.9c1.5-0.5,3.1-0.9,4.6-1.4
										C328.1,262.2,327.6,260.4,326.5,260.7L326.5,260.7z"/>
								</g>
							</g>
						</g>
					</g>
					<g>
						<path class="st7" d="M311.8,136.6c0,0,26.9-6.7,39.2-2.9c12.4,3.8,12.4,12.6,7.6,29.4c-4.7,16.7-30.9,70.6-30.9,70.6l-16-4.4
							c0,0,0.4-2.6,1.2-6.9c2.9-15.2,10.8-51.3,22.8-66.4L311.8,136.6z"/>
						<path class="st3" d="M335.9,155.8c-12,15.1-19.9,51.2-22.8,66.4c-0.8,4.3-1.2,6.9-1.2,6.9l16,4.4c0,0,26.1-53.8,30.9-70.6
							s4.8-25.6-7.6-29.4c-12.4-3.8-39.2,2.9-39.2,2.9"/>
						<line class="st3" x1="331.1" y1="226.5" x2="313.1" y2="222.3"/>
					</g>
				</g>
			</g>
			<g>
				<path class="st8" d="M392.9,103.7c0,0.2,0,0.4,0,0.6c0,17.2-14.1,31.1-31.6,31.1c-17.4,0-31.6-14.6-31.6-31.7l-6.6-0.3
					c0,0-1,24.3,19.6,33.6c20.6,9.4,35.2,2.4,40.6-2.2c5.4-4.6,12-11.6,13.7-17.7c1.7-6.1,2.3-13.8,2.3-13.8L392.9,103.7z"/>
				<path class="st9" d="M392.9,103.7c0,0.2,0,0.4,0,0.6c0,17.2-14.1,31.1-31.6,31.1c-17.4,0-31.6-14.6-31.6-31.7H392.9z"/>
				<g>
					<path class="st4" d="M348.9,111.7c0,1.8-0.8,3.2-1.8,3.2c-1,0-1.8-1.4-1.8-3.2s0.8-3.2,1.8-3.2
						C348.1,108.5,348.9,109.9,348.9,111.7z"/>
					<path class="st4" d="M338.6,110.8c0,1.8-0.8,3.2-1.8,3.2s-1.8-1.4-1.8-3.2s0.8-3.2,1.8-3.2
						C337.8,107.6,338.6,109.1,338.6,110.8z"/>
					<path class="st4" d="M353.9,127.6c0,1.8-0.8,3.2-1.8,3.2s-1.8-1.4-1.8-3.2c0-1.8,0.8-3.2,1.8-3.2
						C353.1,124.4,353.9,125.8,353.9,127.6z"/>
					<path class="st4" d="M360.9,111.7c0,1.8-0.8,3.2-1.8,3.2s-1.8-1.4-1.8-3.2s0.8-3.2,1.8-3.2
						C360.1,108.5,360.9,109.9,360.9,111.7z"/>
					<path class="st4" d="M368.1,121.2c0,1.8-0.8,3.2-1.8,3.2s-1.8-1.4-1.8-3.2s0.8-3.2,1.8-3.2S368.1,119.4,368.1,121.2z"/>
					<path class="st4" d="M376.1,126.7c0,1.8-0.8,3.2-1.8,3.2c-1,0-1.8-1.4-1.8-3.2c0-1.8,0.8-3.2,1.8-3.2
						C375.3,123.5,376.1,125,376.1,126.7z"/>
					<path class="st4" d="M377.9,109.8c0,1.8-0.8,3.2-1.8,3.2s-1.8-1.4-1.8-3.2s0.8-3.2,1.8-3.2C377.1,106.6,377.9,108,377.9,109.8z
						"/>
					<path class="st4" d="M385.2,117.2c0,1.8-0.8,3.2-1.8,3.2c-1,0-1.8-1.4-1.8-3.2s0.8-3.2,1.8-3.2
						C384.4,114,385.2,115.5,385.2,117.2z"/>
				</g>
				<path class="st3" d="M323.2,103.4c0,0.3,0,0.5,0,0.8c0,20.8,17.1,37.6,38.2,37.6s38.2-16.8,38.2-37.6c0-0.3,0-0.5,0-0.8H323.2z"
					/>
				<path class="st3" d="M329.8,103.7c0,17.2,14.1,31.7,31.6,31.7c17.4,0,31.6-13.9,31.6-31.1c0-0.2,0-0.4,0-0.6"/>
			</g>
			<g>
				<g>
					<path class="st7" d="M320.3,61.2c-13.8-2.1-34.9,7.8-54.3,26.9c-19.4,19.1-26.1,52.4-2.5,66.3c23.6,13.9,51-6.5,53.2-10.8
						c2.2-4.3,11.5-19.1-5.2-24.8c-7.5-2.5-14.4-1.7-19.8,0c0,0-1.5-0.8-0.3-6.4c1.2-5.6,2.5-11.1,8.1-20.3
						C305.1,82.9,320.3,61.2,320.3,61.2z"/>
					<path class="st3" d="M290.7,119.5c0,0,0.1-13.6,6-22.3"/>
					<path class="st3" d="M280.6,124.4c0,0,14.2-11.3,30.9-5.6c16.7,5.7,7.4,20.5,5.2,24.8s-29.6,24.7-53.2,10.8
						s-16.9-47.2,2.5-66.3c19.4-19.1,40.5-29,54.3-26.9"/>
				</g>
				<path class="st2" d="M314.4,122.4c0,0,13.2-7.9,17.7-9.3c4.5-1.3,5.3-0.9,4.1,0.6s-6.6,4.5-6.6,4.5s8.4-4.5,9.8-3.3
					c1.4,1.2-2.1,3.6-7.4,6.6c0,0,8-4.5,9.6-2.8c1.5,1.7-5.5,4.3-8.4,5.9c0,0,8.3-3.6,9.7-1.9c1.4,1.7-14.6,8.1-22.9,12.6
					C311.5,139.9,307.5,127.8,314.4,122.4z"/>
				<path class="st2" d="M383.5,139.4c0,0-2.8,2.1-5.9-2.2s-2.5-5.1-1.8-5.5s4.2,4.1,4.2,4.1s-3.6-5.5-1.9-6.6c1.7-1.1,5,3.9,5,3.9
					s-4.7-5.5-2.7-6.8s5.3,3.9,5.3,3.9s-4.3-5.4-2.4-6.5c1.9-1.1,6.9,6.5,6.1,9.6C388.5,136.4,385.1,138.9,383.5,139.4z"/>
			</g>
			<g>
				<path class="st2" d="M327.9,65.2c-0.4,2.6-2.9,4.3-5.4,3.8l-1.9-0.4c-2.5-0.5-4.2-2.9-3.7-5.5l1.7-9.6c0.4-2.6,2.9-4.3,5.4-3.8
					l1.9,0.4c2.5,0.5,4.2,2.9,3.7,5.5L327.9,65.2z"/>
				<path class="st4" d="M345.9,29.9c0.2-0.9,0.3-1.7,0.3-2.3c-0.3-2.9-8.8-6.1-19.5-8.8c-10.7-2.7-16.4,6.2-17.6,9
					c-1.2,2.8,0.6,7.8,1.5,11s1.8,4.5,1.8,4.5c1.2,4.3,20.2,4.2,25.7,3.2c0,0.1,0,0.1,0,0.1s0.4,0,1.1-0.4c0.2-0.1,0.3-0.1,0.4-0.2
					l0,0c0.9-0.5,2.2-1.6,3.4-3.7c2.3-4,5-9.6,5.1-11.3C348,30.4,347.1,30,345.9,29.9z"/>
				<g>
					<g>
						<path class="st2" d="M348.8,42.1c-0.5,2.5-2.9,4-5.3,3.5c-2.4-0.5-4-3-3.5-5.4c0.5-2.5,2.9-4,5.3-3.5
							C347.8,37.2,349.3,39.6,348.8,42.1z"/>
						<g>
							<g>
								<path class="st10" d="M342.4,41.3c0.1-0.4,0.2-0.8,0.4-1.1c0.6-0.9,1.5-0.9,2.4-0.6c0.6,0.2,0.8-0.7,0.2-0.9
									c-1.1-0.4-2.4-0.3-3.2,0.7c-0.4,0.5-0.7,1.1-0.8,1.7C341.4,41.6,342.3,41.9,342.4,41.3L342.4,41.3z"/>
							</g>
						</g>
					</g>
					<g>
						<path class="st2" d="M305.1,35.9c-0.5,2.5,1,4.9,3.5,5.4c2.4,0.5,4.8-1,5.3-3.5c0.5-2.5-1-4.9-3.5-5.4
							C308,31.8,305.6,33.4,305.1,35.9z"/>
						<g>
							<g>
								<path class="st10" d="M312.1,38.1c0.2-0.6,0.2-1.3,0-1.9c-0.4-1.3-1.5-1.8-2.7-2c-0.6-0.1-0.6,0.9,0,1
									c1.4,0.2,2.2,1.3,1.8,2.7C311.1,38.4,312,38.7,312.1,38.1L312.1,38.1z"/>
							</g>
						</g>
					</g>
				</g>
				<path class="st2" d="M339.2,47.8c-1.1,5.4-6.3,8.8-11.5,7.7l-8.4-1.9c-5.2-1.2-8.6-6.5-7.5-11.9l3.3-15.8
					c1.1-5.4,6.3-8.8,11.5-7.7l8.4,1.9c5.2,1.2,8.6,6.5,7.5,11.9L339.2,47.8z"/>
				<g>
					<polygon class="st11" points="328.2,31.4 325.5,37.6 328.8,38.2 					"/>
					<g>
						<path class="st12" d="M320.3,33.3c-0.2,0.9-1.1,1.5-2,1.3c-0.9-0.2-1.4-1.1-1.2-2c0.2-0.9,1.1-1.5,2-1.3
							C320,31.5,320.5,32.4,320.3,33.3z"/>
						<path class="st12" d="M337.7,35.1c-0.2,0.9-1.1,1.5-2,1.3c-0.9-0.2-1.4-1.1-1.2-2c0.2-0.9,1.1-1.5,2-1.3
							C337.3,33.3,337.9,34.2,337.7,35.1z"/>
					</g>
					<g>
						<path class="st13" d="M320.1,40.1c-0.5,2-2.5,3.1-4.4,2.6s-3-2.6-2.5-4.5s2.5-3.1,4.4-2.6C319.5,36.1,320.6,38.1,320.1,40.1z"
							/>
						<path class="st13" d="M339.5,42.7c-0.5,2-2.5,3.1-4.4,2.6s-3-2.6-2.5-4.5s2.5-3.1,4.4-2.6C338.9,38.7,340,40.7,339.5,42.7z"/>
					</g>
					<g>
						<g>
							<path class="st12" d="M324,43.5c0.7,2.5,5.2,3.3,6.3,0.7c0.3-0.6-0.6-1.1-0.9-0.5c-0.7,1.7-3.9,1.3-4.4-0.5
								C324.8,42.6,323.9,42.9,324,43.5L324,43.5z"/>
						</g>
					</g>
				</g>
				<g>
					<g>
						<path class="st3" d="M198.7,32.2c1,4.1-2.3,8.5-7.3,9.7c-5,1.2-9.8-1.2-10.8-5.3c-1-4.1,2.3-8.5,7.3-9.7
							C193,25.7,197.8,28.1,198.7,32.2z"/>
						<path class="st3" d="M234,38.8c0,0-3.8,0.9-6.5,8.9s-17.8,9.8-22.7,0s2.1-27.8,14.4-31s14.3,4.1,22.3,10.2
							c7.9,6.1,10.5,3.7,17.4-4.9c7-8.6,17.1-20.5,31.2-15.5c14.1,5,9.7,17,3.8,24.6c-5.9,7.5-4.7,7.6-4.2,14.9
							c0.8,12.1-21.5,26.1-33.8,18.4c-13.5-8.4-7.1-17.6-11.5-23.2C240.4,36.4,238.2,37.5,234,38.8z"/>
					</g>
					<path class="st9" d="M312.1,14.8c0,2.7-2.2,5-4.8,5s-4.8-2.2-4.8-5s2.2-5,4.8-5S312.1,12.1,312.1,14.8z"/>
					<path class="st4" d="M349.4,13.9c-0.6-2.6-2.4-13.5-16-13.9c-13.6-0.3-21.7,6.7-24.8,18.8c-1.6,6.3-0.6,10.7,0.7,13.4
						c0.8,0,2.2,0.3,3.4,1.6c0.8-2.7,1.8-6.4,5.3-10c4.5-4.8,9.4-1.3,15.3,6.2c5.9,7.5,15,3.1,15,3.1c6,1.7,12.2-0.4,12.1-8.8
						S349.4,13.9,349.4,13.9z"/>
				</g>
				<path class="st3" d="M311.5,61.2c0,0-3,5.9,4.3,9.9c7.3,4,17.2,0,15.9-5.8"/>
			</g>
		</g>
		<g>
			<g>
				<path class="st3" d="M248.5,371.8c0,0-5.4-20.3,12.1-27.4c17.5-7.2,23.8,6.7,23.8,6.7s-14.8-20,9.3-43.2s48.5-8.8,61.1,16.8
					c0,0-3.1-61.5,75.4-84.3c0,0,57.1-6.2,71.6,65.7c0,0,14.5-30.3,34.9-32.4c20.5-2.1,18,30.6,18,30.6s24-19.1,38.3,1.8"/>
				<path class="st3" d="M202.5,382.4c0,0-17.7-13.9-19.7-33.3c-2-19.4,11.2-23.7,16.3-19.7c0,0-7-35.3,11.5-46
					c18.5-10.7,30.6,15.3,30.6,15.3s-10.1-32.1,17.4-44.2c27.5-12.1,52.8,2.5,57.9,41.8"/>
				<g>
					<path class="st2" d="M64.8,291.3c-3.5-2.2-5.1-2.7-15.6-5.4c-16.7-4.2-23.5-24.7-16.1-38s25.1-18.4,38.4-13.1
						s22.2,25.5,22.3,41.6s2.3,12.9,10.4,16.9c8.2,4,18.8,17.4,11.8,33.1s-10.7,17.9-5.1,21.3c5.6,3.4,6.5,11.2-0.6,18.5
						c-7,7.2-23.3,6.7-28.4-8.3c-5.1-15-8.7-14-14.3-23.2c-5.6-9.3-3.4-17.4,0-24.9C71,302.2,72.4,296,64.8,291.3z"/>
					<path class="st3" d="M112,377.9c0,0-20.2-20.7-25.3-43.3c-3.5-15.6,2.8-41.5-15.3-58.3S43.7,254,42,237.9"/>
					<path class="st3" d="M43.4,261.7c0.6,3.8-0.6,7.2-2.6,7.5c-2.1,0.3-4.2-2.5-4.8-6.3c-0.6-3.8,0.6-7.2,2.6-7.5
						C40.6,255,42.8,257.9,43.4,261.7z"/>
				</g>
				<g>
					<path class="st14" d="M65,368.2c0,0-4.2,6,0.8,12.6c5.1,6.6,14.3,0.6,19.6-5c5.3-5.6,9.3-15.3,8-17.9c-1.3-2.6-5.5-0.9-5.5-0.9
						s2.7-7.6-1.7-12.4c-4.4-4.8-14.8-2.4-15.2,6.5c0,0-9.5-13.9-17.9-5C44.8,355,50,376.7,65,368.2z"/>
					<line class="st3" x1="74.4" y1="362" x2="105.5" y2="382.4"/>
				</g>
				<g>
					<path class="st2" d="M550.2,325.6c1.4,10.6-2.5,19.9-8.6,20.8c-6.2,0.9-12.3-7-13.7-17.7c-1.4-10.6,2.5-19.9,8.6-20.8
						C542.7,307.1,548.8,315,550.2,325.6z"/>
					<path class="st2" d="M577.1,373.9c0.9,5.4-4.3,10.8-11.5,12c-7.2,1.2-13.8-2.2-14.6-7.6c-0.9-5.4,4.3-10.8,11.5-12
						C569.7,365.1,576.2,368.5,577.1,373.9z"/>
					
						<ellipse transform="matrix(0.9398 -0.3417 0.3417 0.9398 -80.3093 221.5728)" class="st2" cx="588.7" cy="338.7" rx="19.2" ry="11.6"/>
					
						<ellipse transform="matrix(0.4797 -0.8775 0.8775 0.4797 51.3398 665.8951)" class="st2" cx="587.1" cy="289.7" rx="30.1" ry="16.8"/>
					<g>
						<line class="st3" x1="528.5" y1="396.2" x2="599.9" y2="262.4"/>
						<line class="st3" x1="536.8" y1="307.8" x2="544.5" y2="366.2"/>
						<line class="st3" x1="536.7" y1="380.9" x2="577.1" y2="373.9"/>
						<line class="st3" x1="552.8" y1="350.6" x2="606.9" y2="332.6"/>
						<g>
							<line class="st3" x1="575.4" y1="308.4" x2="597.2" y2="304.8"/>
							<line class="st3" x1="582.5" y1="294.4" x2="605" y2="290.7"/>
							<line class="st3" x1="590.7" y1="279.7" x2="607.7" y2="276.9"/>
						</g>
					</g>
				</g>
			</g>
			<g>
				<ellipse class="st2" cx="49.2" cy="123.2" rx="7.2" ry="7.4"/>
				<path class="st2" d="M16.8,165.9c0,2.6-2.1,4.8-4.7,4.8c-2.6,0-4.7-2.1-4.7-4.8c0-2.6,2.1-4.8,4.7-4.8
					C14.7,161.1,16.8,163.2,16.8,165.9z"/>
				<ellipse class="st2" cx="44.8" cy="306.2" rx="9.5" ry="9.8"/>
				<path class="st2" d="M10.6,74.5c0,1.5-1.2,2.6-2.6,2.6c-1.4,0-2.6-1.2-2.6-2.6c0-1.5,1.2-2.7,2.6-2.7
					C9.4,71.8,10.6,73,10.6,74.5z"/>
				<path class="st2" d="M57.4,328.6c0,1.2-0.9,2.2-2.1,2.2c-1.2,0-2.1-1-2.1-2.2s0.9-2.2,2.1-2.2C56.5,326.4,57.4,327.4,57.4,328.6
					z"/>
				<path class="st2" d="M35.1,342.6c0,2.8-2.2,5.1-5,5.1c-2.8,0-5-2.3-5-5.1s2.2-5.1,5-5.1C32.9,337.4,35.1,339.7,35.1,342.6z"/>
				<ellipse class="st2" cx="536.3" cy="140.3" rx="4.6" ry="4.8"/>
				<path class="st2" d="M609.6,112.9c0,2.2-1.7,4-3.9,4s-3.9-1.8-3.9-4c0-2.2,1.7-4,3.9-4S609.6,110.7,609.6,112.9z"/>
				<path class="st2" d="M604.3,214.4c0,0.9-0.7,1.7-1.6,1.7c-0.9,0-1.6-0.8-1.6-1.7s0.7-1.7,1.6-1.7
					C603.5,212.8,604.3,213.5,604.3,214.4z"/>
				<path class="st2" d="M648,203.2c0,3-2.4,5.4-5.3,5.4c-2.9,0-5.3-2.4-5.3-5.4s2.4-5.4,5.3-5.4C645.6,197.8,648,200.2,648,203.2z"
					/>
				<ellipse class="st2" cx="597.9" cy="48.9" rx="12.5" ry="12.9"/>
				<ellipse class="st2" cx="621.7" cy="257.9" rx="11.6" ry="11.9"/>
			</g>
			<g>
				<path class="st2" d="M55.2,222.1c0,0-13.1,1-13.4-3.5c-0.3-4.5,5.7-4,5.7-4s-8-5.8-4.1-15.2s15.4-6.6,19.4-3
					c0,0-8.1-15,3.2-22.9s30.5-3.6,32.9,18.2c0,0,1.7-5.3,7.2-5c5.5,0.3,4.2,8.5,4.2,8.5s4.2-12.7,17.8-11s12.9,22.6,8.5,30.5
					c-4.4,7.9-20.6,5.3-34.5,5.6C88.1,220.7,55.2,222.1,55.2,222.1z"/>
				<path class="st2" d="M57.7,58.3c-0.2-3.1,3.1-9.6,9-9.1c5.9,0.6,5.5,4,5.5,4s0.3-10.6,7.3-13c7-2.4,11.7,4.6,11.7,4.6
					s-1.8-19.6,11.7-22.4c13.6-2.8,22.3,10.8,20.1,23.9c0,0,14.6-1.9,15.2,10.4c0.6,12.3-71.8,7.8-71.8,7.8S58.1,64.2,57.7,58.3z"/>
				<path class="st2" d="M627.4,182.8c0.1-2.6-3-8.1-8-7.4c-5,0.7-4.5,3.6-4.5,3.6s-0.6-9.1-6.7-10.9c-6.1-1.8-9.8,4.4-9.8,4.4
					s0.9-16.8-10.8-18.8c-11.7-1.9-18.7,10.1-16.4,21.2c0,0-12.5-1.1-12.6,9.4c-0.1,10.5,61.8,4.1,61.8,4.1S627.3,187.9,627.4,182.8
					z"/>
				<path class="st2" d="M81,142.6c0,0-3.1-8.6,2.3-12.4c5.4-3.8,9.3,2.6,9.3,2.6s-3.6-14.6,3.7-16.9c7.3-2.3,10.6,6.1,10.8,14.6
					c0,0,0.8-5,5.4-4.4c4.6,0.6,2.2,6.4,2.2,6.4s8.2-4.1,9.8,3.8c1.6,7.8-7.9,6.9-7.9,6.9L81,142.6z"/>
				<path class="st2" d="M543,112.9c0,0-0.6-5.7,4.8-3.6c0,0-0.6-7.6,5.8-8.9c6.5-1.3,6,5.1,6,5.1s1.4-6.6,7.2-5.9
					c5.8,0.7,3.8,7.8,3.8,7.8s6.7-4.8,9,0c2.2,4.8-2.4,6.2-4.6,6.4C572.8,113.9,543,112.9,543,112.9z"/>
			</g>
		</g>
		<g>
			<g>
				<g>
					<g>
						<path class="st2" d="M418.4,115.4c0,0-7.3-7.5-8-13.7c-0.7-6.2,13.8-3.5,13.8-3.5s1.3,9.8,4.1,13.4
							C431,115.3,419.1,116.2,418.4,115.4z"/>
						<path class="st15" d="M488.7,150.7c0,0-34.8-1.3-45.5-19.1c-10.7-17.8-12-24.3-17.1-23.6c-5.1,0.6-13.6,5.6-11.1,25.8
							c2.5,20.2,10.8,52.6,45,54.2C460,188,483.4,165.9,488.7,150.7z"/>
						<path class="st8" d="M415,122.7c0,0,12.2-2,18.3-7.8c0,0-3.5-6.6-5.3-6.7c-1.9-0.1-9.4,0.9-11.2,7.3
							C414.9,121.7,415,122.7,415,122.7z"/>
						<path d="M460.2,188.5l-0.2,0c-25.6-1.2-41.3-20.1-45.5-54.6c-1.1-9-0.2-15.9,2.8-20.6c2.8-4.4,6.7-5.5,8.7-5.8
							c3.9-0.5,5.7,2.8,10.1,10.9c1.9,3.4,4.2,7.7,7.4,13c10.5,17.4,44.8,18.8,45.1,18.9l0.7,0l-0.2,0.6
							c-5.2,15.1-27.8,36.6-28.8,37.5L460.2,188.5z M426.7,108.5c-0.2,0-0.4,0-0.6,0c-1.9,0.2-5.4,1.3-8,5.4
							c-2.8,4.4-3.7,11.1-2.7,19.9c4.1,33.9,19.5,52.5,44.4,53.8c2-1.9,22.8-22.1,28.2-36.3c-5-0.3-35.2-2.6-45.3-19.3
							c-3.2-5.3-5.6-9.6-7.5-13C431.2,111.5,429.5,108.5,426.7,108.5z"/>
						<path class="st3" d="M415,122.7c0,0,12.2-2,18.3-7.8"/>
					</g>
					<g>
						<g>
							<g>
								<path class="st2" d="M391.3,40.4c1-0.9,2-1.8,3-2.7c1.4-1.2,4.6-4.3,6.6-4c2.1,0.2,3.5,5.5,4.1,7.2c0.9,2.6,1.7,5.3,2.5,8.1
									c0.4,1.6,2.8,0.9,2.3-0.7c-1-3.8-2.1-7.5-3.6-11.1c-0.8-2-2-5.5-4.4-6c-4.1-0.8-9.5,4.9-12.2,7.4
									C388.4,39.7,390.1,41.5,391.3,40.4L391.3,40.4z"/>
							</g>
							<path class="st2" d="M412.5,47.8c0,1.8-1.7,3.2-3.9,3.2c-2.2,0-3.9-1.4-3.9-3.2s1.7-3.2,3.9-3.2
								C410.8,44.6,412.5,46,412.5,47.8z"/>
						</g>
						<polygon class="st7" points="398.2,56.3 403.8,103.8 425.6,103.9 434.3,57.9 						"/>
						<g>
							<g>
								<path class="st14" d="M413.1,75.8c0,0-4-8.6-1.2-12.6c2.8-4,6.4-1.5,6.4,2.7C418.4,70.2,413.1,75.8,413.1,75.8z"/>
								<path class="st11" d="M431.2,74.5c-1.6-2.3-4.2-3.8-7.1-3.8c-4.8,0-8.7,4-8.7,8.9s3.9,8.9,8.7,8.9c1.7,0,3.3-0.5,4.7-1.4
									L431.2,74.5z"/>
								<line class="st3" x1="409.4" y1="75.1" x2="419.6" y2="78.4"/>
								<path class="st4" d="M424.1,70.2c-5.1,0-9.2,4.2-9.2,9.4c0,5.2,4.1,9.4,9.2,9.4c1.7,0,3.2-0.5,4.5-1.3l0.3-1.4
									c-1.4,1-3,1.6-4.8,1.6c-4.5,0-8.2-3.8-8.2-8.4s3.7-8.4,8.2-8.4c2.9,0,5.5,1.6,7,4l0.3-1.4C429.6,71.6,427,70.2,424.1,70.2z"
									/>
							</g>
							<g>
								<ellipse class="st2" cx="416.4" cy="90" rx="8.7" ry="9"/>
								<path class="st16" d="M414.3,89.7c0,0-6.5-1.9-3-4.9c1.8-1.6,3.3,2.1,3.3,2.1s0-4,2.4-3.9c2.4,0.1,0.9,4.6,0.9,4.6
									s2.2-3.3,3.7-1.6c3.3,3.8-4.3,4-4.3,4s6.9-0.2,4.8,3.5c-1.2,2.1-5.1-2.4-5.1-2.4s2.9,4.3,1.3,5c-1.6,0.6-2.5-3.4-2.5-3.4
									s-1.1,4.1-2.8,2.9c-1.7-1.3,0.7-3.6,0.7-3.6s-3.5,1.7-4.1-0.8C409.2,88.6,414.3,89.7,414.3,89.7z"/>
								<ellipse class="st2" cx="415.8" cy="90.2" rx="1.2" ry="1.3"/>
							</g>
							<g>
								<ellipse class="st2" cx="423" cy="67.2" rx="1.4" ry="1.4"/>
								<ellipse class="st2" cx="405.3" cy="92" rx="1.3" ry="1.3"/>
								<path class="st2" d="M408.3,98.3c0,0.6-0.4,1-1,1s-1-0.4-1-1s0.4-1,1-1C407.9,97.2,408.3,97.7,408.3,98.3z"/>
								<ellipse class="st2" cx="410.9" cy="79.1" rx="1.2" ry="1.3"/>
								<path class="st2" d="M406,64.9c0,1-0.8,1.7-1.7,1.7c-0.9,0-1.7-0.8-1.7-1.7c0-1,0.8-1.7,1.7-1.7
									C405.3,63.1,406,63.9,406,64.9z"/>
							</g>
							<path class="st3" d="M399.2,65.8c0,0,4.7-2.4,7.4,0.8c2.7,3.3,5.9,3.7,8.8,1.3c2.9-2.4,9-8.9,17.4-2.6"/>
						</g>
						<path class="st4" d="M426,104.4l-22.6-0.1l-5.7-48.4l37.2,1.6L426,104.4z M404.3,103.3l20.9,0.1l8.6-45l-35-1.5L404.3,103.3z"
							/>
						<polygon class="st2" points="395.4,57.4 400.5,47.7 433.2,47.7 437.2,57.9 						"/>
					</g>
					<g>
						<path class="st7" d="M406.1,81.4c0.4-0.6,0.8-1.2,1.1-1.6c1.1-1.1,1.5-3,1.3-4c-0.2-1-1.4-0.6-1.4-0.6s0.6-1.3,0-2.2
							c-0.4-0.7-1.6-0.5-3.1-0.2c0.8-0.8,1.5-1.6,1.9-2.1c1.3-1.9-0.6-3.5-3.2-1.2s-7,5.6-6.9,10.1c0.1,4.6,2.7,10.9,5.2,10.6
							s6.6-6,6.5-7.9C407.5,81.4,406.9,81.2,406.1,81.4z"/>
						<path class="st4" d="M400.9,90.7c-0.6,0-1.1-0.3-1.7-0.8c-2-1.7-3.7-6.5-3.8-10.4c-0.1-4.3,3.5-7.4,6.1-9.7
							c0.3-0.3,0.6-0.6,0.9-0.8c1.7-1.5,3.2-1.5,3.9-0.8c0.6,0.5,0.8,1.6,0,2.7c-1.4,1.9-5.8,6-6,6.1l-0.6-0.8c0,0,4.6-4.2,5.9-6
							c0.4-0.6,0.5-1.1,0.2-1.3c-0.3-0.3-1.3-0.3-2.6,0.8c-0.3,0.3-0.6,0.5-0.9,0.8c-2.5,2.2-5.9,5.1-5.8,8.9
							c0.1,3.6,1.7,8.1,3.5,9.6c0.4,0.4,0.8,0.6,1.2,0.5c2.3-0.3,6.2-5.8,6-7.4c0-0.4-0.2-0.5-0.3-0.5c-0.6-0.2-2.1,0.5-3.7,2
							l-0.7-0.7c1.4-1.3,3.5-2.7,4.7-2.2c0.3,0.1,0.8,0.4,0.9,1.4c0.2,2.2-4.2,8.1-6.9,8.5C401.1,90.7,401,90.7,400.9,90.7z"/>
						<path class="st3" d="M403.4,73.5c0,0,3.2-1.8,4.1,0c1,1.8-5.8,6.1-5.8,6.1"/>
						<path class="st3" d="M404.7,82c0,0,2.9-2.4,3.8-4.1c0.8-1.7,0-3.3-2.1-1.9"/>
					</g>
				</g>
				<g>
					<g>
						<g>
							<path class="st6" d="M521.2,351.9l-5.2-21.3l-13.2,4.4l9,23.4C511.9,358.3,521.5,353,521.2,351.9z"/>
							<line class="st3" x1="513.8" y1="357.2" x2="505.9" y2="333.9"/>
							<line class="st3" x1="517.1" y1="355.2" x2="509.9" y2="332.6"/>
							<line class="st3" x1="519.7" y1="353.5" x2="513.2" y2="331.5"/>
						</g>
						<g>
							<path class="st2" d="M532.3,370l-8.9-18.8c0,0-0.1-1.6-4.2,0.5c-4.1,2.1-10.7,5.1-11,5.7c-0.3,0.6,2.2,6.4,2.2,6.4l-8,15.7
								c0,0-4.6,1-5.7,2s0.7,2.9,3.5,3.7c2.8,0.8,3.6,1,4.1,0.9c6-1.1,27.7-13.9,27.7-13.9S532.7,371,532.3,370z"/>
							<path class="st14" d="M525.6,365.3c0.5,3.1-1.5,6-4.5,6.5c-3,0.5-5.8-1.6-6.3-4.6c-0.5-3.1,1.5-6,4.5-6.5
								C522.3,360.2,525.1,362.2,525.6,365.3z"/>
						</g>
					</g>
					<g>
						<path class="st2" d="M504.9,342.8c0,0-26.4-53.4-28.9-78.5c-2.5-25.1-5.6-39-5.6-39l34.6-9.8c0,0,2.2,47.1,6.7,74.9
							c4.5,27.8,6.5,43.1,9,48.9C523.1,345,504.9,342.8,504.9,342.8z"/>
						<g>
							<path class="st7" d="M527.1,340.8c0.4,1.6-0.5,3.3-2.1,3.7l-21.4,5.9c-1.5,0.4-3.2-0.5-3.6-2.1l-1-3.9
								c-0.4-1.6,0.5-3.3,2.1-3.7l21.4-5.9c1.5-0.4,3.2,0.5,3.6,2.1L527.1,340.8z"/>
							<path class="st3" d="M527.1,340.8c0.4,1.6-0.5,3.3-2.1,3.7l-21.4,5.9c-1.5,0.4-3.2-0.5-3.6-2.1l-1-3.9
								c-0.4-1.6,0.5-3.3,2.1-3.7l21.4-5.9c1.5-0.4,3.2,0.5,3.6,2.1L527.1,340.8z"/>
						</g>
					</g>
				</g>
				<g>
					<g>
						<g>
							<path class="st6" d="M447.2,361.9l2.4-22.4l-14.2-0.6l0.6,25.8C436,364.6,447.1,363.1,447.2,361.9z"/>
							<line class="st3" x1="437.9" y1="364.4" x2="438.1" y2="339"/>
							<line class="st3" x1="440.9" y1="363.8" x2="441.8" y2="339.1"/>
							<line class="st3" x1="444.2" y1="363.2" x2="445.9" y2="339.5"/>
						</g>
						<g>
							<path class="st2" d="M449.5,381.8l1.4-19.4c0,0,0-1.3-3.7-1.9c-3.8-0.7-13.2-2.1-13.8-1c-0.2,0.4-1.2,5.8-2.3,7.6
								c-1.1,1.8-6.8,7.5-11.3,10.3c-4.5,2.8-9.3,5.3-9.3,6.8c0,1.5,4.3,2.1,7.7,2.1c3.4,0,29.2-1.1,29.2-1.1
								S449.3,384.8,449.5,381.8z"/>
							<ellipse class="st14" cx="440.2" cy="372.1" rx="5.6" ry="5.8"/>
						</g>
					</g>
					<g>
						<path class="st2" d="M432.9,346.5c0,0-6.2-39,0-69.4c6.2-30.4,20-64.5,23.3-70.3c3.4-5.8,44.4,17.4,44.4,17.4s3.4,3.5,0,11.3
							s-30,46.8-40.8,76.3c-7.5,20.6-9.7,36.3-9.7,36.3S433.4,349.9,432.9,346.5z"/>
						<g>
							<path class="st7" d="M456.4,350.5c0,1.6-1.4,3-3,3l-22.1-0.4c-1.6,0-2.9-1.4-2.9-3l0.1-4.1c0-1.6,1.4-3,3-3l22.1,0.4
								c1.6,0,2.9,1.4,2.9,3L456.4,350.5z"/>
							<path class="st3" d="M456.4,350.5c0,1.6-1.4,3-3,3l-22.1-0.4c-1.6,0-2.9-1.4-2.9-3l0.1-4.1c0-1.6,1.4-3,3-3l22.1,0.4
								c1.6,0,2.9,1.4,2.9,3L456.4,350.5z"/>
						</g>
					</g>
				</g>
			</g>
			<path class="st17" d="M514.1,192.2l-8.3,40.3c0,0-38.2-8-55.5-22.3c0,0-3.2-32.5,40.9-68.8l16.9,3.7
				C508,145.1,519.2,169.7,514.1,192.2z"/>
			<g>
				<path class="st7" d="M434.8,161.3c-8.4,10.8-14.1,23.8-16,38.1c-6.4,46.3,28.2,89.6,77.2,96.7c44.8,6.6,86.2-19.4,97.8-59.2
					L434.8,161.3z"/>
				<g>
					<g>
						<path class="st18" d="M494.2,189.6c8.7,4.1,8.3,8.2,6.5,11c-1.9,2.8-25.5,10-38.8,10c-13.3,0-18.8,1.1-19.6-12.8
							c-0.8-13.9,7.8-29.2,7.8-29.2L494.2,189.6z"/>
						<path class="st3" d="M450.1,168.6c0,0-8.7,15.3-7.8,29.2c0.8,13.9,6.3,12.8,19.6,12.8c13.3,0,36.9-7.2,38.8-10
							c1.9-2.8,2.3-6.8-6.5-11"/>
					</g>
					<g>
						<path class="st18" d="M579.4,230.2c-0.3,5.7-7.5,22.5-19.3,21c-11.8-1.5-30.1-39.3-30.1-39.3s-0.8-5.6,4.2-3.3L579.4,230.2z"
							/>
						<path class="st3" d="M579.4,230.2c-0.3,5.7-7.5,22.5-19.3,21c-11.8-1.5-30.1-39.3-30.1-39.3s-0.8-5.6,4.2-3.3"/>
					</g>
					<g>
						<path class="st18" d="M503.4,208.6c0,0,4.2,2.6,0,13c-4.2,10.4-14.5,39-21.9,40.5c-7.4,1.5-22.3-6.4-28.5-19.5
							s6.3-21.3,18.1-26.6C483,210.8,500.7,206.7,503.4,208.6z"/>
						<path class="st3" d="M503.4,208.6c0,0,4.2,2.6,0,13c-4.2,10.4-14.5,39-21.9,40.5c-7.4,1.5-22.3-6.4-28.5-19.5
							s6.3-21.3,18.1-26.6C483,210.8,500.7,206.7,503.4,208.6z"/>
					</g>
					<g>
						<path class="st18" d="M512.5,216.1c0,0-10.7,31.8-12.4,41.8c-1.7,10-1,19.7,13.9,20.2c15,0.4,27-3,28-12.4
							c1-9.3-16.2-49.8-18.8-51.2C520.6,213,513.7,212.5,512.5,216.1z"/>
						<path class="st3" d="M512.5,216.1c0,0-10.7,31.8-12.4,41.8c-1.7,10-1,19.7,13.9,20.2c15,0.4,27-3,28-12.4
							c1-9.3-16.2-49.8-18.8-51.2C520.6,213,513.7,212.5,512.5,216.1z"/>
					</g>
				</g>
				<g>
					<path class="st18" d="M585.3,233c-10.2,34.7-46.2,57.3-85.3,51.6c-42.7-6.3-72.8-44-67.3-84.3c1.7-12.5,6.7-23.8,14-33.2
						l-11.9-5.7c0,0-9.2,11.6-12.8,24.2c-3.6,12.5-5.2,27.9-3.1,36.5c2.1,8.6,4.1,21.9,12.2,32.7c8.1,10.8,13.7,20,30,29.1
						c16.2,9.1,27.5,12.4,42.2,13.4s28.6-2.3,36.8-5.1c8.2-2.8,20.2-9,26.7-14.8c6.4-5.8,12.8-10.5,18.1-20.3
						c5.3-9.9,8.1-17.2,8.1-17.2l0.9-2.8L585.3,233z"/>
					<path class="st3" d="M446.7,167.1c-7.3,9.4-12.3,20.7-14,33.2c-5.6,40.3,24.5,78.1,67.3,84.3c39.1,5.7,75.1-16.9,85.3-51.6"/>
					<path class="st3" d="M523.2,204.1c-1.2,3.8-4.7,6.5-8.8,6.5c-5.1,0-9.3-4.3-9.3-9.5c0-2,0.6-3.9,1.6-5.4"/>
				</g>
				<path class="st4" d="M509.7,297.7c-4.6,0-9.2-0.3-13.8-1c-49.2-7.2-84-50.8-77.6-97.3c1.9-13.9,7.5-27.2,16.1-38.3l0.2-0.3
					l0.3,0.2l159.3,75.8l-0.1,0.4c-5.7,19.5-18.7,36.3-36.7,47.3C543.2,293.1,526.7,297.7,509.7,297.7z M434.9,162
					c-8.4,11-13.8,23.9-15.7,37.5c-6.3,45.9,28.1,89,76.7,96.2c4.5,0.7,9.1,1,13.6,1c38.4,0,73-23.8,83.6-59.4L434.9,162z"/>
			</g>
			<g>
				<g>
					<path class="st7" d="M523.2,238.1c0,0-2,10.7-4.6,15.4c-2.6,4.7-5.9,9.5-4.1,10.1c1.7,0.5,5.8-5.5,5.8-5.5s-3.2,8-4,10.8
						s-0.6,4.8,0.5,4.7c0.4,0,1.2-1.2,2.1-2.9c-0.3,1.7-0.5,3.5,0.2,3.9c1.2,0.6,1.7,0,2.6-1.7c0.9-1.6,0.3,0.9,0.6,1.5
						c0.4,0.6,1.2,0.9,2-0.5c0.4-0.6,1-1.6,1.7-2.5c-0.3,1.9,0.2,2.5,0.7,2.1c0.7-0.5,3-4.8,5.1-11.5c2.1-6.7,4.2-22.1,4.2-22.1
						L523.2,238.1z"/>
					<path class="st3" d="M522.7,261.8c-1.2,3.7-4.7,11.7-5.9,11.8c-1.2,0.1-1.3-1.8-0.5-4.7s4-10.8,4-10.8s-4.1,6.1-5.8,5.5
						c-1.7-0.5,1.5-5.4,4.1-10.1c2.6-4.7,4.6-15.4,4.6-15.4L536,240c0,0-2.1,15.4-4.2,22.1c-2.1,6.7-4.3,11-5.1,11.5
						c-0.7,0.5-1.4-0.8,0-4.8c1.4-4,1.6-5.5,1.6-5.5"/>
					<path class="st3" d="M519.4,269.8c0,0-1.4,4.6,0,5s3.3-3.5,4.2-5.9c0.9-2.4,2.3-6.8,2.3-6.8"/>
					<path class="st3" d="M522.1,272.1c0,0-0.7,2.6,1.1,2.8c1.7,0.2,2.9-4.3,3.6-6.5"/>
				</g>
				<g>
					<path class="st7" d="M497.3,178.5c0,0,18.3,14.5,20.7,34.3c2.3,19.7,2.5,26,4,26.9c1.5,0.9,12.6,3.9,14.3,2.8
						c1.7-1.1,10.1-25,5.5-47.2c-4.6-22.2-14.3-43.9-40.5-52.3L497.3,178.5z"/>
					<path class="st8" d="M519.8,229.6c0,0,9-0.7,20.4,2.6c0,0-2.1,8.1-3.3,9.5s-3,1.1-4.5,0.8c-1.5-0.3-10.3-1.4-10.9-3.4
						C520.8,237,519.8,229.6,519.8,229.6z"/>
					<path class="st19" d="M497.3,178.5c0,0,18.3,14.5,20.7,34.3c2.3,19.7,2.5,26,4,26.9c1.5,0.9,12.6,3.9,14.3,2.8
						c1.7-1.1,10.1-25,5.5-47.2c-4.6-22.2-14.3-43.9-40.5-52.3"/>
					<path class="st19" d="M519.8,229.6c0,0,9-0.7,20.4,2.6"/>
				</g>
			</g>
			<g>
				<g>
					<polygon class="st11" points="484.3,109.7 480.1,107.7 485.4,103 					"/>
					<path class="st17" d="M498.4,89.4l8.2,1.7c5.5,1.1,8.9,7.2,7.7,13.6l-2.5,13.1c-0.1,0.4-0.2,0.7-0.3,1.1c0,0.4,0,0.8-0.1,1.2
						l-1.5,8l-0.1,0.4l-1.5,8c-0.6,2.9-3.3,4.8-6.1,4.2l-3.3-0.7c-2.8-0.6-4.7-3.4-4.1-6.3l1.4-7.1l-4.8-1
						c-5.5-1.1-8.9-7.2-7.7-13.6l2.5-13.1C487.4,92.6,492.9,88.3,498.4,89.4z"/>
					<g>
						<path class="st4" d="M494.5,107.3c0,1.1-0.9,1.9-1.9,1.9c-1,0-1.8-0.9-1.8-2c0-1.1,0.9-1.9,1.9-1.9
							C493.8,105.3,494.6,106.2,494.5,107.3z"/>
						<path class="st13" d="M503.6,115.6c-0.1,3.1-2.6,5.5-5.6,5.4c-3-0.1-5.3-2.7-5.2-5.8s2.6-5.5,5.6-5.4
							C501.4,109.9,503.7,112.5,503.6,115.6z"/>
						<path class="st3" d="M484,118.6c0,0,2.5,1.6,5.2-1.2"/>
					</g>
					<path class="st4" d="M505.7,97.7c0,0-14.8,0.1-17.9-8.4c-3.1-8.4,4.7-13,12-10.5c0,0-1.2-5.4,5.9-5.6c7-0.2,9.9,8.9,9.9,8.9
						s13.9,1.9,16.5,16.9c2.5,15-5.1,23.8-11,27c-5.9,3.2-11.4,2.4-11.4,2.4l4.2-14.6C513.8,114,503.1,109.3,505.7,97.7z"/>
					<g>
						<path class="st15" d="M522.4,118.5c-0.7,3.7-4.2,6.1-7.8,5.4c-3.6-0.7-6-4.3-5.3-8c0.7-3.7,4.2-6.1,7.8-5.4
							C520.8,111.2,523.2,114.8,522.4,118.5z"/>
						<g>
							<g>
								<path class="st10" d="M512.8,117.5c0.1-0.6,0.3-1.2,0.6-1.7c0.8-1.3,2.2-1.4,3.6-1c0.8,0.3,1.2-1.1,0.4-1.3
									c-1.7-0.5-3.5-0.4-4.7,1.1c-0.6,0.7-1,1.6-1.1,2.5C511.4,118,512.7,118.4,512.8,117.5L512.8,117.5z"/>
							</g>
						</g>
					</g>
				</g>
				<g>
					<path class="st8" d="M512.1,145.6c-0.5,2.7-3.1,4.5-5.7,4l-15.2-3c-2.6-0.5-4.4-3.2-3.8-5.9l0.6-3.4c0.5-2.7,3.1-4.5,5.7-4
						l15.2,3c2.6,0.5,4.4,3.2,3.8,5.9L512.1,145.6z"/>
					<path class="st3" d="M512.1,145.6c-0.5,2.7-3.1,4.5-5.7,4l-15.2-3c-2.6-0.5-4.4-3.2-3.8-5.9l0.6-3.4c0.5-2.7,3.1-4.5,5.7-4
						l15.2,3c2.6,0.5,4.4,3.2,3.8,5.9L512.1,145.6z"/>
				</g>
			</g>
		</g>
		<g>
			<path class="st2" d="M145.7,208.2c0,0,20.2,5.9,35.9,5.7c15.7-0.2,20.1-14.6,22-24.6c1.9-9.9,1.8-31.7-3.8-43.8
				c-3.7-8-13.5-10.9-19.4-12.2s-30.9,3.3-37.3,22.5C136.9,175,134.3,200.5,145.7,208.2z"/>
			<g>
				<g>
					<g>
						<g>
							<path class="st6" d="M218.8,360.5l-9.9-20.1l13.1-5.7l8.3,24.3C230.2,359,219.3,361.6,218.8,360.5z"/>
						</g>
						<g>
							<path class="st2" d="M222.2,379.9l-6-18.5c0,0-0.3-1.3,3.1-2.8c3.6-1.6,12.3-5.4,13.2-4.5c0.3,0.3,2.5,5.3,4.1,6.8
								c1.5,1.5,8.4,5.5,13.4,7.1c5,1.6,10.3,2.8,10.7,4.2c0.4,1.4-3.6,3.1-6.9,4c-3.3,0.9-28.5,6.3-28.5,6.3
								S223.1,382.8,222.2,379.9z"/>
							<g>
								<g>
									<g>
										<path class="st4" d="M229.1,363.1c2.8-1.4,5.6-2.8,8.4-4.2c1.4-0.7,0.2-2.7-1.2-2.1c-2.8,1.4-5.6,2.8-8.4,4.2
											C226.6,361.7,227.7,363.7,229.1,363.1L229.1,363.1z"/>
									</g>
								</g>
								<g>
									<g>
										<path class="st4" d="M234.4,368.9c2.3-1.6,4.5-3.2,6.8-4.9c1.2-0.9,0.1-3-1.2-2.1c-2.3,1.6-4.5,3.2-6.8,4.9
											C232.1,367.7,233.2,369.7,234.4,368.9L234.4,368.9z"/>
									</g>
								</g>
								<g>
									<g>
										<path class="st4" d="M241.3,374.1c2.1-2.4,4.3-4.7,6.4-7.1c1-1.1-0.6-2.8-1.6-1.7c-2.1,2.4-4.3,4.7-6.4,7.1
											C238.7,373.5,240.3,375.2,241.3,374.1L241.3,374.1z"/>
									</g>
								</g>
							</g>
							<path class="st9" d="M227.9,373.4c-2,0.2-6.1-2.3-6.3-4.9s5.5,0.1,5.5,0.1s0.3-3.9,1.9-3.8
								C230.6,365,230.8,373.1,227.9,373.4z"/>
						</g>
					</g>
					<g>
						<path class="st2" d="M162.9,219.4l36.7,129.6c0,0,35.8-14.2,42.8-21.4l-52.5-124C190,203.7,159.4,208,162.9,219.4z"/>
						<g>
							<line class="st3" x1="212.7" y1="343.6" x2="166.9" y2="210.9"/>
							<line class="st3" x1="227" y1="337.1" x2="180.6" y2="205.6"/>
						</g>
					</g>
				</g>
				<g>
					<g>
						<g>
							<path class="st6" d="M133.2,359.9l1.8-22.5l14,2.1l-5.3,25.2C143.7,364.8,133.1,361.1,133.2,359.9z"/>
						</g>
						<g>
							<path class="st2" d="M125,380.2l5.9-20.6c0,0-0.2-1.6,4.3-0.2c4.5,1.4,11.6,3.4,12,3.9s-1.2,6.9-1.2,6.9l10.7,14.5
								c0,0,4.8,0.2,6.1,1c1.2,0.8-0.3,3.1-2.9,4.3c-2.7,1.2-3.5,1.6-4.1,1.6c-6.2-0.1-30.3-9.2-30.3-9.2S124.7,381.3,125,380.2z"/>
							<g>
								<g>
									<g>
										<path class="st4" d="M141.9,368.6c2.4,0.2,4.8,0.5,7.3,0.7c1.5,0.1,1.5-2.3,0-2.4c-2.4-0.2-4.8-0.5-7.3-0.7
											C140.4,366.1,140.5,368.5,141.9,368.6L141.9,368.6z"/>
									</g>
								</g>
								<g>
									<g>
										<path class="st4" d="M143.1,376.9c2.6-0.5,5.3-1,7.9-1.5c1.5-0.3,0.8-2.6-0.6-2.3c-2.6,0.5-5.3,1-7.9,1.5
											C141,374.9,141.6,377.2,143.1,376.9L143.1,376.9z"/>
									</g>
								</g>
								<g>
									<g>
										<path class="st4" d="M147.6,383c2.3-0.8,4.5-1.5,6.8-2.3c1.4-0.5,0.8-2.8-0.6-2.3c-2.3,0.8-4.5,1.5-6.8,2.3
											C145.6,381.2,146.2,383.5,147.6,383L147.6,383z"/>
									</g>
								</g>
							</g>
							<path class="st9" d="M133.4,377.3c-1.6-1.2-3.3-5.8-1.8-8c1.5-2.2,4.1,3.7,4.1,3.7s2.7-2.8,3.8-1.6
								C140.7,372.7,135.8,379,133.4,377.3z"/>
						</g>
					</g>
					<g>
						<path class="st2" d="M145.6,202.4c0,0-15.3,64.3-18.7,89.4c-3.4,25.2-4.8,50.9-4.8,50.9s18.7,13.6,47.4,8.4l13.3-147.2
							C182.8,203.9,148.2,197.2,145.6,202.4z"/>
						<g>
							<line class="st3" x1="136.5" y1="349.1" x2="158.4" y2="200.8"/>
							<line class="st3" x1="152.5" y1="352.2" x2="172.8" y2="202.2"/>
						</g>
					</g>
				</g>
			</g>
			<g>
				<path class="st14" d="M211.3,140.7c0,0-6.1-16.2-5.1-26.2c1-9.9,8.4-12.6,12.2-6.8c3.8,5.8,3.8,22.3,3.8,22.3
					s5.1-22.9,13.5-22.1c8.4,0.8,9.6,5.8,1.3,22.1c0,0,6.6-9.8,13.3-5.4c6.7,4.3-7.9,14.3-7.9,14.3s14.2-9,19-5.4
					c4.8,3.6,2.1,10.3-9.7,15.3c0,0,22.3-6.5,24.9,3.3c2.5,9.8-13.5,11.9-34.2,16C221.8,172.2,213.8,148.6,211.3,140.7z"/>
				<g>
					<path class="st9" d="M162.9,237.3c0,0-11.6-5.9-11.3-23.4c0.3-17.5,4.6-49.4,18.4-63.8s31.6-19.5,49.9-9.4s31,25.6,30.4,42.8
						s-14.6,28-30.4,39.4C204.1,234.2,180.3,246.2,162.9,237.3z"/>
					<path class="st5" d="M176.5,183.4c0,0,7.6,6.8,21.4-4.6c13.8-11.4,16.8-22.9,14.3-29.5s-18.1-15-29.9-1
						C170.5,162.3,170.7,178.2,176.5,183.4z"/>
					<g>
						<path class="st2" d="M195.9,151.9c-1.5,1.9-3.4,2.9-4.2,2.2c-0.9-0.7-0.3-2.8,1.1-4.7s3.4-2.9,4.2-2.2
							C197.9,147.9,197.4,150,195.9,151.9z"/>
						<path class="st2" d="M176.2,157.1c-1.5,1.9-3.4,2.9-4.2,2.2c-0.9-0.7-0.3-2.8,1.1-4.7s3.4-2.9,4.2-2.2
							C178.2,153.1,177.7,155.2,176.2,157.1z"/>
						
							<ellipse transform="matrix(0.6104 -0.7921 0.7921 0.6104 -56.3051 214.3122)" class="st2" cx="189.7" cy="164.4" rx="4.4" ry="2"/>
						<path class="st2" d="M189.8,184.5c-1.2,2.1-2.9,3.4-3.9,2.8c-1-0.6-0.8-2.7,0.4-4.9s2.9-3.4,3.9-2.8
							C191.2,180.2,191,182.3,189.8,184.5z"/>
						<path class="st2" d="M175.2,181.2c-1.3,2.1-3.1,3.2-4,2.6c-0.9-0.6-0.6-2.8,0.7-4.8c1.3-2.1,3.1-3.2,4-2.6
							C176.8,177,176.5,179.2,175.2,181.2z"/>
						<path class="st2" d="M211.6,180.1c-1.5,1.9-3.4,2.9-4.2,2.2c-0.9-0.7-0.3-2.8,1.1-4.7c1.5-1.9,3.4-2.9,4.2-2.2
							C213.6,176.1,213.1,178.2,211.6,180.1z"/>
						
							<ellipse transform="matrix(0.6104 -0.7921 0.7921 0.6104 -54.5833 225.1818)" class="st2" cx="201.6" cy="168.1" rx="4.4" ry="2"/>
						<path class="st2" d="M221,162.4c-1.5,1.9-3.4,2.9-4.2,2.2c-0.9-0.7-0.3-2.8,1.1-4.7c1.5-1.9,3.4-2.9,4.2-2.2
							C223,158.4,222.5,160.5,221,162.4z"/>
						<path class="st2" d="M234.9,176.1c-1.5,1.9-3.4,2.9-4.2,2.2c-0.9-0.7-0.3-2.8,1.1-4.7c1.5-1.9,3.4-2.9,4.2-2.2
							C236.9,172.1,236.4,174.2,234.9,176.1z"/>
						<path class="st2" d="M203.2,200.7c-1.5,1.9-3.4,2.9-4.2,2.2s-0.3-2.8,1.1-4.7s3.4-2.9,4.2-2.2
							C205.2,196.6,204.6,198.7,203.2,200.7z"/>
						<path class="st2" d="M203.6,219.6c-2,1.4-4.1,1.8-4.7,0.8c-0.6-0.9,0.4-2.8,2.4-4.2c2-1.4,4.1-1.8,4.7-0.8
							C206.6,216.4,205.5,218.3,203.6,219.6z"/>
						
							<ellipse transform="matrix(0.6914 -0.7225 0.7225 0.6914 -109.2692 204.4984)" class="st2" cx="184.7" cy="230.1" rx="4.4" ry="2"/>
						
							<ellipse transform="matrix(0.6104 -0.7921 0.7921 0.6104 -99.5623 225.3236)" class="st2" cx="179.3" cy="213.9" rx="4.4" ry="2"/>
						<path class="st2" d="M182.8,198.9c-1.3,2.1-3.1,3.2-4,2.6c-0.9-0.6-0.6-2.8,0.7-4.8c1.3-2.1,3.1-3.2,4-2.6
							C184.3,194.7,184,196.9,182.8,198.9z"/>
						<path class="st2" d="M162.3,187c-0.9,2.3-2.4,3.8-3.4,3.4c-1-0.4-1.1-2.6-0.3-4.9c0.9-2.3,2.4-3.8,3.4-3.4
							C163.1,182.5,163.2,184.7,162.3,187z"/>
						<path class="st2" d="M168,200.2c-0.9,2.3-2.4,3.8-3.4,3.4s-1.1-2.6-0.3-4.9c0.9-2.3,2.4-3.8,3.4-3.4
							C168.7,195.8,168.8,197.9,168,200.2z"/>
						<path class="st2" d="M221.3,195.7c-1.7,1.7-3.7,2.5-4.5,1.7c-0.8-0.8,0-2.9,1.6-4.6c1.7-1.7,3.7-2.5,4.5-1.7
							C223.7,191.9,223,194,221.3,195.7z"/>
						<path class="st2" d="M224.6,210.1c-2,1.3-4.1,1.6-4.7,0.7c-0.6-1,0.5-2.8,2.5-4.1c2-1.3,4.1-1.6,4.7-0.7
							C227.7,207,226.6,208.8,224.6,210.1z"/>
					</g>
				</g>
			</g>
			<g>
				<g>
					<g>
						<path class="st15" d="M169.4,232.6c-2.9-2.5-14.8-13-13.1-15.8c1.6-2.8,6.1-4.7,6.1-4.7s8.8,5.2,11,6.9c2.2,1.7,3.2,2.8,2,3.1
							c-1.2,0.3-5.2-1.6-5.2-1.6s7.7,7.5,7.5,8.8c-0.2,1.2-0.8,1.3-5.1-2.6c1.1,1.1,2.3,2.4,2.8,3.2c0.9,1.5,1.2,1.6,0.8,2
							c-0.4,0.4-2.5-1.2-3.1-1.7c-0.5-0.5,0.2,0.3,0.7,0.9c0.4,0.5,1.5,1.9,1.4,2.3c-0.1,0.4-1,0.1-1.5-0.3
							c-0.6-0.4-2.6-2.1-2.6-2.1l0,0c1.4,1.4,2.6,2.9,2.4,3.4C173,235.2,172.3,235,169.4,232.6z"/>
						<path class="st19" d="M171.2,225.4c5.6,5.1,6.3,5.2,6.5,3.9c0.2-1.4-7.5-8.8-7.5-8.8s4.1,1.9,5.2,1.6c1.2-0.3,0.2-1.4-2-3.1
							s-11-6.9-11-6.9s-4.5,1.9-6.1,4.7c-1.6,2.8,10.3,13.3,13.1,15.8c2.9,2.5,3.6,2.6,4,1.7c0.4-0.9-3.4-4.3-4.9-6"/>
						<path class="st19" d="M169.5,227c0,0,5.4,5.2,6.5,5c1.2-0.2-0.9-2.4-3-4.9"/>
						<path class="st19" d="M170,229.8c0,0,3.7,3.8,4.9,3.8s-1.1-2.8-2.7-4.2"/>
					</g>
					<g>
						<path class="st7" d="M162.5,145.7c2.7,8.8-3.2,14.9-9.1,19.7s-7.3,11-6.3,19.7c1,8.7,11.4,19.7,14.5,23.1
							c3.1,3.5,2.2,9.7-5.1,11.3c-7.3,1.6-21.5-9.4-31.5-25.2s-9-26,4.5-43.2s38.8-18.4,38.8-18.4L162.5,145.7z"/>
						<path class="st18" d="M142.3,213.9c0,0,9.4-5.5,14.2-11.4c0,0,5.6,5.7,6.1,7.5c0.5,1.8,1,7.1-3.2,8.4
							C155.3,219.5,151.7,221.4,142.3,213.9z"/>
						<path class="st3" d="M168.2,132.7c0,0-25.3,1.2-38.8,18.4s-14.5,27.5-4.5,43.2c10,15.8,24.2,26.7,31.5,25.2
							c7.3-1.6,8.2-7.8,5.1-11.3c-3.1-3.5-13.5-14.5-14.5-23.1s0.4-14.9,6.3-19.7c5.9-4.8,11.8-10.8,9.1-19.7"/>
						<path class="st3" d="M142.3,213.9c0,0,9.4-5.5,14.2-11.4"/>
					</g>
				</g>
				<g>
					<path class="st15" d="M251.1,187.3c-4.3-1.9-9.8-2.6-9.8-0.9c0,0.3,0.3,0.7,0.7,1c-0.6,0.1-1.1,0.4-1.5,0.8
						c-0.8,0.8,0.1,2.4,0.1,2.4s-0.8-0.2-1.3,0.9c-0.3,0.6,0.5,1.5,1.2,2.1c-0.6-0.1-1.1-0.1-1.3,0c-0.8,0.8-0.8,2.7,4.8,4.8
						c5.6,2.1,8.3,0.4,9.3-1.5C254.2,195.1,255.4,189.3,251.1,187.3z"/>
					<path class="st3" d="M247.8,196.1c0,0-7.7-3.2-8.6-2.4s-0.8,2.7,4.8,4.8s8.3,0.4,9.3-1.5c1-1.8,2.1-7.6-2.2-9.6
						c-4.3-2-9.8-2.6-9.8-0.9c0,1.7,7.1,3.7,7.1,3.7"/>
					<path class="st3" d="M241.1,193.7c0,0-2-1-1.8-2.3c0.2-1.3,3-0.8,9.2,1.9"/>
					<path class="st3" d="M240.9,190.8c0,0-2.7-3.1,1.6-3"/>
				</g>
			</g>
			<g>
				<path class="st4" d="M162,98.1c0,0-9.9,3.8-15.1,12.4c-5.2,8.5,0.9,16.6,5,18.1c4.2,1.5,13.9,2.6,18.6-1
					c4.7-3.7,3-25.8,1.5-28.8C170.4,95.6,163,97.2,162,98.1z"/>
				<ellipse class="st16" cx="175.7" cy="133.5" rx="8.9" ry="5.4"/>
				<path class="st17" d="M186.7,88.1h-7.8c-5.2,0-9.5,5-9.5,11.1v12.5c0,0.4,0,0.7,0,1c-0.1,0.4-0.1,0.8-0.1,1.1v7.6v0.4v7.6
					c0,2.8,2.2,5,4.9,5h3.1c2.7,0,4.9-2.3,4.9-5v-6.7h4.5c5.2,0,9.5-5,9.5-11.1V99.2C196.2,93.1,191.9,88.1,186.7,88.1z"/>
				<g>
					<path class="st4" d="M168.7,104.8c0,0,7.7-2.6,10-7.7c2.3-5.1,1.7-6.2,1.7-6.2s4.3,6.1,11.2,7.6c5.7,1.2,5.4,0.4,6-1
						c0.5-1.2,0.9-9.9-7.7-15.2c-8.6-5.3-17.8-4.8-24.2,1.8c-6.4,6.6-5.6,17-3.5,19.6C164.4,106.4,167.3,107.9,168.7,104.8z"/>
					<path class="st4" d="M174.3,77.1c0,7.4-5.8,13.3-13,13.3c-7.2,0-13-6-13-13.3s5.8-13.3,13-13.3
						C168.5,63.8,174.3,69.7,174.3,77.1z"/>
				</g>
				<g>
					<path class="st15" d="M159.5,107.9c0,3.5,2.8,6.4,6.2,6.4s6.2-2.9,6.2-6.4s-2.8-6.4-6.2-6.4
						C162.3,101.5,159.5,104.3,159.5,107.9z"/>
					<g>
						<g>
							<path class="st10" d="M169.8,108.7c0-0.9-0.2-1.8-0.5-2.6c-0.8-1.6-2.5-2.1-4.2-2c-0.8,0.1-0.9,1.5,0,1.4
								c1.3-0.1,2.5,0.1,3.1,1.5c0.2,0.5,0.3,1.1,0.3,1.7C168.4,109.6,169.7,109.6,169.8,108.7L169.8,108.7z"/>
						</g>
					</g>
				</g>
				<g>
					<g>
						<ellipse class="st12" cx="182.3" cy="103.3" rx="1.8" ry="1.8"/>
						<path class="st12" d="M192.1,103c0,0.9,0.7,1.6,1.5,1.6c0.8,0,1.5-0.7,1.5-1.6c0-0.9-0.7-1.6-1.5-1.6
							C192.7,101.5,192.1,102.2,192.1,103z"/>
					</g>
					<g>
						<path class="st20" d="M190.4,110.5c0,0-0.9,2.7-2.8,2.9c-1.9,0.2-3.4-2-3.5-3.6L190.4,110.5z"/>
						<g>
							<path class="st12" d="M189.9,110.3c-0.3,0.8-0.8,1.7-1.5,2.1c-1.8,1.1-3.5-1.1-3.6-2.8c-0.2,0.2-0.4,0.4-0.5,0.6
								c2.1,0.3,4.1,0.5,6.2,0.8c0.7,0.1,0.7-1,0-1.1c-2.1-0.3-4.1-0.5-6.2-0.8c-0.3,0-0.6,0.3-0.5,0.6c0.2,2.1,1.8,4.5,4.1,4.2
								c1.6-0.2,2.7-1.8,3.1-3.2C191.1,109.9,190.1,109.6,189.9,110.3z"/>
						</g>
					</g>
					<g>
						<path class="st13" d="M174.3,110c0,2.5,2,4.5,4.4,4.5c2.4,0,4.4-2,4.4-4.5s-2-4.5-4.4-4.5C176.3,105.5,174.3,107.5,174.3,110z
							"/>
						<path class="st13" d="M195,106.9c0.3,0,0.5,0,0.8,0.1v4.7c0,0.7,0,1.4-0.2,2c-0.2,0-0.4,0.1-0.6,0.1c-1.8,0-3.3-1.5-3.3-3.4
							C191.7,108.5,193.2,106.9,195,106.9z"/>
					</g>
					<polygon class="st11" points="188.4,101.5 188,107.7 190.9,105.9 					"/>
				</g>
			</g>
		</g>
	</g>
</g>
</svg>
