<svg xmlns="http://www.w3.org/2000/svg" width="259.63" height="310.27" viewBox="0 0 259.63 310.27"><defs><style>.cls-1{fill:#fff;}.cls-2,.cls-5{fill:#f2cbe0;}.cls-3{fill:#231f20;}.cls-4{fill:none;stroke:#231f20;stroke-linecap:round;}.cls-4,.cls-5,.cls-6{stroke-miterlimit:10;stroke-width:3px;}.cls-5{stroke:#e1a4ca;}.cls-6{fill:#ffe091;stroke:#faa75d;}</style></defs><title>logo</title><g id="Layer_2" data-name="Layer 2"><path class="cls-1" d="M367.85,207.63c16.21-30.47,18.88-60.26,6-66.54s-36.51,13.35-52.71,43.82a128.85,128.85,0,0,0-12.52,33.29,118.65,118.65,0,0,0-112.44,2c-2-10.62-6.32-22.88-12.9-35.26-16.21-30.47-39.81-50.09-52.72-43.82s-10.23,36.07,6,66.54c8.66,16.28,19.43,29.46,29.55,37.25a105.56,105.56,0,0,0-25.82,69.05c0,60.17,51,108.94,114,108.94s114-48.77,114-108.94A105.73,105.73,0,0,0,340.64,243C350.07,235,359.86,222.66,367.85,207.63Z" transform="translate(-122.36 -139.93)"/></g><g id="Layer_6" data-name="Layer 6"><ellipse class="cls-2" cx="61.9" cy="159.5" rx="12.68" ry="12.12"/><ellipse class="cls-2" cx="200.71" cy="159.5" rx="12.68" ry="12.12"/></g><g id="Layer_5" data-name="Layer 5"><ellipse class="cls-3" cx="202.83" cy="281.4" rx="9.12" ry="3.01" transform="translate(-217.45 -36.2) rotate(-23.41)"/><ellipse class="cls-3" cx="134.44" cy="159.5" rx="3.99" ry="2.69"/><path class="cls-4" d="M232.33,322.9a25.54,25.54,0,0,0,15.83-5.37,23.43,23.43,0,0,0,8.64-15.42" transform="translate(-122.36 -139.93)"/><ellipse class="cls-3" cx="308.14" cy="281.4" rx="3.01" ry="9.12" transform="translate(-194.87 312.47) rotate(-66.59)"/><path class="cls-4" d="M281.27,323.67a25.62,25.62,0,0,1-15.83-5.37,23.52,23.52,0,0,1-8.64-15.42" transform="translate(-122.36 -139.93)"/></g><g id="Layer_4" data-name="Layer 4"><path class="cls-5" d="M248.94,409.24c-.74-12.46-39.22-22.91-92.62-28.1a13.06,13.06,0,0,0-14.33,13v41.54a13,13,0,0,0,15.76,12.75C212.18,436.91,249.69,421.79,248.94,409.24Z" transform="translate(-122.36 -139.93)"/><path class="cls-5" d="M258.92,409.24c.74-12.46,39.22-22.91,92.62-28.1a13.06,13.06,0,0,1,14.33,13v41.54a13,13,0,0,1-15.76,12.75C295.68,436.91,258.17,421.79,258.92,409.24Z" transform="translate(-122.36 -139.93)"/></g><g id="Layer_3" data-name="Layer 3"><path class="cls-6" d="M255.08,380.27l5.37,10.89a3.24,3.24,0,0,0,2.44,1.77l12,1.75a3.24,3.24,0,0,1,1.79,5.52L268,408.68a3.2,3.2,0,0,0-.93,2.86l2.05,12a3.24,3.24,0,0,1-4.7,3.41l-10.75-5.65a3.27,3.27,0,0,0-3,0l-10.75,5.65a3.24,3.24,0,0,1-4.7-3.41l2.06-12a3.23,3.23,0,0,0-.93-2.86l-8.7-8.48a3.24,3.24,0,0,1,1.79-5.52l12-1.75a3.21,3.21,0,0,0,2.44-1.77l5.37-10.89A3.24,3.24,0,0,1,255.08,380.27Z" transform="translate(-122.36 -139.93)"/></g></svg>