<?xml version="1.0" encoding="utf-8"?>
<!-- Generator: Adobe Illustrator 24.2.3, SVG Export Plug-In . SVG Version: 6.00 Build 0)  -->
<svg version="1.1" id="OBJECTS" xmlns="http://www.w3.org/2000/svg" xmlns:xlink="http://www.w3.org/1999/xlink" x="0px" y="0px"
	 viewBox="0 0 500 500" style="enable-background:new 0 0 500 500;" xml:space="preserve">
<style type="text/css">
	.st0{fill:none;stroke:#231F20;stroke-width:12;stroke-linecap:round;stroke-miterlimit:10;}
	.st1{fill:none;stroke:#231F20;stroke-width:2;stroke-miterlimit:10;}
	.st2{fill:#231F20;}
	.st3{fill:none;stroke:#231F20;stroke-width:20;stroke-linecap:round;stroke-miterlimit:10;}
</style>
<path class="st0" d="M384.12,362.01"/>
<path class="st1" d="M195.64,422.18"/>
<circle class="st2" cx="135.36" cy="150.01" r="13.42"/>
<circle class="st2" cx="82.29" cy="192.02" r="28.58"/>
<circle class="st2" cx="363.95" cy="385.16" r="14.82"/>
<path class="st3" d="M325.84,422.54c-16.81,7.59-63.29,25.84-120.76,13.44c-75.15-16.23-112.84-72.73-122.55-87.32
	c-27.28-40.98-28.06-75.84-23.74-83.49c0.74-1.31,2.87-5.09,6.13-5.36c4.08-0.34,7.58,4.97,8.9,6.97c3.52,5.35,3.85,9.56,5.4,16.52
	c2.11,9.49,5.6,25.16,12.77,26.55c0.54,0.11,2.28,0.44,3.57-0.51c3.67-2.7-1.62-11.75,2.3-16.13c1.79-2,5.15-2.63,7.66-2
	c5.93,1.48,6.74,9.9,12.97,21.72c0,0,2.69,5.1,10.77,15.81c13.44,17.82,33.99,26.87,39.06,29.11c39.05,17.21,77.45,3.93,81.96,2.3
	c5.35-1.94,55.96-21.23,69.96-74.81c7.74-29.65,5.2-72.97-24.51-99.06c-20.77-18.24-50.34-24.49-63.05-22.05
	c-6.44,1.24-12.99,1.81-19.49,2.61c-11.25,1.38-19.38,0.93-23.65-4.75c-18.18-34.94,45.44-29.06,48.7-42.98
	c-4.85-30.52-112.82,21.57-140.32-14.18c-5.7-8.95-7.79-17.69-7.17-25.8c0.34-4.46,3.34-21.98,39.78-41.91
	c46.55-25.46,94.23-25.1,110.06-24.56c24.34,0.83,86.88,3.85,145.41,47.06c71.36,52.68,117.3,150.77,95.61,247.58
	c-17.45,77.89-71.21,121.67-84.26,131.74c-87.59,67.61-191.09,44.35-211.04,39.31c-27.44-6.93-47.49-17.35-56.18-22.19
	c-59.1-32.9-86.05-82.29-92.12-94c-20.76-40.02-24.68-77.39-25.17-99.28"/>
<path class="st3" d="M362.47,191.99c3.61,6.23,8.31,15.57,11.77,27.53c17.56,60.73-18.71,114.19-22.43,119.49
	c-21.89,31.21-50.74,45.86-65.66,52.08"/>
<path class="st3" d="M291.2,73.47c4.13,1.27,8.33,2.71,12.57,4.33c24.96,9.54,86.5,38.78,114.26,108.47
	c34.42,86.43-11.53,163.72-16.85,172.34"/>
</svg>
