<svg xmlns="http://www.w3.org/2000/svg" width="1171.23" height="82.34" viewBox="0 0 1171.23 82.34"><defs><style>.cls-1{fill:#211915;}</style></defs><title>train</title><g id="Objects"><rect class="cls-1" x="1243.58" y="91.22" width="1.42" height="11.5" transform="translate(105.22 871.67) rotate(-45)"/><rect class="cls-1" x="1241.43" y="96.75" width="1.42" height="11.5" transform="translate(948.98 1308.05) rotate(-90)"/><rect class="cls-1" x="1058.68" y="67.75" width="1.42" height="11.5"/><rect class="cls-1" x="1254.77" y="101.94" width="1.42" height="11.5" transform="translate(100.92 882.72) rotate(-45)"/><rect class="cls-1" x="1061.23" y="64.87" width="11.5" height="1.42"/><rect class="cls-1" x="1249.5" y="96.02" width="11.5" height="1.42" transform="translate(108.59 879.34) rotate(-45)"/><rect class="cls-1" x="1058.35" y="52.25" width="1.42" height="11.5"/><rect class="cls-1" x="1243.58" y="91.22" width="1.42" height="11.5" transform="translate(105.19 871.64) rotate(-45)"/><rect class="cls-1" x="1045.73" y="65.21" width="11.5" height="1.42"/><rect class="cls-1" x="1238.72" y="107.1" width="11.5" height="1.42" transform="translate(97.61 874.98) rotate(-45)"/><path class="cls-1" d="M1079.72,97.42l0-.73H1079v5.37h.79v-.59h1.86v1.92h1.13v1.69l2.4,2.41h.42a7.86,7.86,0,1,0,14.27,6.58c1.82,0,5.66,0,8.93,0a7.86,7.86,0,1,0,14.26-6.6h1.41l1.8-1.8v-2.3h5.9v1.69l2.4,2.41h.42a7.86,7.86,0,1,0,14.27,6.58c1.82,0,5.66,0,8.93,0a7.86,7.86,0,1,0,14.26-6.6h.73a29.64,29.64,0,0,0,6.71,4.43,15.47,15.47,0,0,0,5.56.91c1.12,0,2.22-.08,3.31-.15h0a2.27,2.27,0,0,0,2,.47,1.09,1.09,0,0,0,.53-.6,17.62,17.62,0,0,1,2.81.11l.12-1a19.62,19.62,0,0,0-2.76-.13,1.33,1.33,0,0,0-.3-1l-.47-.33V98.67l.94,0a15,15,0,0,0-.47,3.7,15.14,15.14,0,0,0,25.49,11.08h22.68a15.12,15.12,0,0,0,22-1.41h10l.34-3,1.5.16,2.83-5.16h2.67v-1h5.16v-1.44l14.64,0v4a7.16,7.16,0,1,0,2,5.07c4.28,0,14,0,15.84,0a7.15,7.15,0,1,0,.35-2.3c0-2.82,0-7.27,0-7.27h10.09l6.78,13.41h27.55l.75-.33-26-17.75h-7.25l-10.5-9.75.5-2.25h1.25v2.25h1V78.83h-1v1.75h-1.25l-2.75-4.25.5-2.75,5.75-1,4-3,2.75-.25-.25-1.5-2-.5v-9a2.57,2.57,0,0,0-1.5-1.75l-1.25-.5-.75-2.75s-.75-2-2-2-1.75,1.75-1.75,1.75l-.5,2.25-.75,1h-2.25v14.5l-1.75.5-1.25-2V57.08l6.25-11h1.25v-1.5h-1l-4.25-6.75h1.5V36.58h-16l1.25,1.25-3.5,6.5h-2l.25,1.25h1.75l5.75,11.25.5,11.5-1.75,3.25h-2V70.33l-6,.25v-3.5h2.5l-.25-1.5a11.72,11.72,0,0,1-1.5-2.5c-.5-1.25-.77-3.69-1.5-4a1.11,1.11,0,0,0-1.16.05l0,.08-.38.13c-3,1-5.83,1.94-8.56,1.49v-.6h.93v-1l-6.64-3.78-.14-1.4H1277v1.53l-6.7,3.59v1h.93v1.07c-3.78.93-8.41,2.06-12.55,2.09v-.1l.79-.8v-.6l-6.17-6.17v-1h-.73v1l-6.28,6.27v.83l.75.75v1c-1.57.54-4.5.41-5.88.35a21.65,21.65,0,0,1-2.7-.34l-1.13-.18-.21,0-2-.32c-.17,0-.43-.06-.7-.08l-.48-.05V61.16L1235,60.1v-.67l-3.91-3.92V53.72h-2.53l-1.42-1.43v-1h.63V47.75l-.93-.93V45.35h-.73V47l-.83.83v3.48h.63v.93l-.89.89h-11.74v4.36h-45.07V60l2.88,2.89h15.84V85.13h-.46v.93h1.86v9.69h-11.43V80.81h-2.25V79h.59v-.8h3V76.76h-9.43a5.38,5.38,0,0,0-.93-.46,2.38,2.38,0,0,0-.93-.07h-78.08v1.53l2.39,3.78v11l-8.1,1.66v3.26Zm247.8,8.6-3.07,3.07,1.57-4A6.22,6.22,0,0,1,1327.52,106Zm1.34,1.72-3.78,1.67,2.91-2.92A6,6,0,0,1,1328.86,107.74Zm.66,2.34h-4.31l3.93-1.73A6.68,6.68,0,0,1,1329.52,110.08Zm-.25,2.17-3.84-1.5h4.09A5.74,5.74,0,0,1,1329.27,112.25Zm-1.17,2.13-3.06-3.06,4,1.56A6.11,6.11,0,0,1,1328.1,114.38Zm-1.7,1.38-1.68-3.81,2.92,2.91A6,6,0,0,1,1326.4,115.76Zm-2.36-3.69,1.75,4a6,6,0,0,1-1.75.42Zm-.15-7.54a6.29,6.29,0,0,1,1.51.27l-1.51,3.9Zm-4.81,2,3.14,3.14h0l-4.13-1.61A5.74,5.74,0,0,1,1319.08,106.53Zm1.76-1.36,1.7,3.87-3-3A6,6,0,0,1,1320.84,105.17Zm2.38,3.75-1.77-4a5.76,5.76,0,0,1,1.77-.37Zm-1.43,7.3,1.58-4.08v4.33A5.86,5.86,0,0,1,1321.79,116.22Zm-2.16-1.21,3.13-3.14-1.6,4.11A5.93,5.93,0,0,1,1319.63,115Zm-1.36-1.7,3.77-1.66-2.89,2.89A6.27,6.27,0,0,1,1318.27,113.31Zm-.68-2.4H1322l-4,1.78A5.91,5.91,0,0,1,1317.59,110.91Zm0-.67a5.66,5.66,0,0,1,.27-1.55l4,1.55ZM1289.46,115l3.13-3.14L1291,116A6.1,6.1,0,0,1,1289.46,115Zm-1.36-1.7,3.77-1.66-2.89,2.89A6.27,6.27,0,0,1,1288.1,113.31Zm-.68-2.4h4.45l-4,1.78A5.91,5.91,0,0,1,1287.42,110.91Zm.26-2.22,4,1.55h-4.26A6.06,6.06,0,0,1,1287.68,108.69Zm1.23-2.16,3.14,3.14h0l-4.13-1.61A6,6,0,0,1,1288.91,106.53Zm1.76-1.36,1.7,3.87-3-3A6,6,0,0,1,1290.67,105.17Zm2.38,3.75-1.77-4a5.82,5.82,0,0,1,1.77-.37Zm.16,7.55a5.94,5.94,0,0,1-1.59-.25l1.59-4.08Zm5.31-6.39H1295l3.48-1.53Zm.59,2.17-3.85-1.5h4.1A6.19,6.19,0,0,1,1299.11,112.25Zm-1.18,2.13-3.06-3.06,4,1.56A5.86,5.86,0,0,1,1297.93,114.38Zm-1.7,1.38-1.68-3.81,2.92,2.91A5.78,5.78,0,0,1,1296.23,115.76Zm-2.35-3.69,1.74,4a5.91,5.91,0,0,1-1.74.42Zm1.35-7.27-1.51,3.9v-4.17A6.2,6.2,0,0,1,1295.23,104.8Zm2.12,1.22-3.06,3.07,1.57-4A6,6,0,0,1,1297.35,106Zm1.17,1.43v.37l-3.6,1.59,2.91-2.92A6.48,6.48,0,0,1,1298.52,107.45Zm-5.58-36.8h-7.77V69.06l-1.19-1.2v-6a10,10,0,0,0,1.44.1,22.66,22.66,0,0,0,7-1.51c0,.15-.08.3-.12.47a13.16,13.16,0,0,1-.48,2.23,22.31,22.31,0,0,1-1.32,2.52l-.11,1.35h2.56Zm-9.22,24.51h14.66v3.17h-14.66Zm-9.34,0,7.5.17v3h-2.5V96.66h-3.5Zm-6.5,8v1.17h-1.33v-2.67s2.83-.15,2.75-.07v1.57Zm-3.66,7a7.37,7.37,0,0,0,1.16-2c.34-1,.67-2,.67-2h2.33v.67s.67.5.67.17v3.16Zm-5.54-45.84a56.26,56.26,0,0,0,12.55-2.06V67.6l-1.2,1.19v2.39h-10.49V69.06l-.86-.86ZM1255.09,112h2.76a12.85,12.85,0,0,1-2.11,1.47Zm-4.33,0h2.78l.92,2.07a12.35,12.35,0,0,1-3.7.87Zm-4.77,2.43,1-2.43h2.4v3A12.76,12.76,0,0,1,1246,114.43Zm-4.43-2.43h3.85l-.75,1.94A13,13,0,0,1,1241.56,112Zm-7.65-47.16.39,0,.62.07,2.06.33.21,0,1.1.18a23.66,23.66,0,0,0,2.76.35c.66,0,1.48.07,2.35.07a14.53,14.53,0,0,0,3.64-.38V68.2l-.75.75v2.1h-11V69l-1.33-1.33Zm-17.73-1.4a29.82,29.82,0,0,0,3.43.5c.71.08,1.38.15,2,.25v3.47l-1.3,1.3v2.09s-4.15.13-4.15,0Zm-1.93-9.36h10v2.36L1221,59.76v.73l.67.67v2c-.62-.09-1.25-.16-1.91-.23a26.68,26.68,0,0,1-3.54-.54v-.59l2.16-2.16V57.44h-4.09Zm-4.94,44.25-1,1,.41-1.06Zm1.43,1.2-1.12.49,1.12-1.11Zm0,1.92h-.85l.85-.37Zm0,1.57-.38-.15h.38Zm0,2.26-1.21-1.21,1.21.47Zm0,4.4-1.88-4.28,1.88,1.88Zm1.64,3.73h.12l-.09.06Zm-5-7.75,3.31,7.54v.21h.09l.29.66a12.29,12.29,0,0,1-3.69.87Zm-.34-7.42h.11l-.11.28Zm-5.82.05,2.29,2.29h0l-5.66-2.2C1199,98.35,1200.14,98.31,1201.27,98.29Zm3,1-1-1h.56Zm1.44-.27-.34-.76h.34Zm-3,15.44,3.36-8.62V115A12.9,12.9,0,0,1,1202.65,114.43Zm-4.57-2.56,6.63-6.63-3.38,8.7A12.23,12.23,0,0,1,1198.08,111.87Zm-2.88-3.6,8-3.5-6.12,6.11A12.48,12.48,0,0,1,1195.2,108.27Zm-1.44-5.07h9.42v0l-8.58,3.77A12.6,12.6,0,0,1,1193.76,103.2Zm0-1.41a12.11,12.11,0,0,1,.56-3.27h0l8.41,3.28Zm-85.11,6.69h-3v-1h3.43A8.65,8.65,0,0,0,1108.64,108.48Zm-8.16,2.57a8.49,8.49,0,0,0,0-.88h7.82a8.49,8.49,0,0,0,0,.88q0,.32,0,.63h-7.78Q1100.48,111.37,1100.48,111.05Zm-.42,2.52a8,8,0,0,0,.33-1.39h7.9a7.94,7.94,0,0,0,.33,1.4C1106,113.57,1102.1,113.55,1100.06,113.57Zm-.44-6.08h4v1H1100A8.65,8.65,0,0,0,1099.62,107.49Zm74.64-.39,1.41-1.41v-2.3h8.64v-2.66l2-2h2.49v10h-1.26v.93h1.19v.79a2.65,2.65,0,0,0-.35,1.21,18.67,18.67,0,0,1-8.08-.71A28.09,28.09,0,0,1,1174.26,107.1ZM1158,108.48h-3v-1h3.43A8.65,8.65,0,0,0,1158,108.48Zm-8.16,2.57a8.49,8.49,0,0,0,0-.88h7.82a8.49,8.49,0,0,0-.05.88q0,.32,0,.63h-7.78Q1149.87,111.37,1149.87,111.05Zm-.42,2.52a8,8,0,0,0,.33-1.39h7.9a7.94,7.94,0,0,0,.33,1.4C1155.41,113.57,1151.49,113.55,1149.45,113.57Zm-.44-6.08h4v1h-3.53A8.65,8.65,0,0,0,1149,107.49Z" transform="translate(-190.66 -36.58)"/><circle class="cls-1" cx="739.23" cy="72" r="2.75"/><polygon class="cls-1" points="673.73 71.5 678.23 71.5 678.23 64.75 679.23 64.75 679.23 71.5 687.73 71.5 687.73 65.25 688.73 65.25 688.73 71.5 692.23 71.5 692.23 72.5 688.73 72.5 688.73 73.75 687.73 73.75 687.73 72.5 679.23 72.5 679.23 73 678.23 73 678.23 72.5 673.73 72.5 673.73 71.5"/><rect class="cls-1" x="740.98" y="64.25" width="1" height="6.75"/><polygon class="cls-1" points="713.23 71 713.23 70 720.48 70 720.48 63.5 721.48 63.5 721.48 70 737.48 70 737.48 71 721.48 71 721.48 74.61 737.41 72.5 737.54 73.5 714.79 76.5 714.66 75.5 720.48 74.74 720.48 71 713.23 71"/><path class="cls-1" d="M1033,109.21a3.6,3.6,0,1,0,3.6-3.6A3.6,3.6,0,0,0,1033,109.21Zm2.84,0a.77.77,0,1,1,.76.76A.76.76,0,0,1,1035.8,109.21Z" transform="translate(-190.66 -36.58)"/><path class="cls-1" d="M895.3,109.21a3.6,3.6,0,1,0,3.6-3.6A3.6,3.6,0,0,0,895.3,109.21Zm2.83,0a.77.77,0,1,1,.77.76A.76.76,0,0,1,898.13,109.21Z" transform="translate(-190.66 -36.58)"/><path class="cls-1" d="M810.9,109.21a3.6,3.6,0,1,0,3.6-3.6A3.6,3.6,0,0,0,810.9,109.21Zm2.83,0a.77.77,0,1,1,.77.76A.77.77,0,0,1,813.73,109.21Z" transform="translate(-190.66 -36.58)"/><path class="cls-1" d="M673.23,109.21a3.6,3.6,0,1,0,3.6-3.6A3.6,3.6,0,0,0,673.23,109.21Zm2.84,0a.77.77,0,1,1,.76.76A.76.76,0,0,1,676.07,109.21Z" transform="translate(-190.66 -36.58)"/><path class="cls-1" d="M857.13,96.75v6h.92v-1.42h1.25v.58h28.1v1.42H865.13v1H887.4v6l1.41,1.78h1.56v-.65a8.82,8.82,0,0,0,17.11-.32h1.07l1.5-1.5v-5.33h34.29v5l1,1H963v1.42h-1.34v1.08h1.17l.92.92h2.41l1.07-1.07.77.77h2.12l.88-.87h1.5v-.75h-1.59a8.89,8.89,0,0,1-.1-2l.05,0,2.82-5.48h1.48v3h4.5v-3h4.17v1.25c0-.25,10,0,10,0v.83h9.92s2.25-.83,2.25-2c0,0,0,0,0-.08h10.37l.09,2h2.47v-2h6.19v6l1.4,1.78H1028v-.65a8.82,8.82,0,0,0,17.11-.32h1.07l-.12.49a3.19,3.19,0,0,0,.8.1c2.2,0,3.6-2.31,3.67-2.42l.06-.11v-4.89h5v4h-2.75v1h18.25v-1h-1.59a4.06,4.06,0,0,0,1.09-2.19l.17-4.88h7.5v.81h.71V96.69l-.63,0v1h-7.52l-.24-17.84-3.92,3a50.68,50.68,0,0,1-7,.25,21.92,21.92,0,0,1-4.17-1.61v-9l9.17-5.34,1.66-.16v1.66h2.5V66.83h1.34V52.16h-28.17l-.5-2.58h-2.08l-.5,2.58h-22.54l-.5-2.58h-2.09l-.5,2.58H991.18l-.5-2.58h-2.09l-.5,2.58H964.43l-.5-2.58h-2.09l-.5,2.58H947.68l-.5-2.58h-2.09l-.5,2.58H921.68l-.5-2.58h-2.09l-.5,2.58H896.43l-.5-2.58h-2.09l-.5,2.58H864.88V57.5h-1l-1.08-1.09v2.75h.75V58.5h1.5v8h.83v2.33h2.5V66.66h2.34v-.83h26.41V52.33h1v13.5h28.75V52.33h1v13.5h28.5V52.33h1v13.5h20.5V52.33h1v13.5h28V52.33h1v13.5h28.75V52.33h1v13.5h27.5v1H871l8.38,5v9.75h-.75c0,.2-.5.59-2.88,1.27-1.85.53-6.35.93-7.14.53-1-.5-3.66-1.71-3.77-1.76l-.69-.31-.25,17.27h-4.1l-.08-1h-1.59v-.83Zm206.5,1.83h-2.75V84.15c.82,0,1.81,0,2.75-.09Zm4.25,0h-3.25V84c1.23-.08,2.2-.16,2.3-.17l.14,0,.81-.62Zm2,0h-1V82.42l.77-.59Zm-4,5.75h3.82l-.06,1.73a2.6,2.6,0,0,1-1.64,2,2.08,2.08,0,0,1-1.76-.24,3.37,3.37,0,0,1-.36-.3Zm0-2.17h3.89l0,1.17h-3.85Zm-9.25,2.17h7.4a12.62,12.62,0,0,0,.11,1.82,3.92,3.92,0,0,0,.74,1.76v.42h-8.25Zm0-2.17h7.44c0,.35,0,.75,0,1.17h-7.4Zm-1.08-3.58v-16a19.35,19.35,0,0,0,4,1.49l.33,0V98.58Zm-4.92,3.58h5v1.17h-5Zm-1,1.17h-1.91v-1.17h1.91Zm-3,7.38,1-1v-5.33h1.91v4.6C1049.35,109.36,1048.2,110.85,1046.67,110.71Zm-2.74-6.38h2.62v2.33H1045A8.72,8.72,0,0,0,1043.93,104.33Zm-.71-2.17h3.33v1.17h-3.33Zm-7.59-19.58V68.83h9.25V82.58Zm-3.08,26.58a4,4,0,1,1,4,4A4,4,0,0,1,1032.55,109.16Zm-6.39-4.83h2.39v.25s.16.06.42.07a8.86,8.86,0,0,0-.93,2.19v0h-1.88Zm0-2.17h2.39v1.17h-2.39Zm-7.28,0h6.19v1.17h-6.19Zm-1.56,2.17h.56v1h-.52Zm-.1-2.17h.66v1.17h-.61Zm-7.34-19.58V68.83h9.25V82.58Zm-6.33,19.58h12.67l0,1.17h-11.6a6.89,6.89,0,0,0-1.12-.17ZM984.63,82.58V68.83h9.25V82.58Zm-5,19.08h8.17v1.67h-8.17Zm-3.5,2.67h2.5v2h-2.5Zm0-2.67h2.5v1.67h-2.5Zm-2,1.67.86-1.67h.11v1.67Zm-1.12,0h-2.19c0-1,0-1.67,0-1.67h3Zm-2.26,4.39c0-1.15,0-2.36.05-3.39h1.69Zm-6.4-34.39h6.25v9.25h-6.25Zm0-4.5h6.25v3.5h-6.25Zm-39.5,13.75h-9.25V68.83h9.25Zm16.5,0V68.83h9.25V82.58ZM910.05,102h34.29v1.33H910.05Zm-3.78,2.33h2.61v2.33h-1.53A8.69,8.69,0,0,0,906.27,104.33ZM905.13,102h3.75v1.33H905.5c-.12-.14-.24-.27-.37-.4Zm-10.25,7.16a4,4,0,1,1,4,4A4,4,0,0,1,894.88,109.16Zm-4.5-26.58V68.83h9.25V82.58Zm-1.89,21.75h2.73s.09,0,.24.06a8.86,8.86,0,0,0-1.09,2.45v0h-1.88Zm0-2.42h2.73v1.42h-2.73ZM875.38,84c.25,0,.47-.1.64-.15,1.57-.45,2.85-.87,3.36-1.54V98.58h-4Zm-4.25.55a31.34,31.34,0,0,0,3.25-.36V98.58h-3.25ZM864.9,98.58l.22-15.73c.89.41,2.37,1.09,3,1.43a5.14,5.14,0,0,0,2,.26v14Z" transform="translate(-190.66 -36.58)"/><path class="cls-1" d="M635.13,96.75v6h.92v-1.42h1.25v.58h28.1v1.42H643.13v1H665.4v6l1.41,1.78h1.56v-.65a8.82,8.82,0,0,0,17.11-.32h1.07l1.5-1.5v-5.33h34.29v5l1,1H741v1.42h-1.34v1.08h1.17l.92.92h2.41l1.07-1.07.77.77h2.12l.88-.87h1.5v-.75h-1.59a8.89,8.89,0,0,1-.1-2l.05,0,2.82-5.48h1.48v3h4.5v-3h4.17v1.25c0-.25,10,0,10,0v.83h9.92s2.25-.83,2.25-2c0,0,0,0,0-.08h10.37l.09,2h2.47v-2h6.19v6l1.4,1.78H806v-.65a8.82,8.82,0,0,0,17.11-.32h1.07l-.12.49a3.19,3.19,0,0,0,.8.1c2.2,0,3.6-2.31,3.67-2.42l.06-.11v-4.89h5v4h-2.75v1h18.25v-1h-1.59a4.06,4.06,0,0,0,1.09-2.19l.17-4.88h7.5v.81H857V96.69l-.63,0v1h-7.52l-.24-17.84-3.92,3a50.68,50.68,0,0,1-7,.25,21.92,21.92,0,0,1-4.17-1.61v-9l9.17-5.34,1.66-.16v1.66h2.5V66.83h1.34V52.16H820.05l-.5-2.58h-2.08l-.5,2.58H794.43l-.5-2.58h-2.09l-.5,2.58H769.18l-.5-2.58h-2.09l-.5,2.58H742.43l-.5-2.58h-2.09l-.5,2.58H725.68l-.5-2.58h-2.09l-.5,2.58H699.68l-.5-2.58h-2.09l-.5,2.58H674.43l-.5-2.58h-2.09l-.5,2.58H642.88V57.5h-1l-1.08-1.09v2.75h.75V58.5h1.5v8h.83v2.33h2.5V66.66h2.34v-.83h26.41V52.33h1v13.5h28.75V52.33h1v13.5h28.5V52.33h1v13.5h20.5V52.33h1v13.5h28V52.33h1v13.5h28.75V52.33h1v13.5h27.5v1H649l8.38,5v9.75h-.75c0,.2-.5.59-2.88,1.27-1.85.53-6.35.93-7.14.53-1-.5-3.66-1.71-3.77-1.76l-.69-.31-.25,17.27h-4.1l-.08-1h-1.59v-.83Zm206.5,1.83h-2.75V84.15c.82,0,1.81,0,2.75-.09Zm4.25,0h-3.25V84c1.23-.08,2.2-.16,2.3-.17l.14,0,.81-.62Zm2,0h-1V82.42l.77-.59Zm-4,5.75h3.82l-.06,1.73a2.6,2.6,0,0,1-1.64,2,2.08,2.08,0,0,1-1.76-.24,3.37,3.37,0,0,1-.36-.3Zm0-2.17h3.89l0,1.17h-3.85Zm-9.25,2.17H842a12.62,12.62,0,0,0,.11,1.82,3.92,3.92,0,0,0,.74,1.76v.42h-8.25Zm0-2.17h7.44c0,.35,0,.75,0,1.17h-7.4Zm-1.08-3.58v-16a19.35,19.35,0,0,0,4,1.49l.33,0V98.58Zm-4.92,3.58h5v1.17h-5Zm-1,1.17h-1.91v-1.17h1.91Zm-3,7.38,1.05-1v-5.33h1.91v4.6C827.35,109.36,826.2,110.85,824.67,110.71Zm-2.74-6.38h2.62v2.33H823A8.72,8.72,0,0,0,821.93,104.33Zm-.71-2.17h3.33v1.17h-3.33Zm-7.59-19.58V68.83h9.25V82.58Zm-3.08,26.58a4,4,0,1,1,4,4A4,4,0,0,1,810.55,109.16Zm-6.39-4.83h2.39v.25s.16.06.42.07a8.86,8.86,0,0,0-.93,2.19v0h-1.88Zm0-2.17h2.39v1.17h-2.39Zm-7.28,0h6.19v1.17h-6.19Zm-1.56,2.17h.56v1h-.52Zm-.1-2.17h.66v1.17h-.61Zm-7.34-19.58V68.83h9.25V82.58Zm-6.33,19.58h12.67l0,1.17h-11.6a6.89,6.89,0,0,0-1.12-.17ZM762.63,82.58V68.83h9.25V82.58Zm-5,19.08h8.17v1.67h-8.17Zm-3.5,2.67h2.5v2h-2.5Zm0-2.67h2.5v1.67h-2.5Zm-2,1.67.86-1.67h.11v1.67Zm-1.12,0h-2.19c0-1,0-1.67,0-1.67h3Zm-2.26,4.39c0-1.15,0-2.36.05-3.39h1.69Zm-6.4-34.39h6.25v9.25h-6.25Zm0-4.5h6.25v3.5h-6.25Zm-39.5,13.75h-9.25V68.83h9.25Zm16.5,0V68.83h9.25V82.58ZM688.05,102h34.29v1.33H688.05Zm-3.78,2.33h2.61v2.33h-1.53A8.69,8.69,0,0,0,684.27,104.33ZM683.13,102h3.75v1.33H683.5c-.12-.14-.24-.27-.37-.4Zm-10.25,7.16a4,4,0,1,1,4,4A4,4,0,0,1,672.88,109.16Zm-4.5-26.58V68.83h9.25V82.58Zm-1.89,21.75h2.73s.09,0,.24.06a8.86,8.86,0,0,0-1.09,2.45v0h-1.88Zm0-2.42h2.73v1.42h-2.73ZM653.38,84c.25,0,.47-.1.64-.15,1.57-.45,2.85-.87,3.36-1.54V98.58h-4Zm-4.25.55a31.34,31.34,0,0,0,3.25-.36V98.58h-3.25ZM642.9,98.58l.22-15.73c.89.41,2.37,1.09,3,1.43a5.14,5.14,0,0,0,2,.26v14Z" transform="translate(-190.66 -36.58)"/><path class="cls-1" d="M412.53,96.75v6h.92v-1.42h1.25v.58h28.1v1.42H420.53v1H442.8v6l1.41,1.78h1.56v-.65a8.82,8.82,0,0,0,17.11-.32H464l1.5-1.5v-5.33h34.29v5l1,1h17.59v1.42H517v1.08h1.17l.92.92h2.41l1.07-1.07.77.77h2.12l.88-.87h1.5v-.75h-1.59a9.19,9.19,0,0,1-.11-2l.06,0,2.82-5.48h1.48v3H535v-3h4.17v1.25c0-.25,10,0,10,0v.83h9.92s2.25-.83,2.25-2c0,0,0,0,0-.08h10.37l.1,2h2.47v-2h6.19v6l1.4,1.78h1.56v-.65a8.83,8.83,0,0,0,17.12-.32h1.07l-.12.49a3.19,3.19,0,0,0,.8.1c2.2,0,3.6-2.31,3.66-2.42l.07-.11v-4.89h5v4h-2.75v1h18.25v-1h-1.59a4.06,4.06,0,0,0,1.09-2.19l.17-4.88h7.5v.81h.71V96.69l-.63,0v1h-7.53L626,79.82l-3.93,3a50.49,50.49,0,0,1-7,.25A21.66,21.66,0,0,1,611,81.48v-9l9.17-5.34,1.66-.16v1.66h2.5V66.83h1.34V52.16H597.45l-.5-2.58h-2.08l-.51,2.58H571.83l-.5-2.58h-2.09l-.5,2.58H546.58l-.5-2.58H544l-.5,2.58H519.83l-.5-2.58h-2.09l-.5,2.58H503.08l-.5-2.58h-2.09l-.5,2.58H477.08l-.5-2.58h-2.09l-.5,2.58H451.83l-.5-2.58h-2.09l-.5,2.58H420.28V57.5h-1l-1.08-1.09v2.75H419V58.5h1.5v8h.83v2.33h2.5V66.66h2.34v-.83h26.41V52.33h1v13.5h28.75V52.33h1v13.5h28.5V52.33h1v13.5h20.5V52.33h1v13.5h28V52.33h1v13.5H592V52.33h1v13.5h27.5v1H426.4l8.38,5v9.75H434c0,.2-.5.59-2.88,1.27-1.85.53-6.35.93-7.14.53-1-.5-3.66-1.71-3.77-1.76l-.7-.31-.24,17.27h-4.1l-.08-1h-1.59v-.83ZM619,98.58h-2.75V84.15c.81,0,1.81,0,2.75-.09Zm4.25,0H620V84c1.23-.08,2.2-.16,2.3-.17l.14,0,.81-.62Zm2,0h-1V82.42l.77-.59Zm-4,5.75h3.81l-.06,1.73a2.55,2.55,0,0,1-1.63,2,2.08,2.08,0,0,1-1.76-.24,2.6,2.6,0,0,1-.36-.3Zm0-2.17h3.89l0,1.17h-3.85ZM612,104.33h7.39a14.12,14.12,0,0,0,.12,1.82,3.71,3.71,0,0,0,.74,1.76v.42H612Zm0-2.17h7.44c0,.35,0,.75,0,1.17H612ZM611,98.58v-16a19.14,19.14,0,0,0,4,1.49l.33,0V98.58ZM606,102.16h5v1.17h-5Zm-1,1.17h-1.91v-1.17H605Zm-3,7.38,1-1v-5.33H605v4.6C604.74,109.36,603.6,110.85,602.07,110.71Zm-2.74-6.38H602v2.33h-1.53A8.72,8.72,0,0,0,599.33,104.33Zm-.71-2.17H602v1.17h-3.33ZM591,82.58V68.83h9.25V82.58ZM588,109.16a4,4,0,1,1,4,4A4,4,0,0,1,588,109.16Zm-6.39-4.83H584v.25s.15.06.42.07a9.28,9.28,0,0,0-.94,2.19v0h-1.87Zm0-2.17H584v1.17h-2.39Zm-7.28,0h6.19v1.17h-6.19Zm-1.56,2.17h.56v1h-.52Zm-.1-2.17h.66v1.17h-.61Zm-7.34-19.58V68.83h9.25V82.58ZM559,102.16h12.67l0,1.17h-11.6a7,7,0,0,0-1.12-.17ZM540,82.58V68.83h9.25V82.58Zm-5,19.08h8.17v1.67H535Zm-3.5,2.67H534v2h-2.5Zm0-2.67H534v1.67h-2.5Zm-2,1.67.86-1.67h.11v1.67Zm-1.12,0h-2.19c0-1,0-1.67,0-1.67h3Zm-2.26,4.39c0-1.15,0-2.36.05-3.39h1.69Zm-6.4-34.39H526v9.25h-6.25Zm0-4.5H526v3.5h-6.25Zm-39.5,13.75H471V68.83h9.25Zm16.5,0V68.83H506V82.58ZM465.45,102h34.29v1.33H465.45Zm-3.78,2.33h2.61v2.33h-1.53A8.69,8.69,0,0,0,461.67,104.33ZM460.53,102h3.75v1.33H460.9c-.12-.14-.24-.27-.37-.4Zm-10.25,7.16a4,4,0,1,1,4,4A4,4,0,0,1,450.28,109.16Zm-4.5-26.58V68.83H455V82.58Zm-1.89,21.75h2.73s.09,0,.24.06a8.86,8.86,0,0,0-1.09,2.45v0h-1.88Zm0-2.42h2.73v1.42h-2.73ZM430.78,84c.25,0,.47-.1.64-.15,1.57-.45,2.85-.87,3.36-1.54V98.58h-4Zm-4.25.55a32,32,0,0,0,3.25-.36V98.58h-3.25ZM420.3,98.58l.22-15.73c.88.41,2.37,1.09,3,1.43a5.14,5.14,0,0,0,2,.26v14Z" transform="translate(-190.66 -36.58)"/><path class="cls-1" d="M190.66,97.11v6h.91v-1.42h1.25v.58h28.1v1.42H198.66v1h22.26v6l1.41,1.78h1.56v-.65a8.83,8.83,0,0,0,17.12-.32h1.06l1.5-1.5v-5.33h34.3v5l1,1h17.58v1.42h-1.33v1.08h1.16l.92.92h2.42l1.06-1.07.77.77h2.13l.87-.87H306v-.75h-1.58a9.19,9.19,0,0,1-.11-2l.05,0,2.82-5.48h1.49v3h4.5v-3h4.16v1.25c0-.25,10,0,10,0v.83h9.92s2.25-.83,2.25-2c0,0,0,0,0-.08h10.37l.09,2h2.48v-2h6.18v6l1.41,1.78h1.56v-.65a8.82,8.82,0,0,0,17.11-.32h1.07l-.12.49a3.3,3.3,0,0,0,.8.1c2.21,0,3.6-2.31,3.67-2.42l.07-.11v-4.89h5v4h-2.75v1h18.25v-1h-1.6a4,4,0,0,0,1.09-2.19l.17-4.88h7.5v.81h.71V97.05l-.62,0v1h-7.53l-.23-17.84-3.93,3a50.63,50.63,0,0,1-7,.25,21.92,21.92,0,0,1-4.17-1.61v-9l9.17-5.34,1.67-.16V69h2.5V67.19h1.33V52.52H375.58l-.5-2.58H373l-.5,2.58H350l-.5-2.58h-2.08l-.51,2.58H324.7l-.5-2.58h-2.08l-.51,2.58H298l-.5-2.58h-2.08l-.51,2.58H281.2l-.5-2.58h-2.08l-.51,2.58H255.2l-.5-2.58h-2.08l-.51,2.58H230l-.5-2.58h-2.08l-.51,2.58H198.41v5.34h-1l-1.09-1.09v2.75h.75v-.66h1.5v8h.84v2.33h2.5V67h2.33v-.83h26.42V52.69h1v13.5h28.75V52.69h1v13.5h28.5V52.69h1v13.5h20.5V52.69h1v13.5h28V52.69h1v13.5h28.75V52.69h1v13.5h27.5v1H204.52l8.39,5v9.75h-.75c0,.2-.5.59-2.89,1.27-1.84.53-6.35.93-7.14.53-1-.5-3.65-1.71-3.76-1.76l-.7-.31-.24,17.27h-4.11l-.08-1h-1.58v-.83Zm206.5,1.83h-2.75V84.51c.81,0,1.8,0,2.75-.09Zm4.25,0h-3.25V84.36c1.22-.08,2.2-.16,2.29-.17l.15,0,.81-.62Zm2,0h-1V82.78l.76-.59Zm-4,5.75h3.81l-.06,1.73a2.6,2.6,0,0,1-1.64,2,2.06,2.06,0,0,1-1.75-.24,2.6,2.6,0,0,1-.36-.3Zm0-2.17h3.88l0,1.17h-3.84Zm-9.25,2.17h7.39a16.33,16.33,0,0,0,.11,1.82,3.82,3.82,0,0,0,.75,1.76v.42h-8.25Zm0-2.17h7.43c0,.35,0,.75,0,1.17h-7.39Zm-1.09-3.58v-16a19.44,19.44,0,0,0,4,1.49l.33,0V98.94Zm-4.91,3.58h5v1.17h-5Zm-1,1.17h-1.92v-1.17h1.92Zm-3,7.38,1.05-1v-5.33h1.92v4.6C382.87,109.72,381.72,111.21,380.19,111.07Zm-2.73-6.38h2.61V107h-1.53A8.84,8.84,0,0,0,377.46,104.69Zm-.72-2.17h3.33v1.17h-3.33Zm-7.58-19.58V69.19h9.25V82.94Zm-3.09,26.58a4,4,0,1,1,4,4A4,4,0,0,1,366.07,109.52Zm-6.39-4.83h2.39v.25s.16.06.43.07a8.52,8.52,0,0,0-.94,2.19v0h-1.88Zm0-2.17h2.39v1.17h-2.39Zm-7.27,0h6.18v1.17h-6.18Zm-1.57,2.17h.57v1h-.52Zm-.1-2.17h.67v1.17h-.61Zm-7.33-19.58V69.19h9.25V82.94Zm-6.34,19.58h12.67l.05,1.17h-11.6a6.89,6.89,0,0,0-1.12-.17ZM318.16,82.94V69.19h9.25V82.94Zm-5,19.08h8.16v1.67h-8.16Zm-3.5,2.67h2.5v2h-2.5Zm0-2.67h2.5v1.67h-2.5Zm-2,1.67.86-1.67h.12v1.67Zm-1.12,0h-2.19c0-1,0-1.67,0-1.67h3Zm-2.26,4.39c0-1.15,0-2.35.05-3.39h1.7Zm-6.39-34.39h6.25v9.25h-6.25Zm0-4.5h6.25v3.5h-6.25Zm-39.5,13.75h-9.25V69.19h9.25Zm16.5,0V69.19h9.25V82.94Zm-31.34,19.42h34.3v1.33h-34.3Zm-3.78,2.33h2.62V107h-1.53A8.87,8.87,0,0,0,239.79,104.69Zm-1.13-2.33h3.75v1.33H239c-.12-.14-.24-.27-.37-.4Zm-10.25,7.16a4,4,0,1,1,4,4A4,4,0,0,1,228.41,109.52Zm-4.5-26.58V69.19h9.25V82.94ZM222,104.69h2.72s.09,0,.25.06a8.88,8.88,0,0,0-1.1,2.45v0H222Zm0-2.42h2.72v1.42H222Zm-13.11-18,.64-.15c1.56-.45,2.84-.87,3.36-1.54V98.94h-4Zm-4.25.55a32,32,0,0,0,3.25-.36V98.94h-3.25Zm-6.23,14.07.22-15.73c.88.41,2.36,1.09,3,1.43a5.16,5.16,0,0,0,2,.26v14Z" transform="translate(-190.66 -36.58)"/></g></svg>